<svg xmlns="http://www.w3.org/2000/svg" width="110" height="45.454" viewBox="0 0 110 45.454">
  <g id="bg_active_menu_110px" transform="translate(142.68 -329.075) rotate(90)">
    <path id="Path_3565" data-name="Path 3565" d="M373.639,32.72c.07.4-.223.463-.491.358-.659.64-1.625.481-1.525.019-.783.044-.586.351-.98-.122-.081-.619-.312-.06-.562-.124-.379-.292-1.064.36-1.459-.025a4.328,4.328,0,0,1-2.444.146,6.1,6.1,0,0,0-1.7.75c-.592-.268-1.264.438-1.866-.017-.729.4-1.45-.239-2.181.256-.356.028-.648-.435-1,.084-.129.361-.313-.457-.437.076-.185-.438-.277.4-.478.4a1.469,1.469,0,0,1-1.952-.182c-.411-.237-1.111.255-1.5.065-.333-.036-.613-.509-.982.292-.253-.124-.509.465-.762-.01-.458.979-.842-.4-1.267-.245-.189.89-.386-1.076-.575-.158-.269-.4-.423-.507-.7-.344-.765.048-1.585.493-2.358.008-.626-.756-1.253-.707-1.879,0-.492.064-.986.619-1.479.01a3.878,3.878,0,0,0-1.479,0c-.47.171-.245-.06-.519-.358-.184-1.622-.727-.171-.957-.019-.491-.127-.693.069-1.143.364-.273.184-.537-.591-.809.124-.534.112-.929.825-1.591.127-.387-.275-.326.006-.836.089-.033-.239-.287-.084-.4.027-.254-.606.063.206-.311.347a1.415,1.415,0,0,1-1.621.27c-.277-.347-.562.8-.782-.284-.73.328-.79-.395-1.16-.082a2.369,2.369,0,0,0-2.173,0c-.961.408-1.272.408-1.7,0-.506-.371-.426-.184-.511.163V142.169c.414-.344.216-.317.9-.245.461-.663.709.279,1.036-.083.276.609,1-.676,1.2.012.611-.15.692-.471,1.241-.388a1.164,1.164,0,0,0,.733.064.75.75,0,0,0,.518-.361c.26-.908.315-.989.381.169.086.124-.229.652.182.461.457.388.343-.3.991.376.4,0,.818.229,1.1-.069.239-.223.478-.949.717,0,.24.089.48-.1.72,0,.422.063.932.383,1.345-.015.23-1.55.279-.6.463-.45.109.127.236.182.358-.186a6.224,6.224,0,0,1,1.766-.4c.292-.089.395.127.643.3.415.324.91-.382,1.388.5.109.6.248-.55.361-.032a3.136,3.136,0,0,0,1.273.418c.266.344.5-.247.771.115.279-.243.606-.019.875-.275.334.085.48.093.847-.5.208-.373.417-.558.627,0,.167.095.481-.34.632.012.091.344.142.8.217.353.117.529.429.488.589.435.241-.431.529.252.757-.078.224.085.441-.446.675-.065a8.865,8.865,0,0,1,1.831,0c.257.044.331-.093.522-.163.021.9.042-.029.062-.182.094.054.194.154.3-.054.168-.306.336.235.5,0,.228.55.426-.049.6-.467a4.293,4.293,0,0,0,.871-.573c.4-.085.832.2,1.235,0a2.82,2.82,0,0,1,1.723-.27c.343-.438.569.011.924-.261.444.448.887-.279,1.331,0,.324-.287,1.172.119,1.315-.375.014-.173.473-.034.541-.027.253-.829.4-.911.654-.223.188-.378.536-.182.523-.434.217-.285.638.235,1.023.038,0-.558.286.054.476.1-.084,1.313.4-1.064.363.2.337-.195.628.591.848.188.33-.239.423.137.5.349.129-.311.562.087.611.052.651.133,1.3-.279,1.57-.006.214.5.686.334.9.365-.365,1.746.342.25.07.19.072-1.147.228.767.244.287.445.193,0-.544.652.247.622.868.776.3.574.375-.355-.16-.01-.582.165.222.179-.228.2-.082.193.049v-.025c.291.2.263.021.579.2.024.767.136.795.458.353V32.762A1.137,1.137,0,0,1,373.639,32.72Z" fill="#fff"/>
  </g>
</svg>
