<svg xmlns="http://www.w3.org/2000/svg" width="207.828" height="50.224" viewBox="0 0 207.828 50.224">
  <g id="bg_price" transform="translate(240.506 -329.074) rotate(90)">
    <path id="Path_3565" data-name="Path 3565" d="M378.3,32.757c.077.764-.246.876-.542.676-.728,1.209-1.795.911-1.685.035-.865.083-.647.664-1.083-.231-.089-1.172-.345-.114-.621-.235-.419-.553-1.175.68-1.612-.048a2.932,2.932,0,0,1-2.7.277c-.6.133-1.227.864-1.872,1.417-.654-.506-1.4.828-2.061-.033-.8.762-1.6-.452-2.409.485-.393.052-.716-.822-1.1.158-.142.681-.346-.862-.483.144-.2-.828-.306.762-.528.762-.654.857-1.525.691-2.156-.345-.454-.449-1.227.481-1.652.123-.368-.069-.677-.961-1.085.551-.279-.235-.562.88-.842-.019-.506,1.85-.93-.755-1.4-.462-.209,1.681-.426-2.033-.635-.3-.3-.762-.467-.957-.778-.643-.845.09-1.751.932-2.6.015-.692-1.426-1.384-1.336-2.076,0-.544.121-1.089,1.167-1.634.019-.545-.019-1.09-.339-1.634-.006-.519.323-.271-.114-.573-.676-.2-3.065-.8-.321-1.057-.035-.542-.241-.766.127-1.262.687-.3.347-.593-1.117-.894.235-.59.212-1.026,1.561-1.757.239-.427-.516-.36.012-.923.169-.036-.452-.317-.158-.444.05-.281-1.145.07.395-.344.656-.406.624-1.12,1.151-1.791.51-.306-.656-.621,1.5-.864-.537-.806.62-.873-.745-1.281-.154-1.085-.689-2.066-.57-2.4,0-1.061.77-1.4.772-1.878,0-.559-.7-.471-.347-.564.308V239.54c.457-.647.239-.6.995-.462.509-1.253.783.527,1.144-.156.3,1.151,1.1-1.278,1.331.023.675-.283.764-.889,1.371-.733.475.481,1.141.06,1.382-.562.287-1.715.348-1.869.421.32.1.235-.253,1.232.2.872.505.733.379-.574,1.1.71.443-.008.9.433,1.209-.135.264-.422.528-1.794.792,0,.265.169.53-.183.795,0,.466.119,1.029.724,1.486-.029.254-2.928.308-1.126.511-.851.12.241.261.343.4-.35.644-.239,1.279-.847,1.951-.755.323-.167.436.241.71.574.458.612,1-.722,1.533.943.12,1.14.274-1.041.4-.06a2.647,2.647,0,0,0,1.406.789c.294.653.547-.468.852.218.308-.458.669-.035.966-.522.369.16.53.175.936-.953.23-.7.461-1.055.692.006.185.179.531-.643.7.023.1.653.157,1.513.24.666.129,1,.474.922.651.822.266-.814.584.475.836-.148.247.162.487-.843.746-.123a5.755,5.755,0,0,1,2.022,0c.284.083.366-.175.577-.308.023,1.708.046-.054.069-.343.1.1.214.291.331-.1.186-.578.371.445.557,0,.252,1.04.471-.092.657-.882a5.511,5.511,0,0,0,.962-1.084c.441-.16.919.37,1.364,0,.63-.687,1.265-.524,1.9-.51.379-.828.629.021,1.021-.493.49.847.98-.527,1.47,0,.358-.543,1.295.225,1.453-.708.016-.327.523-.065.6-.05.28-1.567.445-1.721.722-.422.208-.714.592-.345.578-.82.24-.539.705.445,1.13.071-.005-1.053.316.1.526.185-.093,2.481.445-2.01.4.383.372-.368.694,1.117.937.356.365-.45.467.254.551.658.142-.587.621.164.675.1.719.252,1.441-.527,1.734-.012.236.953.758.631.995.689-.4,3.3.378.472.077.358.08-2.168.252,1.45.269.543.491.364,0-1.028.72.466.687,1.64.857.566.634.708-.392-.3-.011-1.1.182.42.2-.431.222-.154.213.092l.005-.048c.321.375.291.039.64.379.026,1.448.15,1.5.506.666V32.84C378.967,33.02,378.457,33.013,378.3,32.757Z" fill="#750d1c"/>
  </g>
</svg>
