<svg xmlns="http://www.w3.org/2000/svg" xmlns:xlink="http://www.w3.org/1999/xlink" width="1920.999" height="221" viewBox="0 0 1920.999 221">
  <defs>
    <linearGradient id="linear-gradient" x1="-14.916" y1="0.5" x2="41.735" y2="0.5" gradientUnits="objectBoundingBox">
      <stop offset="0" stop-color="#6f6f6f"/>
      <stop offset="0.108" stop-color="#5d5d5d"/>
      <stop offset="0.22" stop-color="#363636"/>
      <stop offset="0.338" stop-color="#131313"/>
      <stop offset="0.402" stop-color="#060606"/>
      <stop offset="0.465" stop-color="#0c0c0c"/>
      <stop offset="0.556" stop-color="#1e1e1e"/>
      <stop offset="0.66" stop-color="#3c3c3c"/>
      <stop offset="0.752" stop-color="#5d5d5d"/>
      <stop offset="1" stop-color="#6f6f6f"/>
    </linearGradient>
  </defs>
  <g id="bg_scroll_detail_booking" transform="translate(6123.5 -4500.5)">
    <g id="Group_3579" data-name="Group 3579" transform="translate(-14556.002 -4716)">
      <path id="Path_3503" data-name="Path 3503" d="M0,0H1920V220H0Z" transform="translate(8433.002 9217)" fill="#955c2a"/>
      <path id="Intersection_1" data-name="Intersection 1" d="M1492.484,240c.11-3.551.2-7.147.281-10.764.928-38.364,1.886-78.034,28.685-104.276,14.612-14.31,34.78-21.8,54.285-29.047,25.21-9.365,49.023-18.211,59.873-40.532,5.322-10.955,6.206-22.852,5.863-35.383h5.4c.328,12.971-.638,25.887-6.4,37.751-11.8,24.263-37.75,33.906-62.852,43.232-18.977,7.053-38.6,14.341-52.388,27.842-25.23,24.707-26.16,63.257-27.059,100.546-.085,3.572-.174,7.122-.28,10.629Zm-24.358,0c7.19-18.651,9.831-38.289,10.8-50.092q.415-4.969.8-10.01c1.193-15.35,2.437-31.22,5.575-46.166,5.077-24.02,13.857-40.922,27.63-53.2,15.06-13.352,35.483-19.93,55.232-26.287,7.684-2.474,15.628-5.035,22.948-7.918,17.925-7.132,28.934-15.266,35.614-26.322h3.13q-.3.533-.615,1.064c-8.955,15.084-24.548,22.766-37.134,27.774-7.4,2.921-15.386,5.49-23.112,7.978-19.484,6.27-39.636,12.761-54.263,25.734-13.321,11.878-21.835,28.314-26.788,51.74-3.1,14.776-4.333,30.553-5.524,45.822q-.385,5.045-.8,10.023c-.965,11.777-3.577,31.189-10.617,49.866Zm-133.915,0c-17.575-47.791-39.757-75.95-66.007-83.746-23.908-7.1-52.448,2.245-84.857,27.762-37.032,29.163-71.918,47.6-107.958,55.984h-37.895c48.757-1.869,93.074-21.3,142.507-60.232,33.872-26.669,64.064-36.339,89.744-28.7,12.91,3.836,24.667,11.831,35.378,24.124-14.036-23.632-29.109-37.634-46.293-43.311-20.984-6.952-45.818-1.7-75.929,16-4.917,2.889-10.112,6.268-15.447,10.039-65.423,46.635-123.259,59.794-193.394,43.987A353.354,353.354,0,0,1,937.14,191.3c-18.562-6.352-36.226-13.861-53.318-21.126-40.224-17.1-78.212-33.25-125.056-34.27-30.915-.693-58,5.4-86.686,11.83-7.147,1.606-14.313,3.208-21.559,4.707-48.489,10.03-121.29,23.4-193.4,23.785-21.046.1-42.646-.805-63.031-1.759l-3.517-.158c-7.324-.337-14.406-.738-21.361-1.128-15.134-.857-29.425-1.662-44.483-1.764-16.1-.11-34.889-.116-53.966,1.187-38.567,2.649-89.9,13.287-115.374,48.931A86.2,86.2,0,0,0,145.4,240h-2.845a88.4,88.4,0,0,1,10.635-20.037c26.093-36.507,78.238-47.367,117.387-50.058,19.178-1.31,38.024-1.3,54.172-1.193,15.13.1,29.453.913,44.617,1.769,6.948.391,14.018.786,21.331,1.129l3.519.158c20.353.948,41.969,1.847,62.893,1.753C528.973,173.138,601.6,159.8,649.971,149.8c7.233-1.5,14.388-3.1,21.52-4.7,27.582-6.187,56.093-12.587,87.337-11.9,47.362,1.031,85.586,17.284,126.052,34.488,17.046,7.245,34.669,14.737,53.137,21.057a351.083,351.083,0,0,0,36.639,10.53c69.29,15.591,126.49,2.587,191.231-43.556,5.4-3.82,10.66-7.237,15.638-10.163,30.824-18.123,56.4-23.435,78.152-16.243,21.453,7.087,39.618,26.5,56.438,60.575q11.835,18.213,21.839,44.654,1.673,2.763,3.433,5.461Zm-355.181,0q-15.736-3.2-32.328-8.316c-20.289-6.233-39.392-13.965-57.867-21.436-40.047-16.2-78.146-31.52-124.366-31.2-46.536.293-91.693,7.592-135.36,14.646-66.932,10.813-136.156,22-210.126,7.5-11.958-2.349-24.043-5.207-35.726-7.971-27.627-6.536-56.192-13.295-84.814-13.589-36.3-.4-82.492,12.526-103.021,49.892A82.7,82.7,0,0,0,190.6,240h-5.768a89.239,89.239,0,0,1,5.85-13.077c21.677-39.461,69.855-53.06,107.817-52.7,29.228.305,58.092,7.135,86.006,13.741,11.633,2.75,23.661,5.6,35.519,7.921,73.008,14.313,138.69,3.709,208.22-7.533,43.87-7.079,89.237-14.414,136.189-14.709,47.573-.161,85.872,15.186,126.427,31.594,18.372,7.426,37.366,15.109,57.429,21.278,26.252,8.067,50.414,12.626,73.4,13.486ZM97.485,240a92.18,92.18,0,0,1,17.035-27.638c28.752-31.738,79.071-41.17,128.155-48.114,18.943-2.682,37.382-5.368,54.8-8.788a640.249,640.249,0,0,1,64.145-9.422l3.618-.345c15.1-1.346,31.515-1.719,47.391-2.083,6.512-.147,13.043-.294,19.51-.511,72.121-2.381,145.49-12.328,206.582-28.009,10.044-2.581,19.938-5.643,29.509-8.611,26.279-8.136,53.429-16.548,84.977-15.07,47.56,2.23,85.935,19.46,126.56,37.707,15.564,6.994,31.661,14.216,48.37,20.566,13.027,4.938,24.625,8.758,35.449,11.687,68.049,18.406,124.087,9.2,187.364-30.762,5.25-3.325,10.524-6.372,15.67-9.072,75.83-39.7,107.772-14.776,140.173,45.129,21.524,39.78,61.3,81.039,102.623,66.342,36.2-12.86,49.691-58.5,54.634-94.523l.905-6.68c2.111-15.74,4.3-32.018,8.591-47.127,6.484-22.644,16-38.384,29.931-49.553,8.308-6.655,18.057-11.36,28.378-15.122h8.4c-12.847,4.1-25.1,9.237-35.089,17.237-13.473,10.8-22.7,26.106-29.021,48.179-4.234,14.923-6.405,31.1-8.506,46.745l-.907,6.691c-5.045,36.766-18.927,83.388-56.411,96.705-42.924,15.245-83.877-26.889-105.9-67.605-31.58-58.378-62.675-82.692-136.542-44.017-5.077,2.657-10.287,5.671-15.484,8.955-63.977,40.411-120.654,49.7-189.515,31.088-10.909-2.948-22.581-6.8-35.7-11.766-16.789-6.377-32.923-13.622-48.524-20.631-40.385-18.137-78.53-35.266-125.573-37.473-31.1-1.464-56.8,6.516-84.052,14.954-9.6,2.976-19.531,6.05-29.642,8.645-61.276,15.726-134.846,25.7-207.16,28.1-6.479.215-13.01.363-19.54.515-15.827.359-32.2.733-47.21,2.069l-3.6.346A637.807,637.807,0,0,0,298,158.11c-17.487,3.438-35.969,6.132-54.949,8.817-48.589,6.875-98.385,16.184-126.535,47.249A88.983,88.983,0,0,0,100.42,240Zm-46.324,0c5.833-13.392,13.581-25.381,24.7-35.22,28.664-25.371,72.088-33.5,114.085-41.36,8.642-1.617,16.806-3.146,24.84-4.826,21.109-4.406,39.245-9.755,55.446-16.339l6.256-2.559c17.716-7.24,34.446-14.087,56.08-19.206,1.227-.288,2.462-.58,3.717-.845,19.088-4.119,40.882-5.317,61.963-6.468l8.932-.5c60.148-3.469,148.421-10.587,220.3-32.3,11.562-3.492,22.735-7.882,33.547-12.122,26.246-10.3,53.35-20.956,86.569-18.644,47.893,3.335,86.516,21.739,127.4,41.227,13.972,6.661,28.418,13.544,43.273,19.783,12.928,5.413,24.134,9.614,34.257,12.839,67.1,21.4,121.975,16.032,183.494-17.976,5.252-2.9,10.539-5.584,15.7-7.967,76.188-35.086,103.015-20.325,137.789,28.5,12.531,17.589,57.077,73.451,104.241,54.056,26.89-11.065,45.547-42.364,55.442-93.022l.689-3.528c3.127-16.09,6.36-32.732,11.918-47.915A138.11,138.11,0,0,1,1468.631,20h3.059a132.87,132.87,0,0,0-7.354,16.547c-5.482,14.977-8.69,31.506-11.8,47.5l-.684,3.528c-10.081,51.605-29.281,83.574-57.072,95-49.022,20.187-94.651-36.984-107.47-54.983-35.438-49.758-61.081-61.405-134.454-27.613-5.11,2.352-10.328,5-15.53,7.876C1075.1,142.26,1019.587,147.691,951.7,126.042c-10.194-3.251-21.474-7.48-34.478-12.928-14.914-6.259-29.393-13.162-43.393-19.831-40.65-19.373-79.042-37.671-126.429-40.97-32.564-2.284-58.229,7.8-85.384,18.459-10.86,4.263-22.092,8.671-33.756,12.2-72.153,21.8-160.64,28.936-220.92,32.41l-8.944.5c-20.973,1.147-42.664,2.332-61.542,6.409q-1.858.4-3.664.833c-21.425,5.071-37.3,11.562-55.672,19.082l-6.262,2.552c-16.359,6.652-34.649,12.043-55.919,16.484-8.062,1.685-16.237,3.215-24.893,4.838C148.808,173.87,105.76,181.93,77.652,206.8c-10.464,9.261-17.883,20.558-23.524,33.2ZM3.384,240c8.1-17.051,18.557-31.859,33.818-42.784,27.72-19.854,65.847-27.107,102.714-34.124,15.794-3.005,32.119-6.115,46.986-10.148,21.312-5.787,39.67-13.592,56.131-23.865,4.582-2.86,8.952-5.727,13.267-8.554,14.549-9.538,28.291-18.547,47.228-25.564,1.255-.461,2.521-.922,3.816-1.354,21.145-7.109,46.378-9.1,70.774-11.025l8.52-.678c71.965-5.722,161.526-12.848,229.6-36.233C628.939,41.3,641,35.624,652.657,30.123,660.131,26.6,667.49,23.129,674.943,20h7.245c-9.553,3.7-18.871,8.089-28.372,12.569-11.73,5.53-23.86,11.251-36.7,15.661-68.4,23.5-158.144,30.635-230.265,36.371l-8.519.681c-24.235,1.911-49.293,3.887-70.124,10.892-1.269.421-2.51.868-3.731,1.32-18.66,6.912-32.272,15.839-46.692,25.293-4.33,2.838-8.721,5.716-13.323,8.588-16.682,10.414-35.28,18.321-56.849,24.181-14.968,4.062-31.343,7.178-47.186,10.193-36.585,6.96-74.412,14.163-101.651,33.663C24.319,209.762,14.246,223.794,6.4,240ZM0,240v-6.214Q1.552,236.875,2.956,240Zm0-51.173c27.082-15.253,61.261-21.255,94.334-27.067,21.917-3.85,44.58-7.833,64.7-14.465,21.921-7.234,40.514-17.5,56.837-31.379,5.36-4.551,10.394-9.258,15.259-13.8,13-12.159,25.292-23.633,43.393-32.676,1.275-.634,2.57-1.258,3.911-1.863,22.524-10.148,50.49-12.921,77.538-15.613l1.3-.127c10.892-1.083,22.171-2.126,33.705-3.189C452.276,42.981,520.608,36.665,577.9,20h9.323c-59.223,18.7-131.5,25.379-196,31.34-11.532,1.068-22.8,2.109-33.68,3.186l-1.3.131c-26.83,2.665-54.573,5.422-76.7,15.392-1.3.585-2.564,1.193-3.811,1.815-17.75,8.868-29.892,20.215-42.746,32.229-4.9,4.568-9.95,9.293-15.355,13.886-16.6,14.115-35.487,24.543-57.751,31.887-20.3,6.694-43.061,10.694-65.073,14.558-33.4,5.866-67.926,11.934-94.8,27.522Zm0-20.079c16.589-3.9,33.9-6.544,50.9-9.145,27.386-4.187,55.7-8.523,80.269-17.957a149.137,149.137,0,0,0,57.59-38.9C194.426,96.6,199.6,90.147,204.6,83.9c11.375-14.2,23.141-28.877,40.934-39.978q1.945-1.216,4-2.374c23.587-13.188,55.039-16.88,82.791-20.136q6.2-.728,12.545-1.417H371.1c-13.322,1.334-26.1,2.656-38.456,4.108-28.849,3.375-58.672,6.878-81.786,19.808-1.337.746-2.625,1.521-3.886,2.3-17.4,10.864-28.5,24.712-40.255,39.376-5.037,6.278-10.237,12.769-15.962,18.988a151.926,151.926,0,0,1-58.613,39.587c-24.843,9.541-53.3,13.9-80.833,18.109-17.15,2.623-34.617,5.294-51.3,9.25Zm0-10.864q4.3-.551,8.585-1.091c32.537-4.119,66.182-8.379,94.721-20.792,23.477-10.217,42.573-25.4,58.37-46.427,5.8-7.717,10.918-15.912,15.867-23.837C187.611,49.615,198.011,32.964,214.491,20h4.483q-.4.29-.795.583c-17.286,12.868-27.514,29.25-38.344,46.59-4.981,7.975-10.126,16.221-16,24.035-16.085,21.4-35.531,36.868-59.45,47.271-28.894,12.571-62.736,16.854-95.464,21q-4.446.56-8.921,1.134Zm0-8.032c26.6-3.37,52.676-8.506,75.452-19.5,24.319-11.738,43.673-29.389,59.164-53.959,5.848-9.284,10.809-19.218,15.607-28.826,4.611-9.236,9.3-18.621,14.855-27.566h3.152c-5.753,9.072-10.6,18.784-15.589,28.773-4.823,9.671-9.815,19.667-15.74,29.061-15.766,25.015-35.483,42.985-60.267,54.954C53.41,144,26.944,149.183,0,152.581Zm0-8.808c16.823-3.508,32.916-8.59,47.61-16.342C72.787,111.422,92.4,91.3,107.573,63.192c5.854-10.844,10.595-22.527,15.18-33.821,1.265-3.114,2.536-6.245,3.836-9.372h2.932c-1.449,3.466-2.859,6.939-4.261,10.392-4.613,11.359-9.385,23.108-15.305,34.081-15.437,28.6-35.411,49.086-61.083,62.625C33.759,135.071,17.237,140.256,0,143.809ZM1891.159,89.55c-5.26-10.723-10.368-21.892-15.313-32.691-5.628-12.3-11.308-24.709-17.386-36.86h6.043c5.656,11.44,10.98,23.074,16.259,34.61,4.93,10.77,10.023,21.9,15.251,32.555A382.677,382.677,0,0,0,1920,128.975v9.5A405.76,405.76,0,0,1,1891.159,89.55Zm-620.912-2.3c-36.207-36.741-55.575-41.9-132.423-11.234-5.134,2.056-10.378,4.34-15.579,6.8-59.571,28.192-115.623,29.824-181.732,5.284-9.545-3.542-20.113-8.017-33.256-14.078-12.941-6-25.625-12.436-37.892-18.663-26.776-13.6-52.586-26.7-80.593-35.366h8.734c25.169,8.628,48.728,20.587,73.084,32.951,12.246,6.22,24.91,12.645,37.8,18.621,13.077,6.03,23.588,10.482,33.063,14,65.38,24.267,120.779,22.666,179.635-5.2,5.247-2.482,10.544-4.789,15.735-6.863,73.841-29.461,96.61-27.472,135.352,11.85,41.555,42.151,76.208,55.828,105.909,41.787,33.334-15.752,48.066-59.777,56.249-91.524l.148-.585c1.285-4.984,2.583-10.02,3.964-15.04h2.806c-1.45,5.24-2.807,10.5-4.15,15.713l-.147.585c-8.32,32.275-23.353,77.063-57.716,93.293a57.046,57.046,0,0,1-24.653,5.6C1329.685,135.194,1301.858,119.328,1270.247,87.254ZM0,128.45a148.35,148.35,0,0,0,19.765-9.4c26.022-14.779,45.9-37.374,60.775-69.075A292.313,292.313,0,0,0,92.214,20H95.07A301.585,301.585,0,0,1,82.993,51.124C67.871,83.351,47.628,106.339,21.1,121.409A149.369,149.369,0,0,1,0,131.3Zm0-21.977C20.869,91.358,38.7,69.1,52.267,36.24,54.442,30.971,56.394,25.526,58.2,20h5.689c-1.992,6.214-4.161,12.356-6.618,18.311C42.678,73.652,22.97,97.119,0,112.75ZM1892.2,54.032c-6.594-10.949-12.918-22.59-19.05-34.034h3.07c5.9,11,11.982,22.149,18.3,32.638A441.25,441.25,0,0,0,1920,90.38v4.591A439.39,439.39,0,0,1,1892.2,54.032Zm-632.859-2.957c-2.165-1.489-4.2-2.884-6.077-4.147-38.684-25.96-54.491-20.608-130.467,5.136-5.224,1.77-10.486,3.7-15.636,5.722C1049.5,80.447,994.653,78.1,929.332,50.162c-11.35-4.854-22.563-10.426-32.04-15.233-9.529-4.858-18.971-9.947-28.16-14.93h5.683c7.78,4.206,15.717,8.446,23.707,12.518,9.431,4.789,20.6,10.336,31.871,15.158,64.62,27.634,118.828,29.968,175.779,7.593,5.187-2.038,10.49-3.977,15.756-5.764,77.016-26.1,93.053-31.52,132.838-4.823,1.889,1.266,3.929,2.671,6.1,4.164,24.422,16.8,65.293,44.922,101.548,25.374,19.912-10.73,33.357-30.847,43.716-54.22h2.954c-10.631,24.313-24.518,45.359-45.388,56.606a58.178,58.178,0,0,1-28.025,7C1306.624,83.605,1278.185,64.041,1259.338,51.076ZM1892.687,20h3.364Q1908.3,36.507,1920,50v4.1Q1906.7,39,1892.687,20ZM935.02,20h6.974c54.079,22.213,100.922,25.262,149.265,10.166,5.1-1.594,10.258-3.121,15.773-4.665,6.755-1.891,13.016-3.731,18.84-5.5h9.157c-8.1,2.547-17.129,5.268-27.267,8.105-5.492,1.541-10.625,3.059-15.7,4.645a200.665,200.665,0,0,1-60.323,9.479C1001.024,42.229,969.5,34.9,935.02,20Zm331.792,0h7.039c22.929,9.206,49.5,15.613,72.892,1.307q1.042-.637,2.06-1.307h4.744q-2.616,1.913-5.391,3.613a60.569,60.569,0,0,1-32.255,8.814C1298.9,32.427,1281.886,26.482,1266.813,20ZM0,22.04c.1-.163.2-.33.3-.494q.458-.772.909-1.547H4.326q-.838,1.468-1.7,2.924Q1.336,25.093,0,27.218Z" transform="translate(8433.001 9197.001)" stroke="rgba(0,0,0,0)" stroke-miterlimit="10" stroke-width="1" opacity="0.25" fill="url(#linear-gradient)" style="mix-blend-mode: screen;isolation: isolate"/>
    </g>
  </g>
</svg>
