<svg xmlns="http://www.w3.org/2000/svg" width="114.158" height="66.592" viewBox="0 0 114.158 66.592">
  <g id="ic_167partners" transform="translate(0 -106.666)">
    <g id="Group_174" data-name="Group 174" transform="translate(0 106.666)">
      <g id="Group_173" data-name="Group 173">
        <path id="Path_133" data-name="Path 133" d="M27.588,111.9c-3.805-3.805-19.978-4.757-25.21-5.232a1.748,1.748,0,0,0-1.427.476,3.607,3.607,0,0,0-.951,1.9v42.809a2.247,2.247,0,0,0,2.378,2.378h14.27a2.616,2.616,0,0,0,2.378-1.427c0-1.427,8.562-26.637,9.513-39A1.9,1.9,0,0,0,27.588,111.9Z" transform="translate(0 -106.666)" fill="#955c2a"/>
      </g>
    </g>
    <g id="Group_176" data-name="Group 176" transform="translate(40.37 116.655)">
      <g id="Group_175" data-name="Group 175">
        <path id="Path_134" data-name="Path 134" d="M219.174,158.126c-4.757-1.427-9.037-3.33-12.843-4.756-8.562-3.805-12.367-1.9-19.978,5.708-3.33,3.33-5.708,8.086-5.232,9.989,0,.476,0,.476.951.951,2.378.951,5.708,1.427,9.037-3.805a2.471,2.471,0,0,1,1.9-.951c1.427,0,1.9-.476,3.329-.951a23.194,23.194,0,0,1,3.33-1.427h.951c.476,0,1.427.476,1.9.476,2.379,2.379,6.66,5.708,10.94,9.513,6.659,5.232,13.318,10.94,16.648,15.221h.476C227.261,178.579,221.553,162.407,219.174,158.126Z" transform="translate(-181.061 -151.467)" fill="#955c2a"/>
      </g>
    </g>
    <g id="Group_178" data-name="Group 178" transform="translate(80.862 111.423)">
      <g id="Group_177" data-name="Group 177">
        <path id="Path_135" data-name="Path 135" d="M393.584,128c-18.551,0-29.015,4.757-29.491,4.757l-1.427,1.427a2.86,2.86,0,0,0,.476,1.9C366,140.843,375.509,167,376.936,173.663a3.16,3.16,0,0,0,2.378,1.9h14.27a2.247,2.247,0,0,0,2.378-2.378V130.378A2.247,2.247,0,0,0,393.584,128Z" transform="translate(-362.666 -128)" fill="#955c2a"/>
      </g>
    </g>
    <g id="Group_180" data-name="Group 180" transform="translate(24.734 120.936)">
      <g id="Group_179" data-name="Group 179">
        <path id="Path_136" data-name="Path 136" d="M172.294,207.768c-1.9-4.281-9.989-10.464-17.124-16.172-3.805-3.33-7.61-6.184-10.464-8.562-.476.476-1.427.476-1.427.951-1.427.476-1.9.951-3.805.951-3.805,4.757-8.562,6.659-13.794,4.757a5.623,5.623,0,0,1-4.281-4.281c-.951-4.757,3.33-11.416,6.659-14.745h-9.513a242.514,242.514,0,0,1-7.61,28.539c1.9,1.9,3.805,4.281,5.232,5.232,9.037,7.61,19.5,15.221,21.4,16.648a13.52,13.52,0,0,0,5.708,1.9h1.427l-7.611-7.611a2.354,2.354,0,0,1,3.33-3.329l9.513,9.513c.951.951,1.9.476,2.854.476,1.427-.476,1.9-1.427,2.378-2.854l-10.94-10.94a2.354,2.354,0,1,1,3.33-3.329l11.891,11.891c.476.476,2.378.476,3.805,0,.476-.476,1.427-.951,1.9-1.9L151.84,201.585a2.354,2.354,0,0,1,3.33-3.329l13.794,13.794c.951.476,1.9,0,2.854-.476A3.229,3.229,0,0,0,172.294,207.768Z" transform="translate(-110.934 -170.667)" fill="#955c2a"/>
      </g>
    </g>
  </g>
</svg>
