<svg xmlns="http://www.w3.org/2000/svg" width="34.483" height="50" viewBox="0 0 34.483 50">
  <g id="ic_choduyet" transform="translate(-96 -24)">
    <path id="Path_4315" data-name="Path 4315" d="M156.785,352c-.346,1.1-1.594,2.073-3.483,2.684-4.8,1.552-7.764,3.766-8.339,6.171h23.643c-.575-2.406-3.542-4.62-8.339-6.171C158.378,354.073,157.131,353.1,156.785,352Z" transform="translate(-43.543 -293.054)" fill="#955c2a"/>
    <path id="Path_4316" data-name="Path 4316" d="M160.1,128a19.475,19.475,0,0,0,6.685,7.366,8.059,8.059,0,0,1,3.461,5.513,8.059,8.059,0,0,1,3.461-5.513A19.475,19.475,0,0,0,180.392,128Z" transform="translate(-57.005 -92.895)" fill="#955c2a"/>
    <path id="Path_4317" data-name="Path 4317" d="M118.624,45.283c6.17-3.945,10.135-10.081,10.135-16.973h0a1.724,1.724,0,0,0,1.724-1.724V24H96v2.478A1.83,1.83,0,0,0,97.724,28.3v.005c0,6.892,3.965,13.028,10.135,16.973a4.414,4.414,0,0,1,0,7.434C101.689,56.662,97.724,62.8,97.724,69.69V69.7A1.83,1.83,0,0,0,96,71.522V74h34.483V71.414a1.724,1.724,0,0,0-1.724-1.724h0c0-6.892-3.965-13.028-10.135-16.973A4.414,4.414,0,0,1,118.624,45.283ZM114.866,49a6.108,6.108,0,0,0,2.829,5.17c5.935,3.795,9.339,9.452,9.339,15.52H99.448c0-6.068,3.4-11.725,9.339-15.52a6.138,6.138,0,0,0,0-10.339c-5.935-3.795-9.339-9.452-9.339-15.52h27.586c0,6.068-3.4,11.725-9.339,15.52A6.108,6.108,0,0,0,114.866,49Z" transform="translate(0 0)" fill="#955c2a"/>
    <path id="Path_4318" data-name="Path 4318" d="M249.33,267.044a.83.83,0,0,0,.83-.83v-.884a.83.83,0,0,0-1.66,0v.884A.83.83,0,0,0,249.33,267.044Z" transform="translate(-136.089 -214.621)" fill="#955c2a"/>
    <path id="Path_4319" data-name="Path 4319" d="M248.5,306.214a.83.83,0,0,0,1.66,0v-.884a.83.83,0,0,0-1.66,0Z" transform="translate(-136.089 -250.317)" fill="#955c2a"/>
  </g>
</svg>
