<svg id="ic_date_home" xmlns="http://www.w3.org/2000/svg" width="21.51" height="21.997" viewBox="0 0 21.51 21.997">
  <path id="Path_3546" data-name="Path 3546" d="M119.776,258.741a.5.5,0,0,0-.5-.5h-1.742a.5.5,0,0,0-.5.5v1.742a.5.5,0,0,0,.5.5h1.742a.5.5,0,0,0,.5-.5v-1.742Z" transform="translate(-112.005 -246.605)" fill="#333"/>
  <path id="Path_3547" data-name="Path 3547" d="M216.41,258.741a.5.5,0,0,0-.5-.5h-1.743a.5.5,0,0,0-.5.5v1.742a.5.5,0,0,0,.5.5h1.743a.5.5,0,0,0,.5-.5Z" transform="translate(-204.285 -246.605)" fill="#333"/>
  <path id="Path_3548" data-name="Path 3548" d="M313.039,258.741a.5.5,0,0,0-.5-.5H310.8a.5.5,0,0,0-.5.5v1.742a.5.5,0,0,0,.5.5h1.742a.5.5,0,0,0,.5-.5Z" transform="translate(-296.559 -246.605)" fill="#333"/>
  <path id="Path_3549" data-name="Path 3549" d="M119.776,355.374a.5.5,0,0,0-.5-.5h-1.742a.5.5,0,0,0-.5.5v1.742a.5.5,0,0,0,.5.5h1.742a.5.5,0,0,0,.5-.5v-1.742Z" transform="translate(-112.005 -338.884)" fill="#333"/>
  <path id="Path_3550" data-name="Path 3550" d="M216.41,355.374a.5.5,0,0,0-.5-.5h-1.743a.5.5,0,0,0-.5.5v1.742a.5.5,0,0,0,.5.5h1.743a.5.5,0,0,0,.5-.5Z" transform="translate(-204.285 -338.884)" fill="#333"/>
  <path id="Path_3551" data-name="Path 3551" d="M313.039,355.374a.5.5,0,0,0-.5-.5H310.8a.5.5,0,0,0-.5.5v1.742a.5.5,0,0,0,.5.5h1.743a.5.5,0,0,0,.5-.5v-1.742Z" transform="translate(-296.559 -338.884)" fill="#333"/>
  <path id="Path_3552" data-name="Path 3552" d="M25.006,54.152v2.661a2.173,2.173,0,0,1-2.178,2.172H21.454a2.184,2.184,0,0,1-2.191-2.172v-2.67H13.069v2.67a2.184,2.184,0,0,1-2.191,2.172H9.5a2.173,2.173,0,0,1-2.178-2.172V54.152a1.981,1.981,0,0,0-1.915,1.97V71.716A1.982,1.982,0,0,0,7.383,73.7H24.949a1.984,1.984,0,0,0,1.972-1.983V56.122A1.981,1.981,0,0,0,25.006,54.152Zm-.638,16.593a.852.852,0,0,1-.852.852H8.779a.852.852,0,0,1-.852-.852V62.69a.852.852,0,0,1,.852-.853H23.515a.853.853,0,0,1,.852.853v8.055Z" transform="translate(-5.411 -51.702)" fill="#333"/>
  <path id="Path_3553" data-name="Path 3553" d="M80.3,5.856h1.359a.747.747,0,0,0,.747-.747V.747A.747.747,0,0,0,81.656,0H80.3a.747.747,0,0,0-.747.747V5.109A.747.747,0,0,0,80.3,5.856Z" transform="translate(-76.209)" fill="#333"/>
  <path id="Path_3554" data-name="Path 3554" d="M345.205,5.856h1.359a.747.747,0,0,0,.747-.747V.747A.747.747,0,0,0,346.564,0h-1.359a.747.747,0,0,0-.747.747V5.109A.747.747,0,0,0,345.205,5.856Z" transform="translate(-329.18)" fill="#333"/>
</svg>
