<svg xmlns="http://www.w3.org/2000/svg" width="45.516" height="45.287" viewBox="0 0 45.516 45.287">
  <g id="ic_history" transform="translate(-1328 -48)">
    <g id="Group_4204" data-name="Group 4204" transform="translate(1328 48)">
      <path id="Path_4450" data-name="Path 4450" d="M780.606,291.281a9.578,9.578,0,1,0,9.578,9.578A9.578,9.578,0,0,0,780.606,291.281Zm0,11.319a1.731,1.731,0,0,1-.63-.122l-3.179,2.544-1.088-1.36,3.182-2.545a1.664,1.664,0,0,1,.845-1.757v-5.466h1.741v5.466a1.736,1.736,0,0,1-.871,3.241Z" transform="translate(-744.668 -265.149)" fill="#fff"/>
      <g id="Group_4203" data-name="Group 4203">
        <path id="Path_4451" data-name="Path 4451" d="M655.863,148.578c0-1.184.068-2.3-.014-3.408a4.06,4.06,0,0,0-4.971-3.609c0,1.066.015,2.15-.005,3.233-.016.819-.508,1.33-1.192,1.243a1.1,1.1,0,0,1-1.031-1.243c0-1.459.008-2.918,0-4.377-.007-.881-.462-1.421-1.151-1.411-.668.01-1.069.506-1.093,1.365-.009.329,0,.658,0,1.073h-2.766c0,1.2.013,2.31-.005,3.422-.01.606-.295,1.143-.926,1.128a2.114,2.114,0,0,1-1.177-.628c-.158-.142-.108-.541-.11-.823-.008-1.344,0-2.689,0-4.033-.005-.954-.441-1.509-1.154-1.5-.688.007-1.078.517-1.109,1.446-.01.3-.029.606-.047.991h-2.719c0,1.2.027,2.312-.009,3.423a1.079,1.079,0,0,1-1.344,1.145,1.158,1.158,0,0,1-.875-1.3c0-1.373.008-2.746,0-4.119,0-1.042-.411-1.6-1.146-1.586-.706.013-1.094.546-1.123,1.534-.008.272-.035.544-.06.9h-2.686c0,1.2.028,2.311-.008,3.419-.032.968-.945,1.549-1.632,1.008a1.833,1.833,0,0,1-.573-1.23c-.069-1.456-.01-2.917-.032-4.375a1.13,1.13,0,0,0-1.112-1.257,1.186,1.186,0,0,0-1.126,1.266c-.019.358,0,.717,0,1.142-1.147,0-2.173-.029-3.2.006a4.1,4.1,0,0,0-4,3.751c-.076,1.107-.014,2.224-.014,3.408Z" transform="translate(-617.42 -139.006)" fill="#fff"/>
        <path id="Path_4452" data-name="Path 4452" d="M617.476,208.519v.982q0,10.465,0,20.929c0,2.944,1.674,4.6,4.643,4.6q9.855,0,19.71,0a12.233,12.233,0,0,1,14.094-14.173q0-5.681,0-11.362v-.979Zm11.516,19.5h-5.061v-5.1h5.061Zm-.015-9.731h-5.034v-5.017h5.048C629.025,214.686,628.977,216.813,628.977,218.289Zm10.251,9.746h-5.061v-5.124h5.061Zm.633-12.948q-1.526,1.555-3.082,3.082a1.159,1.159,0,0,1-1.857-.005c-.51-.5-1.019-1-1.508-1.513a1.108,1.108,0,1,1,1.541-1.591,9.215,9.215,0,0,1,.845,1.107c.965-1.036,1.7-1.86,2.477-2.651.615-.631,1.312-.675,1.79-.165C640.517,213.832,640.454,214.483,639.861,215.088Zm9.583,3.319h-5.061v-5.161h5.061Z" transform="translate(-617.466 -196.59)" fill="#fff"/>
      </g>
    </g>
  </g>
</svg>
