<svg xmlns="http://www.w3.org/2000/svg" width="50.971" height="50.971" viewBox="0 0 50.971 50.971">
  <g id="ic_money_scroll_detail_booking" transform="translate(0.2 0.2)">
    <g id="Group_2611" data-name="Group 2611" transform="translate(0 0)">
      <g id="Group_2610" data-name="Group 2610">
        <path id="Path_3544" data-name="Path 3544" d="M43.165,7.406A25.285,25.285,0,0,0,7.406,43.165,25.285,25.285,0,0,0,43.165,7.406Zm-17.879,40.2A22.322,22.322,0,1,1,47.607,25.285,22.347,22.347,0,0,1,25.285,47.608Z" transform="translate(0 0)" fill="#fff" stroke="#fff" stroke-width="0.4"/>
      </g>
    </g>
    <g id="Group_2613" data-name="Group 2613" transform="translate(17.456 9.522)">
      <g id="Group_2612" data-name="Group 2612">
        <path id="Path_3545" data-name="Path 3545" d="M186.15,110.683h-3.174a3.279,3.279,0,1,1,0-6.558h6.348a1.482,1.482,0,0,0,0-2.963h-3.279V97.883a1.482,1.482,0,0,0-2.963,0v3.279h-.105a6.242,6.242,0,1,0,0,12.485h3.174a3.279,3.279,0,0,1,0,6.558H179.8a1.482,1.482,0,0,0,0,2.963h3.279v3.279a1.482,1.482,0,0,0,2.963,0v-3.279h.105a6.242,6.242,0,0,0,0-12.485Z" transform="translate(-176.734 -96.401)" fill="#fff" stroke="#fff" stroke-width="0.4"/>
      </g>
    </g>
  </g>
</svg>
