<svg xmlns="http://www.w3.org/2000/svg" width="25.594" height="33.506" viewBox="0 0 25.594 33.506">
  <g id="ic_map_detail_booking" transform="translate(0.15 0.15)">
    <g id="Group_2607" data-name="Group 2607" transform="translate(0)">
      <g id="Group_2606" data-name="Group 2606">
        <path id="Path_3542" data-name="Path 3542" d="M73.647,0A12.661,12.661,0,0,0,61,12.647c0,4.5,1.369,6.307,7.95,14.982,1.142,1.506,2.437,3.213,3.919,5.188a.973.973,0,0,0,1.557,0c1.473-1.964,2.762-3.665,3.9-5.165,6.6-8.7,7.969-10.511,7.969-15.005A12.661,12.661,0,0,0,73.647,0Zm3.127,26.477c-.934,1.232-1.971,2.6-3.127,4.137-1.165-1.548-2.207-2.922-3.146-4.16-6.4-8.439-7.555-9.959-7.555-13.806a10.7,10.7,0,1,1,21.4,0C84.348,16.487,83.192,18.012,76.774,26.477Z" transform="translate(-61)" fill="#955c2a" stroke="#955c2a" stroke-width="0.3"/>
      </g>
    </g>
    <g id="Group_2609" data-name="Group 2609" transform="translate(5.837 5.837)">
      <g id="Group_2608" data-name="Group 2608">
        <path id="Path_3543" data-name="Path 3543" d="M157.81,90a6.81,6.81,0,1,0,6.81,6.81A6.818,6.818,0,0,0,157.81,90Zm0,11.674a4.864,4.864,0,1,1,4.864-4.864A4.87,4.87,0,0,1,157.81,101.674Z" transform="translate(-151 -90)" fill="#955c2a" stroke="#955c2a" stroke-width="0.3"/>
      </g>
    </g>
  </g>
</svg>
