<svg xmlns="http://www.w3.org/2000/svg" width="20.482" height="20.482" viewBox="0 0 20.482 20.482">
  <g id="ic_money" transform="translate(0.2 0.2)">
    <g id="Group_2611" data-name="Group 2611" transform="translate(0 0)">
      <g id="Group_2610" data-name="Group 2610">
        <path id="Path_3544" data-name="Path 3544" d="M17.141,2.941a10.041,10.041,0,0,0-14.2,14.2,10.041,10.041,0,0,0,14.2-14.2Zm-7.1,15.964a8.864,8.864,0,1,1,8.864-8.864A8.874,8.874,0,0,1,10.041,18.905Z" transform="translate(0 0)" fill="#955c2a" stroke="#955c2a" stroke-width="0.4"/>
      </g>
    </g>
    <g id="Group_2613" data-name="Group 2613" transform="translate(6.932 3.781)">
      <g id="Group_2612" data-name="Group 2612">
        <path id="Path_3545" data-name="Path 3545" d="M180.473,102.072h-1.26a1.3,1.3,0,1,1,0-2.6h2.521a.588.588,0,1,0,0-1.177h-1.3v-1.3a.588.588,0,0,0-1.177,0v1.3h-.042a2.479,2.479,0,1,0,0,4.958h1.26a1.3,1.3,0,0,1,0,2.6h-2.521a.588.588,0,1,0,0,1.177h1.3v1.3a.588.588,0,1,0,1.177,0v-1.3h.042a2.479,2.479,0,0,0,0-4.958Z" transform="translate(-176.734 -96.401)" fill="#955c2a" stroke="#955c2a" stroke-width="0.4"/>
      </g>
    </g>
  </g>
</svg>
