<svg xmlns="http://www.w3.org/2000/svg" width="15.971" height="20.874" viewBox="0 0 15.971 20.874">
  <g id="ic_map_discount_room" transform="translate(0.15 0.15)">
    <g id="Group_2607" data-name="Group 2607" transform="translate(0)">
      <g id="Group_2606" data-name="Group 2606">
        <path id="Path_3542" data-name="Path 3542" d="M68.836,0A7.845,7.845,0,0,0,61,7.836c0,2.789.848,3.908,4.926,9.283.708.933,1.51,1.991,2.428,3.214a.6.6,0,0,0,.964,0c.912-1.217,1.711-2.271,2.416-3.2,4.087-5.391,4.938-6.512,4.938-9.3A7.845,7.845,0,0,0,68.836,0Zm1.938,16.4c-.579.763-1.221,1.61-1.938,2.563-.722-.959-1.367-1.81-1.949-2.578-3.966-5.228-4.681-6.17-4.681-8.554a6.63,6.63,0,1,1,13.26,0C75.466,10.215,74.749,11.16,70.773,16.4Z" transform="translate(-61)" fill="#955c2a" stroke="#955c2a" stroke-width="0.3"/>
      </g>
    </g>
    <g id="Group_2609" data-name="Group 2609" transform="translate(3.616 3.616)">
      <g id="Group_2608" data-name="Group 2608">
        <path id="Path_3543" data-name="Path 3543" d="M155.219,90a4.219,4.219,0,1,0,4.219,4.219A4.224,4.224,0,0,0,155.219,90Zm0,7.233a3.014,3.014,0,1,1,3.014-3.014A3.017,3.017,0,0,1,155.219,97.233Z" transform="translate(-151 -90)" fill="#955c2a" stroke="#955c2a" stroke-width="0.3"/>
      </g>
    </g>
  </g>
</svg>
