<svg xmlns="http://www.w3.org/2000/svg" width="33" height="32.996" viewBox="0 0 33 32.996">
  <path id="ic_people_detail_booking" d="M19.111,22.131a12.238,12.238,0,0,0-2.571-1.372,6.561,6.561,0,0,0,2.134-4.328,9.7,9.7,0,0,1,12.3-1.007,1.289,1.289,0,1,0,1.475-2.114,12.251,12.251,0,0,0-2.571-1.372,6.573,6.573,0,1,0-8.85-.015q-.27.1-.536.221a12.24,12.24,0,0,0-2.27,1.3A6.573,6.573,0,1,0,7.678,20.733,12.4,12.4,0,0,0,.192,28.445,3.867,3.867,0,0,0,3.873,33.5H15.087a1.289,1.289,0,0,0,0-2.578H3.873a1.29,1.29,0,0,1-1.227-1.684,9.945,9.945,0,0,1,9.448-6.727,9.641,9.641,0,0,1,5.542,1.738,1.289,1.289,0,1,0,1.475-2.114ZM25.462,3.078a4,4,0,1,1-4,4,4,4,0,0,1,4-4ZM12.122,11.9a4,4,0,1,1-4,4,4,4,0,0,1,4-4ZM33,27.374a1.289,1.289,0,0,1-1.289,1.289H28.169v3.544a1.289,1.289,0,1,1-2.578,0V28.663H22.047a1.289,1.289,0,0,1,0-2.578h3.544V22.541a1.289,1.289,0,0,1,2.578,0v3.544h3.544A1.289,1.289,0,0,1,33,27.374Zm0,0" transform="translate(-0.003 -0.501)" fill="#955c2a"/>
</svg>
