<svg xmlns="http://www.w3.org/2000/svg" width="19.74" height="19.737" viewBox="0 0 19.74 19.737">
  <path id="ic_people" d="M11.433,13.439a7.321,7.321,0,0,0-1.538-.821,3.924,3.924,0,0,0,1.277-2.589,5.8,5.8,0,0,1,7.359-.6.771.771,0,1,0,.882-1.265,7.328,7.328,0,0,0-1.538-.821,3.932,3.932,0,1,0-5.294-.009q-.162.062-.321.132a7.322,7.322,0,0,0-1.358.78A3.932,3.932,0,1,0,4.594,12.6,7.415,7.415,0,0,0,.116,17.216a2.313,2.313,0,0,0,2.2,3.022H9.026a.771.771,0,0,0,0-1.542H2.318a.771.771,0,0,1-.734-1.008,5.949,5.949,0,0,1,5.652-4.024A5.767,5.767,0,0,1,10.551,14.7a.771.771,0,1,0,.882-1.265Zm3.8-11.4a2.39,2.39,0,1,1-2.39,2.39,2.393,2.393,0,0,1,2.39-2.39ZM7.252,7.319a2.39,2.39,0,1,1-2.39,2.39,2.393,2.393,0,0,1,2.39-2.39Zm12.49,9.257a.771.771,0,0,1-.771.771h-2.12v2.12a.771.771,0,1,1-1.542,0v-2.12h-2.12a.771.771,0,0,1,0-1.542h2.12v-2.12a.771.771,0,0,1,1.542,0V15.8h2.12A.771.771,0,0,1,19.742,16.576Zm0,0" transform="translate(-0.003 -0.501)" fill="#955c2a"/>
</svg>
