<svg xmlns="http://www.w3.org/2000/svg" width="25.653" height="21.805" viewBox="0 0 25.653 21.805">
  <g id="ic_people_home" transform="translate(-1268 -395.85)">
    <path id="Path_3555" data-name="Path 3555" d="M132.065,39.778c2.424,0,4.39-2.387,4.39-5.332s-.645-5.332-4.39-5.332-4.39,2.387-4.39,5.332S129.641,39.778,132.065,39.778Z" transform="translate(1148.762 366.736)" fill="#333"/>
    <path id="Path_3556" data-name="Path 3556" d="M85.2,204.213c-.081-5.13-.751-6.592-5.878-7.517a3.6,3.6,0,0,1-4.808,0c-5.071.915-5.782,2.355-5.875,7.35-.008.408-.011.429-.012.382,0,.089,0,.253,0,.539,0,0,1.221,2.461,8.291,2.461s8.291-2.461,8.291-2.461c0-.184,0-.312,0-.4A3.217,3.217,0,0,1,85.2,204.213Z" transform="translate(1203.904 210.227)" fill="#333"/>
    <path id="Path_3557" data-name="Path 3557" d="M263.321,53.679c1.969,0,3.565-1.939,3.565-4.331s-.524-4.331-3.565-4.331a5.083,5.083,0,0,0-1.33.158,8.74,8.74,0,0,1,.8,4.123,7.312,7.312,0,0,1-1.1,3.9A3.054,3.054,0,0,0,263.321,53.679Z" transform="translate(1023.598 351.883)" fill="#333"/>
    <path id="Path_3558" data-name="Path 3558" d="M290.7,187.23c-.066-4.166-.61-5.354-4.774-6.105a2.5,2.5,0,0,1-1.952.747c-.057,0-.111,0-.165,0a5.478,5.478,0,0,1,2.239,1.734c1.005,1.379,1.236,3.23,1.284,5.951,2.8-.554,3.376-1.71,3.376-1.71,0-.151,0-.254,0-.325A2.472,2.472,0,0,1,290.7,187.23Z" transform="translate(1002.941 224.769)" fill="#333"/>
    <path id="Path_3559" data-name="Path 3559" d="M51.52,53.68a3.055,3.055,0,0,0,1.627-.477,7.312,7.312,0,0,1-1.1-3.9,8.741,8.741,0,0,1,.8-4.123,5.082,5.082,0,0,0-1.33-.158c-3.041,0-3.565,1.939-3.565,4.331S49.551,53.68,51.52,53.68Z" transform="translate(1223.214 351.882)" fill="#333"/>
    <path id="Path_3560" data-name="Path 3560" d="M6.9,181.867c-.054,0-.109,0-.165,0a2.5,2.5,0,0,1-1.952-.747c-4.164.752-4.708,1.939-4.774,6.105a2.529,2.529,0,0,1-.008.288c0,.071,0,.174,0,.325,0,0,.574,1.156,3.375,1.71.048-2.72.279-4.572,1.284-5.951A5.478,5.478,0,0,1,6.9,181.867Z" transform="translate(1268 224.77)" fill="#333"/>
  </g>
</svg>
