<svg xmlns="http://www.w3.org/2000/svg" width="49.709" height="49.704" viewBox="0 0 49.709 49.704">
  <path id="ic_people_scroll_detail_booking" d="M28.786,33.084a18.435,18.435,0,0,0-3.873-2.067A9.883,9.883,0,0,0,28.127,24.5a14.614,14.614,0,0,1,18.532-1.517A1.941,1.941,0,1,0,48.881,19.8a18.455,18.455,0,0,0-3.873-2.067,9.9,9.9,0,1,0-13.331-.022q-.407.156-.808.332A18.439,18.439,0,0,0,27.449,20,9.9,9.9,0,1,0,11.564,30.978,18.672,18.672,0,0,0,.288,42.595,5.825,5.825,0,0,0,5.833,50.2H22.725a1.942,1.942,0,0,0,0-3.883H5.833a1.943,1.943,0,0,1-1.849-2.537A14.98,14.98,0,0,1,18.217,33.651a14.522,14.522,0,0,1,8.348,2.618,1.941,1.941,0,1,0,2.221-3.185Zm9.568-28.7A6.019,6.019,0,1,1,32.335,10.4a6.025,6.025,0,0,1,6.019-6.019ZM18.259,17.671A6.019,6.019,0,1,1,12.24,23.69a6.026,6.026,0,0,1,6.019-6.019ZM49.712,40.982a1.942,1.942,0,0,1-1.942,1.941H42.431v5.339a1.942,1.942,0,1,1-3.883,0V42.923H33.209a1.942,1.942,0,0,1,0-3.883h5.339V33.7a1.942,1.942,0,0,1,3.883,0V39.04H47.77A1.942,1.942,0,0,1,49.712,40.982Zm0,0" transform="translate(-0.002 -0.5)" fill="#fff"/>
</svg>
