<svg xmlns="http://www.w3.org/2000/svg" width="25.804" height="25.806" viewBox="0 0 25.804 25.806">
  <path id="ic_phone" d="M22.507,26.819h-.025c-4.069-.133-8.835-4.077-12.119-7.363S3.13,11.4,3,7.351C2.957,5.93,6.444,3.4,6.48,3.378A1.678,1.678,0,0,1,8.8,3.543c.279.387,2.923,4.392,3.21,4.847a1.907,1.907,0,0,1-.118,1.878c-.205.391-.886,1.588-1.205,2.146a28.451,28.451,0,0,0,3.138,3.576A28.5,28.5,0,0,0,17.4,19.13c.558-.319,1.755-1,2.146-1.205a1.916,1.916,0,0,1,1.867-.123c.486.3,4.481,2.954,4.849,3.21a1.388,1.388,0,0,1,.548,1.024,2,2,0,0,1-.379,1.3C26.413,23.374,23.916,26.819,22.507,26.819Z" transform="matrix(0.996, 0.087, -0.087, 0.996, -0.654, -3.249)" fill="#750d1c"/>
</svg>
