<svg xmlns="http://www.w3.org/2000/svg" width="73.663" height="73.664" viewBox="0 0 73.663 73.664">
  <path id="ic_rooms" d="M71.805,16.821,41.5,3.353a4.087,4.087,0,0,0-3.323,0L7.862,16.825A8.179,8.179,0,0,0,3,24.3V68.479a8.183,8.183,0,0,0,8.185,8.185H68.478a8.182,8.182,0,0,0,8.185-8.185V24.3A8.183,8.183,0,0,0,71.805,16.821ZM56.2,68.479H48.016a4.094,4.094,0,0,1-4.092-4.092V56.2a4.094,4.094,0,0,1,4.092-4.092H56.2A4.094,4.094,0,0,1,60.293,56.2v8.185A4.094,4.094,0,0,1,56.2,68.479ZM43.924,43.925H35.739a4.094,4.094,0,0,1-4.092-4.092V31.647a4.094,4.094,0,0,1,4.092-4.092h8.185a4.094,4.094,0,0,1,4.092,4.092v8.185A4.094,4.094,0,0,1,43.924,43.925ZM35.739,56.2v8.185a4.094,4.094,0,0,1-4.092,4.092H23.462a4.094,4.094,0,0,1-4.092-4.092V56.2a4.094,4.094,0,0,1,4.092-4.092h8.185A4.094,4.094,0,0,1,35.739,56.2Z" transform="translate(-3 -3)" fill="#955c2a"/>
</svg>
