<svg xmlns="http://www.w3.org/2000/svg" width="110" height="110" viewBox="0 0 110 110">
  <g id="ic_service1" transform="translate(-375 -1572)">
    <circle id="Ellipse_20" data-name="Ellipse 20" cx="55" cy="55" r="55" transform="translate(375 1572)" fill="#f8f8f8"/>
    <g id="Group_4091" data-name="Group 4091">
      <g id="XMLID_621_" transform="translate(394 1590)">
        <path id="XMLID_622_" d="M222.416,356.395a1.418,1.418,0,1,0,1-.416A1.429,1.429,0,0,0,222.416,356.395Z" transform="translate(-190.502 -305.471)" fill="#955c2a"/>
        <path id="XMLID_1486_" d="M449.419,403a1.42,1.42,0,1,0,1,.416A1.429,1.429,0,0,0,449.419,403Z" transform="translate(-384.436 -345.821)" fill="#955c2a"/>
        <path id="XMLID_1777_" d="M71.225,37.741H64.983v-11.9a7.116,7.116,0,0,0-5.564-6.911l-4.637-1.014a7.427,7.427,0,0,0,2.6-5.649V7.443a7.443,7.443,0,1,0-14.887,0v4.82a7.427,7.427,0,0,0,2.6,5.644l-4.636,1.017a7.118,7.118,0,0,0-5.559,6.91v6.231H27.242a1.419,1.419,0,0,0-1.419,1.419v4.257H15.891V33.768H21.85a1.419,1.419,0,0,0,1.419-1.419V17.026a1.419,1.419,0,0,0-1.419-1.419H1.419A1.419,1.419,0,0,0,0,17.026V32.349a1.419,1.419,0,0,0,1.419,1.419H7.378v3.973H1.419A1.419,1.419,0,0,0,0,39.16v6.81a1.419,1.419,0,0,0,1.419,1.419H6.243V71.225a1.419,1.419,0,0,0,1.419,1.419H64.983A1.419,1.419,0,0,0,66.4,71.225V64.273a1.419,1.419,0,0,0-2.838,0v5.533H9.081V53.346H27.242a1.419,1.419,0,1,0,0-2.838H9.081V47.389H63.564v5.533a1.419,1.419,0,0,0,2.838,0V47.389h4.824a1.419,1.419,0,0,0,1.419-1.419V39.16A1.419,1.419,0,0,0,71.225,37.741ZM45.337,11.258h1.952a13.054,13.054,0,0,0,7.259-2.182v3.188a4.606,4.606,0,0,1-9.212,0Zm4.606,8.449a7.449,7.449,0,0,0,1.295-.115l-1.312,2.955L48.61,19.585A7.464,7.464,0,0,0,49.943,19.707Zm0-16.869a4.612,4.612,0,0,1,4.278,2.9A10.234,10.234,0,0,1,47.289,8.42H45.337V7.443A4.611,4.611,0,0,1,49.943,2.838Zm-12.2,23A4.263,4.263,0,0,1,41.07,21.7l4.9-1.074,2.663,6a1.419,1.419,0,0,0,2.594,0l2.663-6L58.813,21.7a4.262,4.262,0,0,1,3.332,4.139v11.9H46.822V33.484A1.419,1.419,0,0,0,45.4,32.066H37.741ZM28.66,34.9H43.984v2.838H28.66ZM2.838,18.445H20.431V30.931H15.869a4.257,4.257,0,0,0-8.468,0H2.838Zm7.378,12.922a1.419,1.419,0,0,1,2.838,0v6.374H10.216ZM69.807,44.551H2.838V40.579H69.807Z" fill="#955c2a"/>
      </g>
    </g>
  </g>
</svg>
