<svg xmlns="http://www.w3.org/2000/svg" width="110" height="110" viewBox="0 0 110 110">
  <g id="ic_service7" transform="translate(-375 -2088)">
    <circle id="Ellipse_23" data-name="Ellipse 23" cx="55" cy="55" r="55" transform="translate(375 2088)" fill="#f8f8f8"/>
    <g id="Group_4097" data-name="Group 4097">
      <g id="XMLID_1475_" transform="translate(392 2120.016)">
        <path id="XMLID_1480_" d="M74.368,81.818,73.15,78.541A1.468,1.468,0,0,0,70.4,79.564l1.218,3.277A10.007,10.007,0,0,1,53.72,91.582l-1.487-2.409a6.166,6.166,0,1,0-11.307-4.588H34.271a6.167,6.167,0,1,0-11.307,4.588l-1.487,2.409a10.006,10.006,0,0,1-16.731.456,9.88,9.88,0,0,1-1.164-9.2L10.622,63.9A12.472,12.472,0,0,1,22.264,55.8H52.933A12.472,12.472,0,0,1,64.575,63.9l1.218,3.277a1.468,1.468,0,0,0,2.753-1.023l-1.218-3.277a15.421,15.421,0,0,0-14.4-10.007H49.511c-29.057.072,3.5.072-27.246,0a15.421,15.421,0,0,0-14.4,10.007L.829,81.818A12.944,12.944,0,0,0,12.962,99.27a12.86,12.86,0,0,0,11.014-6.145l1.11-1.8a6.164,6.164,0,0,0,9.185-3.8h6.655a6.164,6.164,0,0,0,9.185,3.805l1.11,1.8A12.944,12.944,0,0,0,74.368,81.818ZM28.281,89.285a3.231,3.231,0,1,1,3.231-3.231A3.234,3.234,0,0,1,28.281,89.285Zm15.4-3.231a3.231,3.231,0,1,1,3.231,3.231A3.234,3.234,0,0,1,43.685,86.054Z" transform="translate(0 -52.866)" fill="#955c2a"/>
        <path id="XMLID_1498_" d="M348.886,279.57a4.7,4.7,0,1,0,4.7-4.7A4.7,4.7,0,0,0,348.886,279.57Zm6.461,0a1.762,1.762,0,1,1-1.762-1.762A1.764,1.764,0,0,1,355.347,279.57Z" transform="translate(-297.653 -263.295)" fill="#955c2a"/>
        <path id="XMLID_1502_" d="M260.886,279.57a4.7,4.7,0,1,0,4.7-4.7A4.7,4.7,0,0,0,260.886,279.57Zm6.461,0a1.762,1.762,0,1,1-1.762-1.762A1.764,1.764,0,0,1,267.347,279.57Z" transform="translate(-222.576 -263.295)" fill="#955c2a"/>
        <path id="XMLID_1508_" d="M107.71,248.872a4.411,4.411,0,0,0-4.4,4.121,4.406,4.406,0,0,0,0,8.793,4.406,4.406,0,0,0,8.793,0,4.406,4.406,0,0,0,0-8.793A4.411,4.411,0,0,0,107.71,248.872Zm5.58,8.517a1.47,1.47,0,0,1-1.468,1.468h-1.175a1.468,1.468,0,0,0-1.468,1.468V261.5a1.468,1.468,0,1,1-2.937,0v-1.175a1.468,1.468,0,0,0-1.468-1.468H103.6a1.468,1.468,0,0,1,0-2.937h1.175a1.468,1.468,0,0,0,1.468-1.468v-1.175a1.468,1.468,0,1,1,2.937,0v1.175a1.468,1.468,0,0,0,1.468,1.468h1.175A1.47,1.47,0,0,1,113.29,257.389Z" transform="translate(-84.627 -241.113)" fill="#955c2a"/>
        <path id="XMLID_1522_" d="M463.088,323.636a1.469,1.469,0,1,0,.43-1.038A1.483,1.483,0,0,0,463.088,323.636Z" transform="translate(-395.085 -303.646)" fill="#955c2a"/>
      </g>
    </g>
  </g>
</svg>
