<svg xmlns="http://www.w3.org/2000/svg" width="30" height="30" viewBox="0 0 30 30">
  <g id="ic_social_youtube_hover" transform="translate(568 -5170)">
    <path id="ic_social_instagram" d="M15,0A15,15,0,1,1,0,15,15,15,0,0,1,15,0Z" transform="translate(-568 5170)" fill="#f0190c"/>
    <path id="Subtraction_2" data-name="Subtraction 2" d="M622.625-5164.005a55.86,55.86,0,0,1-7.431-.407,2.379,2.379,0,0,1-1.675-1.674,25.119,25.119,0,0,1-.391-4.568,25.211,25.211,0,0,1,.391-4.568,2.436,2.436,0,0,1,1.674-1.689,57.994,57.994,0,0,1,7.432-.391c.059,0,5.961,0,7.431.407a2.377,2.377,0,0,1,1.674,1.673,23.62,23.62,0,0,1,.391,4.584,25.211,25.211,0,0,1-.391,4.568,2.375,2.375,0,0,1-1.674,1.674A57.976,57.976,0,0,1,622.625-5164.005Zm-1.893-9.5h0v5.695l4.944-2.848-4.944-2.847Z" transform="translate(-1175.625 10355.654)" fill="#fff"/>
  </g>
</svg>
