<svg id="ic_social_youtube" xmlns="http://www.w3.org/2000/svg" width="30" height="30" viewBox="0 0 30 30">
  <path id="Path_4787" data-name="Path 4787" d="M224.113,213.333l4.6-2.647-4.6-2.647Zm0,0" transform="translate(-210.834 -195.686)" fill="#c3838f"/>
  <path id="Path_4788" data-name="Path 4788" d="M15,0A15,15,0,1,0,30,15,15,15,0,0,0,15,0Zm9.373,15.015a24.757,24.757,0,0,1-.386,4.509,2.349,2.349,0,0,1-1.652,1.652A57.012,57.012,0,0,1,15,21.562a54.971,54.971,0,0,1-7.335-.4,2.349,2.349,0,0,1-1.652-1.652A24.648,24.648,0,0,1,5.627,15a24.741,24.741,0,0,1,.386-4.509A2.4,2.4,0,0,1,7.665,8.824,57.012,57.012,0,0,1,15,8.438a54.855,54.855,0,0,1,7.335.4,2.349,2.349,0,0,1,1.652,1.652A23.494,23.494,0,0,1,24.373,15.015Zm0,0" fill="#c3838f"/>
</svg>
