<svg xmlns="http://www.w3.org/2000/svg" width="110" height="110" viewBox="0 0 110 110">
  <g id="ic_service8" transform="translate(-975 -2088)">
    <circle id="Ellipse_20" data-name="Ellipse 20" cx="55" cy="55" r="55" transform="translate(975 2088)" fill="#f8f8f8"/>
    <g id="Group_4095" data-name="Group 4095">
      <path id="Path_4298" data-name="Path 4298" d="M69.965,72.448H59.925a4.63,4.63,0,0,0-3.378-3.389l-2.414-.6,3.052-14.8a5.861,5.861,0,0,0-3.822-6.705c-6.828-2.37-4.493-1.321-10.774-2.755a47.755,47.755,0,0,0,6.136-4.169c1.1-1.1,4.45-4.456,4.45-7.664a6.686,6.686,0,0,0-.813-2.971L69.9,11.857a4.032,4.032,0,1,0-5.7-5.7,1.11,1.11,0,0,0,1.57,1.57,1.811,1.811,0,0,1,2.561,2.561L47.891,30.719a1.112,1.112,0,0,0,.785,1.9c.6,0,.777-.317,2-1.542a3.746,3.746,0,0,1,.275,1.288c0,1.519-1.279,3.569-3.806,6.1a67.375,67.375,0,0,1-7.713,5.032l-3.757-.47a1.11,1.11,0,0,0-.275,2.2l4.067.508c9.445,2.316,5.728.755,13.184,3.318a3.633,3.633,0,0,1,2.357,4.152L53.6,60.055H49.964l.586-5.139a1.111,1.111,0,0,0-1-1.232c-13.254-1.2-12.011.257-16.559-1.326a8.653,8.653,0,0,1-1.068-.441c-2.715-1.405-3.3-5.475-2.441-7.763a29.076,29.076,0,0,0,3.115-2.562,1.111,1.111,0,0,0-1.523-1.617A25.215,25.215,0,0,1,28.4,42.182c-.28.065-.357.157-1.462.883-2.761,1.814-2.226,1.462-16.545,13.5L1.724,62.349A3.841,3.841,0,0,0,.266,66.96c1.8,4.639,1.8,4.779,2.3,5.488H1.115a1.11,1.11,0,0,0,0,2.221H69.965a1.11,1.11,0,1,0,0-2.221ZM26.9,45.767A8.846,8.846,0,0,0,30.109,53.4c-4.13,1.921-9.671,4.126-16.468,7.632l-1.255-3.239C23.388,48.543,25.227,46.939,26.9,45.767ZM2.957,64.2l7.571-5.051,1.161,3L6.535,65.424a1.11,1.11,0,0,0-.5,1.127l1.025,5.888a3.026,3.026,0,0,1-3.036-1.921l-1.689-4.36a1.634,1.634,0,0,1,.62-1.961Zm5.4,2.7c5.049-3.216,5.8-4.026,18.4-9.563,2.27-1,4.251-1.871,5.972-2.729,4.56,1.448,4.234.226,15.493,1.188C46.6,69.961,47,67.2,46.334,69.867a3.837,3.837,0,0,0,.25,2.581H9.318Zm41.731,5.548a1.643,1.643,0,0,1-1.594-2.042c.712-2.847.4-.957,1.221-8.13h3.43l-1.4,6.774a1.11,1.11,0,0,0,.818,1.3l3.448.862a2.413,2.413,0,0,1,1.561,1.234Z" transform="translate(994 2103.398)" fill="#955c2a"/>
      <path id="Path_4299" data-name="Path 4299" d="M252.173,16.192A9.512,9.512,0,0,0,254.714,22a39.079,39.079,0,0,1-4.574,11.171,1.111,1.111,0,1,0,1.894,1.159A40.935,40.935,0,0,0,256.6,23.591a9.92,9.92,0,0,0,1.756.905l.619.464-1.631,1.631a1.111,1.111,0,0,0,1.571,1.571l14.237-14.237A11.011,11.011,0,0,0,276.4,6.087a1.11,1.11,0,1,0-2.221,0,8.8,8.8,0,0,1-2.6,6.267l-4.822,4.822c0-2.579.19-4.051-.937-6.034A7.388,7.388,0,0,0,256.1,8.294a3.967,3.967,0,0,0-7.125.659l-.745,2.116a3.877,3.877,0,0,0,3.941,5.123ZM263.534,11.7A5.653,5.653,0,0,1,259,14.037a1.113,1.113,0,1,0-.079,2.224,7.947,7.947,0,0,0,5.574-2.27c.059.433.044.157.044,5.407l-3.518,3.518a7.816,7.816,0,0,1-3.815-1.623l.935-2.319a1.111,1.111,0,0,0-2.06-.83l-.535,1.327a7.263,7.263,0,0,1-1.178-3.976c0-.141-.016-.1.078-.179a3.9,3.9,0,0,0,1.217-1.715,13.713,13.713,0,0,0,.948-3.04,5.2,5.2,0,0,1,6.926,1.143Zm-13.208.105.745-2.116a1.707,1.707,0,0,1,1.62-1.116,1.654,1.654,0,0,1,1.62,2.171c-.724,2.054-.771,2.588-1.482,2.994A1.689,1.689,0,0,1,250.326,11.808Z" transform="translate(780.416 2103.395)" fill="#955c2a"/>
      <path id="Path_4300" data-name="Path 4300" d="M243.467,232.09a1.116,1.116,0,0,0,1.565-.175l.17-.212a1.11,1.11,0,0,0-1.744-1.375l-.164.206A1.105,1.105,0,0,0,243.467,232.09Z" transform="translate(784.688 1909.689)" fill="#955c2a"/>
    </g>
  </g>
</svg>
