<svg xmlns="http://www.w3.org/2000/svg" width="110" height="110" viewBox="0 0 110 110">
  <g id="ic_service6" transform="translate(-975 -1917)">
    <circle id="Ellipse_21" data-name="Ellipse 21" cx="55" cy="55" r="55" transform="translate(975 1917)" fill="#f8f8f8"/>
    <g id="Group_4094" data-name="Group 4094" transform="translate(3 -2)">
      <g id="Group_3959" data-name="Group 3959" transform="translate(997 1961.951)">
        <g id="Group_3958" data-name="Group 3958">
          <path id="Path_4268" data-name="Path 4268" d="M64.341,179.328H53.831v-2.713a1.282,1.282,0,0,0-1.282-1.282H24.865a1.282,1.282,0,0,0,0,2.563h26.4v9.826a24.42,24.42,0,0,1-12.05,21.02h-24.6a24.42,24.42,0,0,1-12.05-21.02V177.9h8.587a1.282,1.282,0,0,0,0-2.563H1.282A1.282,1.282,0,0,0,0,176.615v11.108a26.871,26.871,0,0,0,10.108,21.02H1.282A1.282,1.282,0,0,0,0,210.024a8.469,8.469,0,0,0,8.459,8.459H48.448a8.469,8.469,0,0,0,8.459-8.459,1.282,1.282,0,0,0-1.282-1.282h-11.9a27.071,27.071,0,0,0,5.935-6.622h3.618a12.361,12.361,0,0,0,12.347-12.347v-9.164A1.282,1.282,0,0,0,64.341,179.328ZM54.2,211.306a5.906,5.906,0,0,1-5.755,4.614H8.459A5.906,5.906,0,0,1,2.7,211.306H54.2Zm-.372-23.583v-.7h4.1v2.756a4.662,4.662,0,0,1-4.657,4.657h-.291A26.981,26.981,0,0,0,53.831,187.723Zm9.228,2.051a9.8,9.8,0,0,1-9.784,9.784H51.095a26.758,26.758,0,0,0,1.094-2.563h1.087a7.228,7.228,0,0,0,7.22-7.22v-4.037a1.282,1.282,0,0,0-1.282-1.282H53.831v-2.563H63.06Z" transform="translate(0 -175.333)" fill="#955c2a"/>
        </g>
      </g>
      <g id="Group_3961" data-name="Group 3961" transform="translate(1021.172 1939.479)">
        <g id="Group_3960" data-name="Group 3960">
          <path id="Path_4269" data-name="Path 4269" d="M192.554,7.093l-.667-.837a3.341,3.341,0,0,1,0-4.177A1.282,1.282,0,1,0,189.876.485a5.893,5.893,0,0,0,.006,7.368l.667.837a4.366,4.366,0,0,1,0,5.459l-.683.861a1.282,1.282,0,1,0,2.008,1.594l.683-.861A6.918,6.918,0,0,0,192.554,7.093Z" transform="translate(-188.585 0)" fill="#955c2a"/>
        </g>
      </g>
      <g id="Group_3963" data-name="Group 3963" transform="translate(1028.275 1942.36)">
        <g id="Group_3962" data-name="Group 3962">
          <path id="Path_4270" data-name="Path 4270" d="M247.983,29.577l-.667-.837a3.341,3.341,0,0,1,0-4.178,1.282,1.282,0,1,0-2.008-1.594,5.893,5.893,0,0,0,.006,7.368l.667.837a4.367,4.367,0,0,1,0,5.459l-.683.861a1.282,1.282,0,1,0,2.008,1.593l.683-.861A6.918,6.918,0,0,0,247.983,29.577Z" transform="translate(-244.014 -22.484)" fill="#955c2a"/>
        </g>
      </g>
      <g id="Group_3965" data-name="Group 3965" transform="translate(1014.066 1942.36)">
        <g id="Group_3964" data-name="Group 3964">
          <path id="Path_4271" data-name="Path 4271" d="M137.125,29.578l-.667-.837a3.341,3.341,0,0,1,0-4.178,1.282,1.282,0,0,0-2.008-1.594,5.893,5.893,0,0,0,.006,7.368l.667.837a4.367,4.367,0,0,1,0,5.459l-.683.861a1.282,1.282,0,1,0,2.008,1.594l.684-.861A6.918,6.918,0,0,0,137.125,29.578Z" transform="translate(-133.156 -22.485)" fill="#955c2a"/>
        </g>
      </g>
      <g id="Group_3967" data-name="Group 3967" transform="translate(1014.074 1961.95)">
        <g id="Group_3966" data-name="Group 3966">
          <path id="Path_4272" data-name="Path 4272" d="M135.4,175.706a1.283,1.283,0,1,0,.376.906A1.291,1.291,0,0,0,135.4,175.706Z" transform="translate(-133.21 -175.33)" fill="#955c2a"/>
        </g>
      </g>
      <g id="Group_3969" data-name="Group 3969" transform="translate(1036.449 1973.059)">
        <g id="Group_3968" data-name="Group 3968">
          <path id="Path_4273" data-name="Path 4273" d="M314.742,262a1.282,1.282,0,0,0-1.282,1.282,18.364,18.364,0,0,1-5.294,12.828,1.282,1.282,0,1,0,1.821,1.8,20.946,20.946,0,0,0,6.037-14.632A1.282,1.282,0,0,0,314.742,262Z" transform="translate(-307.795 -262)" fill="#955c2a"/>
        </g>
      </g>
      <g id="Group_3971" data-name="Group 3971" transform="translate(1032.24 1989.995)">
        <g id="Group_3970" data-name="Group 3970">
          <path id="Path_4274" data-name="Path 4274" d="M277.373,394.788a1.282,1.282,0,0,0-1.746-.487l-.029.017a1.282,1.282,0,1,0,1.259,2.233l.029-.017A1.282,1.282,0,0,0,277.373,394.788Z" transform="translate(-274.945 -394.136)" fill="#955c2a"/>
        </g>
      </g>
    </g>
  </g>
</svg>
