<svg xmlns="http://www.w3.org/2000/svg" xmlns:xlink="http://www.w3.org/1999/xlink" width="30" height="30" viewBox="0 0 30 30">
  <defs>
    <clipPath id="clip-path">
      <circle id="Ellipse_43" data-name="Ellipse 43" cx="15" cy="15" r="15" transform="translate(-776 5086)" fill="none" stroke="#fff" stroke-width="0.01"/>
    </clipPath>
  </defs>
  <g id="ic_social_facebook_hover" transform="translate(776 -5086)">
    <circle id="Ellipse_41" data-name="Ellipse 41" cx="15" cy="15" r="15" transform="translate(-776 5086)" fill="#fff"/>
    <g id="Mask_Group_2278" data-name="Mask Group 2278" clip-path="url(#clip-path)">
      <path id="Path_4815" data-name="Path 4815" d="M25.279,26.961h4.289l.673-4.357H25.279V20.224c0-1.81.591-3.415,2.284-3.415h2.72v-3.8a23.108,23.108,0,0,0-3.4-.206c-3.989,0-6.327,2.106-6.327,6.905v2.9h-4.1v4.357h4.1V38.936a16.607,16.607,0,0,0,2.479.2,16.68,16.68,0,0,0,2.243-.169Z" transform="translate(-784.003 5077.363)" fill="#2f77f3"/>
    </g>
  </g>
</svg>
