<svg xmlns="http://www.w3.org/2000/svg" width="30" height="29.828" viewBox="0 0 30 29.828">
  <g id="ic_social_facebook" transform="translate(776 -5086)">
    <path id="Subtraction_3" data-name="Subtraction 3" d="M-38.723,29.828h0v-11.5h4.289l.673-4.357h-4.964v-2.38A4.885,4.885,0,0,1-38.217,9.2a1.928,1.928,0,0,1,1.777-1.029h2.72V4.37l-.023,0a23.118,23.118,0,0,0-3.376-.2c-4.2,0-6.327,2.323-6.327,6.906v2.9h-4.1v4.357h4.1V29.8a15.006,15.006,0,0,1-8.948-5.044A15,15,0,0,1-56,15,14.9,14.9,0,0,1-51.606,4.393,14.9,14.9,0,0,1-41,0,14.9,14.9,0,0,1-30.394,4.393,14.9,14.9,0,0,1-26,15a14.992,14.992,0,0,1-3.66,9.819,15,15,0,0,1-9.062,5.009Z" transform="translate(-720 5086)" fill="#c3838f"/>
  </g>
</svg>
