<svg xmlns="http://www.w3.org/2000/svg" width="110" height="110" viewBox="0 0 110 110">
  <g id="ic_service5" transform="translate(-375 -1918)">
    <circle id="Ellipse_22" data-name="Ellipse 22" cx="55" cy="55" r="55" transform="translate(375 1918)" fill="#f8f8f8"/>
    <g id="Group_4096" data-name="Group 4096">
      <path id="Path_4305" data-name="Path 4305" d="M66.078,53.1H52.486a.971.971,0,0,1,0-1.942H66.078a1.942,1.942,0,0,0,1.942-1.942V26.884a1.942,1.942,0,0,0-1.942-1.942H5.884a1.942,1.942,0,0,0-1.942,1.942v22.33a1.942,1.942,0,0,0,1.942,1.942H19.476a.971.971,0,1,1,0,1.942H5.884A3.884,3.884,0,0,1,2,49.214V26.884A3.884,3.884,0,0,1,5.884,23H66.078a3.884,3.884,0,0,1,3.884,3.884v22.33A3.884,3.884,0,0,1,66.078,53.1Z" transform="translate(394 1936.115)" fill="#955c2a" stroke="#955c2a" stroke-width="1.2"/>
      <path id="Path_4306" data-name="Path 4306" d="M39.336,71.942H36.521a.971.971,0,0,1,0-1.942h2.816a.971.971,0,0,1,0,1.942Z" transform="translate(393.023 1934.746)" fill="#955c2a" stroke="#955c2a" stroke-width="1.2"/>
      <path id="Path_4307" data-name="Path 4307" d="M52.981,71.286h-7.33a.971.971,0,1,1,0-1.942H52.01v-19.9H20.942v19.9h8.3a.971.971,0,0,1,0,1.942H19.971A.971.971,0,0,1,19,70.316V48.471a.971.971,0,0,1,.971-.971h33.01a.971.971,0,0,1,.971.971V70.316A.971.971,0,0,1,52.981,71.286Z" transform="translate(393.506 1935.401)" fill="#955c2a" stroke="#955c2a" stroke-width="1.2"/>
      <path id="Path_4308" data-name="Path 4308" d="M58.631,53.643H52.806a.971.971,0,0,1,0-1.942H57.66V45.148A1.456,1.456,0,0,0,56.2,43.692H16.4a1.456,1.456,0,0,0-1.456,1.456V51.7H19.8a.971.971,0,1,1,0,1.942H13.971A.971.971,0,0,1,13,52.672V45.148a3.4,3.4,0,0,1,3.4-3.4H56.2a3.4,3.4,0,0,1,3.4,3.4v7.524A.971.971,0,0,1,58.631,53.643Z" transform="translate(393.68 1935.569)" fill="#955c2a" stroke="#955c2a" stroke-width="1.2"/>
      <path id="Path_4309" data-name="Path 4309" d="M46.977,58.359H26.346a.971.971,0,1,1,0-1.942H46.977a.971.971,0,1,1,0,1.942Z" transform="translate(393.318 1935.142)" fill="#955c2a" stroke="#955c2a" stroke-width="1.2"/>
      <path id="Path_4310" data-name="Path 4310" d="M46.977,64.942H26.346a.971.971,0,1,1,0-1.942H46.977a.971.971,0,0,1,0,1.942Z" transform="translate(393.318 1934.95)" fill="#955c2a" stroke="#955c2a" stroke-width="1.2"/>
      <path id="Path_4311" data-name="Path 4311" d="M53.922,24.33H18.971A.971.971,0,0,1,18,23.359V2.971A.971.971,0,0,1,18.971,2H44.777a.971.971,0,0,1,.686.284l9.146,9.146a.971.971,0,0,1,.284.686V23.359A.971.971,0,0,1,53.922,24.33ZM19.942,22.388h33.01v-9.87L44.375,3.942H19.942Z" transform="translate(393.533 1936.726)" fill="#955c2a" stroke="#955c2a" stroke-width="1.2"/>
      <path id="Path_4312" data-name="Path 4312" d="M54.7,13.087H45.551a.971.971,0,0,1-.971-.971V2.971a.971.971,0,1,1,1.942,0v8.175H54.7a.971.971,0,0,1,0,1.942Z" transform="translate(392.76 1936.726)" fill="#955c2a" stroke="#955c2a" stroke-width="1.2"/>
      <path id="Path_4313" data-name="Path 4313" d="M61.578,35.085A3.417,3.417,0,1,1,65,31.668a3.417,3.417,0,0,1-3.417,3.417Zm0-4.891a1.475,1.475,0,1,0,1.476,1.475,1.475,1.475,0,0,0-1.476-1.475Z" transform="translate(392.365 1935.962)" fill="#955c2a" stroke="#955c2a" stroke-width="1.2"/>
      <path id="Path_4314" data-name="Path 4314" d="M52.2,35.085a3.417,3.417,0,1,1,3.416-3.416A3.417,3.417,0,0,1,52.2,35.085Zm0-4.891a1.475,1.475,0,1,0,1.474,1.474A1.475,1.475,0,0,0,52.2,30.194Z" transform="translate(392.637 1935.962)" fill="#955c2a" stroke="#955c2a" stroke-width="1.2"/>
    </g>
  </g>
</svg>
