<svg xmlns="http://www.w3.org/2000/svg" xmlns:xlink="http://www.w3.org/1999/xlink" width="30" height="30" viewBox="0 0 30 30">
  <defs>
    <linearGradient id="linear-gradient" x1="0.084" y1="0.916" x2="0.916" y2="0.084" gradientUnits="objectBoundingBox">
      <stop offset="0" stop-color="#ffd600"/>
      <stop offset="0.5" stop-color="#ff0100"/>
      <stop offset="1" stop-color="#d800b9"/>
    </linearGradient>
    <linearGradient id="linear-gradient-2" x1="0.146" y1="0.854" x2="0.854" y2="0.146" gradientUnits="objectBoundingBox">
      <stop offset="0" stop-color="#ff6400"/>
      <stop offset="0.5" stop-color="#ff0100"/>
      <stop offset="1" stop-color="#fd0056"/>
    </linearGradient>
    <linearGradient id="linear-gradient-3" x1="0.146" y1="0.854" x2="0.854" y2="0.146" gradientUnits="objectBoundingBox">
      <stop offset="0" stop-color="#f30072"/>
      <stop offset="1" stop-color="#e50097"/>
    </linearGradient>
  </defs>
  <g id="ic_social_instagram_hover" transform="translate(568 -5123)">
    <path id="ic_social_instagram" d="M15,0A15,15,0,1,1,0,15,15,15,0,0,1,15,0Z" transform="translate(-568 5123)" fill="#fff"/>
    <g id="instagram" transform="translate(-562.454 5128.546)">
      <path id="Path_4808" data-name="Path 4808" d="M18.851,5.556a6.941,6.941,0,0,0-.44-2.295,4.633,4.633,0,0,0-1.09-1.675A4.635,4.635,0,0,0,15.647.5,6.939,6.939,0,0,0,13.352.057C12.344.011,12.022,0,9.454,0s-2.89.011-3.9.057A6.942,6.942,0,0,0,3.261.5a4.633,4.633,0,0,0-1.675,1.09A4.634,4.634,0,0,0,.5,3.261,6.94,6.94,0,0,0,.057,5.556C.011,6.564,0,6.886,0,9.454s.011,2.89.057,3.9A6.939,6.939,0,0,0,.5,15.647a4.633,4.633,0,0,0,1.09,1.674,4.632,4.632,0,0,0,1.675,1.09,6.937,6.937,0,0,0,2.295.44c1.008.046,1.33.057,3.9.057s2.89-.011,3.9-.057a6.938,6.938,0,0,0,2.295-.44,4.833,4.833,0,0,0,2.765-2.765,6.939,6.939,0,0,0,.44-2.295c.046-1.008.057-1.33.057-3.9S18.9,6.564,18.851,5.556Zm-1.7,7.718a5.231,5.231,0,0,1-.325,1.755,3.131,3.131,0,0,1-1.794,1.794,5.231,5.231,0,0,1-1.755.325c-1,.046-1.3.055-3.82.055s-2.824-.01-3.82-.055a5.232,5.232,0,0,1-1.755-.325,2.93,2.93,0,0,1-1.087-.707,2.929,2.929,0,0,1-.707-1.087,5.231,5.231,0,0,1-.325-1.755c-.045-1-.055-1.3-.055-3.82s.01-2.823.055-3.82a5.235,5.235,0,0,1,.325-1.755,2.931,2.931,0,0,1,.707-1.087,2.927,2.927,0,0,1,1.087-.707,5.23,5.23,0,0,1,1.755-.326c1-.045,1.3-.055,3.82-.055h0c2.524,0,2.823.01,3.82.055a5.232,5.232,0,0,1,1.755.325,2.931,2.931,0,0,1,1.087.707,2.927,2.927,0,0,1,.707,1.087,5.226,5.226,0,0,1,.326,1.755c.045,1,.055,1.3.055,3.82S17.2,12.277,17.149,13.274Zm0,0" fill="url(#linear-gradient)"/>
      <path id="Path_4809" data-name="Path 4809" d="M129.394,124.539a4.855,4.855,0,1,0,4.855,4.855A4.855,4.855,0,0,0,129.394,124.539Zm0,8.006a3.151,3.151,0,1,1,3.151-3.151A3.151,3.151,0,0,1,129.394,132.545Zm0,0" transform="translate(-119.94 -119.94)" fill="url(#linear-gradient-2)"/>
      <path id="Path_4810" data-name="Path 4810" d="M364.2,89.76a1.135,1.135,0,1,1-1.134-1.135A1.134,1.134,0,0,1,364.2,89.76Zm0,0" transform="translate(-348.564 -85.352)" fill="url(#linear-gradient-3)"/>
    </g>
  </g>
</svg>
