<svg xmlns="http://www.w3.org/2000/svg" width="30" height="30" viewBox="0 0 30 30">
  <path id="ic_social_instagram" d="M15,30A15,15,0,0,1,4.393,4.393,15,15,0,1,1,25.606,25.606,14.9,14.9,0,0,1,15,30ZM11.482,7.084a4.4,4.4,0,0,0-4.4,4.4v7.036a4.4,4.4,0,0,0,4.4,4.4h7.036a4.4,4.4,0,0,0,4.4-4.4V11.481a4.4,4.4,0,0,0-4.4-4.4ZM15,19.4A4.4,4.4,0,1,1,19.4,15,4.4,4.4,0,0,1,15,19.4Zm0-7.036A2.638,2.638,0,1,0,17.638,15,2.641,2.641,0,0,0,15,12.362Zm5.277-1.76a.879.879,0,1,1,.879-.879A.88.88,0,0,1,20.277,10.6Z" fill="#c3838f"/>
</svg>
