<svg xmlns="http://www.w3.org/2000/svg" width="110" height="110" viewBox="0 0 110 110">
  <g id="ic_service2" transform="translate(-975 -1576)">
    <circle id="Ellipse_23" data-name="Ellipse 23" cx="55" cy="55" r="55" transform="translate(975 1576)" fill="#f8f8f8"/>
    <g id="Group_4092" data-name="Group 4092">
      <path id="Path_4301" data-name="Path 4301" d="M167.89,200.166a20.039,20.039,0,0,0-27.727,0,20.206,20.206,0,0,0-1.916,2.127,4.452,4.452,0,0,0,.379,5.863l.008.008a4.412,4.412,0,0,0,3.139,1.3,4.493,4.493,0,0,0,3.551-1.733,11.08,11.08,0,0,1,16.526-.992,11.307,11.307,0,0,1,.88.992,4.494,4.494,0,0,0,3.55,1.733h0a4.409,4.409,0,0,0,3.139-1.3l.009-.008a4.451,4.451,0,0,0,.378-5.863A20.225,20.225,0,0,0,167.89,200.166Zm.037,6.507-.006.007a2.315,2.315,0,0,1-1.641.678,2.4,2.4,0,0,1-1.891-.926,13.233,13.233,0,0,0-1.047-1.179,13.193,13.193,0,0,0-18.631,0,13.288,13.288,0,0,0-1.047,1.18,2.394,2.394,0,0,1-1.891.926,2.314,2.314,0,0,1-1.64-.678l-.006-.006a2.337,2.337,0,0,1-.214-3.081,18.159,18.159,0,0,1,1.714-1.9,17.928,17.928,0,0,1,24.8,0,18.07,18.07,0,0,1,1.716,1.905,2.335,2.335,0,0,1-.213,3.081Zm0,0" transform="translate(875.008 1436.724)" fill="#955c2a" stroke="#955c2a" stroke-width="1"/>
      <path id="Path_4302" data-name="Path 4302" d="M217.183,291.289a6.359,6.359,0,1,0,4.5,1.862A6.318,6.318,0,0,0,217.183,291.289Zm3,9.362a4.248,4.248,0,1,1,0-6.007,4.22,4.22,0,0,1,0,6.007Zm0,0" transform="translate(811.852 1353.643)" fill="#955c2a" stroke="#955c2a" stroke-width="1"/>
      <path id="Path_4303" data-name="Path 4303" d="M70.9,15.908c-.472-.516-.965-1.032-1.464-1.531A47.164,47.164,0,0,0,17.115,4.463,1.056,1.056,0,1,0,17.962,6.4,44.837,44.837,0,0,1,67.948,15.87c.477.477.948.969,1.4,1.463a2.355,2.355,0,0,1-1.806,3.928,2.3,2.3,0,0,1-1.663-.752c-.405-.443-.826-.883-1.252-1.309A40.153,40.153,0,0,0,36.036,7.385h0A40.153,40.153,0,0,0,7.441,19.2c-.426.426-.846.865-1.248,1.3a2.3,2.3,0,0,1-1.663.752,2.355,2.355,0,0,1-1.807-3.928c.45-.492.92-.983,1.4-1.459a45.425,45.425,0,0,1,10.36-7.768,1.055,1.055,0,1,0-1.011-1.853A47.527,47.527,0,0,0,2.626,14.381c-.5.5-.989,1.012-1.46,1.526a4.466,4.466,0,0,0,3.308,7.465h.1a4.4,4.4,0,0,0,3.174-1.438c.382-.417.78-.834,1.183-1.237a38.056,38.056,0,0,1,27.1-11.2h0a38.058,38.058,0,0,1,27.1,11.2c.4.4.8.821,1.187,1.241a4.4,4.4,0,0,0,3.174,1.438,4.466,4.466,0,0,0,3.41-7.464Zm0,0" transform="translate(993 1603.5)" fill="#955c2a" stroke="#955c2a" stroke-width="1"/>
      <path id="Path_4304" data-name="Path 4304" d="M118.183,107.409a33.576,33.576,0,0,0-21.15-9.186,1.056,1.056,0,1,0-.125,2.108,31.46,31.46,0,0,1,19.819,8.607c.679.647,1.334,1.33,1.949,2.028a2.361,2.361,0,0,1-.1,3.223,2.323,2.323,0,0,1-1.734.686,2.346,2.346,0,0,1-1.7-.8c-.482-.548-.993-1.083-1.519-1.592a26.652,26.652,0,0,0-18.62-7.5h0a26.65,26.65,0,0,0-18.619,7.5c-.528.51-1.039,1.046-1.521,1.593a2.345,2.345,0,0,1-1.7.8,2.319,2.319,0,0,1-1.734-.686,2.352,2.352,0,0,1-.112-3.207c.411-.468.841-.93,1.28-1.373a31.442,31.442,0,0,1,20.5-9.275,1.056,1.056,0,1,0-.127-2.108,33.551,33.551,0,0,0-21.877,9.9c-.467.473-.926.966-1.365,1.464a4.468,4.468,0,0,0,.206,6.093,4.411,4.411,0,0,0,3.146,1.305l.148,0a4.5,4.5,0,0,0,3.22-1.521c.444-.505.915-1,1.4-1.469a24.888,24.888,0,0,1,34.305,0c.486.469.957.963,1.4,1.468a4.5,4.5,0,0,0,3.22,1.521,4.41,4.41,0,0,0,3.294-1.3,4.477,4.477,0,0,0,.191-6.11c-.655-.744-1.354-1.472-2.078-2.161Zm0,0" transform="translate(934.035 1519.534)" fill="#955c2a" stroke="#955c2a" stroke-width="1"/>
    </g>
  </g>
</svg>
