<svg xmlns="http://www.w3.org/2000/svg" width="110" height="110" viewBox="0 0 110 110">
  <g id="ic_service4" transform="translate(-975 -1746)">
    <circle id="Ellipse_22" data-name="Ellipse 22" cx="55" cy="55" r="55" transform="translate(975 1746)" fill="#f8f8f8"/>
    <g id="Group_4093" data-name="Group 4093">
      <path id="Path_4263" data-name="Path 4263" d="M60.714,42.751a12.634,12.634,0,0,1-11.242,1.61,1.118,1.118,0,0,0-1.023.142l-5.031,3.568,1.295,1.824,4.565-3.242A14.944,14.944,0,0,0,61.962,44.6a15.867,15.867,0,0,0,1.868-1.478l-1.516-1.644a13.474,13.474,0,0,1-1.6,1.27Z" transform="translate(998.914 1770.13)" fill="#955c2a" stroke="#955c2a" stroke-width="0.5"/>
      <path id="Path_4264" data-name="Path 4264" d="M54.347,27.892a10.166,10.166,0,0,0-4.63,9.7L35.544,46.673l-14.176-9.08A10.12,10.12,0,0,0,16.734,27.9a10.689,10.689,0,0,0-7.29-1.818,8.273,8.273,0,0,0-7.131,10.57,10.682,10.682,0,0,0,4.417,6.073,10.118,10.118,0,0,0,10.733.663l11,7.812L18,57.914a4.387,4.387,0,1,0,4.9,7.275L35.544,56.22,48.191,65.2A4.394,4.394,0,1,0,53.1,57.913L42.614,51.2l11.01-7.815a10.118,10.118,0,0,0,10.733-.661c4.6-3.1,6.1-8.953,3.342-13.045s-8.747-4.893-13.353-1.791ZM21.6,63.37a2.207,2.207,0,0,1-3.032-.553A2.148,2.148,0,0,1,19.2,59.8l11.235-7.2,3.174,2.252ZM52.84,61.175a2.158,2.158,0,0,1-3.361,2.2L18.13,41.123a1.118,1.118,0,0,0-1.306.009,7.748,7.748,0,0,1-8.844-.261,8.455,8.455,0,0,1-3.506-4.8,6.037,6.037,0,0,1,5.255-7.78,8.456,8.456,0,0,1,5.76,1.453,7.748,7.748,0,0,1,3.549,8.1,1.118,1.118,0,0,0,.481,1.215L51.89,59.8a2.138,2.138,0,0,1,.949,1.379ZM63.1,40.869a7.749,7.749,0,0,1-8.845.258,1.118,1.118,0,0,0-1.306-.009L40.584,49.9,37.619,48l13.946-8.944a1.118,1.118,0,0,0,.481-1.213,7.787,7.787,0,0,1,3.553-8.1c3.578-2.412,8.177-1.879,10.245,1.183s.836,7.536-2.74,9.947Z" transform="translate(994.023 1768.303)" fill="#955c2a" stroke="#955c2a" stroke-width="0.5"/>
      <path id="Path_4265" data-name="Path 4265" d="M13.745,4.03,12.507,2.167A14.534,14.534,0,0,0,6.831,19.124l2.107-.747A12.3,12.3,0,0,1,13.746,4.03Z" transform="translate(994.498 1765.489)" fill="#955c2a" stroke="#955c2a" stroke-width="0.5"/>
      <path id="Path_4266" data-name="Path 4266" d="M11.1,20.477A12.438,12.438,0,0,1,9.68,18.5L7.745,19.618a14.663,14.663,0,0,0,1.683,2.337Z" transform="translate(994.705 1767.417)" fill="#955c2a" stroke="#955c2a" stroke-width="0.5"/>
      <path id="Path_4267" data-name="Path 4267" d="M46.873,40.237l3.183-15.914a10.062,10.062,0,0,0-.925-20.087A9.937,9.937,0,0,0,42.906,6.4a10.047,10.047,0,0,0-16.618,0,9.937,9.937,0,0,0-6.225-2.163,10.062,10.062,0,0,0-.925,20.082l3.183,15.919,2.191-.438-.626-3.139H45.308l-.626,3.13Zm-5.4-5.814.936-6.549L40.2,27.556l-.981,6.867h-3.5v-12.3H33.479v12.3h-3.5L29,27.556l-2.214.318.936,6.549H23.439l-2.281-11.4a1.118,1.118,0,0,0-1.1-.894A7.826,7.826,0,1,1,25.745,8.932a1.118,1.118,0,0,0,1.818-.28,7.811,7.811,0,0,1,14.067,0,1.118,1.118,0,0,0,1.818.28,7.822,7.822,0,1,1,5.683,13.193,1.118,1.118,0,0,0-1.1.895l-2.281,11.4Z" transform="translate(994.971 1765.47)" fill="#955c2a" stroke="#955c2a" stroke-width="0.5"/>
    </g>
  </g>
</svg>
