<svg xmlns="http://www.w3.org/2000/svg" width="110" height="110" viewBox="0 0 110 110">
  <g id="ic_service3" transform="translate(-375 -1743)">
    <circle id="Ellipse_21" data-name="Ellipse 21" cx="55" cy="55" r="55" transform="translate(375 1743)" fill="#f8f8f8"/>
    <g id="Group_4098" data-name="Group 4098">
      <g id="Group_3949" data-name="Group 3949" transform="translate(413.852 1770.36)">
        <g id="Group_3948" data-name="Group 3948">
          <path id="Path_4258" data-name="Path 4258" d="M176.189,93.37a1.442,1.442,0,0,0-.889-.949,10.252,10.252,0,0,0-1.9-.445,12.252,12.252,0,0,0,2.791-12.027A1.442,1.442,0,0,0,175.3,79a12.41,12.41,0,0,0-7.754.081,12.954,12.954,0,0,0,.36-3.08,12.248,12.248,0,0,0-6.538-10.912,1.441,1.441,0,0,0-1.3-.043A12.2,12.2,0,0,0,153.446,76a12.953,12.953,0,0,0,.361,3.086A12.409,12.409,0,0,0,146.036,79a1.442,1.442,0,0,0-.889.949,12.252,12.252,0,0,0,2.791,12.027,10.252,10.252,0,0,0-1.9.445,1.443,1.443,0,0,0-.889.949,12.248,12.248,0,0,0,3.093,12.339,11.965,11.965,0,0,0,8.655,3.644,12.9,12.9,0,0,0,2.321-.211v9.435a1.442,1.442,0,0,0,2.884,0v-9.439a12.917,12.917,0,0,0,2.341.214,11.966,11.966,0,0,0,8.655-3.644A12.248,12.248,0,0,0,176.189,93.37Zm-16.973,11.278a9.611,9.611,0,0,1-.212,1.6,9.514,9.514,0,0,1-11.3-11.3,9.669,9.669,0,0,1,4.954.234q.207.077.412.146a9.453,9.453,0,0,1,3.351,2.2,9.193,9.193,0,0,1,2.79,6.162Zm0-13.42a9.607,9.607,0,0,1-.212,1.6,9.582,9.582,0,0,1-4.854-.194q-.313-.12-.621-.22a9.522,9.522,0,0,1-3.249-2.165,9.3,9.3,0,0,1-2.571-8.724,9.352,9.352,0,0,1,8.717,2.578l.061.063q.19.213.38.408a9.131,9.131,0,0,1,2.349,5.691Zm1.462-7.235a9.8,9.8,0,0,1-1.765-1.458c-.067-.074-.136-.148-.206-.222A9.2,9.2,0,0,1,156.33,76a9.308,9.308,0,0,1,4.339-7.988A9.3,9.3,0,0,1,165.022,76a9.2,9.2,0,0,1-2.158,6.069c-.234.234-.452.47-.658.707A9.682,9.682,0,0,1,160.678,83.993Zm1.431,6.768a9.128,9.128,0,0,1,2.229-6.037c.212-.211.426-.438.638-.682a9.306,9.306,0,0,1,8.652-2.518,9.3,9.3,0,0,1-2.57,8.727,9.523,9.523,0,0,1-3.243,2.163q-.314.1-.632.223a9.578,9.578,0,0,1-4.849.192,9.678,9.678,0,0,1-.224-2.031C162.109,90.785,162.109,90.773,162.109,90.76Zm8.948,12.91a9.307,9.307,0,0,1-8.722,2.579,9.352,9.352,0,0,1,2.576-8.726,9.52,9.52,0,0,1,3.252-2.166q.308-.1.62-.219a9.585,9.585,0,0,1,4.845-.2A9.3,9.3,0,0,1,171.057,103.67Z" transform="translate(-144.606 -64.913)" fill="#955c2a" stroke="#955c2a" stroke-width="0.7"/>
        </g>
      </g>
      <g id="Group_3951" data-name="Group 3951" transform="translate(393 1761)">
        <g id="Group_3950" data-name="Group 3950">
          <path id="Path_4259" data-name="Path 4259" d="M44.608.8A37.163,37.163,0,0,0,36.914,0,36.913,36.913,0,0,0,7.8,59.608a5.473,5.473,0,1,0,2.151-1.933A34.046,34.046,0,0,1,44.009,3.624,1.442,1.442,0,0,0,44.608.8ZM10.573,60.738a2.6,2.6,0,1,1-.76,1.835A2.587,2.587,0,0,1,10.573,60.738Z" transform="translate(0)" fill="#955c2a" stroke="#955c2a" stroke-width="0.7"/>
        </g>
      </g>
      <g id="Group_3953" data-name="Group 3953" transform="translate(422.207 1766.775)">
        <g id="Group_3952" data-name="Group 3952">
          <path id="Path_4260" data-name="Path 4260" d="M239.376,48.5a5.473,5.473,0,1,0-2.151,1.933,34.046,34.046,0,0,1-32.974,54.262,1.442,1.442,0,0,0-.506,2.839,37.26,37.26,0,0,0,6.517.574A36.913,36.913,0,0,0,239.376,48.5Zm-2.772-1.13a2.6,2.6,0,1,1,.76-1.835A2.578,2.578,0,0,1,236.6,47.366Z" transform="translate(-202.556 -40.051)" fill="#955c2a" stroke="#955c2a" stroke-width="0.7"/>
        </g>
      </g>
      <g id="Group_3955" data-name="Group 3955" transform="translate(415.258 1829.401)">
        <g id="Group_3954" data-name="Group 3954">
          <path id="Path_4261" data-name="Path 4261" d="M156.342,474.467,155.8,475.8l.54-1.337a1.442,1.442,0,0,0-1.081,2.674l.045.018a1.442,1.442,0,0,0,1.04-2.69Z" transform="translate(-154.355 -474.36)" fill="#955c2a" stroke="#955c2a" stroke-width="0.7"/>
        </g>
      </g>
      <g id="Group_3957" data-name="Group 3957" transform="translate(441.729 1763.56)">
        <g id="Group_3956" data-name="Group 3956">
          <path id="Path_4262" data-name="Path 4262" d="M339.932,17.868l-.026-.01a1.442,1.442,0,1,0-1.071,2.678l.016.007a1.442,1.442,0,1,0,1.08-2.674Z" transform="translate(-337.929 -17.754)" fill="#955c2a" stroke="#955c2a" stroke-width="0.7"/>
        </g>
      </g>
    </g>
  </g>
</svg>
