<svg id="ic_time_infor_booking_detail" xmlns="http://www.w3.org/2000/svg" width="19.112" height="19.112" viewBox="0 0 19.112 19.112">
  <g id="Group_33" data-name="Group 33" transform="translate(8.856 4.483)">
    <g id="Group_32" data-name="Group 32">
      <path id="Path_70" data-name="Path 70" d="M240.252,125.487l-2.625-1.969v-4.01a.729.729,0,1,0-1.458,0v4.375a.728.728,0,0,0,.292.583l2.916,2.187a.729.729,0,0,0,.875-1.167Z" transform="translate(-236.169 -118.779)" fill="#955c2a"/>
    </g>
  </g>
  <g id="Group_35" data-name="Group 35">
    <g id="Group_34" data-name="Group 34">
      <path id="Path_71" data-name="Path 71" d="M9.556,0a9.556,9.556,0,1,0,9.556,9.556A9.566,9.566,0,0,0,9.556,0Zm0,17.632a8.076,8.076,0,1,1,8.076-8.076A8.086,8.086,0,0,1,9.556,17.632Z" fill="#955c2a"/>
    </g>
  </g>
</svg>
