<svg xmlns="http://www.w3.org/2000/svg" width="327.654" height="196.161" viewBox="0 0 327.654 196.161">
  <g id="img_kgiansukien" transform="translate(-796 -832)">
    <g id="Group_3834" data-name="Group 3834" transform="translate(796 832)">
      <path id="Path_3871" data-name="Path 3871" d="M368.6,350.585l101.09-.53,26.946-.008,8.927,0,27-.008L655.9,350s28.212-36.51-1.923-71.186c-31.245-35.953-46.437-6.673-56.041-57.28-24.175-127.387-263.188-53.245-200.5,55.157C420.015,315.724,353.009,294.978,368.6,350.585Z" transform="translate(-348.295 -154.424)" fill="#955c2a" opacity="0.15"/>
      <g id="Group_3826" data-name="Group 3826" transform="translate(77.577 1.184)">
        <path id="Path_3872" data-name="Path 3872" d="M1278.622,1743.543s.384,4.443-.555,4.9l-12.019-.025s0-1.387,1.93-1.7,5.322-1.438,5.9-3.956S1278.622,1743.543,1278.622,1743.543Z" transform="translate(-1218.957 -1554.704)" fill="#333"/>
        <path id="Path_3873" data-name="Path 3873" d="M1569.162,1738.236s.361,6.162-.578,6.625l-12.018-.025s0-1.387,1.93-1.7,5.322-1.438,5.9-3.956S1569.162,1738.236,1569.162,1738.236Z" transform="translate(-1475.013 -1551.117)" fill="#333"/>
        <path id="Path_3874" data-name="Path 3874" d="M1366.515,1161.865a22.472,22.472,0,0,1-3.407,1.453,15.189,15.189,0,0,1-3.266.091c-4.088-10.958-16.765-55.505-16.765-55.505a193.067,193.067,0,0,1-5.084,34.478c-.061.264-.124.527-.185.788v0c-.056.237-.113.473-.169.706a.273.273,0,0,0-.007.031c-2.8,11.654-5.616,19.59-5.616,19.59s-.726.918-2.747.5a5.267,5.267,0,0,1-3.089-1.5c1.5-47.466,2.336-74.231,2.336-74.231s20.065-10.84,25.516-1.574S1366.515,1161.865,1366.515,1161.865Z" transform="translate(-1271.956 -973.988)" fill="#750d1c"/>
        <path id="Path_3875" data-name="Path 3875" d="M1272.283,567.2a92.344,92.344,0,0,1-3.009-25.441c.027-10.405.962-17.734-2.169-18.97,0,0-9.675-2.813-16.335-4.052a32.918,32.918,0,0,0-3.132-1.558c-2.1-.853-10.3-12.77-11.69-15.623s-3.691-15.284-3.691-15.284l-3.194,1.018s-.96,13.953-.5,17.59,10.61,19.275,11.453,20.643h0c3.614,13.208,0,34.7,1.652,39.5.849,2.465,16.6,6.982,25.227,6.414.429-.029.842-.07,1.233-.124h0c2.04-.283,3.524-.935,4.068-2.078A2.826,2.826,0,0,0,1272.283,567.2Z" transform="translate(-1185.81 -448.087)" fill="#fff"/>
        <path id="Path_3876" data-name="Path 3876" d="M1226.318,445.625s1.805-5.245.485-5.4-4.633-.136-5.042.75,1.363,5.666,1.363,5.666Z" transform="translate(-1179.869 -407.444)" fill="#ffb27d"/>
        <g id="Group_3825" data-name="Group 3825">
          <g id="Group_3824" data-name="Group 3824">
            <g id="Group_3822" data-name="Group 3822">
              <path id="Path_3877" data-name="Path 3877" d="M891.755,501.132,881.1,494.688a3.31,3.31,0,0,1,4.546-1.119,1.459,1.459,0,0,0,2-.494l2.884-4.768,2.495,1.509-2.884,4.769a1.459,1.459,0,0,0,.493,2,3.31,3.31,0,0,1,1.12,4.545Z" transform="translate(-879.672 -449.884)" fill="#815025"/>
              <path id="Path_3878" data-name="Path 3878" d="M911.208,507.943l-7.084-4.284c-1.64-1.37-.838-2.542-.016-2.745a3.3,3.3,0,0,1,2.505.382,1.459,1.459,0,0,0,2-.494l2.884-4.768.979.592-2.884,4.769a1.459,1.459,0,0,0,.493,2,3.31,3.31,0,0,1,1.12,4.545Z" transform="translate(-899.125 -456.695)" fill="#955c2a"/>
              <path id="Path_3879" data-name="Path 3879" d="M963.358,207.63,954.734,218.5a15.932,15.932,0,0,1-13.148,7.534h0a16.218,16.218,0,0,1-4.9-.538,3.305,3.305,0,0,0-3.557,1.674l-.169.279c-.5.826-.92,1.52-.92,1.52l-1.816-1.1.926-1.534a3.717,3.717,0,0,0-.133-4.347,16.039,16.039,0,0,1-1.739-18.887l5.84-12.554Z" transform="translate(-920.105 -187.447)" fill="#955c2a"/>
              <g id="Group_3820" data-name="Group 3820">
                <path id="Path_3880" data-name="Path 3880" d="M876.251,188.883c.7-4.073-1.265-6.292-3.351-8.641-1.667-1.879-3.392-3.821-3.762-6.712a8.471,8.471,0,0,1,3.715-8.145,5.47,5.47,0,0,1,6.073-.115c2.638,1.695,3.619,4.975,2.836,9.485a27.054,27.054,0,0,1-1.869,6.073l-1.656-.768c.047-.1,4.6-10.106-.3-13.255a3.709,3.709,0,0,0-4.112.122,6.705,6.705,0,0,0-2.88,6.37c.3,2.333,1.765,3.984,3.317,5.733,2.174,2.449,4.638,5.225,3.784,10.164Z" transform="translate(-869.071 -164.405)" fill="#815025"/>
              </g>
              <g id="Group_3821" data-name="Group 3821" transform="translate(26.629 22.755)">
                <path id="Path_3881" data-name="Path 3881" d="M1094.66,370.383c3.28-2.516,6.16-1.8,9.209-1.046,2.438.6,4.959,1.229,7.692.215a8.471,8.471,0,0,0,5.488-7.073,5.47,5.47,0,0,0-2.719-5.432c-2.726-1.549-6.086-.894-9.717,1.894a27.062,27.062,0,0,0-4.51,4.476l1.449,1.11c.067-.088,6.812-8.771,11.877-5.893a3.71,3.71,0,0,1,1.8,3.7,6.706,6.706,0,0,1-4.3,5.509c-2.2.819-4.348.287-6.618-.275-3.179-.788-6.782-1.681-10.759,1.369Z" transform="translate(-1093.549 -356.227)" fill="#955c2a"/>
              </g>
              <path id="Path_3882" data-name="Path 3882" d="M941.584,226.034a16.218,16.218,0,0,1-4.9-.538,3.305,3.305,0,0,0-3.557,1.674l-.169.279a2.748,2.748,0,0,0-1.341,1.265l-1.4-.844.926-1.534a3.717,3.717,0,0,0-.133-4.347,16.039,16.039,0,0,1-1.739-18.887l5.84-12.554,4.67,2.824S920.821,219.063,941.584,226.034Z" transform="translate(-920.105 -187.447)" fill="#815025"/>
              <path id="Path_3883" data-name="Path 3883" d="M939.923,484.353l-4.652-2.813a1.346,1.346,0,0,1-.454-1.843h0a1.346,1.346,0,0,1,1.843-.454l4.652,2.813a1.346,1.346,0,0,1,.454,1.843h0A1.346,1.346,0,0,1,939.923,484.353Z" transform="translate(-926.848 -441.726)" fill="#955c2a"/>
            </g>
            <g id="Group_3823" data-name="Group 3823" transform="translate(14.499 14.221)">
              <path id="Path_3884" data-name="Path 3884" d="M991.293,297.063l.5-.826c2.366,1.278,2.671,1.127,3.642-.479l4.885-8.078c.688-1.138.34-1.47-.507-2.135l-.6-.516.445-.736a28.758,28.758,0,0,0,5.629,1.88L998.4,297.553c-1,1.651-.986,1.933,1.222,3.421l-.5.826Z" transform="translate(-991.293 -284.292)" fill="#fff"/>
            </g>
          </g>
        </g>
        <path id="Path_3885" data-name="Path 3885" d="M1222.042,441.217s-.17,1.806.409,2.146.784-2.146.784-2.146.034,2.04.477,2.178.715-2.349.715-2.349.047,1.976.347,1.908.5-1.908.5-1.908.136,1.434.545,1.177.8-1.8.8-1.8Z" transform="translate(-1180.151 -407.684)" fill="#ffb27d"/>
        <path id="Path_3886" data-name="Path 3886" d="M1260.632,453.418a5.158,5.158,0,0,0,1.507-1.854c.272-.886,1.073-2.375.647-2.555s-1.669,1.737-1.669,1.737Z" transform="translate(-1214.183 -415.238)" fill="#ffb27d"/>
        <path id="Path_3887" data-name="Path 3887" d="M1439.31,715.487l-.155.807s-.718,2.478,2.313,3.46,5.587,1.438,5.887-.524a41.956,41.956,0,0,1,.206-5.249,8.947,8.947,0,0,1,.409-1.488l-5.992-1.31-1.829-.061Z" transform="translate(-1371.464 -646.268)" fill="#ffb27d"/>
        <path id="Path_3888" data-name="Path 3888" d="M1443.944,711.122l-.558,2.942c5.693,1.508,8.182-1.033,8.378-1.571l-5.992-1.31Z" transform="translate(-1375.259 -646.268)" fill="#e2915a"/>
        <path id="Path_3889" data-name="Path 3889" d="M1445.8,628.567c-1.766,3.588-6.615,2.093-8.659,1.263-.576-.233-.928-.414-.928-.414-.62-.367-.7-1.527-.483-2.957a22.36,22.36,0,0,1,2.735-7.621c1.129-1.35,2.908-2.653,7.488-.068S1448.061,623.97,1445.8,628.567Z" transform="translate(-1368.413 -563.563)" fill="#ffb27d"/>
        <path id="Path_3890" data-name="Path 3890" d="M1450.9,596.424a16.9,16.9,0,0,0,5.077.047c2.326-.32,4.662,1.407,5.386,2.092a1.312,1.312,0,0,0-.064-.569,1.184,1.184,0,0,1,.256.771c.031.04.043.065.031.069a1.518,1.518,0,0,1,.7.245s-.187-.082-.291.023a.122.122,0,0,1-.041.026c2.795,2.47,1.66,7.663.287,8.554a37.541,37.541,0,0,0-4.486,4.02,7.306,7.306,0,0,1,.679-2.264c.579-1.188-.5-1.491-1.708-2.443s.379-2.226-.544-3.529-5.464-1.963-5.2-2.687C1449.52,599.729,1450.855,596.591,1450.9,596.424Z" transform="translate(-1381.352 -545.176)" fill="#333"/>
        <path id="Path_3891" data-name="Path 3891" d="M1444.615,693.491s-.3.444-1.477-.08c0,0-.993-.44-.763-.963A3.486,3.486,0,0,1,1444.615,693.491Z" transform="translate(-1374.337 -629.809)" fill="#fff"/>
        <path id="Path_3892" data-name="Path 3892" d="M1263.952,803.493s-2.733,18.134-23.173,30.727l-1.908,5.541h7.378s18.308-15.353,19.535-35.747Z" transform="translate(-1195.005 -727.682)" fill="#750d1c"/>
        <path id="Path_3893" data-name="Path 3893" d="M1450.3,783.067v-2.749l3.369.954-1.537,2.317Z" transform="translate(-1381.352 -707.256)" fill="#610815"/>
        <path id="Path_3894" data-name="Path 3894" d="M1425.54,747.919l-1.972,1.685a7.753,7.753,0,0,0,.784,4.907l3.974-2.272A5.673,5.673,0,0,1,1425.54,747.919Z" transform="translate(-1357.694 -678.7)" fill="#dfebfd"/>
        <path id="Path_3895" data-name="Path 3895" d="M1464.5,764.511a7.356,7.356,0,0,0,1.429,3.19s4.477-.784,5.72-2.93l-1.875-2.929S1469.327,763.842,1464.5,764.511Z" transform="translate(-1393.869 -690.972)" fill="#dfebfd"/>
        <path id="Path_3896" data-name="Path 3896" d="M1655.716,1175.814s.008,4.06-.366,4.867a17.211,17.211,0,0,1-2.821,4c-.772.563.167-3.251-.076-3.949s-.54,1.376-.9,1.462-.455-1.743-.537-2.4,1.523-2.48,2-3.955S1655.716,1175.814,1655.716,1175.814Z" transform="translate(-1558.259 -1055.273)" fill="#ffb27d"/>
        <path id="Path_3897" data-name="Path 3897" d="M1541.675,794.1s3.937,1.073,6.6,6.943c2.8,6.156,10.285,19.83,10.563,21.717s-.5,19.512-.5,19.512-3.277.127-4.288-1.427c0,0-1.141-15.472-1.645-16.313s-13.4-16.218-12.313-20.12A68.653,68.653,0,0,0,1541.675,794.1Z" transform="translate(-1460.443 -719.406)" fill="#fff"/>
        <path id="Path_3898" data-name="Path 3898" d="M1518.291,967.566a10.7,10.7,0,0,1-4.067,2.078h0a3.239,3.239,0,0,1-1.233.124c-7.206-.743-6.1-28.737-2.607-30.806,3.679-2.18,4.986,1.131,4.986,1.131a92.34,92.34,0,0,0,3.009,25.441A2.827,2.827,0,0,1,1518.291,967.566Z" transform="translate(-1431.901 -846.428)" fill="#dfebfd"/>
        <path id="Path_3899" data-name="Path 3899" d="M1422.775,1591.349c.048-.218.1-.454.169-.706C1422.888,1590.88,1422.831,1591.116,1422.775,1591.349Z" transform="translate(-1357.092 -1421.457)" fill="#233862"/>
        <path id="Path_3900" data-name="Path 3900" d="M1425.762,1294.411c2.205-10.435-.172-38.4.89-38.93,1.09-.545,4.194,4.452,4.194,4.452A193.061,193.061,0,0,1,1425.762,1294.411Z" transform="translate(-1359.725 -1126.017)" fill="#610815"/>
      </g>
      <g id="Group_3827" data-name="Group 3827" transform="translate(56.172 68.423)">
        <path id="Path_3901" data-name="Path 3901" d="M966.567,1713.056l-.635-4.577,2.67-2.231.841,6.06Z" transform="translate(-933.036 -1590.587)" fill="#fcd0b2"/>
        <path id="Path_3902" data-name="Path 3902" d="M964.714,1755.048H953.83a5.977,5.977,0,0,1,.308-2.917c.545-1.208,1.392-1.953,1.47-2.878a3.269,3.269,0,0,0,3.116.958,11.943,11.943,0,0,0,1.888,2.448C961.323,1753.17,964.494,1752.988,964.714,1755.048Z" transform="translate(-922.318 -1628.491)" fill="#750d1c"/>
        <path id="Path_3903" data-name="Path 3903" d="M927.347,1198.3c-.712,5.726-1.294,11.124-1.768,16.154-2.533,26.8-2.036,43.188-2.036,43.188s-.183.485-1.753.492a8.99,8.99,0,0,1-1.757-.189s-5.671-17.5-5.233-27.464a15.274,15.274,0,0,1,.443-3.224c1.36-5.1-5.034-24.586,1.917-31.844S927.674,1195.675,927.347,1198.3Z" transform="translate(-887.138 -1137.641)" fill="#955c2a"/>
        <path id="Path_3904" data-name="Path 3904" d="M927.347,1198.3c-.712,5.726-1.294,11.124-1.768,16.154L914.8,1230.484a15.274,15.274,0,0,1,.443-3.224c1.36-5.1-5.034-24.586,1.917-31.844S927.674,1195.675,927.347,1198.3Z" transform="translate(-887.138 -1137.641)" fill="#815025"/>
        <path id="Path_3905" data-name="Path 3905" d="M1095.556,737.279s-.262-1.308-.558-2.306c-.131-.442.781-3.343,1.411-3.7s2.273,1.6,1.808,3.1c-.239.771-.631,3.278-.631,3.278Z" transform="translate(-1046.781 -731.23)" fill="#ffb27d"/>
        <path id="Path_3906" data-name="Path 3906" d="M1088.495,761.008s-.343-.758-.652-.881-.641-1.363-.869-1.855c0,0,.219-.322.6.092.234.253.756.993.756.993Z" transform="translate(-1039.72 -754.959)" fill="#ffb27d"/>
        <path id="Path_3907" data-name="Path 3907" d="M692.473,799.223c-.067.138-.159.384-.242.615q0-.095,0-.187c0-.461-1.725-2.968-2.432-3.125s-1.706,2.192-.822,3.491c.454.667,1.563,2.95,1.563,2.95l1.833-.947s.106-.826.366-1.034.214-1.491.288-2.028C693.023,798.959,692.719,798.715,692.473,799.223Z" transform="translate(-688.627 -788.774)" fill="#ffb27d"/>
        <path id="Path_3908" data-name="Path 3908" d="M816,1707.315c-.154-1.467-.192-5.327-.192-5.327s3.933-1.257,3.788-.394a27.788,27.788,0,0,0-.518,6.345l-1.591.95Z" transform="translate(-800.718 -1586.219)" fill="#fcd0b2"/>
        <path id="Path_3909" data-name="Path 3909" d="M831.022,1234.3s-15.194,41.649-18.185,59.716a3.028,3.028,0,0,1-1.985.318,2.22,2.22,0,0,1-1.868-1.2s-2.745-21.653,2.711-29.171c3.748-5.165-1.617-27.847,7.113-29.666S831.022,1234.3,831.022,1234.3Z" transform="translate(-794.098 -1173.91)" fill="#955c2a"/>
        <path id="Path_3910" data-name="Path 3910" d="M792.832,841.537h0a.323.323,0,0,0-.013-.054c-.089-.367-.186-.727-.29-1.085h0a24.416,24.416,0,0,0-1.1-3.059c-.235-.528-.478-1.017-.728-1.453-.038-.067-.075-.13-.111-.194h0a4.365,4.365,0,0,0-1.735-1.88,5.209,5.209,0,0,0-2.859-.119,1.319,1.319,0,0,1,.546-.365,4.35,4.35,0,0,0-1.478.629c-7-1.565-6.589,8.335-6.113,10.578s-1.778,3.334-4.956,5.63c-6.064,4.381-5.962,9.024-5.962,9.024.054.023.114.05.176.081.244-.6.761-1.738,1.3-1.978a23.447,23.447,0,0,0-.582,2.351c.924.509,2.2,1.3,3.59,2.187h0c1.857,1.189,3.907,2.557,5.55,3.667a3.763,3.763,0,0,1-.04-1.461l.523,1.621.069.212c1.048.711,1.875,1.279,2.3,1.57l.115.079.188.13c-.14-.573.472-2.067,1.5-3.95.07-.131.145-.265.221-.4.332-.595.7-1.222,1.1-1.869.144-.234.288-.468.439-.705,0,0,0,0,0,0,.12-.192.242-.382.369-.576v0c.3-.46.605-.923.919-1.386.813-1.2,1.675-2.395,2.526-3.489a30.6,30.6,0,0,1,3.464-3.884c.033-.069.065-.138.093-.209a6.943,6.943,0,0,0,.375-1.2c.029-.125.056-.252.079-.378a16.417,16.417,0,0,0,.255-2.968,16.791,16.791,0,0,1-.037,2.991c-.019.161-.041.31-.065.448v0a6.151,6.151,0,0,1-.184.787,4.1,4.1,0,0,0,.442-.68,4.872,4.872,0,0,0,.23-.509C793.762,847.581,793.541,844.462,792.832,841.537Z" transform="translate(-758.607 -821.213)" fill="#333"/>
        <path id="Path_3911" data-name="Path 3911" d="M917.847,944.643a6.167,6.167,0,0,1-3.641,1.24,4.909,4.909,0,0,1-2.848-2.019c.625-.224.679-1.136.1-4.935l.3.014,5.038.241s.118,1.557.33,3.008C917.3,943.41,917.549,944.554,917.847,944.643Z" transform="translate(-884.937 -914.29)" fill="#ffb27d"/>
        <path id="Path_3912" data-name="Path 3912" d="M919.764,939.287s.118,1.557.33,3.008c-2.75.33-4.569-1.952-5.368-3.249Z" transform="translate(-887.905 -914.394)" fill="#e2915a"/>
        <path id="Path_3913" data-name="Path 3913" d="M890.52,856.765a14.549,14.549,0,0,1-2.405-3.942c-.452-1.348-.51-6.583,4.756-6.611a7.081,7.081,0,0,1,3.068.666c1.232.59,3.09,1.981,1.95,6.728l-.244,1.582Z" transform="translate(-864.284 -832.571)" fill="#333"/>
        <path id="Path_3914" data-name="Path 3914" d="M872.722,1004.368a21.337,21.337,0,0,1-14.786,1.893c-.1-.024-6.777-1.09-6.777-1.09.115-.314.978-5.475,1.091-5.763,1.46-3.768,4.129-24.219,6.359-25.228a5.049,5.049,0,0,0,3.589.921c1.6-.142,2.141-.834,2.007-1.58,1.775.839,3.138,1.619,3.138,1.619C868.965,977.57,872.722,1004.368,872.722,1004.368Z" transform="translate(-831.879 -944.779)" fill="#fff"/>
        <path id="Path_3915" data-name="Path 3915" d="M909.216,872.066s-6.463,1.071-7.068-2.964-1.846-6.615,2.255-7.469,5.135.565,5.665,1.863S910.882,871.684,909.216,872.066Z" transform="translate(-876.239 -845.935)" fill="#ffb27d"/>
        <path id="Path_3916" data-name="Path 3916" d="M894.368,854.484s-1.07,5-3.688,6.1-3.908.551-3.908.551a7.794,7.794,0,0,0,1.844-4.93S892.694,852.429,894.368,854.484Z" transform="translate(-863.267 -839.324)" fill="#333"/>
        <path id="Path_3917" data-name="Path 3917" d="M947.577,855.731a5.782,5.782,0,0,1,1.958,1.84c.476.98.936,3.074,1.542,2.91,0,0,.858-3.417-.915-5.014C948.282,853.773,947.577,855.731,947.577,855.731Z" transform="translate(-916.859 -840.121)" fill="#333"/>
        <path id="Path_3918" data-name="Path 3918" d="M979.659,780.305a4.138,4.138,0,0,0-1.155-.357,3.585,3.585,0,0,0-1.016.106s-1.823,11.335-1.959,11.935-7.821,9.259-9.893,9.224a9.386,9.386,0,0,0-4.5,1.691s4.358,9.214,4.575,10.945c.236,1.883,2.492,30.886,2.492,30.886s-.134,1.349,2.387.624a8.609,8.609,0,0,0,3.151-1.326s-2.316-22.833-2.8-29.934a13.612,13.612,0,0,0-.442-2.649,2.685,2.685,0,0,1,.434-2.281c3.187-4.375,8.221-11.464,8.5-12.97C979.845,793.985,979.659,780.305,979.659,780.305Z" transform="translate(-928.811 -774.163)" fill="#750d1c"/>
        <path id="Path_3919" data-name="Path 3919" d="M812.558,1755.048H801.675a5.976,5.976,0,0,1,.308-2.917c.545-1.208,1.392-1.953,1.47-2.878a3.269,3.269,0,0,0,3.116.958,11.933,11.933,0,0,0,1.889,2.448C809.168,1753.17,812.339,1752.988,812.558,1755.048Z" transform="translate(-788.212 -1628.491)" fill="#750d1c"/>
        <path id="Path_3920" data-name="Path 3920" d="M734.64,867.649c-.367-2.257-5.05-11.32-5.05-11.32s-2.96-.886-4.909-.18-12.03-4.986-12.353-5.51-5.723-10.586-5.723-10.586a1.252,1.252,0,0,0-1.165.115,1.313,1.313,0,0,0-.713,1.092s4.167,12.668,5.276,14.628c.669,1.182,6.289,5.3,10.647,8.377a2.735,2.735,0,0,1,1.132,2.6c-.586,4.332-.735,6.771-1.409,14.2-.559,6.167-.773,18.1-.773,18.1a40.291,40.291,0,0,0,8.242,1.911c3.366.224,4.1-3.324,4.1-3.324S735.017,869.97,734.64,867.649Z" transform="translate(-702.817 -827.067)" fill="#750d1c"/>
        <path id="Path_3921" data-name="Path 3921" d="M948.771,930.329a2.884,2.884,0,0,0,1.712.322c.635-.1.78-.849.78-.849a2.5,2.5,0,0,0-1.146,0A4.89,4.89,0,0,0,948.771,930.329Z" transform="translate(-917.912 -906.193)" fill="#fff"/>
      </g>
      <g id="Group_3828" data-name="Group 3828" transform="translate(190.491 71.546)">
        <path id="Path_3922" data-name="Path 3922" d="M1939.847,868.666a3.759,3.759,0,0,1-1.767,5.392s2.9,1.046,3.912.651a2.2,2.2,0,0,1-.441.356s2.727.866,4.086.393,4.286-13.676-3.762-14.372c0,0-6.349-2.273-7.691,4.812s-3.787,6.4-3.787,6.4a3.827,3.827,0,0,0,.921.593s.527-.034.691-.252a1.559,1.559,0,0,1-.36.446s2.574.973,4.151.425S1939.822,870.2,1939.847,868.666Z" transform="translate(-1917.412 -848.499)" fill="#333"/>
        <path id="Path_3923" data-name="Path 3923" d="M1941.948,1765.615h10.268a5.64,5.64,0,0,0-.29-2.752c-.514-1.139-1.314-1.843-1.387-2.715a3.085,3.085,0,0,1-2.94.9,11.285,11.285,0,0,1-1.782,2.31C1945.147,1763.843,1942.154,1763.671,1941.948,1765.615Z" transform="translate(-1927.593 -1641.215)" fill="#955c2a"/>
        <path id="Path_3924" data-name="Path 3924" d="M1923.818,1276.915a9.342,9.342,0,0,1-1.79.365c-1.618.144-1.854-.337-1.854-.337s-1.607-14.308-6.81-41.657a76,76,0,0,1-1.318-9.647c-.081-1.051-.16-2.22-.247-3.592-.236-3.686.324-9.89,3.09-11.52,1.257-.742,2.971-.539,5.275,1.276.181.143.367.3.556.46,6.741,5.832,3.978,22.58,4.25,30.454a10.627,10.627,0,0,0,.444,3.094,17.127,17.127,0,0,1,1.264,3.473C1928.093,1259.5,1923.818,1276.915,1923.818,1276.915Z" transform="translate(-1900.978 -1156.437)" fill="#750d1c"/>
        <path id="Path_3925" data-name="Path 3925" d="M1924.971,1245.712l-12.924-17.077c-.081-1.051-.16-2.22-.247-3.592-.236-3.686.324-9.889,3.09-11.52l5.275,1.276c.181.143.367.3.556.46C1927.462,1221.09,1924.7,1237.838,1924.971,1245.712Z" transform="translate(-1900.978 -1159.434)" fill="#610815"/>
        <path id="Path_3926" data-name="Path 3926" d="M2257.242,1554.694l-4.274-9.337a5.64,5.64,0,0,0-2.382,1.409c-.822.942-1.417.774-3.29-.525a10.286,10.286,0,0,1,1.237,3.163c.344.043,2.3,1.937,4.307,2.459C2253.641,1552.072,2255.389,1555.315,2257.242,1554.694Z" transform="translate(-2196.72 -1451.905)" fill="#955c2a"/>
        <path id="Path_3927" data-name="Path 3927" d="M1953.261,1240.286s9.2,31.987,12.573,34.046,21.1,4.89,24.7,6.435a2.713,2.713,0,0,0,.181-1.973,11.768,11.768,0,0,0-.565-1.373s-11.007-8.275-18.253-9.11c-1.8-.207,3.661-27.664-8.489-28.761C1952.31,1238.549,1953.261,1240.286,1953.261,1240.286Z" transform="translate(-1937.547 -1182.1)" fill="#750d1c"/>
        <path id="Path_3928" data-name="Path 3928" d="M1823.523,763.26s.247-1.234.526-2.176c.123-.417-.736-3.154-1.331-3.491s-2.144,1.507-1.706,2.922c.225.727.6,3.093.6,3.093Z" transform="translate(-1820.936 -757.553)" fill="#ffb27d"/>
        <path id="Path_3929" data-name="Path 3929" d="M1842.75,785.649s.323-.716.615-.832.6-1.286.82-1.75c0,0-.207-.3-.57.087-.221.238-.714.936-.714.936Z" transform="translate(-1840.162 -779.942)" fill="#ffb27d"/>
        <path id="Path_3930" data-name="Path 3930" d="M2196.231,821.7c.063.13.15.362.228.58,0-.06,0-.118,0-.176,0-.435,1.627-2.8,2.295-2.949s1.609,2.068.776,3.293c-.428.629-1.475,2.783-1.475,2.783l-1.729-.893s-.1-.779-.345-.975-.2-1.407-.271-1.913C2195.712,821.455,2196,821.226,2196.231,821.7Z" transform="translate(-2151.254 -811.846)" fill="#ffb27d"/>
        <path id="Path_3931" data-name="Path 3931" d="M1968.922,958.905a5.819,5.819,0,0,0,3.435,1.17,4.633,4.633,0,0,0,2.687-1.905c-.59-.211-.64-1.072-.094-4.656l-.283.013-4.753.228s-.111,1.469-.312,2.838C1969.436,957.742,1969.2,958.822,1968.922,958.905Z" transform="translate(-1951.367 -930.268)" fill="#ffb27d"/>
        <path id="Path_3932" data-name="Path 3932" d="M1974.977,953.852s-.111,1.469-.312,2.838c2.594.312,4.311-1.842,5.064-3.066Z" transform="translate(-1956.429 -930.366)" fill="#ed975d"/>
        <path id="Path_3933" data-name="Path 3933" d="M1967.856,875.995a13.734,13.734,0,0,0,2.27-3.719c.426-1.271.481-6.211-4.487-6.238a6.684,6.684,0,0,0-2.9.629c-1.162.556-2.916,1.87-1.84,6.347l.23,1.493Z" transform="translate(-1944.004 -853.167)" fill="#333"/>
        <path id="Path_3934" data-name="Path 3934" d="M1918.667,1015.989s4.662,2.942,12.427,1.052c.091-.022,4.415-.712,4.415-.712-.108-.3-4.652-7.8-4.759-8.076-1.378-3.555,1.813-20.528-.291-21.48a4.766,4.766,0,0,1-3.386.869c-1.513-.134-2.02-.787-1.894-1.49-1.674.792-2.96,1.527-2.96,1.527C1920.689,989.972,1918.667,1015.989,1918.667,1015.989Z" transform="translate(-1907.073 -959.035)" fill="#ffb27d"/>
        <path id="Path_3935" data-name="Path 3935" d="M1959.538,890.431s6.1,1.01,6.668-2.8,1.742-6.241-2.127-7.047-4.845.533-5.344,1.758S1957.967,890.07,1959.538,890.431Z" transform="translate(-1942.046 -865.777)" fill="#ffb27d"/>
        <path id="Path_3936" data-name="Path 3936" d="M1983.321,873.841s1.01,4.716,3.479,5.759,3.687.52,3.687.52a7.355,7.355,0,0,1-1.74-4.651S1984.9,871.9,1983.321,873.841Z" transform="translate(-1964.058 -859.538)" fill="#333"/>
        <path id="Path_3937" data-name="Path 3937" d="M1960.377,875.018a5.454,5.454,0,0,0-1.847,1.736c-.449.924-.883,2.9-1.455,2.746,0,0-.809-3.224.863-4.731C1959.712,873.171,1960.377,875.018,1960.377,875.018Z" transform="translate(-1940.753 -860.29)" fill="#333"/>
        <path id="Path_3938" data-name="Path 3938" d="M1868.788,811.452s-3.932,11.952-4.979,13.8c-.63,1.115-7.714,5.525-11.825,8.432a.7.7,0,0,0-.158.189l0,.006c-1.026,1.587-4.216,11.409-3.453,13.172,3.206,7.41,5.4,10.275,6.2,12.354a1.975,1.975,0,0,1-1.18,2.571,33.789,33.789,0,0,1-5.548,1.452q-.656.113-1.347.2c-6.319.8-10.6-.681-12.77-1.777a2.893,2.893,0,0,1-1.583-2.745c.131-2.344,1.3-4.664,1.832-10.3.4-4.277-3.29-10.786-3.135-13.063a7.614,7.614,0,0,1,1.154-2.676,0,0,0,0,1,0,0c.678-1.235,1.051-2.352.6-2.972-3.008-4.128-9.5-9.819-9.766-11.24-.388-2.089-.213-15-.213-15a3.9,3.9,0,0,1,1.091-.336,3.417,3.417,0,0,1,.958.1s1.72,10.7,1.848,11.261,7.379,8.736,9.334,8.7a10.866,10.866,0,0,1,4.642,1.6,18.764,18.764,0,0,0-1.98,6.6c-.276,2.653,1.5,1.474,2.609-.343a58.982,58.982,0,0,1,4.539-5.961,8.6,8.6,0,0,1,4.306.025c1.838.666,11.35-4.705,11.655-5.2s5.4-9.987,5.4-9.987a1.182,1.182,0,0,1,1.1.108A1.241,1.241,0,0,1,1868.788,811.452Z" transform="translate(-1822.381 -798.061)" fill="#955c2a"/>
        <path id="Path_3939" data-name="Path 3939" d="M1967.549,945.919s-.261.526-.612.536a4.141,4.141,0,0,1-1.3-.166,5,5,0,0,1-.208-.641A5.919,5.919,0,0,1,1967.549,945.919Z" transform="translate(-1948.286 -923.332)" fill="#fff"/>
        <path id="Path_3940" data-name="Path 3940" d="M2003.429,1087.6a33.767,33.767,0,0,1-5.549,1.452c-2.18-3.006-5.87-6.788-4.921-13.745.982-7.191,8.051-14.76,8.9-15.8-1.026,1.587-4.216,11.409-3.454,13.172,3.207,7.409,5.4,10.275,6.2,12.354A1.975,1.975,0,0,1,2003.429,1087.6Z" transform="translate(-1972.418 -1023.685)" fill="#815025"/>
        <path id="Path_3941" data-name="Path 3941" d="M1833.868,947.035c.678-1.235,1.051-2.352.6-2.972-3.008-4.127-9.5-9.819-9.766-11.24.644,1.544,8.508,6.158,10.719,8.142C1837.606,942.923,1833.957,946.939,1833.868,947.035Z" transform="translate(-1824.254 -912.032)" fill="#815025"/>
      </g>
      <g id="Group_3829" data-name="Group 3829" transform="translate(61.668 46.478)">
        <path id="Path_3942" data-name="Path 3942" d="M786.061,572.8a7.414,7.414,0,0,1,1.316,4.321,6.715,6.715,0,0,1-1.743,3.506l2.4,1.282s1.783-3.166,1.182-5.811a6.762,6.762,0,0,0-1.663-2.685A2.308,2.308,0,0,0,786.061,572.8Z" transform="translate(-779.622 -569.652)" fill="#750d1c"/>
        <path id="Path_3943" data-name="Path 3943" d="M736.482,549.6l-1.523-3.366s7.107.24,9.461,6.031C744.42,552.26,739.448,548.714,736.482,549.6Z" transform="translate(-734.959 -546.229)" fill="#750d1c"/>
      </g>
      <g id="Group_3830" data-name="Group 3830" transform="translate(32.305 128.564)">
        <path id="Path_3944" data-name="Path 3944" d="M491.471,1245.136a6.3,6.3,0,0,1-2.131-3.19,5.7,5.7,0,0,1,.556-3.279l-2.27-.452s-.672,3.012.466,5.015A5.744,5.744,0,0,0,490.1,1245,1.961,1.961,0,0,0,491.471,1245.136Z" transform="translate(-487.429 -1238.215)" fill="#750d1c"/>
        <path id="Path_3945" data-name="Path 3945" d="M501.937,1283.308l2.065,2.363s-5.837,1.55-9.173-2.579C494.829,1283.092,499.743,1284.754,501.937,1283.308Z" transform="translate(-493.951 -1277.768)" fill="#750d1c"/>
      </g>
      <g id="Group_3831" data-name="Group 3831" transform="translate(296.104 143.072)">
        <path id="Path_3946" data-name="Path 3946" d="M2711.248,1363.931s-.148-2.22,4.019-3.294c1.867-.481,6.026.374,3.39,4.466-2.742,4.256-5.187,2.719-5.187,2.719s5.718-4.477,3.43-6.524c-2.525-2.259-3.5,2.218-3.5,2.218A5.508,5.508,0,0,0,2711.248,1363.931Z" transform="translate(-2711.247 -1360.516)" fill="#955c2a"/>
        <path id="Path_3947" data-name="Path 3947" d="M2715.652,1404.08a2.222,2.222,0,0,1-.941-2.717l2.24.389s-.861,2.027,1.246,2.273C2718.2,1404.025,2716.169,1404.506,2715.652,1404.08Z" transform="translate(-2714.173 -1396.518)" fill="#955c2a"/>
      </g>
      <g id="Group_3832" data-name="Group 3832" transform="translate(149.142 28.091)">
        <path id="Path_3948" data-name="Path 3948" d="M1488.265,394.722a4.161,4.161,0,0,1,5.9-.979l2.175-2.08s-2.031-1.542-6.718,1.224C1486.555,394.7,1488.265,394.722,1488.265,394.722Z" transform="translate(-1485.96 -391.235)" fill="#750d1c"/>
        <path id="Path_3949" data-name="Path 3949" d="M1472.374,401.9s-.46-3.849,5.982-6.25c0,0-2.329,1.129-3.047,4.965Z" transform="translate(-1472.366 -395.127)" fill="#750d1c"/>
      </g>
      <path id="Path_3950" data-name="Path 3950" d="M1690.639,256.52s1.9-1.2,2.1-2.656c0,0,1.854.1,2.255.7,0,0-.852,2.405-1.854,2.856C1693.144,257.422,1690.89,257.572,1690.639,256.52Z" transform="translate(-1515.604 -242.068)" fill="#955c2a"/>
      <path id="Path_3951" data-name="Path 3951" d="M1139.56,1411.842s-2.031-1.283-2.245-2.833c0,0-1.978.107-2.406.748,0,0,.909,2.566,1.978,3.047C1136.888,1412.8,1139.293,1412.965,1139.56,1411.842Z" transform="translate(-1025.798 -1260.185)" fill="#955c2a"/>
      <path id="Path_3952" data-name="Path 3952" d="M1876.958,574.495s2.04-1.289,2.255-2.846c0,0,1.987.107,2.416.752,0,0-.913,2.577-1.986,3.06C1879.643,575.461,1877.227,575.622,1876.958,574.495Z" transform="translate(-1679.821 -522.156)" fill="#750d1c"/>
      <g id="Group_3833" data-name="Group 3833" transform="translate(230.666 75.496)">
        <path id="Path_3953" data-name="Path 3953" d="M2165.787,1075.156s-1.179-1.431-1.813-1.632-1.862-1.151-2.022-.759.825,1,.772,1.443-3.131,1.166-3.113,1.64a1.82,1.82,0,0,0,1.9,1.487c1.175-.131,4.154-.839,4.766-.533S2165.787,1075.156,2165.787,1075.156Z" transform="translate(-2159.611 -1039.24)" fill="#ffb27d"/>
        <path id="Path_3954" data-name="Path 3954" d="M2239.5,966.169a25.211,25.211,0,0,1-5.867,5.636,32.411,32.411,0,0,1-13.863,5.315c-1.729-.553-7.039-1.131-10.176-1.637h0a6.051,6.051,0,0,1-2.387-.61l.079-2.733s11.517-.609,13.424-1.494a43.221,43.221,0,0,0,7.4-8.583,11.107,11.107,0,0,1,5.8-4.821C2237.8,955.851,2244.9,958.916,2239.5,966.169Z" transform="translate(-2201.56 -937.216)" fill="#fff"/>
        <path id="Path_3955" data-name="Path 3955" d="M2251.963,1053.945l-.587,1.72a32.409,32.409,0,0,1-13.862,5.315c-1.389,0-7.039-1.131-10.177-1.637.124.01,8.543.668,10.4.476s10.6-7.758,10.6-7.758Z" transform="translate(-2219.303 -1021.075)" fill="#dfebfd"/>
        <path id="Path_3956" data-name="Path 3956" d="M2371.551,1746.181h12.727c.912-.618-.246-6.664-.246-6.664s-3.474-1.318-4.073,1.362-4.425,3.53-6.448,3.857A2.178,2.178,0,0,0,2371.551,1746.181Z" transform="translate(-2346.41 -1626.696)" fill="#333"/>
        <path id="Path_3957" data-name="Path 3957" d="M2530.679,1746.181h12.728c.911-.618-.246-6.664-.246-6.664s-3.474-1.318-4.073,1.362-4.425,3.53-6.448,3.857A2.178,2.178,0,0,0,2530.679,1746.181Z" transform="translate(-2486.662 -1626.696)" fill="#333"/>
        <path id="Path_3958" data-name="Path 3958" d="M2400.419,1270.79s.572,7.138,1.244,15.717c.914,11.655,3.379,40.551,3.379,40.551s1.616,1.379,5.2.625a113.124,113.124,0,0,0,3.958-21.347c.014-.186.028-.374.042-.562.848-11.583,2.166-35.973,2.166-35.973Z" transform="translate(-2371.854 -1212.986)" fill="#955c2a"/>
        <path id="Path_3959" data-name="Path 3959" d="M2398.772,1257.345s.767,9.6,1.44,18.183l12.532,19.829.042-.562c.848-11.583,2.166-35.973,2.166-35.973Z" transform="translate(-2370.402 -1202.007)" fill="#815025"/>
        <path id="Path_3960" data-name="Path 3960" d="M2429.565,1224.864s9.089,22.624,11.995,31.2c2.07,6.109,7.906,27.539,7.906,27.539a5.866,5.866,0,0,0,4.672-.721s2.172-21.894-2.215-28.068c-2.327-3.275-.578-34.048-10.014-34.312S2429.565,1224.864,2429.565,1224.864Z" transform="translate(-2397.542 -1169.527)" fill="#955c2a"/>
        <path id="Path_3961" data-name="Path 3961" d="M2460.041,910.14a5.674,5.674,0,0,0,3.916.527,8.114,8.114,0,0,0,2.653-1.12,7.811,7.811,0,0,0,1.071-.806s-.047-.068-.126-.2a11.449,11.449,0,0,1-1.1-7.272,2.869,2.869,0,0,0-1,.165c-1.8.427-5.429,1.455-5.59,1.5h-.006s-.045.852-.194,2.379c-.012.135-.026.275-.041.421-.019.179-.037.369-.06.564A12.634,12.634,0,0,0,2460.041,910.14Z" transform="translate(-2423.958 -888.155)" fill="#ffb27d"/>
        <path id="Path_3962" data-name="Path 3962" d="M2460.615,906.669c2.693.617,6.711-3.358,6.711-3.358a4.242,4.242,0,0,0-.921-.522c-1.8.427-5.429,1.455-5.589,1.5h-.006S2460.764,905.142,2460.615,906.669Z" transform="translate(-2424.909 -889.51)" fill="#ed975d"/>
        <path id="Path_3963" data-name="Path 3963" d="M2447.36,831.495a13.687,13.687,0,0,0,2.519.587c2.064.279,4.778.114,5.631-2.383,1.436-4.2,3.271-6.724-.956-8.44-2.262-.919-3.71-.968-4.693-.617a3.4,3.4,0,0,0-1.739,1.505C2447.3,823.434,2445.65,830.759,2447.36,831.495Z" transform="translate(-2412.568 -816.93)" fill="#ffb27d"/>
        <path id="Path_3964" data-name="Path 3964" d="M2431.286,796.4c2.447,1.759,5.832.03,6.884.5s1.24,2.23,1.259,2.79.092,1.033,1.52.7a.694.694,0,0,1,.518.031c.592.351-.165,2.054-.393,2.423,0,0-.329,1.22.4,1.813.088.071,1.52.7,4.97-4.583a4.9,4.9,0,0,0,.222-4.494c-.836-1.8-4.334-3.536-7.3-4.456a3.97,3.97,0,0,0-2.58-.1,4.668,4.668,0,0,0-2.217,2.43A9.3,9.3,0,0,1,2431.286,796.4Z" transform="translate(-2399.059 -790.85)" fill="#333"/>
        <path id="Path_3965" data-name="Path 3965" d="M2408.594,985.256s-1.185.256-2.682.51a29.379,29.379,0,0,1-4.479.478,40.391,40.391,0,0,1-11.723-1.929c-1.2,0-1.748-1.858-1.944-4.45a51.038,51.038,0,0,1-.009-5.931c.031-.675.07-1.35.111-2.01.084-1.311.182-2.569.272-3.682.084-1.045.16-1.96.205-2.67,0,0-.171-4.967-.1-9.337a11.883,11.883,0,0,1,2.248-6.457c1.278-1.351,4.979-2.206,5.72-2.323l.087-.013c3.043,1.709,7.142-.6,7.142-.6.093.016.183.037.274.057a15.623,15.623,0,0,1,4.094.782c1.77.964,2.8,11.667,2.8,11.667.294,7.27-.076,18.913.5,23.356C2411.293,984.167,2409.876,984.96,2408.594,985.256Z" transform="translate(-2360.622 -928.337)" fill="#fff"/>
        <path id="Path_3966" data-name="Path 3966" d="M2464.467,947.359s-4.535,4.677-7.777,3.719c0,0-.432-.632,1.028-.834S2460.755,950.124,2464.467,947.359Z" transform="translate(-2421.397 -928.793)" fill="#dfebfd"/>
        <path id="Path_3967" data-name="Path 3967" d="M2452.624,890.75s-.089.544,1.177.979c0,0,1.062.365,1.256-.193A3.607,3.607,0,0,0,2452.624,890.75Z" transform="translate(-2417.865 -878.899)" fill="#fff"/>
        <path id="Path_3968" data-name="Path 3968" d="M2406.178,1096.531s-6.586,11.016-10.323,12.955a28.647,28.647,0,0,1-8.09,2.312,51.038,51.038,0,0,1-.009-5.931c2.677-.325,6.753-.842,6.753-.842Z" transform="translate(-2360.622 -1060.27)" fill="#dfebfd"/>
        <path id="Path_3969" data-name="Path 3969" d="M2398.934,1049.874l-3.51,12.672s-4.131.261-6.125.189c.084-1.311.087-1.355.176-2.468C2389.475,1060.266,2394.217,1057.794,2398.934,1049.874Z" transform="translate(-2362.052 -1019.148)" fill="#dfebfd"/>
        <path id="Path_3970" data-name="Path 3970" d="M2246.442,1146.136s-1.179-1.431-1.813-1.632-1.862-1.151-2.022-.76.825,1,.773,1.443-3.132,1.166-3.113,1.64a1.82,1.82,0,0,0,1.9,1.487c1.175-.131,4.154-.839,4.766-.533S2246.442,1146.136,2246.442,1146.136Z" transform="translate(-2230.699 -1101.8)" fill="#ffb27d"/>
        <path id="Path_3971" data-name="Path 3971" d="M2448.943,957.345s.208,6.711-15.09,20.177l-3.072-5.5c-.566-.329,9.882-22.8,12.885-22.622C2449.484,949.745,2448.943,957.345,2448.943,957.345Z" transform="translate(-2398.594 -930.589)" fill="#fff"/>
        <path id="Path_3972" data-name="Path 3972" d="M2300.01,1134.577s-17.4,1.989-18.04,2.335a3.19,3.19,0,0,0-1.566,3.38s9.006,1.132,13.96,1.111a32.756,32.756,0,0,0,7.039-.7Z" transform="translate(-2265.994 -1093.803)" fill="#fff"/>
      </g>
      <path id="Path_4388" data-name="Path 4388" d="M.508,0H327.145a.508.508,0,1,1,0,1.017H.508A.508.508,0,0,1,0,.509H0A.508.508,0,0,1,.508,0Z" transform="translate(0 194.928)" fill="#333"/>
    </g>
  </g>
</svg>
