<svg xmlns="http://www.w3.org/2000/svg" xmlns:xlink="http://www.w3.org/1999/xlink" width="454.102" height="444.873" viewBox="0 0 454.102 444.873">
  <defs>
    <clipPath id="clip-path">
      <circle id="Ellipse_32" data-name="Ellipse 32" cx="221.693" cy="221.693" r="221.693" fill="none"/>
    </clipPath>
    <clipPath id="clip-path-2">
      <circle id="Ellipse_35" data-name="Ellipse 35" cx="54.603" cy="54.603" r="54.603" transform="translate(0 25.299) rotate(-13.395)" fill="#e6d9cc"/>
    </clipPath>
  </defs>
  <g id="img_booking_history" transform="translate(-603.19 -91.236)">
    <circle id="Ellipse_29" data-name="Ellipse 29" cx="221.693" cy="221.693" r="221.693" transform="translate(603.19 92.723)" fill="#efe7df"/>
    <g id="Group_22116" data-name="Group 22116" transform="translate(643.147 119.669)">
      <g id="Group_22109" data-name="Group 22109" transform="translate(251.737)">
        <g id="Group_22104" data-name="Group 22104">
          <path id="Path_4453" data-name="Path 4453" d="M906.329,121.642a6.766,6.766,0,1,1-9.564,0A6.773,6.773,0,0,1,906.329,121.642Z" transform="translate(-894.784 -119.66)" fill="#e6d9cc"/>
          <path id="Path_4454" data-name="Path 4454" d="M906.329,143.228a6.765,6.765,0,1,1-9.564,0A6.772,6.772,0,0,1,906.329,143.228Z" transform="translate(-894.784 -119.652)" fill="#e6d9cc"/>
          <path id="Path_4455" data-name="Path 4455" d="M906.329,164.814a6.765,6.765,0,1,1-9.564,0A6.772,6.772,0,0,1,906.329,164.814Z" transform="translate(-894.784 -119.645)" fill="#e6d9cc"/>
          <path id="Path_4456" data-name="Path 4456" d="M906.329,186.4a6.766,6.766,0,1,1-9.564,0A6.773,6.773,0,0,1,906.329,186.4Z" transform="translate(-894.784 -119.637)" fill="#e6d9cc"/>
          <path id="Path_4457" data-name="Path 4457" d="M906.329,207.985a6.765,6.765,0,1,1-9.564,0A6.772,6.772,0,0,1,906.329,207.985Z" transform="translate(-894.784 -119.63)" fill="#e6d9cc"/>
        </g>
        <g id="Group_22105" data-name="Group 22105" transform="translate(21.363)">
          <path id="Path_4458" data-name="Path 4458" d="M927.684,121.642a6.765,6.765,0,1,1-9.563,0A6.773,6.773,0,0,1,927.684,121.642Z" transform="translate(-916.139 -119.66)" fill="#e6d9cc"/>
          <path id="Path_4459" data-name="Path 4459" d="M927.684,143.228a6.765,6.765,0,1,1-9.563,0A6.772,6.772,0,0,1,927.684,143.228Z" transform="translate(-916.139 -119.652)" fill="#e6d9cc"/>
          <path id="Path_4460" data-name="Path 4460" d="M927.684,164.814a6.765,6.765,0,1,1-9.563,0A6.772,6.772,0,0,1,927.684,164.814Z" transform="translate(-916.139 -119.645)" fill="#e6d9cc"/>
          <path id="Path_4461" data-name="Path 4461" d="M927.684,186.4a6.765,6.765,0,1,1-9.563,0A6.773,6.773,0,0,1,927.684,186.4Z" transform="translate(-916.139 -119.637)" fill="#e6d9cc"/>
          <path id="Path_4462" data-name="Path 4462" d="M927.684,207.985a6.765,6.765,0,1,1-9.563,0A6.772,6.772,0,0,1,927.684,207.985Z" transform="translate(-916.139 -119.63)" fill="#e6d9cc"/>
        </g>
        <g id="Group_22106" data-name="Group 22106" transform="translate(43.113)">
          <path id="Path_4463" data-name="Path 4463" d="M949.427,121.642a6.766,6.766,0,1,1-9.564,0A6.773,6.773,0,0,1,949.427,121.642Z" transform="translate(-937.882 -119.66)" fill="#e6d9cc"/>
          <path id="Path_4464" data-name="Path 4464" d="M949.427,143.228a6.765,6.765,0,1,1-9.564,0A6.772,6.772,0,0,1,949.427,143.228Z" transform="translate(-937.882 -119.652)" fill="#e6d9cc"/>
          <path id="Path_4465" data-name="Path 4465" d="M949.427,164.814a6.765,6.765,0,1,1-9.564,0A6.772,6.772,0,0,1,949.427,164.814Z" transform="translate(-937.882 -119.645)" fill="#e6d9cc"/>
          <path id="Path_4466" data-name="Path 4466" d="M949.427,186.4a6.766,6.766,0,1,1-9.564,0A6.773,6.773,0,0,1,949.427,186.4Z" transform="translate(-937.882 -119.637)" fill="#e6d9cc"/>
          <path id="Path_4467" data-name="Path 4467" d="M949.427,207.985a6.765,6.765,0,1,1-9.564,0A6.772,6.772,0,0,1,949.427,207.985Z" transform="translate(-937.882 -119.63)" fill="#e6d9cc"/>
        </g>
        <g id="Group_22107" data-name="Group 22107" transform="translate(64.476)">
          <path id="Path_4468" data-name="Path 4468" d="M970.783,121.642a6.766,6.766,0,1,1-9.564,0A6.773,6.773,0,0,1,970.783,121.642Z" transform="translate(-959.238 -119.66)" fill="#e6d9cc"/>
          <path id="Path_4469" data-name="Path 4469" d="M970.783,143.228a6.765,6.765,0,1,1-9.564,0A6.772,6.772,0,0,1,970.783,143.228Z" transform="translate(-959.238 -119.652)" fill="#e6d9cc"/>
          <path id="Path_4470" data-name="Path 4470" d="M970.783,164.814a6.765,6.765,0,1,1-9.564,0A6.772,6.772,0,0,1,970.783,164.814Z" transform="translate(-959.238 -119.645)" fill="#e6d9cc"/>
          <path id="Path_4471" data-name="Path 4471" d="M970.783,186.4a6.766,6.766,0,1,1-9.564,0A6.773,6.773,0,0,1,970.783,186.4Z" transform="translate(-959.238 -119.637)" fill="#e6d9cc"/>
          <path id="Path_4472" data-name="Path 4472" d="M970.783,207.985a6.765,6.765,0,1,1-9.564,0A6.772,6.772,0,0,1,970.783,207.985Z" transform="translate(-959.238 -119.63)" fill="#e6d9cc"/>
        </g>
        <g id="Group_22108" data-name="Group 22108" transform="translate(85.152)">
          <path id="Path_4473" data-name="Path 4473" d="M991.452,121.642a6.766,6.766,0,1,1-9.564,0A6.773,6.773,0,0,1,991.452,121.642Z" transform="translate(-979.907 -119.66)" fill="#e6d9cc"/>
          <path id="Path_4474" data-name="Path 4474" d="M991.452,143.228a6.765,6.765,0,1,1-9.564,0A6.772,6.772,0,0,1,991.452,143.228Z" transform="translate(-979.907 -119.652)" fill="#e6d9cc"/>
          <path id="Path_4475" data-name="Path 4475" d="M991.452,164.814a6.765,6.765,0,1,1-9.564,0A6.772,6.772,0,0,1,991.452,164.814Z" transform="translate(-979.907 -119.645)" fill="#e6d9cc"/>
          <path id="Path_4476" data-name="Path 4476" d="M991.452,186.4a6.766,6.766,0,1,1-9.564,0A6.773,6.773,0,0,1,991.452,186.4Z" transform="translate(-979.907 -119.637)" fill="#e6d9cc"/>
          <path id="Path_4477" data-name="Path 4477" d="M991.452,207.985a6.765,6.765,0,1,1-9.564,0A6.772,6.772,0,0,1,991.452,207.985Z" transform="translate(-979.907 -119.63)" fill="#e6d9cc"/>
        </g>
      </g>
      <g id="Group_22115" data-name="Group 22115" transform="translate(0 7.79)">
        <g id="Group_22113" data-name="Group 22113" transform="translate(56.086 22.021)">
          <g id="Group_22112" data-name="Group 22112">
            <g id="Group_22110" data-name="Group 22110">
              <path id="Path_4478" data-name="Path 4478" d="M700.568,163.564h8.421a1.368,1.368,0,0,1,1.367,1.368v8.42a1.369,1.369,0,0,0,1.368,1.368h.211a1.368,1.368,0,0,0,1.368-1.368v-8.42a1.368,1.368,0,0,1,1.367-1.368h8.421a1.369,1.369,0,0,0,1.368-1.368v-.21a1.368,1.368,0,0,0-1.368-1.368h-8.421a1.368,1.368,0,0,1-1.367-1.368v-8.421a1.368,1.368,0,0,0-1.368-1.367h-.211a1.368,1.368,0,0,0-1.368,1.367v8.421a1.368,1.368,0,0,1-1.367,1.368h-8.421a1.368,1.368,0,0,0-1.368,1.368v.21A1.368,1.368,0,0,0,700.568,163.564Z" transform="translate(-699.2 -149.46)" fill="#e5d8cb"/>
            </g>
            <g id="Group_22111" data-name="Group 22111" transform="translate(24.258 20.611)">
              <path id="Path_4479" data-name="Path 4479" d="M724.284,178.663h5.134a.834.834,0,0,1,.834.834v5.135a.835.835,0,0,0,.834.834h.129a.835.835,0,0,0,.834-.834V179.5a.834.834,0,0,1,.834-.834h5.134a.834.834,0,0,0,.834-.834V177.7a.834.834,0,0,0-.834-.834h-5.134a.834.834,0,0,1-.834-.834V170.9a.834.834,0,0,0-.834-.833h-.129a.834.834,0,0,0-.834.833v5.135a.834.834,0,0,1-.834.834h-5.134a.834.834,0,0,0-.834.834v.128A.834.834,0,0,0,724.284,178.663Z" transform="translate(-723.45 -170.064)" fill="#e5d8cb"/>
            </g>
          </g>
        </g>
        <g id="Group_22114" data-name="Group 22114">
          <ellipse id="Ellipse_30" data-name="Ellipse 30" cx="19.482" cy="19.497" rx="19.482" ry="19.497" transform="translate(0 16.173)" fill="#750d1c"/>
          <path id="Path_4480" data-name="Path 4480" d="M679.567,128.943a5.106,5.106,0,1,1-7.218,0A5.113,5.113,0,0,1,679.567,128.943Z" transform="translate(-643.124 -127.447)" fill="#750d1c"/>
        </g>
      </g>
    </g>
    <g id="Group_22167" data-name="Group 22167" transform="translate(603.19 92.723)">
      <g id="Group_22143" data-name="Group 22143" transform="translate(208.411 80.453)">
        <rect id="Rectangle_8116" data-name="Rectangle 8116" width="245.19" height="173.117" rx="15.319" fill="#fff" stroke="#955c2a" stroke-miterlimit="10" stroke-width="1"/>
        <path id="Path_4481" data-name="Path 4481" d="M1041.018,173.149H827.231a15.516,15.516,0,0,0-15.7,15.324v6.9h245.19v-6.9A15.516,15.516,0,0,0,1041.018,173.149Z" transform="translate(-811.53 -173.149)" fill="#955c2a"/>
        <g id="Group_22117" data-name="Group 22117" transform="translate(205.817 8.173)">
          <path id="Path_4482" data-name="Path 4482" d="M1033.229,183.913a2.594,2.594,0,1,1-2.594-2.594A2.594,2.594,0,0,1,1033.229,183.913Z" transform="translate(-1017.273 -181.319)" fill="#fff"/>
          <circle id="Ellipse_31" data-name="Ellipse 31" cx="2.594" cy="2.594" r="2.594" transform="translate(22.341 0)" fill="#fff"/>
          <path id="Path_4483" data-name="Path 4483" d="M1022.466,183.913a2.594,2.594,0,1,1-2.595-2.594A2.594,2.594,0,0,1,1022.466,183.913Z" transform="translate(-1017.277 -181.319)" fill="#fff"/>
        </g>
        <text id="Calendar" transform="translate(97.65 4.057)" fill="#fff" font-size="11" font-family="Montserrat-Medium, Montserrat" font-weight="500"><tspan x="0" y="11">Calendar</tspan></text>
        <rect id="Rectangle_8117" data-name="Rectangle 8117" width="222.203" height="122.595" transform="translate(11.749 36.779)" fill="#fff" stroke="#955c2a" stroke-miterlimit="10" stroke-width="0.5"/>
        <line id="Line_4" data-name="Line 4" x2="221.693" transform="translate(11.749 66.406)" fill="#fff" stroke="#955c2a" stroke-miterlimit="10" stroke-width="0.5"/>
        <line id="Line_5" data-name="Line 5" x2="221.693" transform="translate(11.749 97.054)" fill="#fff" stroke="#955c2a" stroke-miterlimit="10" stroke-width="0.5"/>
        <line id="Line_6" data-name="Line 6" x2="221.693" transform="translate(11.749 129.257)" fill="#fff" stroke="#955c2a" stroke-miterlimit="10" stroke-width="0.5"/>
        <line id="Line_7" data-name="Line 7" y2="122.084" transform="translate(41.589 36.779)" fill="#fff" stroke="#955c2a" stroke-miterlimit="10" stroke-width="0.5"/>
        <line id="Line_8" data-name="Line 8" y2="122.084" transform="translate(74.749 36.779)" fill="#fff" stroke="#955c2a" stroke-miterlimit="10" stroke-width="0.5"/>
        <line id="Line_9" data-name="Line 9" y2="122.084" transform="translate(106.419 36.779)" fill="#fff" stroke="#955c2a" stroke-miterlimit="10" stroke-width="0.5"/>
        <line id="Line_10" data-name="Line 10" y2="122.084" transform="translate(138.622 36.779)" fill="#fff" stroke="#955c2a" stroke-miterlimit="10" stroke-width="0.5"/>
        <line id="Line_11" data-name="Line 11" y2="122.084" transform="translate(170.846 36.779)" fill="#fff" stroke="#955c2a" stroke-miterlimit="10" stroke-width="0.5"/>
        <line id="Line_12" data-name="Line 12" y2="122.084" transform="translate(202.58 36.779)" fill="#fff" stroke="#955c2a" stroke-miterlimit="10" stroke-width="0.5"/>
        <rect id="Rectangle_8118" data-name="Rectangle 8118" width="32.692" height="31.16" transform="translate(106.249 65.895)" fill="#955c2a"/>
        <rect id="Rectangle_8128" data-name="Rectangle 8128" width="32.692" height="31.16" transform="translate(170.675 128.214)" fill="#955c2a"/>
        <g id="Group_22120" data-name="Group 22120" transform="translate(111.774 70.348)">
          <g id="Group_22119" data-name="Group 22119">
            <path id="Path_4495" data-name="Path 4495" d="M924.122,243.473h2.214v7.773h-1.469v-6.383h-1.6Z" transform="translate(-923.266 -243.473)" fill="#fff"/>
            <path id="Path_4496" data-name="Path 4496" d="M930.181,243.473H932.4v7.773h-1.469v-6.383h-1.6Z" transform="translate(-923.264 -243.473)" fill="#fff"/>
          </g>
        </g>
        <g id="Group_22133" data-name="Group 22133" transform="translate(80.801 133.085)">
          <g id="Group_22132" data-name="Group 22132">
            <path id="Path_4519" data-name="Path 4519" d="M893.958,308.889h-1.442a2.847,2.847,0,0,1,.789-1.979,2.567,2.567,0,0,1,1.879-.721,2.532,2.532,0,0,1,1.249.3,2.242,2.242,0,0,1,.867.861,2.269,2.269,0,0,1,.325,1.143,3.384,3.384,0,0,1-.394,1.49,8.094,8.094,0,0,1-1.441,1.887l-.871.919h2.77v1.368H892.3v-.708l2.4-2.452a6.966,6.966,0,0,0,1.159-1.418,2.088,2.088,0,0,0,.288-.97,1,1,0,0,0-.3-.742,1.056,1.056,0,0,0-.769-.293,1.019,1.019,0,0,0-.792.354A1.465,1.465,0,0,0,893.958,308.889Z" transform="translate(-892.303 -306.189)" fill="#955c2a"/>
            <path id="Path_4520" data-name="Path 4520" d="M901.717,306.189h1.474v5h.692v1.368h-.692v1.6h-1.447v-1.6h-3.392v-1.368Zm.027,5v-2.606l-1.776,2.606Z" transform="translate(-892.301 -306.189)" fill="#955c2a"/>
          </g>
        </g>
        <g id="Group_22179" data-name="Group 22179" transform="translate(44.801 133.085)">
          <g id="Group_22132-2" data-name="Group 22132">
            <path id="Path_4519-2" data-name="Path 4519" d="M893.958,308.889h-1.442a2.847,2.847,0,0,1,.789-1.979,2.567,2.567,0,0,1,1.879-.721,2.532,2.532,0,0,1,1.249.3,2.242,2.242,0,0,1,.867.861,2.269,2.269,0,0,1,.325,1.143,3.384,3.384,0,0,1-.394,1.49,8.094,8.094,0,0,1-1.441,1.887l-.871.919h2.77v1.368H892.3v-.708l2.4-2.452a6.966,6.966,0,0,0,1.159-1.418,2.088,2.088,0,0,0,.288-.97,1,1,0,0,0-.3-.742,1.056,1.056,0,0,0-.769-.293,1.019,1.019,0,0,0-.792.354A1.465,1.465,0,0,0,893.958,308.889Z" transform="translate(-892.303 -306.189)" fill="#955c2a"/>
            <path id="Path_4520-2" data-name="Path 4520" d="M901.717,306.189h1.474v5h.692v1.368h-.692v1.6h-1.447v-1.6h-3.392v-1.368Zm.027,5v-2.606l-1.776,2.606Z" transform="translate(-892.301 -306.189)" fill="#955c2a"/>
          </g>
        </g>
        <g id="Group_22135" data-name="Group 22135" transform="translate(111.98 133.073)">
          <g id="Group_22134" data-name="Group 22134">
            <path id="Path_4521" data-name="Path 4521" d="M925.126,308.877h-1.443a2.843,2.843,0,0,1,.79-1.979,2.792,2.792,0,0,1,3.128-.423,2.383,2.383,0,0,1,1.191,2.006,3.388,3.388,0,0,1-.394,1.49,8.082,8.082,0,0,1-1.44,1.886l-.872.919h2.77v1.369h-5.384v-.708l2.4-2.452a7.013,7.013,0,0,0,1.16-1.42,2.093,2.093,0,0,0,.287-.969.994.994,0,0,0-.3-.742,1.054,1.054,0,0,0-.769-.293,1.016,1.016,0,0,0-.792.354A1.475,1.475,0,0,0,925.126,308.877Z" transform="translate(-923.472 -306.177)" fill="#955c2a"/>
            <path id="Path_4522" data-name="Path 4522" d="M931.106,306.372h3.64v1.368H932.21l-.317,1.412a1.952,1.952,0,0,1,.258-.056,1.737,1.737,0,0,1,.243-.018,2.347,2.347,0,0,1,1.758.721,2.544,2.544,0,0,1,.7,1.847,2.612,2.612,0,0,1-.774,1.916,2.557,2.557,0,0,1-1.884.779,2.6,2.6,0,0,1-2.642-2.114h1.554a1.338,1.338,0,0,0,.472.552,1.17,1.17,0,0,0,.647.188,1.118,1.118,0,0,0,.835-.354,1.382,1.382,0,0,0,.024-1.795,1.016,1.016,0,0,0-.774-.346,1.033,1.033,0,0,0-.478.122,1.715,1.715,0,0,0-.462.364l-1.205-.269Z" transform="translate(-923.47 -306.177)" fill="#955c2a"/>
          </g>
        </g>
        <g id="Group_22137" data-name="Group 22137" transform="translate(144.632 132.907)">
          <g id="Group_22136" data-name="Group 22136">
            <path id="Path_4523" data-name="Path 4523" d="M957.767,308.712h-1.443a2.844,2.844,0,0,1,.79-1.98,2.789,2.789,0,0,1,3.128-.422,2.383,2.383,0,0,1,1.191,2,3.385,3.385,0,0,1-.394,1.49,8.083,8.083,0,0,1-1.44,1.887l-.872.919h2.77v1.368h-5.384v-.708l2.4-2.452a6.934,6.934,0,0,0,1.159-1.418,2.087,2.087,0,0,0,.288-.969,1,1,0,0,0-.3-.743,1.054,1.054,0,0,0-.769-.293,1.018,1.018,0,0,0-.792.354A1.472,1.472,0,0,0,957.767,308.712Z" transform="translate(-956.113 -306.011)" fill="#955c2a"/>
            <path id="Path_4524" data-name="Path 4524" d="M965.078,306.011l1.259.63-1.36,2.641a2.261,2.261,0,0,1,1.68.708,2.417,2.417,0,0,1,.692,1.76,2.437,2.437,0,0,1-4.177,1.694,2.36,2.36,0,0,1-.7-1.678,2.509,2.509,0,0,1,.109-.724,7.326,7.326,0,0,1,.5-1.12Zm-.185,4.672a.909.909,0,0,0-.692.3,1.129,1.129,0,0,0,.013,1.5.917.917,0,0,0,.684.307.957.957,0,0,0,.708-.3,1.12,1.12,0,0,0,.008-1.509A.96.96,0,0,0,964.893,310.683Z" transform="translate(-956.111 -306.011)" fill="#955c2a"/>
          </g>
        </g>
        <g id="Group_22139" data-name="Group 22139" transform="translate(177.176 133.013)">
          <g id="Group_22138" data-name="Group 22138">
            <path id="Path_4525" data-name="Path 4525" d="M990.3,308.818h-1.443a2.849,2.849,0,0,1,.79-1.98,2.564,2.564,0,0,1,1.879-.721,2.537,2.537,0,0,1,1.249.3,2.239,2.239,0,0,1,.866.861,2.262,2.262,0,0,1,.325,1.144,3.4,3.4,0,0,1-.393,1.49,8.122,8.122,0,0,1-1.442,1.887l-.872.919h2.77v1.368h-5.384v-.708l2.4-2.452a6.983,6.983,0,0,0,1.16-1.418,2.1,2.1,0,0,0,.288-.969.991.991,0,0,0-.3-.742,1.049,1.049,0,0,0-.768-.294,1.021,1.021,0,0,0-.793.354A1.477,1.477,0,0,0,990.3,308.818Z" transform="translate(-988.646 -306.117)" fill="#fff"/>
            <path id="Path_4526" data-name="Path 4526" d="M995.122,306.313h5.1v.776l-3.508,7.192-1.249-.607,2.919-5.972h-3.26Z" transform="translate(-988.644 -306.117)" fill="#fff"/>
          </g>
        </g>
        <g id="Group_22178" data-name="Group 22178">
          <path id="Path_4484" data-name="Path 4484" d="M829.824,214.358h2.214v7.773H830.57v-6.383h-1.6Z" transform="translate(-811.523 -173.135)" fill="#955c2a"/>
          <path id="Path_4485" data-name="Path 4485" d="M859.653,217.342H858.21a2.852,2.852,0,0,1,.79-1.979,2.792,2.792,0,0,1,3.128-.423,2.228,2.228,0,0,1,.866.862,2.259,2.259,0,0,1,.325,1.143,3.378,3.378,0,0,1-.393,1.49,8.137,8.137,0,0,1-1.441,1.887l-.872.919h2.771v1.368H858V221.9l2.4-2.452a7.046,7.046,0,0,0,1.16-1.418,2.1,2.1,0,0,0,.288-.97,1,1,0,0,0-.3-.742,1.052,1.052,0,0,0-.768-.293,1.022,1.022,0,0,0-.793.354A1.477,1.477,0,0,0,859.653,217.342Z" transform="translate(-811.514 -173.135)" fill="#955c2a"/>
          <path id="Path_4486" data-name="Path 4486" d="M894.5,216.533h-1.422a2.315,2.315,0,0,1,2.4-2.114,2.253,2.253,0,0,1,1.6.608,1.91,1.91,0,0,1,.647,1.442,1.674,1.674,0,0,1-.283.945,2.012,2.012,0,0,1-.821.692,2.1,2.1,0,0,1,1.107.737,2,2,0,0,1,.4,1.239,2.344,2.344,0,0,1-.772,1.773,2.749,2.749,0,0,1-1.966.726,2.547,2.547,0,0,1-1.844-.684,2.688,2.688,0,0,1-.782-1.863h1.463a1.482,1.482,0,0,0,.42.9,1.285,1.285,0,0,0,1.681-.04,1.116,1.116,0,0,0-.119-1.707,2.138,2.138,0,0,0-1.326-.375v-1.268a2.408,2.408,0,0,0,.8-.166.974.974,0,0,0,.407-.341.82.82,0,0,0,.145-.46.69.69,0,0,0-.222-.525.816.816,0,0,0-.581-.209.938.938,0,0,0-.575.193A.963.963,0,0,0,894.5,216.533Z" transform="translate(-811.502 -173.135)" fill="#955c2a"/>
          <path id="Path_4487" data-name="Path 4487" d="M926.866,214.636h1.474v5h.692v1.368h-.692v1.6h-1.447v-1.6H923.5V219.64Zm.027,5v-2.6l-1.776,2.6Z" transform="translate(-811.491 -173.135)" fill="#955c2a"/>
          <path id="Path_4488" data-name="Path 4488" d="M957.382,214.877h3.64v1.368h-2.536l-.317,1.411a2.105,2.105,0,0,1,.259-.056,1.719,1.719,0,0,1,.243-.018,2.346,2.346,0,0,1,1.757.721,2.543,2.543,0,0,1,.7,1.847,2.614,2.614,0,0,1-.774,1.916,2.557,2.557,0,0,1-1.884.779,2.6,2.6,0,0,1-2.642-2.114h1.554a1.339,1.339,0,0,0,.472.552,1.178,1.178,0,0,0,.647.188,1.122,1.122,0,0,0,.835-.354,1.382,1.382,0,0,0,.024-1.795,1.019,1.019,0,0,0-.774-.346,1.032,1.032,0,0,0-.478.122,1.735,1.735,0,0,0-.462.364l-1.206-.269Z" transform="translate(-811.48 -173.135)" fill="#955c2a"/>
          <path id="Path_4489" data-name="Path 4489" d="M991.707,214.923l1.26.63-1.361,2.641a2.256,2.256,0,0,1,1.68.707,2.422,2.422,0,0,1,.692,1.76,2.436,2.436,0,0,1-4.176,1.694,2.36,2.36,0,0,1-.7-1.678,2.5,2.5,0,0,1,.108-.723,7.476,7.476,0,0,1,.5-1.12Zm-.185,4.671a.91.91,0,0,0-.692.3,1.13,1.13,0,0,0,.013,1.5.921.921,0,0,0,.684.306.956.956,0,0,0,.708-.3,1.12,1.12,0,0,0,.008-1.509A.959.959,0,0,0,991.522,219.594Z" transform="translate(-811.469 -173.135)" fill="#955c2a"/>
          <path id="Path_4490" data-name="Path 4490" d="M1019.545,214.78h5.1v.777l-3.508,7.191-1.25-.606,2.92-5.973h-3.26Z" transform="translate(-811.459 -173.135)" fill="#955c2a"/>
          <path id="Path_4491" data-name="Path 4491" d="M833.37,247.354a2.35,2.35,0,0,1,.816.869,2.38,2.38,0,0,1,.288,1.151,2.417,2.417,0,0,1-.335,1.242,2.184,2.184,0,0,1-.9.859,3.179,3.179,0,0,1-1.443.288,3.374,3.374,0,0,1-1.5-.278,2.12,2.12,0,0,1-.887-.84,2.451,2.451,0,0,1-.333-1.271,2.345,2.345,0,0,1,.267-1.119,2.727,2.727,0,0,1,.8-.9,2.556,2.556,0,0,1-.526-.752,2.069,2.069,0,0,1-.177-.842,2.136,2.136,0,0,1,.294-1.105,2.01,2.01,0,0,1,.821-.776,2.589,2.589,0,0,1,1.22-.278,2.487,2.487,0,0,1,1.2.28,2.059,2.059,0,0,1,.816.8,2.153,2.153,0,0,1,.3,1.105,1.9,1.9,0,0,1-.156.773A3,3,0,0,1,833.37,247.354Zm-1.58.79a1.305,1.305,0,0,0-.9.325,1.006,1.006,0,0,0-.365.774,1.053,1.053,0,0,0,.344.8,1.256,1.256,0,0,0,.9.325,1.292,1.292,0,0,0,.9-.3,1.012,1.012,0,0,0,.335-.784,1.056,1.056,0,0,0-.349-.806A1.231,1.231,0,0,0,831.791,248.145Zm-.058-3.117a.808.808,0,0,0-.6.239.839.839,0,0,0-.235.614.859.859,0,0,0,.248.626.879.879,0,0,0,1.228.006.885.885,0,0,0,.241-.643.809.809,0,0,0-.243-.608A.885.885,0,0,0,831.733,245.027Z" transform="translate(-811.523 -173.125)" fill="#955c2a"/>
          <path id="Path_4492" data-name="Path 4492" d="M860.86,251.947l-1.258-.624,1.362-2.647a2.27,2.27,0,0,1-1.683-.707,2.409,2.409,0,0,1-.694-1.758,2.437,2.437,0,0,1,4.177-1.7,2.36,2.36,0,0,1,.7,1.681,2.474,2.474,0,0,1-.109.72,7.483,7.483,0,0,1-.5,1.116Zm.184-4.672a.908.908,0,0,0,.692-.3,1.128,1.128,0,0,0-.013-1.5.918.918,0,0,0-.684-.305.956.956,0,0,0-.708.3,1.117,1.117,0,0,0-.008,1.5A.958.958,0,0,0,861.044,247.275Z" transform="translate(-811.514 -173.125)" fill="#955c2a"/>
          <g id="Group_22118" data-name="Group 22118" transform="translate(81.445 70.712)">
            <path id="Path_4493" data-name="Path 4493" d="M893.8,244.033h2.215v7.773h-1.469v-6.383h-1.6Z" transform="translate(-892.947 -243.837)" fill="#955c2a"/>
            <path id="Path_4494" data-name="Path 4494" d="M901.088,243.837a2.555,2.555,0,0,1,1.467.417,2.644,2.644,0,0,1,.95,1.276,8.677,8.677,0,0,1-.005,4.8,2.7,2.7,0,0,1-.916,1.265,2.468,2.468,0,0,1-1.453.4,2.558,2.558,0,0,1-1.475-.406,2.67,2.67,0,0,1-.935-1.237,6.491,6.491,0,0,1-.338-2.362,5.613,5.613,0,0,1,.661-3.1A2.35,2.35,0,0,1,901.088,243.837Zm.034,1.405a1.008,1.008,0,0,0-.664.241,1.55,1.55,0,0,0-.442.826,7.251,7.251,0,0,0-.154,1.718,4.169,4.169,0,0,0,.35,2.037,1.046,1.046,0,0,0,.91.563.963.963,0,0,0,.855-.534,4.445,4.445,0,0,0,.384-2.156,4.517,4.517,0,0,0-.345-2.114A1.023,1.023,0,0,0,901.122,245.242Z" transform="translate(-892.945 -243.837)" fill="#955c2a"/>
          </g>
          <g id="Group_22121" data-name="Group 22121" transform="translate(143.722 70.369)">
            <path id="Path_4497" data-name="Path 4497" d="M956.058,243.689h2.214v7.773H956.8v-6.383h-1.6Z" transform="translate(-955.202 -243.494)" fill="#955c2a"/>
            <path id="Path_4498" data-name="Path 4498" d="M962.224,246.194H960.78a2.851,2.851,0,0,1,.79-1.979,2.792,2.792,0,0,1,3.128-.423,2.242,2.242,0,0,1,.867.861,2.267,2.267,0,0,1,.324,1.144,3.375,3.375,0,0,1-.393,1.49,8.1,8.1,0,0,1-1.442,1.887l-.871.919h2.77v1.368h-5.385v-.707l2.4-2.452a7,7,0,0,0,1.159-1.419,2.085,2.085,0,0,0,.288-.969.993.993,0,0,0-.3-.742,1.048,1.048,0,0,0-.768-.293,1.019,1.019,0,0,0-.792.354A1.462,1.462,0,0,0,962.224,246.194Z" transform="translate(-955.2 -243.494)" fill="#955c2a"/>
          </g>
          <g id="Group_22122" data-name="Group 22122" transform="translate(177.089 70.379)">
            <path id="Path_4499" data-name="Path 4499" d="M989.413,243.7h2.215v7.773h-1.469v-6.383h-1.6Z" transform="translate(-988.558 -243.504)" fill="#955c2a"/>
            <path id="Path_4500" data-name="Path 4500" d="M995.748,245.618h-1.422a2.315,2.315,0,0,1,2.4-2.114,2.252,2.252,0,0,1,1.6.608,1.91,1.91,0,0,1,.647,1.442,1.679,1.679,0,0,1-.282.946,2.03,2.03,0,0,1-.822.692,2.088,2.088,0,0,1,1.107.736,1.994,1.994,0,0,1,.4,1.239,2.346,2.346,0,0,1-.771,1.773,2.753,2.753,0,0,1-1.966.727,2.555,2.555,0,0,1-1.845-.684,2.7,2.7,0,0,1-.782-1.863h1.465a1.47,1.47,0,0,0,.42.9,1.284,1.284,0,0,0,1.68-.04,1.116,1.116,0,0,0-.119-1.707,2.135,2.135,0,0,0-1.325-.375v-1.268a2.414,2.414,0,0,0,.8-.166.979.979,0,0,0,.406-.341.811.811,0,0,0,.146-.459.691.691,0,0,0-.222-.526.815.815,0,0,0-.581-.209.939.939,0,0,0-.576.193A.963.963,0,0,0,995.748,245.618Z" transform="translate(-988.556 -243.504)" fill="#955c2a"/>
          </g>
          <g id="Group_22123" data-name="Group 22123" transform="translate(208.302 70.647)">
            <path id="Path_4501" data-name="Path 4501" d="M1020.617,243.968h2.214v7.773h-1.469v-6.383h-1.6Z" transform="translate(-1019.761 -243.772)" fill="#955c2a"/>
            <path id="Path_4502" data-name="Path 4502" d="M1028.483,243.772h1.474v5h.692v1.369h-.692v1.6h-1.447v-1.6h-3.392v-1.369Zm.027,5v-2.6l-1.776,2.6Z" transform="translate(-1019.759 -243.772)" fill="#955c2a"/>
          </g>
          <g id="Group_22124" data-name="Group 22124" transform="translate(17.278 101.298)">
            <path id="Path_4503" data-name="Path 4503" d="M829.658,274.412h2.214v7.773H830.4V275.8h-1.6Z" transform="translate(-828.802 -274.412)" fill="#955c2a"/>
            <path id="Path_4504" data-name="Path 4504" d="M835.744,274.412h3.64v1.368h-2.536l-.317,1.41a2.1,2.1,0,0,1,.259-.055,1.587,1.587,0,0,1,.243-.019,2.344,2.344,0,0,1,1.757.721,2.544,2.544,0,0,1,.7,1.847,2.607,2.607,0,0,1-.774,1.916,2.552,2.552,0,0,1-1.884.779,2.6,2.6,0,0,1-2.642-2.114h1.554a1.327,1.327,0,0,0,.473.552,1.173,1.173,0,0,0,.647.188,1.118,1.118,0,0,0,.834-.354,1.377,1.377,0,0,0,.024-1.794,1.013,1.013,0,0,0-.774-.346,1.031,1.031,0,0,0-.478.121,1.74,1.74,0,0,0-.462.365l-1.2-.27Z" transform="translate(-828.8 -274.412)" fill="#955c2a"/>
          </g>
          <g id="Group_22125" data-name="Group 22125" transform="translate(46.088 101.304)">
            <path id="Path_4505" data-name="Path 4505" d="M858.458,274.613h2.214v7.773H859.2V276h-1.6Z" transform="translate(-857.602 -274.418)" fill="#955c2a"/>
            <path id="Path_4506" data-name="Path 4506" d="M865.875,274.418l1.26.629-1.36,2.641a2.261,2.261,0,0,1,1.681.708,2.424,2.424,0,0,1,.692,1.76,2.436,2.436,0,0,1-4.177,1.694,2.36,2.36,0,0,1-.7-1.678,2.538,2.538,0,0,1,.108-.724,7.49,7.49,0,0,1,.5-1.12Zm-.185,4.671a.913.913,0,0,0-.692.3,1.127,1.127,0,0,0,.014,1.5.919.919,0,0,0,.684.307.958.958,0,0,0,.707-.3,1.044,1.044,0,0,0,.3-.761,1.032,1.032,0,0,0-.288-.747A.959.959,0,0,0,865.69,279.089Z" transform="translate(-857.6 -274.418)" fill="#955c2a"/>
          </g>
          <g id="Group_22126" data-name="Group 22126" transform="translate(80.814 101.369)">
            <path id="Path_4507" data-name="Path 4507" d="M893.172,274.483h2.215v7.773h-1.469v-6.383h-1.6Z" transform="translate(-892.317 -274.483)" fill="#955c2a"/>
            <path id="Path_4508" data-name="Path 4508" d="M898.1,274.483h5.1v.777l-3.508,7.191-1.25-.606,2.92-5.973H898.1Z" transform="translate(-892.315 -274.483)" fill="#955c2a"/>
          </g>
          <g id="Group_22127" data-name="Group 22127" transform="translate(111.642 101.085)">
            <path id="Path_4509" data-name="Path 4509" d="M923.989,274.395H926.2v7.773h-1.47v-6.383h-1.6Z" transform="translate(-923.133 -274.199)" fill="#955c2a"/>
            <path id="Path_4510" data-name="Path 4510" d="M932.89,277.953a2.334,2.334,0,0,1,.816.869,2.379,2.379,0,0,1,.288,1.15,2.418,2.418,0,0,1-.335,1.242,2.172,2.172,0,0,1-.9.859,3.166,3.166,0,0,1-1.443.288,3.375,3.375,0,0,1-1.5-.277,2.117,2.117,0,0,1-.887-.841,2.447,2.447,0,0,1-.333-1.271,2.344,2.344,0,0,1,.267-1.118,2.716,2.716,0,0,1,.8-.9,2.555,2.555,0,0,1-.526-.752,2.071,2.071,0,0,1-.177-.842,2.139,2.139,0,0,1,.294-1.106,2.017,2.017,0,0,1,.821-.776,2.6,2.6,0,0,1,1.22-.277,2.473,2.473,0,0,1,1.2.28,2.057,2.057,0,0,1,.816.794,2.16,2.16,0,0,1,.3,1.106,1.9,1.9,0,0,1-.156.773A3.011,3.011,0,0,1,932.89,277.953Zm-1.579.79a1.3,1.3,0,0,0-.9.325,1,1,0,0,0-.365.774,1.054,1.054,0,0,0,.344.8,1.26,1.26,0,0,0,.9.325,1.3,1.3,0,0,0,.9-.3,1.013,1.013,0,0,0,.335-.785,1.054,1.054,0,0,0-.349-.805A1.227,1.227,0,0,0,931.311,278.744Zm-.058-3.118a.805.805,0,0,0-.6.24.838.838,0,0,0-.235.613.86.86,0,0,0,.248.627.879.879,0,0,0,1.229,0,.888.888,0,0,0,.24-.642.807.807,0,0,0-.243-.608A.881.881,0,0,0,931.253,275.625Z" transform="translate(-923.131 -274.199)" fill="#955c2a"/>
          </g>
          <g id="Group_22128" data-name="Group 22128" transform="translate(143.496 101.246)">
            <path id="Path_4511" data-name="Path 4511" d="M955.833,274.556h2.214v7.773h-1.469v-6.383h-1.6Z" transform="translate(-954.977 -274.36)" fill="#955c2a"/>
            <path id="Path_4512" data-name="Path 4512" d="M963.034,282.524l-1.257-.624,1.362-2.646a2.267,2.267,0,0,1-1.682-.708,2.411,2.411,0,0,1-.694-1.758,2.437,2.437,0,0,1,4.177-1.7,2.362,2.362,0,0,1,.7,1.682,2.5,2.5,0,0,1-.108.719,7.543,7.543,0,0,1-.5,1.116Zm.185-4.671a.911.911,0,0,0,.692-.3,1.126,1.126,0,0,0-.014-1.5.918.918,0,0,0-.684-.306.952.952,0,0,0-.707.3,1.115,1.115,0,0,0-.008,1.5A.956.956,0,0,0,963.219,277.853Z" transform="translate(-954.975 -274.36)" fill="#955c2a"/>
          </g>
          <g id="Group_22129" data-name="Group 22129" transform="translate(176.572 101.383)">
            <path id="Path_4513" data-name="Path 4513" d="M989.7,277.2h-1.443a2.851,2.851,0,0,1,.79-1.979,2.792,2.792,0,0,1,3.128-.423,2.232,2.232,0,0,1,.866.861,2.259,2.259,0,0,1,.325,1.144,3.375,3.375,0,0,1-.393,1.49,8.092,8.092,0,0,1-1.441,1.887l-.872.919h2.771v1.368h-5.385v-.707l2.4-2.452a7,7,0,0,0,1.16-1.419,2.1,2.1,0,0,0,.288-.969.993.993,0,0,0-.3-.742,1.048,1.048,0,0,0-.768-.293,1.022,1.022,0,0,0-.793.354A1.473,1.473,0,0,0,989.7,277.2Z" transform="translate(-988.042 -274.497)" fill="#955c2a"/>
            <path id="Path_4514" data-name="Path 4514" d="M996.875,274.5a2.553,2.553,0,0,1,1.466.417,2.636,2.636,0,0,1,.951,1.276,8.689,8.689,0,0,1-.006,4.8,2.712,2.712,0,0,1-.916,1.265,2.473,2.473,0,0,1-1.453.4,2.546,2.546,0,0,1-1.474-.407,2.648,2.648,0,0,1-.935-1.236,6.471,6.471,0,0,1-.339-2.362,5.615,5.615,0,0,1,.661-3.1A2.353,2.353,0,0,1,996.875,274.5Zm.034,1.405a1.012,1.012,0,0,0-.664.24,1.558,1.558,0,0,0-.442.827,7.255,7.255,0,0,0-.153,1.718,4.159,4.159,0,0,0,.35,2.037,1.042,1.042,0,0,0,.909.562.961.961,0,0,0,.855-.533,4.449,4.449,0,0,0,.384-2.156,4.512,4.512,0,0,0-.345-2.114A1.021,1.021,0,0,0,996.909,275.9Z" transform="translate(-988.04 -274.497)" fill="#955c2a"/>
          </g>
          <g id="Group_22130" data-name="Group 22130" transform="translate(207.794 101.107)">
            <path id="Path_4515" data-name="Path 4515" d="M1020.907,276.922h-1.443a2.846,2.846,0,0,1,.79-1.98,2.789,2.789,0,0,1,3.128-.422,2.383,2.383,0,0,1,1.191,2.006,3.376,3.376,0,0,1-.394,1.49,8.106,8.106,0,0,1-1.44,1.887l-.872.919h2.77v1.368h-5.384v-.708l2.4-2.452a7.041,7.041,0,0,0,1.16-1.419,2.1,2.1,0,0,0,.287-.969,1,1,0,0,0-.3-.742,1.051,1.051,0,0,0-.769-.294,1.023,1.023,0,0,0-.792.354A1.477,1.477,0,0,0,1020.907,276.922Z" transform="translate(-1019.253 -274.221)" fill="#955c2a"/>
            <path id="Path_4516" data-name="Path 4516" d="M1026.859,274.417h2.215v7.773H1027.6v-6.383H1026Z" transform="translate(-1019.251 -274.221)" fill="#955c2a"/>
          </g>
          <g id="Group_22131" data-name="Group 22131" transform="translate(17.202 132.976)">
            <path id="Path_4517" data-name="Path 4517" d="M830.381,308.78h-1.443a2.848,2.848,0,0,1,.789-1.979,2.794,2.794,0,0,1,3.129-.423,2.245,2.245,0,0,1,.866.861,2.269,2.269,0,0,1,.325,1.144,3.381,3.381,0,0,1-.394,1.491,8.114,8.114,0,0,1-1.441,1.886l-.871.92h2.77v1.368h-5.385v-.708l2.4-2.452a6.992,6.992,0,0,0,1.159-1.418,2.091,2.091,0,0,0,.288-.97,1,1,0,0,0-.3-.742,1.056,1.056,0,0,0-.769-.293,1.018,1.018,0,0,0-.792.354A1.469,1.469,0,0,0,830.381,308.78Z" transform="translate(-828.726 -306.08)" fill="#955c2a"/>
            <path id="Path_4518" data-name="Path 4518" d="M836.44,308.78H835a2.847,2.847,0,0,1,.789-1.979,2.792,2.792,0,0,1,3.128-.423,2.242,2.242,0,0,1,.867.861,2.27,2.27,0,0,1,.325,1.144,3.381,3.381,0,0,1-.394,1.491,8.114,8.114,0,0,1-1.441,1.886l-.871.92h2.77v1.368h-5.385v-.708l2.4-2.452a7,7,0,0,0,1.159-1.418,2.091,2.091,0,0,0,.288-.97,1,1,0,0,0-.3-.742,1.056,1.056,0,0,0-.769-.293,1.019,1.019,0,0,0-.792.354A1.464,1.464,0,0,0,836.44,308.78Z" transform="translate(-828.724 -306.08)" fill="#955c2a"/>
          </g>
          <g id="Group_22140" data-name="Group 22140" transform="translate(208.195 133.266)">
            <path id="Path_4527" data-name="Path 4527" d="M1021.308,309.07h-1.443a2.844,2.844,0,0,1,.79-1.98,2.789,2.789,0,0,1,3.128-.422,2.384,2.384,0,0,1,1.191,2,3.385,3.385,0,0,1-.394,1.49,8.087,8.087,0,0,1-1.44,1.887l-.872.919h2.77v1.368h-5.384v-.708l2.4-2.452a6.985,6.985,0,0,0,1.16-1.418,2.1,2.1,0,0,0,.287-.969.994.994,0,0,0-.3-.742,1.051,1.051,0,0,0-.769-.294,1.019,1.019,0,0,0-.792.354A1.472,1.472,0,0,0,1021.308,309.07Z" transform="translate(-1019.654 -306.369)" fill="#955c2a"/>
            <path id="Path_4528" data-name="Path 4528" d="M1030.1,310.123a2.334,2.334,0,0,1,.816.869,2.381,2.381,0,0,1,.288,1.151,2.41,2.41,0,0,1-.335,1.241,2.185,2.185,0,0,1-.9.86,3.18,3.18,0,0,1-1.443.288,3.374,3.374,0,0,1-1.5-.278,2.111,2.111,0,0,1-.887-.841,2.447,2.447,0,0,1-.333-1.27,2.344,2.344,0,0,1,.267-1.119,2.717,2.717,0,0,1,.8-.9,2.552,2.552,0,0,1-.526-.752,2.072,2.072,0,0,1-.177-.841,2.15,2.15,0,0,1,.293-1.107,2.024,2.024,0,0,1,.822-.775,2.587,2.587,0,0,1,1.22-.278,2.491,2.491,0,0,1,1.2.28,2.069,2.069,0,0,1,.816.794,2.159,2.159,0,0,1,.3,1.107,1.9,1.9,0,0,1-.156.772A3,3,0,0,1,1030.1,310.123Zm-1.58.79a1.3,1.3,0,0,0-.9.325,1,1,0,0,0-.365.774,1.056,1.056,0,0,0,.343.8,1.264,1.264,0,0,0,.9.325,1.293,1.293,0,0,0,.9-.3,1.009,1.009,0,0,0,.336-.784,1.057,1.057,0,0,0-.349-.806A1.227,1.227,0,0,0,1028.524,310.914Zm-.058-3.117a.8.8,0,0,0-.6.239.838.838,0,0,0-.235.614.863.863,0,0,0,.248.627.826.826,0,0,0,.613.252.817.817,0,0,0,.615-.247.887.887,0,0,0,.241-.643.8.8,0,0,0-.243-.607A.881.881,0,0,0,1028.466,307.8Z" transform="translate(-1019.652 -306.369)" fill="#955c2a"/>
          </g>
        </g>
        <g id="Group_22141" data-name="Group 22141" transform="translate(74.579 66.661)" opacity="0.32">
          <line id="Line_13" data-name="Line 13" y1="29.903" x2="30.649" transform="translate(0 0.245)" fill="#2ea8bc" stroke="#955c2a" stroke-miterlimit="10" stroke-width="3"/>
          <line id="Line_14" data-name="Line 14" x2="30.154" y2="30.393" transform="translate(0.247)" fill="#2ea8bc" stroke="#955c2a" stroke-miterlimit="10" stroke-width="3"/>
        </g>
        <g id="Group_22142" data-name="Group 22142" transform="translate(202.793 97.31)" opacity="0.32">
          <line id="Line_15" data-name="Line 15" y1="31.411" x2="30.138" transform="translate(0 0.257)" fill="#2ea8bc" stroke="#955c2a" stroke-miterlimit="10" stroke-width="3"/>
          <line id="Line_16" data-name="Line 16" x2="29.652" y2="31.926" transform="translate(0.243)" fill="#2ea8bc" stroke="#955c2a" stroke-miterlimit="10" stroke-width="3"/>
        </g>
      </g>
      <g id="Group_22166" data-name="Group 22166">
        <g id="Group_22165" data-name="Group 22165" clip-path="url(#clip-path)">
          <g id="Group_22154" data-name="Group 22154" transform="translate(115.763 165.747)">
            <g id="Group_22144" data-name="Group 22144" transform="translate(27.386)" opacity="0.63">
              <path id="Path_4529" data-name="Path 4529" d="M746.881,372.014c-.923-16.741-1.684-34.4,5.221-49.2,3.708-7.952,9.408-14.528,13.723-22.092a71.058,71.058,0,0,0,8.844-28.04" transform="translate(-746.29 -258.409)" fill="#e6d9cc" stroke="#e6d9cc" stroke-miterlimit="10" stroke-width="1"/>
              <path id="Path_4530" data-name="Path 4530" d="M772.73,282.57c-1.443-7.17-2.745-15.27.968-21.27a6.125,6.125,0,0,1,2.932-2.708,2.958,2.958,0,0,1,3.519,1.149,5.1,5.1,0,0,1,.511,2.695c-.13,7.525-4.238,14.094-8.189,20.166" transform="translate(-746.281 -258.414)" fill="#e6d9cc"/>
              <path id="Path_4531" data-name="Path 4531" d="M769.08,292.678a25.724,25.724,0,0,1,8.695-7.058c1.782-.878,3.789-1.536,5.7-.973a4.332,4.332,0,0,1,3.025,4.836c-.493,1.98-2.521,2.885-4.324,3.415a49.565,49.565,0,0,1-13.438,2.011" transform="translate(-746.282 -258.405)" fill="#e6d9cc"/>
              <path id="Path_4532" data-name="Path 4532" d="M764.383,302.583a28.412,28.412,0,0,0-1.655-17.369c-.668-1.748-1.55-3.538-3.053-4.472s-3.76-.564-4.4,1.169a5.643,5.643,0,0,0,.422,3.771,203.009,203.009,0,0,0,8.1,18.784" transform="translate(-746.287 -258.407)" fill="#e6d9cc"/>
              <path id="Path_4533" data-name="Path 4533" d="M756.958,314.015a17.487,17.487,0,0,1,15.394-6.727,6.488,6.488,0,0,1,4.2,1.765c1.1,1.181,1.456,3.311.411,4.508a4.156,4.156,0,0,1-2.757,1.106,56.553,56.553,0,0,1-17.058-.483" transform="translate(-746.286 -258.397)" fill="#e6d9cc"/>
              <path id="Path_4534" data-name="Path 4534" d="M754.17,317.9a36.216,36.216,0,0,0-4.184-19.2c-.312-.578-.7-1.2-1.293-1.345-1.274-.322-1.924,1.6-1.934,3.027-.044,6.54,3.294,14.554,6.887,19.835" transform="translate(-746.29 -258.401)" fill="#e6d9cc"/>
              <path id="Path_4535" data-name="Path 4535" d="M750.72,327.595a10.027,10.027,0,0,1,10.888-2.037c1.189.519,2.468,1.666,2.2,3.026a2.927,2.927,0,0,1-2.1,1.912c-3.423,1.276-8.563.208-12.11-.726" transform="translate(-746.289 -258.391)" fill="#e6d9cc"/>
            </g>
            <path id="Path_4536" data-name="Path 4536" d="M781.743,555.183a165.467,165.467,0,0,1,68.47-7.82,265.5,265.5,0,0,0-57.329-5.227,353.281,353.281,0,0,1,90.985-24.387,427.848,427.848,0,0,0-78.063,7.927,941.451,941.451,0,0,1,92.425-43.824,327.083,327.083,0,0,0-88.971,27.733,403.055,403.055,0,0,1,97.037-62.2c-39.068,7.257-75.9,22.556-107.047,44.464l-23.476-5.427L751.56,543.743Z" transform="translate(-718.902 -258.35)" fill="#e6d9cc"/>
            <path id="Path_4537" data-name="Path 4537" d="M718.913,515.488c7.5-5.278,17.129-8.781,26.39-5.935,10.208,3.137,19.977,13.6,29.506,9.982,4.784-1.819,7.584-7.442,6.3-12.661a12.93,12.93,0,0,0-11.741-9.513c2.058-6.905,10.958-8.46,18.281-7.57s15.288,3.022,21.508-.39,6.132-15.708-1.188-16.654c-2.744-.355-5.84.983-7.959-1.231a4.16,4.16,0,0,1-.375-5.179c1.8-2.676,5.085-3.047,8.138-3.323l23.14-2.093c6.092-.551,12.685-1.332,16.775-5.665s3.271-13.49-2.716-15.484c-4.293-1.431-10.2.769-12.5-3.215-2.075-3.606,1.988-7.186,5.645-8.554,9.247-3.459,19.468-4.365,28.648-7.978,9.9-3.9,19.041-12.275,18.019-23.656a12.548,12.548,0,0,0-3.3-7.613c-5.051-5.25-12.223-3.247-17.842-.662a113.2,113.2,0,0,0-28.517,18.785c-3.605,3.254-9.512-1.143-7.683-5.719l.052-.129c1.767-4.391,1.743-11.394-3.268-12.338a5.49,5.49,0,0,0-3.922.817c-12.987,8.157-6.923,28.048-11.575,42.377-1.205,3.714-3.357,7.268-6.824,8.961s-8.413.948-10.829-2.415c-2.71-3.771-3.934-10.963-7.991-9.938-1.729.436-12.254-9.368-12.269-7.541-.09,10.686,7.258,32.647,3.259,42.245-2.3,5.519-5.854,11.228-11.768,12.358s-13.262-5.832-10.285-10.974c-2.2-2.071-5.863-.906-7.377,1.464s-1.564,5.436-1.836,8.316a43.839,43.839,0,0,1-20.279,33.1" transform="translate(-718.913 -258.371)" fill="#e6d9cc"/>
            <g id="Group_22153" data-name="Group 22153" transform="translate(26.516 55.908)">
              <g id="Group_22152" data-name="Group 22152">
                <g id="Group_22145" data-name="Group 22145" transform="translate(0 10.419)">
                  <path id="Path_4538" data-name="Path 4538" d="M745.42,394.632c3.5-13.2,7.365-27.06,16.44-36.781,4.876-5.223,10.947-8.879,16.194-13.649a57.876,57.876,0,0,0,13.914-19.484" transform="translate(-745.42 -324.719)" fill="#e6d9cc"/>
                </g>
                <g id="Group_22146" data-name="Group 22146" transform="translate(42.354)">
                  <path id="Path_4539" data-name="Path 4539" d="M787.968,331.889c.688-5.917,1.723-12.517,6.109-16.227a4.986,4.986,0,0,1,2.953-1.358,2.411,2.411,0,0,1,2.436,1.777,4.163,4.163,0,0,1-.283,2.216c-2,5.794-6.833,9.845-11.423,13.552" transform="translate(-787.76 -314.303)" fill="#e6d9cc"/>
                </g>
                <g id="Group_22147" data-name="Group 22147" transform="translate(36.356 21.094)">
                  <path id="Path_4540" data-name="Path 4540" d="M782.593,338.8a20.934,20.934,0,0,1,8.511-3.275,6.5,6.5,0,0,1,4.657.682,3.527,3.527,0,0,1,1.124,4.507c-.88,1.408-2.679,1.6-4.208,1.555a40.327,40.327,0,0,1-10.913-1.83" transform="translate(-781.764 -335.39)" fill="#e6d9cc"/>
                </g>
                <g id="Group_22148" data-name="Group 22148" transform="translate(28.569 11.917)">
                  <path id="Path_4541" data-name="Path 4541" d="M776.46,345.281a23.137,23.137,0,0,0,3.1-13.867,7.1,7.1,0,0,0-1.237-4.231,2.441,2.441,0,0,0-3.705-.2,4.593,4.593,0,0,0-.623,3.026,165.094,165.094,0,0,0,1.534,16.586" transform="translate(-773.979 -326.216)" fill="#e6d9cc"/>
                </g>
                <g id="Group_22149" data-name="Group 22149" transform="translate(22.418 35.488)">
                  <path id="Path_4542" data-name="Path 4542" d="M767.83,352.262a14.241,14.241,0,0,1,13.616-1.329,5.286,5.286,0,0,1,2.81,2.426,2.931,2.931,0,0,1-.818,3.594,3.384,3.384,0,0,1-2.413.161,46.045,46.045,0,0,1-13.087-4.672" transform="translate(-767.83 -349.779)" fill="#e6d9cc"/>
                </g>
                <g id="Group_22150" data-name="Group 22150" transform="translate(16.921 22.848)">
                  <path id="Path_4543" data-name="Path 4543" d="M764.691,354.571a29.5,29.5,0,0,0,1.6-15.922,1.965,1.965,0,0,0-.663-1.367c-.905-.57-1.892.75-2.26,1.857-1.682,5.053-1.116,12.1.335,17.095" transform="translate(-762.335 -337.144)" fill="#e6d9cc"/>
                </g>
                <g id="Group_22151" data-name="Group 22151" transform="translate(12.742 46.088)">
                  <path id="Path_4544" data-name="Path 4544" d="M759.577,361.206a8.164,8.164,0,0,1,8.944,1.166c.79.7,1.491,1.912.937,2.9a2.383,2.383,0,0,1-2.107.952c-2.972.125-6.682-2-9.194-3.615" transform="translate(-758.158 -360.375)" fill="#e6d9cc"/>
                </g>
              </g>
            </g>
          </g>
          <g id="Group_22164" data-name="Group 22164" transform="translate(-6.511 105.255)">
            <path id="Path_4545" data-name="Path 4545" d="M733.05,316.714c12.426-11.157,17.207-41.971,17.18-60.057-.024-16.078-5.247-39.264-21.092-50.569s-38.537-11.2-52.527,2.554c-9.862,9.694-16.764,29.79-19.253,44.089s-3.508,28.761-9.606,41.033c-6.772,13.628-13.748,22.992-23.42,33.985-8.212,9.332-15.4,19.132-18.649,26.782-8.611,20.287-6.177,36.8,6.7,54.866s37.35,24.818,56.34,15.551a59.462,59.462,0,0,0,18.205-14.5,79.428,79.428,0,0,0,19.562-45.065" transform="translate(-596.679 -197.942)" fill="#333"/>
            <path id="Path_4546" data-name="Path 4546" d="M722.828,317.429c-2.7-8.893-7.461-19.7-7.331-31.1.068-6.055-5.22-8.168-9.956-8.873-3.124-.465-5.975,2.185-7.47,5.59s-.207,1.75-.788,5.678a176.852,176.852,0,0,1-6.656,29" transform="translate(-596.648 -197.915)" fill="#f7b094"/>
            <path id="Path_4547" data-name="Path 4547" d="M695.774,297.391c.585-2.975,1.092-5.871,1.506-8.669.581-3.928-.706-2.273.788-5.678a11.471,11.471,0,0,1,2.769-3.918q3.358.332,6.707.758a42.983,42.983,0,0,1,6.066,1.149,7.448,7.448,0,0,1,1.884,5.295,46.888,46.888,0,0,0,.737,8.549A23.35,23.35,0,0,1,695.774,297.391Z" transform="translate(-596.647 -197.914)" fill="#e89c82"/>
            <path id="hair" d="M690.157,285.711c-7.912-3.489-13.658-10.784-16.956-18.843s-4.4-16.9-5.065-25.653c-.336-4.423-.3-9.553,3.06-12.513,1.73-1.527,4.031-2.151,6.241-2.727,10.294-2.686,20.671-5.385,31.238-5.975s21.465,1.068,30.383,6.574a8.516,8.516,0,0,1,3.342,3.154,9.847,9.847,0,0,1,.675,4.627c-.174,10.724-.749,21.768-5.193,31.617s-13.639,18.325-24.256,18.773" transform="translate(-596.656 -197.935)" fill="#333"/>
            <path id="Path_4548" data-name="Path 4548" d="M676.867,256.04c.444,21.083,16.175,37.459,29.869,36.822s28.7-18.444,28.262-39.526-16.413-34.578-30.107-33.941S676.424,234.957,676.867,256.04Z" transform="translate(-596.653 -197.935)" fill="#f7b094"/>
            <g id="Group_22155" data-name="Group 22155" transform="translate(74.816 49.197)">
              <path id="Path_4549" data-name="Path 4549" d="M678.631,264.173c-3.6-.865-6.762-3.672-7.13-7.189s2.732-7.325,6.471-7.283" transform="translate(-671.471 -247.121)" fill="#f7b094"/>
              <path id="Path_4550" data-name="Path 4550" d="M732.657,261.658c3.557-1.2,6.594-4.294,6.813-7.839s-3.035-7.057-6.765-6.667" transform="translate(-671.451 -247.122)" fill="#f7b094"/>
            </g>
            <path id="Path_4551" data-name="Path 4551" d="M714.371,239.608c-.205.155.012.422.3.454a1.8,1.8,0,0,0,.832-.183,16.279,16.279,0,0,1,10.315-.394,4.865,4.865,0,0,0,1.537.326c.546-.009,1.151-.293,1.169-.682a.711.711,0,0,0-.211-.464,4.833,4.833,0,0,0-2.261-1.253,14.386,14.386,0,0,0-9.273.456,5.02,5.02,0,0,0-2.51,1.847" transform="translate(-596.64 -197.929)" fill="#333"/>
            <path id="Path_4552" data-name="Path 4552" d="M698.62,240.6c.21.152-.032.429-.338.469a1.889,1.889,0,0,1-.874-.163,17.881,17.881,0,0,0-10.926-.123,5.567,5.567,0,0,1-1.645.373c-.579.006-1.208-.266-1.209-.662a.766.766,0,0,1,.245-.477,5.66,5.66,0,0,1,2.456-1.337,15.755,15.755,0,0,1,9.816.215,4.821,4.821,0,0,1,2.579,1.811" transform="translate(-596.651 -197.928)" fill="#333"/>
            <path id="Path_4553" data-name="Path 4553" d="M683.509,266.583a6.055,6.055,0,0,0,6.531,5.763,6.438,6.438,0,0,0,6.276-6.359,6.055,6.055,0,0,0-6.531-5.763A6.439,6.439,0,0,0,683.509,266.583Z" transform="translate(-596.651 -197.921)" fill="#e89c82" stroke="#e99c82" stroke-miterlimit="10" stroke-width="0.283"/>
            <path id="Path_4554" data-name="Path 4554" d="M718.376,264.96a6.053,6.053,0,0,0,6.53,5.763,6.438,6.438,0,0,0,6.276-6.359,6.055,6.055,0,0,0-6.531-5.763A6.438,6.438,0,0,0,718.376,264.96Z" transform="translate(-596.639 -197.921)" fill="#e89c82" stroke="#e99c82" stroke-miterlimit="10" stroke-width="0.283"/>
            <path id="Path_4555" data-name="Path 4555" d="M689.925,248.111c.047,2.27,1.147,4.06,2.455,4s2.33-1.951,2.282-4.22-1.146-4.06-2.455-4S689.877,245.841,689.925,248.111Z" transform="translate(-596.649 -197.926)" fill="#333"/>
            <path id="Path_4556" data-name="Path 4556" d="M719.132,247.172c.047,2.271,1.146,4.061,2.455,4s2.33-1.951,2.282-4.22-1.146-4.061-2.455-4S719.084,244.9,719.132,247.172Z" transform="translate(-596.639 -197.927)" fill="#333"/>
            <path id="Path_4557" data-name="Path 4557" d="M715.718,272.781c-4.2,5.434-8.295,6.366-13.316,4.744a8.788,8.788,0,0,1-4.952-4.771c6.246,3.74,12.567,3.928,18.335-.368" transform="translate(-596.646 -197.917)" fill="#750d1c"/>
            <path id="Path_4558" data-name="Path 4558" d="M715.718,272.781c-3.8,3.21-8.53,4.271-14.995,2.435a6.057,6.057,0,0,1-3.739-2.666,26.694,26.694,0,0,0,19.26-.466Z" transform="translate(-596.646 -197.917)" fill="#fff"/>
            <path id="Path_4559" data-name="Path 4559" d="M719.474,217.111a79.373,79.373,0,0,1-47.233,20.711,48.742,48.742,0,0,1,32.83-31.845" transform="translate(-596.655 -197.939)" fill="#333"/>
            <path id="Path_4560" data-name="Path 4560" d="M707.015,247.767l3.53,12.185a6.637,6.637,0,0,1,.263,4.26,3.725,3.725,0,0,1-4.022,1.989,1.846,1.846,0,0,1-1.617-1.975" transform="translate(-596.644 -197.925)" fill="#e89c82"/>
            <g id="Group_22156" data-name="Group 22156" transform="translate(53.058 266.609)">
              <g id="jeans">
                <g id="legs">
                  <path id="Path_4561" data-name="Path 4561" d="M649.72,525.042c.307-10.412,12.409-53.292,12.409-53.292l93.516-7.289,10.431,53.715c.379,1.956,5.169,30.885,5.156,32.875" transform="translate(-649.72 -464.46)" fill="#955c2a"/>
                </g>
              </g>
            </g>
            <g id="Group_22158" data-name="Group 22158" transform="translate(244.907 94.224)">
              <path id="Path_4562" data-name="Path 4562" d="M841.5,343.09c1.716-5.208,1.009-11.047,1.716-16.573a62.538,62.538,0,0,1,2.91-11.349l5.813-17.9c.2-.623.521-1.352,1.085-1.382.788-.042,1.055,1.213,1.055,2.143l0,10.249c0,.184.192.267.287.122,4.3-6.5,9.743-13.6,12.781-16.031,1.145-.743,1.719.405,1.32,1.678L858.9,312.134c-.107.2.126.413.264.238l9.477-12.005a17.115,17.115,0,0,1,4.052-4.094.8.8,0,0,1,1.166.794,9.765,9.765,0,0,1-1.729,4.62c-5.033,8.622-8.42,14.652-8.19,14.989.343.2,5.571-7.085,9.072-11.743a5.907,5.907,0,0,1,2.867-2.357c1.012-.207,1.531.681,1.116,1.791a60.759,60.759,0,0,1-8.632,15.6c-.134.181.07.433.224.274,0,0,7.719-10.866,9.1-9.352,1.09,1.2-.442,3.893-1.4,5.545a143.455,143.455,0,0,1-28.514,35.117" transform="translate(-841.504 -292.134)" fill="#f7b094"/>
              <g id="Group_22157" data-name="Group 22157" transform="translate(8.642 25.629)">
                <path id="Path_4563" data-name="Path 4563" d="M851.277,340.076c2.676-6.945,1.766-14.586.851-21.782-.091-.713-1.226-.722-1.134,0,.9,7.1,1.83,14.629-.81,21.48-.263.682.833.976,1.093.3Z" transform="translate(-850.144 -317.755)" fill="#f7b094"/>
              </g>
            </g>
            <g id="Group_22160" data-name="Group 22160" transform="translate(4.391 117.791)">
              <g id="Group_22159" data-name="Group 22159">
                <path id="Path_4564" data-name="Path 4564" d="M619.275,521.786c-1.052,1.385-.516,3.338-.21,5.052s-.011,3.972-1.691,4.429a4,4,0,0,1-2.261-.284q-5.872-1.943-11.743-3.883a4.374,4.374,0,0,1-1.385-.647c-1.206-.961-1.06-2.854-.476-4.28s1.507-2.794,1.5-4.336" transform="translate(-601.07 -315.624)" fill="#750d1c"/>
                <path id="Path_4565" data-name="Path 4565" d="M852.257,356.945q1.215-2.954,2.432-5.91a3.737,3.737,0,0,0,.41-1.819c-.187-1.611-2.153-2.211-3.717-2.637a20.748,20.748,0,0,1-7.937-4.178c-1.508-1.277-3.392-2.888-5.189-2.066-2.249,1.028-1.622,4.6-3.305,6.411a2.213,2.213,0,0,0-.7.953c-.132.655.531,1.169,1.108,1.507l8.781,5.119" transform="translate(-600.99 -315.685)" fill="#750d1c"/>
                <path id="Path_4566" data-name="Path 4566" d="M772.928,352.5a1361.492,1361.492,0,0,0-4.766,154.382c.047,1.844.041,3.857-1.189,5.3-1.5,1.75-4.2,1.989-6.6,2.091l-81.886,3.46c-7.918.334-16.112.628-23.49-2.091a9.543,9.543,0,0,1-4.722-3.134A10.034,10.034,0,0,1,649,507.139c-2.566-55.93.213-112.254,11.872-167.135.866-4.078,1.8-8.207,3.849-11.9,4.414-7.961,14.167-13.034,23.744-12.353,5.636.4,10.948,2.585,16.508,3.543,7.784,1.342,15.8.246,23.545-1.222,3.7-.7,7.517-1.49,11.226-.8,3.351.62,6.311,2.393,9.181,4.13l21.643,13.1c4.576,2.77,9.328,5.712,12,10.152" transform="translate(-601.054 -315.693)" fill="#750d1c"/>
              </g>
            </g>
            <g id="Group_22161" data-name="Group 22161" transform="translate(0 116.958)">
              <path id="Path_4567" data-name="Path 4567" d="M735.513,455.455c-1.613-14.513-3.418-45.736-3.418-60.388,0-27.345,0-36.46-5.7-74.06-.007-.047,5.585-5.491,5.584-5.539.3-.1.577-.2.8-.3,4.9-2.042,14.14,6.513,22.469,7.763,16.341,2.451,44.533,35.535,51.149,64.715a210.293,210.293,0,0,1,22.965-42.264,2.4,2.4,0,0,1,3.158-.693l16.565,9.5-.083-.007c2.757,1.225,6.051,3.857,4.7,7.967-.872,2.649-3.522,5.044-4.494,7.762-1.5,4.181-1.146,7.591-2.86,11.847-1.128,2.8-4.649,7.234-5.31,10.212-1.635,7.354-10.853,25.531-18.133,36.719-3.063,4.7-6.544,9.336-11.338,12.257s-11.181,3.813-15.99.917c-6.979-4.2-9.447-15.188-17.534-16.176-.542,21.693-2.777,56.564-4.615,66.777a9.008,9.008,0,0,1-5.516,7.149,21.446,21.446,0,0,1-6.536,1.225c-14.864.84-6.6-.119-21.3.186C740.592,488.826,737.792,475.963,735.513,455.455Z" transform="translate(-596.636 -314.86)" fill="#610815"/>
              <path id="Path_4568" data-name="Path 4568" d="M599.033,504.519c.669-1.637-.635-5.842-.408-7.558.165-1.251,1.673-5.08,1.839-6.331.415-3.14-.415-6.256,0-9.4,3.028-22.924,5.991-44.018,9.02-66.942,1.362-10.308,2.728-20.639,5.121-30.758a141.2,141.2,0,0,1,7.657-23.356,89.6,89.6,0,0,1,11.958-20.584,68.9,68.9,0,0,1,36.819-23.665c3.284-.821,27.812,11.2,25.781,8.5-3.418-4.558-1.139,18.23-3.418,46.715,3.205,66.42,0,85.454.87,131.687-13.145.138-25.972.186-38.249.263-3.482.022-6.648-.984-8.579-3.881-2.86-4.288-2.847-8.272-3.064-13.481a523.187,523.187,0,0,1,.756-53.908l-14.111,62.409L624.7,522.175a3.791,3.791,0,0,1-4.112,2.943c-7.721-.873-18.291-3.645-22.172-8.139C595.125,513.163,597.2,509.014,599.033,504.519Z" transform="translate(-596.681 -314.859)" fill="#610815"/>
            </g>
            <g id="Group_22162" data-name="Group 22162" transform="translate(177.461 167.903)">
              <path id="Path_4569" data-name="Path 4569" d="M774.083,366.515l3.01,46.209.846,13c.061.931,1.2.88,1.141-.054l-3.01-46.209-.846-13c-.061-.931-1.2-.88-1.141.054Z" transform="translate(-774.081 -365.788)" fill="#efe7df"/>
            </g>
            <g id="Group_22163" data-name="Group 22163" transform="translate(47.829 170.947)">
              <path id="Path_4570" data-name="Path 4570" d="M649.319,369.522q-1.053,25.843-3.4,51.619-.66,7.252-1.423,14.493a.682.682,0,1,0,1.354.1q2.7-25.725,4.125-51.567.4-7.27.693-14.545a.681.681,0,1,0-1.353-.1Z" transform="translate(-644.493 -368.831)" fill="#efe7df"/>
            </g>
            <path id="Path_4571" data-name="Path 4571" d="M675.3,317.309c.637-.14,1.289-.215,1.913-.371a133.34,133.34,0,0,1,60.189-.648C720.8,331.471,692.279,332.442,675.3,317.309Z" transform="translate(-596.654 -197.903)" fill="#f7b094"/>
            <path id="Path_4572" data-name="Path 4572" d="M744.089,319.161a5.617,5.617,0,0,0-2.84-5.649c-2.717-1.484-6.11-.608-9.064.367-5.1,1.683-10.141,3.568-15.38,4.773a61.806,61.806,0,0,1-36.9-2.988c-2.041-.836-4.1-1.8-6.319-1.867s-4.66,1.055-5.26,3.122a1.556,1.556,0,0,0-.041.88,2,2,0,0,0,.678.859c5.673,4.863,13.235,6.994,20.528,8.989a62.244,62.244,0,0,0,7.871,1.789c7.795,1.074,15.7-.828,23.158-3.273s14.781-5.463,22.546-6.735" transform="translate(-596.656 -197.903)" fill="#750d1c"/>
          </g>
        </g>
      </g>
    </g>
    <g id="Group_22175" data-name="Group 22175" transform="translate(743.996 92.723)">
      <g id="Group_22170" data-name="Group 22170">
        <g id="Group_22169" data-name="Group 22169" transform="translate(10.37 11.799)">
          <path id="Path_4573" data-name="Path 4573" d="M816.23,105.286a52.7,52.7,0,0,0-45.467,90.124,1.809,1.809,0,0,0,1.222,1.11l.057.052-11.059,26.606a1.628,1.628,0,0,0,2.537,1.794l25.328-18.333a53.006,53.006,0,0,0,70.609-40.489A52.731,52.731,0,0,0,816.23,105.286Z" transform="translate(-754.315 -104.518)" fill="#fff" stroke="#750d1c" stroke-miterlimit="10" stroke-width="1"/>
          <g id="Group_22168" data-name="Group 22168" transform="translate(9.749 9.185)">
            <circle id="Ellipse_33" data-name="Ellipse 33" cx="33.714" cy="33.714" r="33.714" transform="translate(2.734 18.453) rotate(-13.48)" fill="#750d1c"/>
            <circle id="Ellipse_34" data-name="Ellipse 34" cx="30.926" cy="30.926" r="30.926" transform="matrix(0.792, -0.611, 0.611, 0.792, 0, 37.801)" fill="#fff"/>
            <path id="Path_4574" data-name="Path 4574" d="M810.632,137.234v22.178H794" transform="translate(-764.05 -113.692)" fill="none" stroke="#750d1c" stroke-miterlimit="10" stroke-width="1"/>
          </g>
        </g>
        <path id="Path_4575" data-name="Path 4575" d="M743.948,142.019c4.863-26.482,27.122-45.186,58.666-49.3" transform="translate(-743.948 -92.723)" fill="none" stroke="#750d1c" stroke-miterlimit="10" stroke-width="3" stroke-dasharray="5.669"/>
      </g>
      <g id="Group_22174" data-name="Group 22174" transform="translate(163.339 261.62)">
        <path id="Path_4576" data-name="Path 4576" d="M1008.978,454.408c-22.38,34.273-58.68,61.373-95.667,71.42" transform="translate(-907.229 -354.22)" fill="none" stroke="#750d1c" stroke-miterlimit="10" stroke-width="3" stroke-dasharray="5.669"/>
        <g id="Group_22173" data-name="Group 22173" transform="translate(0 0)">
          <g id="Group_22172" data-name="Group 22172" clip-path="url(#clip-path-2)">
            <g id="Group_22171" data-name="Group 22171" transform="translate(-33.761 -17.21)">
              <rect id="Rectangle_8120" data-name="Rectangle 8120" width="148.639" height="5.898" transform="matrix(0.649, -0.761, 0.761, 0.649, 0, 113.138)" fill="#e6d9cc"/>
              <rect id="Rectangle_8121" data-name="Rectangle 8121" width="148.639" height="5.898" transform="translate(14.125 119.855) rotate(-49.567)" fill="#e6d9cc"/>
              <rect id="Rectangle_8122" data-name="Rectangle 8122" width="148.639" height="5.898" transform="translate(28.249 126.572) rotate(-49.567)" fill="#e6d9cc"/>
              <rect id="Rectangle_8123" data-name="Rectangle 8123" width="148.639" height="5.898" transform="matrix(0.649, -0.761, 0.761, 0.649, 42.374, 133.289)" fill="#e6d9cc"/>
              <rect id="Rectangle_8124" data-name="Rectangle 8124" width="148.639" height="5.898" transform="matrix(0.649, -0.761, 0.761, 0.649, 56.498, 140.006)" fill="#e6d9cc"/>
              <rect id="Rectangle_8125" data-name="Rectangle 8125" width="148.639" height="5.898" transform="matrix(0.649, -0.761, 0.761, 0.649, 70.623, 146.723)" fill="#e6d9cc"/>
              <rect id="Rectangle_8126" data-name="Rectangle 8126" width="148.639" height="5.898" transform="matrix(0.649, -0.761, 0.761, 0.649, 84.748, 153.44)" fill="#e6d9cc"/>
              <rect id="Rectangle_8127" data-name="Rectangle 8127" width="148.639" height="5.898" transform="translate(98.872 160.157) rotate(-49.567)" fill="#e6d9cc"/>
            </g>
          </g>
        </g>
        <path id="Path_4577" data-name="Path 4577" d="M1000.68,414.2c-15.241.075-27.53,13.426-27.449,29.819s27.891,59.759,27.891,59.759,27.38-43.639,27.3-60.032S1015.921,414.129,1000.68,414.2Zm.215,43.464a15.109,15.109,0,1,1,14.764-15.179A14.975,14.975,0,0,1,1000.9,457.669Z" transform="translate(-907.463 -358.806)" fill="#750d1c"/>
        <ellipse id="Ellipse_36" data-name="Ellipse 36" cx="19.475" cy="19.49" rx="19.475" ry="19.49" transform="translate(6.001 91.862)" fill="none" stroke="#e6d9cc" stroke-miterlimit="10" stroke-width="2"/>
      </g>
    </g>
  </g>
</svg>
