<svg xmlns="http://www.w3.org/2000/svg" width="328.814" height="191.039" viewBox="0 0 328.814 191.039">
  <g id="img_dvuchuyennghiep" transform="translate(-1195.55 -838)">
    <path id="Path_3973" data-name="Path 3973" d="M468.015,261.845c0,.1,0,.2,0,.305,0,.215-.01.427-.017.641a26.689,26.689,0,0,1-1.4,7.75c-.039.112-.077.224-.117.334-1.617,4.515-4.639,8.921-9.644,13.291q-1.518,1.327-3.286,2.646c-.275.206-.556.411-.842.618l-8.486,0-173.87-.054-12.509,0-98.422-.032s-.069-.179-.2-.525a188.882,188.882,0,0,1-5.941-19.808c-2.619-10.7-4.96-27.718-5.033-45.517q0-.925,0-1.852c.1-21.086,3.468-42.993,13.374-56.59q.174-.241.353-.477c.172-.228.344-.456.516-.681.077-.1.155-.2.234-.3C190.089,126.2,233.8,126.256,254.949,128.5c2.073.221,3.928.462,5.529.692.965.139,1.838.274,2.611.4,30.227,4.874,43.869-10.322,43.869-10.322,21.308-19.629,41.462-24.422,69.348-21.866,3.5.318,6.976.8,10.408,1.422a108.748,108.748,0,0,1,37.567,14.147q1.8,1.114,3.535,2.3.624.426,1.24.863,2.2,1.561,4.288,3.239a73.013,73.013,0,0,1,18.978,22.563,62.491,62.491,0,0,1,6.883,22.042q.286,2.408.39,4.886h0q.135,3.245-.047,6.609a75.919,75.919,0,0,1-2.116,13.928s0,0,0,0c-.092.374-.179.748-.262,1.12a62.122,62.122,0,0,0-1.372,18.034C457.208,229.52,468.108,246.491,468.015,261.845Z" transform="translate(1051.803 741.225)" fill="#955c2a" opacity="0.15"/>
    <g id="Group_3838" data-name="Group 3838" transform="translate(1310.321 899.613)">
      <path id="Path_3974" data-name="Path 3974" d="M1429.382,692.4h-8.345V676.974l-.353-.184h-2.274v-.007h-13.229v.007h-.011V679.1h.011v1.59h-.011V683h.011v1.6h-.011v2.313h.011v.008l-1.4-.008v-12.1h-14.844v1.532h-.007v2.312h.007v2.032h-.007V683h.007v1.6h-.007v2.313h.007v1.477h-.007V690.7h.007v1.477h-.007v2.313h.007v1.391h-.007v1.469h.007v.16H1372.2v13.235h-6.251v3.333h-6.74v-5.742h-12.124v-15.6h-1.9v-1.554h-.271v1.554h-1.573v0h-7.864v-1.552h-.271v1.552h-2.049v7.845l-10.184-.043v4.842h-8.635v-29.93h-25.582v32.064h-7.812V690.177H1255.37V802.348l173.987-.747Z" transform="translate(-1243.645 -673.086)" fill="#955c2a" opacity="0.1"/>
      <path id="Path_3975" data-name="Path 3975" d="M1161.595,1001.381v90.981l-13.231.248.01-65.075v-15.64l-.264-10.513Z" transform="translate(-1149.848 -963.865)" fill="#955c2a" opacity="0.1"/>
      <rect id="Rectangle_797" data-name="Rectangle 797" width="0.431" height="6.286" transform="translate(120.914 18.253)" fill="#dfebfa"/>
      <rect id="Rectangle_798" data-name="Rectangle 798" width="0.67" height="12.174" transform="translate(128.146 12.854)" fill="#dfebfa"/>
      <rect id="Rectangle_799" data-name="Rectangle 799" width="0.279" height="2.242" transform="translate(43.633 0.124)" fill="#dfebfa"/>
      <rect id="Rectangle_800" data-name="Rectangle 800" width="0.279" height="2.242" transform="translate(49.531 0.124)" fill="#dfebfa"/>
      <rect id="Rectangle_801" data-name="Rectangle 801" width="0.279" height="2.242" transform="translate(63.051 0.124)" fill="#dfebfa"/>
      <rect id="Rectangle_802" data-name="Rectangle 802" width="0.216" height="1.73" transform="translate(134.657)" fill="#dfebfa"/>
      <rect id="Rectangle_803" data-name="Rectangle 803" width="0.216" height="1.73" transform="translate(144.705)" fill="#dfebfa"/>
      <rect id="Rectangle_804" data-name="Rectangle 804" width="0.279" height="2.242" transform="translate(57.765 0.124)" fill="#dfebfa"/>
      <rect id="Rectangle_809" data-name="Rectangle 809" width="2.755" height="4.668" transform="translate(155.77 42.276)" fill="#eef6ff"/>
      <rect id="Rectangle_810" data-name="Rectangle 810" width="2.755" height="4.668" transform="translate(16.504 44.794)" fill="#eef6ff"/>
    </g>
    <g id="Group_3839" data-name="Group 3839" transform="translate(1485.177 916.704)" opacity="0.1">
      <path id="Path_3976" data-name="Path 3976" d="M2860.767,848.077a62.107,62.107,0,0,1,1.371-18.034c.084-.371.171-.745.263-1.12,0,0,0,0,0,0a75.955,75.955,0,0,0,2.116-13.928h-15.327v111.95l8.486,0c.285-.206.566-.411.841-.618q1.768-1.32,3.286-2.646c5-4.37,8.026-8.777,9.643-13.291.04-.111.079-.222.117-.334a26.652,26.652,0,0,0,1.4-7.75c.008-.214.013-.426.017-.641,0-.1,0-.2,0-.305C2873.077,886.005,2862.177,869.034,2860.767,848.077Z" transform="translate(-2838.343 -814.993)" fill="#955c2a"/>
      <rect id="Rectangle_811" data-name="Rectangle 811" width="2.549" height="4.668" transform="translate(13.997 5.114)" fill="#955c2a"/>
      <path id="Path_3978" data-name="Path 3978" d="M2967.6,942.092s0,0,0,0c-.092.374-.179.748-.263,1.12v-1.123Z" transform="translate(-2943.542 -928.164)" fill="#955c2a"/>
      <rect id="Rectangle_812" data-name="Rectangle 812" width="2.549" height="4.668" transform="translate(15.272 27.703)" fill="#955c2a"/>
    </g>
    <g id="Group_3840" data-name="Group 3840" transform="translate(1200.052 901.906)">
      <path id="Path_3979" data-name="Path 3979" d="M256.7,713.34h-5.859V697.914c-.089-.063-.179-.123-.268-.185h-1.746v-.007H238.67v.007h-.01v2.314h.01v1.59h-.01v2.312h.01v1.6h-.01v2.312h.01v.007l-1.077-.007v-12.1h-11.4v1.531h-.006V699.6h.006v2.033h-.006v2.312h.006v1.6h-.006v2.312h.006v1.475h-.006v2.315h.006v1.475h-.006v2.313h.006v1.392h-.006v1.468h.006v.161H213.347v13.235h-4.8v3.333h-5.174v-5.742h-9.311v-15.6H192.6v-1.554H192.4v1.554H185.15v-1.553h-.208v1.553h-1.573v7.843l-7.821-.042v4.84h-6.631V696.39h-7.293c-9.906,13.6-13.271,35.5-13.374,56.59q0,.927,0,1.852c.073,17.8,2.414,34.817,5.033,45.517a188.882,188.882,0,0,0,5.941,19.808c.129.346.2.525.2.525l98.422.036h-.807Z" transform="translate(-148.248 -694.025)" fill="#955c2a" opacity="0.1"/>
      <rect id="Rectangle_815" data-name="Rectangle 815" width="0.235" height="2.242" transform="translate(18.702 0.124)" fill="#dfebfa"/>
      <rect id="Rectangle_816" data-name="Rectangle 816" width="0.181" height="1.73" transform="translate(79.078 0)" fill="#dfebfa"/>
      <rect id="Rectangle_817" data-name="Rectangle 817" width="0.181" height="1.73" transform="translate(87.635 0)" fill="#dfebfa"/>
      <path id="Path_3980" data-name="Path 3980" d="M278.482,688.22v1.461h-.234v-1.16C278.325,688.419,278.4,688.32,278.482,688.22Z" transform="translate(-264.002 -687.315)" fill="#dfebfa"/>
    </g>
    <g id="Group_3842" data-name="Group 3842" transform="translate(1316.313 925.651)">
      <g id="Group_3841" data-name="Group 3841" transform="translate(8.126 56.445)">
        <path id="Path_3983" data-name="Path 3983" d="M1445.644,1455.391h-3.43l-.963-43.651h5.24Z" transform="translate(-1423.949 -1411.74)" fill="#333"/>
        <path id="Path_3984" data-name="Path 3984" d="M1346.3,1773.138h-33.362v-3.013l17-1.533,16.358,1.533Z" transform="translate(-1309.698 -1729.486)" fill="#333"/>
        <path id="Path_3985" data-name="Path 3985" d="M1283.363,1783.469a2.744,2.744,0,1,1,2.744,2.744A2.744,2.744,0,0,1,1283.363,1783.469Z" transform="translate(-1283.363 -1740.291)" fill="#333"/>
        <path id="Path_3986" data-name="Path 3986" d="M1587.808,1783.469a2.744,2.744,0,1,1,2.744,2.744A2.744,2.744,0,0,1,1587.808,1783.469Z" transform="translate(-1554.447 -1740.291)" fill="#333"/>
        <path id="Path_3987" data-name="Path 3987" d="M1331.551,1414.6h-30.97a2.864,2.864,0,0,1-2.864-2.864h36.7A2.864,2.864,0,0,1,1331.551,1414.6Z" transform="translate(-1296.144 -1411.74)" fill="#333"/>
      </g>
      <path id="Path_3988" data-name="Path 3988" d="M1214.926,953.093a4.762,4.762,0,0,1-4.762-4.762V910.286c0-7.532,4.925-13.638,11-13.638h24.873c6.074,0,11,6.106,11,13.638v42.807Z" transform="translate(-1210.059 -896.648)" fill="#955c2a"/>
      <path id="Path_3989" data-name="Path 3989" d="M1236.889,953.093a2.611,2.611,0,0,1-2.611-2.611v-40.2c0-7.532,4.925-13.638,11-13.638h24.873c6.075,0,11,6.106,11,13.638v42.807Z" transform="translate(-1231.531 -896.648)" fill="#815025"/>
      <path id="Path_3990" data-name="Path 3990" d="M1272.21,1362.7h-59.984a3.018,3.018,0,0,1-3.018-3.018h0a3.018,3.018,0,0,1,3.018-3.018h59.984a3.018,3.018,0,0,1,3.018,3.018h0A3.018,3.018,0,0,1,1272.21,1362.7Z" transform="translate(-1209.208 -1306.255)" fill="#955c2a"/>
    </g>
    <path id="Path_3991" data-name="Path 3991" d="M1786.181,246.522a9.321,9.321,0,0,1,8.789-3.873s9-7.262,18.592-.968c0,0,10.2-1.559,17.752,1.35,5.036,1.94,6.7,3.975,6.7,3.975Z" transform="translate(-406.642 614.483)" fill="#e6d9cc"/>
    <path id="Path_3992" data-name="Path 3992" d="M2137.982,379.1a5.351,5.351,0,0,1,5.1-2.361s5.226-4.428,10.8-.59c0,0,5.924-.951,10.311.823a9.745,9.745,0,0,1,3.891,2.424Z" transform="translate(-719.892 493.856)" fill="#e6d9cc"/>
    <path id="Path_3993" data-name="Path 3993" d="M1261.345,541.923a7.228,7.228,0,0,1,6.9-3.19s7.059-5.981,14.586-.8c0,0,8-1.284,13.928,1.112,3.951,1.6,5.256,3.274,5.256,3.274Z" transform="translate(60.682 350.29)" fill="#e6d9cc"/>
    <g id="Group_3843" data-name="Group 3843" transform="translate(1427.478 878.562)">
      <path id="Path_3994" data-name="Path 3994" d="M2374.94,1773.469a12.791,12.791,0,0,1,.335-3.134c.335-.782,1.564-3.966,1.564-3.966h4.8a29.427,29.427,0,0,1,.95,3.855c.056.95,0,3.246,0,3.246Z" transform="translate(-2358.362 -1623.974)" fill="#333"/>
      <path id="Path_3995" data-name="Path 3995" d="M2590.914,1773.469a12.791,12.791,0,0,0-.335-3.134c-.335-.782-1.564-3.966-1.564-3.966h-4.8a29.476,29.476,0,0,0-.949,3.855c-.056.95,0,3.246,0,3.246Z" transform="translate(-2543.832 -1623.974)" fill="#333"/>
      <path id="Path_3996" data-name="Path 3996" d="M2427.73,604.291a44.951,44.951,0,0,1-.84,7.583l-5.305,3.7,19.971,2.989-4.763-6.581s-1.437-7.022-.684-9.62S2427.73,604.291,2427.73,604.291Z" transform="translate(-2399.895 -586.805)" fill="#ffb27d"/>
      <path id="Path_3997" data-name="Path 3997" d="M2477.4,633.087s1.579,3.8,4.554,3.718,3.652-3.448,3.652-3.448Z" transform="translate(-2449.591 -614.879)" fill="#ed985f"/>
      <path id="Path_3998" data-name="Path 3998" d="M2444.984,482.054a47.763,47.763,0,0,0-1.631-6.248c-.67-1.452-1.229-7.933,6.2-8.268,0,0,2.849.335,4.413-.615,0,0,0,.95-.391,1.285a4.939,4.939,0,0,1,4.581,1.62c2.011,2.235-1.34,10.055-1.173,11.9Z" transform="translate(-2418.953 -466.924)" fill="#333"/>
      <path id="Path_3999" data-name="Path 3999" d="M2466.094,536.859c-2.155-.038-6.123-2.908-6.123-6.462v-5.546a2.213,2.213,0,0,1,2.011-2.36h8.223a2.213,2.213,0,0,1,2.011,2.36v5.232C2472.216,533.81,2468.565,536.9,2466.094,536.859Z" transform="translate(-2434.074 -516.402)" fill="#ffb27d"/>
      <path id="Path_4000" data-name="Path 4000" d="M2457.742,517.6s.011-3.332,2.651-3.845,8.547,1.624,9.385-.806-11.419-2.388-12.036-.838S2457.742,517.6,2457.742,517.6Z" transform="translate(-2431.846 -506.194)" fill="#333"/>
      <path id="Path_4001" data-name="Path 4001" d="M2372.532,1087.864s.841,25.667-.416,40.313.009,35.027.009,35.027a9.506,9.506,0,0,0,8.377,0s4.778-28.293,4.748-35.027c-.032-7.171,5.2-39.194,5.2-39.194Z" transform="translate(-2355.352 -1019.82)" fill="#750d1c"/>
      <path id="Path_4002" data-name="Path 4002" d="M2502.808,1162.849a9.5,9.5,0,0,1-8.376,0s-4.779-28.293-4.748-35.026c.013-3.028-.911-10.491-1.986-18.1-1.47-10.409-3.216-21.093-3.216-21.093l18.614-1.163s-1.535,25.712-.278,40.355S2502.808,1162.849,2502.808,1162.849Z" transform="translate(-2455.9 -1019.467)" fill="#750d1c"/>
      <path id="Path_4003" data-name="Path 4003" d="M2403.353,742.936a93.158,93.158,0,0,1-15.175,1.537,73.434,73.434,0,0,1-9.32-.712c-3.02-.4-5.185-.824-5.185-.824s-1.609.141-.659-7.791a111.582,111.582,0,0,0,.336-17.094c-.019-.623-.005-1.361.033-2.182.309-6.538,2.286-18.307,3.793-18.939a27.583,27.583,0,0,1,6.2-1.239c0,.077,2.3,3.435,5.024,3.813a9.453,9.453,0,0,0,4.878-3.7,53.147,53.147,0,0,1,7.647,1.475s.285,1.247,1.361,22.879C2402.713,728.723,2405.637,742.965,2403.353,742.936Z" transform="translate(-2356.379 -670.622)" fill="#fff"/>
      <path id="Path_4004" data-name="Path 4004" d="M2515.817,1236.192c.013-3.028-.912-10.491-1.986-18.1a35.823,35.823,0,0,1,3.829-8.919C2521.1,1218.809,2515.817,1236.192,2515.817,1236.192Z" transform="translate(-2482.032 -1127.836)" fill="#610815"/>
      <path id="Path_4005" data-name="Path 4005" d="M2233.287,731.635c-.189.158.471,1.793,1.443,3.925,2,4.379,5.324,10.846,5.324,10.846a19.192,19.192,0,0,1-1.009,2.953,70.458,70.458,0,0,1-11.5-11c-3.234-4.03-3.9-6.342-3.9-6.342,12.449-25.34,21.21-26.274,21.21-26.274l-1.035,16.746S2233.863,731.155,2233.287,731.635Z" transform="translate(-2223.65 -679.577)" fill="#fff"/>
      <path id="Path_4006" data-name="Path 4006" d="M2363.585,1065.835s3.016-2.793,4.245-1.229,1.452,4.022.5,3.854-2.9-1.061-3.184-.615-1.531,1.3-1.911.623S2363.585,1065.835,2363.585,1065.835Z" transform="translate(-2347.844 -998.687)" fill="#ffb27d"/>
      <path id="Path_4007" data-name="Path 4007" d="M2271.729,988.643a19.19,19.19,0,0,1-1.009,2.953,70.429,70.429,0,0,1-11.5-11,14.343,14.343,0,0,0,7.181-2.8C2268.405,982.175,2271.729,988.643,2271.729,988.643Z" transform="translate(-2255.325 -921.814)" fill="#ffb27d"/>
      <path id="Path_4008" data-name="Path 4008" d="M2643.12,734.043s-.664,2.311-3.9,6.342a70.417,70.417,0,0,1-11.5,11,19.12,19.12,0,0,1-1.009-2.953s3.323-6.467,5.324-10.846c.972-2.132,1.632-3.767,1.443-3.925-.448-.372-6.532-5.66-9.248-8.018l-1.29-1.123-.622-16.5S2630.672,708.7,2643.12,734.043Z" transform="translate(-2578.637 -681.599)" fill="#fff"/>
      <path id="Path_4009" data-name="Path 4009" d="M2625.091,1065.835s-3.017-2.793-4.246-1.229-1.453,4.022-.5,3.854,2.905-1.061,3.184-.615,1.531,1.3,1.911.623S2625.091,1065.835,2625.091,1065.835Z" transform="translate(-2576.348 -998.687)" fill="#ffb27d"/>
      <path id="Path_4010" data-name="Path 4010" d="M2662.4,988.643a19.209,19.209,0,0,0,1.009,2.953,70.405,70.405,0,0,0,11.5-11,14.345,14.345,0,0,1-7.181-2.8C2665.726,982.175,2662.4,988.643,2662.4,988.643Z" transform="translate(-2614.323 -921.814)" fill="#ffb27d"/>
      <path id="Path_4011" data-name="Path 4011" d="M2463.289,684.038a2.12,2.12,0,0,0-1.138,1.375s3.557,3.659,5.885,3.715Z" transform="translate(-2436.016 -660.246)" fill="#dfebfd"/>
      <path id="Path_4012" data-name="Path 4012" d="M2515.85,687.625l4.591-5.275a2.154,2.154,0,0,1,.934,1.65S2517.824,687.764,2515.85,687.625Z" transform="translate(-2483.83 -658.743)" fill="#dfebfd"/>
      <path id="Path_4013" data-name="Path 4013" d="M2487.64,726.728s-3.5,30.25-2.284,33.938a25.211,25.211,0,0,0,2.137,4.686,1.242,1.242,0,0,0,2.15,0c.93-1.615,2.146-3.953,2.146-5.14,0-1.922-2.659-33.506-2.659-33.506Z" transform="translate(-2456.448 -698.235)" fill="#dfebfd"/>
      <path id="Path_4014" data-name="Path 4014" d="M2497.612,712.4a22.071,22.071,0,0,1,3.407-.081.357.357,0,0,1,.274.53c-.361.651-1.1,1.778-1.87,1.778C2498.339,714.628,2496.651,712.476,2497.612,712.4Z" transform="translate(-2467.337 -685.391)" fill="#dfebfd"/>
      <path id="Path_4015" data-name="Path 4015" d="M2500.174,619.838a2.357,2.357,0,0,0,1.844.876,2.192,2.192,0,0,0,1.724-.876A11.7,11.7,0,0,0,2500.174,619.838Z" transform="translate(-2469.872 -602.953)" fill="#fff"/>
    </g>
    <g id="Group_3844" data-name="Group 3844" transform="translate(1375.218 929.326)">
      <path id="Path_4016" data-name="Path 4016" d="M1786.625,956.512l-39.877.068,5.872-26.311,39.877-.067Z" transform="translate(-1746.748 -930.2)" fill="#955c2a"/>
      <path id="Path_4017" data-name="Path 4017" d="M1798.133,956.526l-39.877.068,5.87-26.344,39.877-.068Z" transform="translate(-1756.995 -930.182)" fill="#815025"/>
      <path id="Path_4018" data-name="Path 4018" d="M1893.577,1088.41l-8.284.076,5.734-17.48,8.284-.076Z" transform="translate(-1870.111 -1055.506)" fill="#955c2a"/>
      <rect id="Rectangle_825" data-name="Rectangle 825" width="18.091" height="0.833" transform="translate(10.066 32.146)" fill="#955c2a"/>
    </g>
    <g id="Group_3850" data-name="Group 3850" transform="translate(1291.91 915.994)">
      <g id="Group_3848" data-name="Group 3848">
        <g id="Group_3846" data-name="Group 3846">
          <g id="Group_3845" data-name="Group 3845" transform="translate(0.369 1.048)">
            <path id="Path_4019" data-name="Path 4019" d="M997.667,861.585h.747V848.73l-7.638-19.489,13.637-10.567-.457-.59-14.079,10.91,7.79,19.878Z" transform="translate(-989.877 -818.084)" fill="#333"/>
          </g>
          <path id="Path_4020" data-name="Path 4020" d="M1117.595,811.5h0a.761.761,0,0,0,.181-1.062l-1.136-1.6a.761.761,0,0,0-1.062-.181h0a.761.761,0,0,0-.181,1.062l1.136,1.6A.761.761,0,0,0,1117.595,811.5Z" transform="translate(-1101.149 -808.518)" fill="#333"/>
          <path id="Path_4021" data-name="Path 4021" d="M988.488,909.825a.988.988,0,1,0-.988.988A.988.988,0,0,0,988.488,909.825Z" transform="translate(-986.511 -897.844)" fill="#333"/>
        </g>
        <g id="Group_3847" data-name="Group 3847" transform="translate(4.908 32.605)">
          <path id="Rectangle_826" data-name="Rectangle 826" d="M0,0H7.512a0,0,0,0,1,0,0V0A2.138,2.138,0,0,1,5.374,2.138H2.056A2.056,2.056,0,0,1,0,.083V0A0,0,0,0,1,0,0Z" transform="translate(7.512 13.713) rotate(180)" fill="#333"/>
          <rect id="Rectangle_827" data-name="Rectangle 827" width="1.578" height="11.945" transform="translate(4.417 11.945) rotate(180)" fill="#333"/>
        </g>
      </g>
      <g id="Group_3849" data-name="Group 3849" transform="translate(12.682 0.502)">
        <path id="Path_4022" data-name="Path 4022" d="M1104.317,826.67c.036.04.071.08.108.117l.008.009c.035.039.07.076.105.112,1.02.885,4.4-.7,7.672-3.626s5.223-6.108,4.457-7.22c-.032-.04-.065-.078-.1-.117l-.007-.008c-.033-.041-.068-.08-.1-.12a8.142,8.142,0,1,0-12.139,10.855Z" transform="translate(-1102.244 -813.1)" fill="#750d1c"/>
        <path id="Path_4023" data-name="Path 4023" d="M1120.625,847.639l.007.008c.011.015.023.028.034.041a.66.66,0,0,0,.073.071c1.019.885,4.4-.7,7.671-3.626s5.224-6.107,4.459-7.219a.914.914,0,0,0-.063-.08.238.238,0,0,0-.037-.037l-.007-.009c-.694-.657-2.579-.071-4.782,1.355a24.073,24.073,0,0,0-2.917,2.247,25.452,25.452,0,0,0-2.081,2.086C1121,844.727,1120,846.807,1120.625,847.639Z" transform="translate(-1118.444 -833.952)" fill="#f4f7f8"/>
        <path id="Path_4024" data-name="Path 4024" d="M1143.638,855.666a3.357,3.357,0,0,0,5-4.334,24.09,24.09,0,0,0-2.917,2.247A25.484,25.484,0,0,0,1143.638,855.666Z" transform="translate(-1139.102 -847.142)" fill="#955c2a"/>
      </g>
    </g>
    <g id="Group_3857" data-name="Group 3857" transform="translate(1372.154 971.318)">
      <g id="Group_3852" data-name="Group 3852" transform="translate(26.98 23.553)">
        <path id="Path_4025" data-name="Path 4025" d="M2013.12,1538.305s-4.127-4.815-.255-7.874c0,0,2.829-1.713,5.135-1.573,0,0-3.268,5.481-2.211,6.026s3.2-6.37,3.2-6.37,6.437-.624,8.508.371c0,0-5.5,4.5-4.344,4.772s7.1-4.152,7.1-4.152,5.991,1.02,5.672,4.674-2.384,4.784-3.291,4.687-6.215-2.123-6.331-1.38,3.079,3.173,5.317,3.287c0,0-4.224,4.658-7.031,3.314s-3.047-3.476-4.8-4.275-3.244-.8-2.522.018,3.89,1.607,4.891,3.378,1.9,2.964-1.006,2.527-7.626-2.562-7.833-5Z" transform="translate(-2006.144 -1528.321)" fill="#610815"/>
        <g id="Group_3851" data-name="Group 3851" transform="translate(0 5.929)">
          <path id="Path_4026" data-name="Path 4026" d="M2019.1,1582.455s-16.273-.627-19.867,4.027a11.77,11.77,0,0,1-3.24,4.548l-.381,1.039s2.82-2.973,3.829-3.153C1999.436,1588.916,1997.858,1583.15,2019.1,1582.455Z" transform="translate(-1992.253 -1582.427)" fill="#610815"/>
          <path id="Path_4027" data-name="Path 4027" d="M1968.732,1657.606a10.219,10.219,0,0,0-3.735,7.2l.634.057s1.116-4.772,3.132-6.639S1968.732,1657.606,1968.732,1657.606Z" transform="translate(-1964.997 -1649.003)" fill="#610815"/>
        </g>
      </g>
      <g id="Group_3854" data-name="Group 3854" transform="translate(0 14.61)">
        <path id="Path_4028" data-name="Path 4028" d="M1740.021,1461.7s5.788-3.241,3.087-7.639c0,0-2.161-2.7-4.476-3.4,0,0,1.235,6.559,0,6.714s-.849-7.408-.849-7.408-6.1-2.932-8.488-2.7c0,0,3.781,6.405,2.547,6.251s-5.479-6.636-5.479-6.636-6.251-1.157-7.254,2.547.617,5.556,1.543,5.787,6.868.154,6.714.926-4.167,2.006-6.405,1.312c0,0,2.469,6.1,5.71,5.788s4.244-2.315,6.251-2.469,3.472.386,2.469.926-4.4.177-6.019,1.555-2.932,2.227.077,2.844,8.411.232,9.491-2.084Z" transform="translate(-1718.792 -1446.71)" fill="#610815"/>
        <g id="Group_3853" data-name="Group 3853" transform="translate(3.172 3.875)">
          <path id="Path_4029" data-name="Path 4029" d="M1747.735,1482.074s16.205,5.248,18.057,11.112a12.314,12.314,0,0,0,1.543,5.633v1.157s-1.7-3.935-2.624-4.476C1764.712,1495.5,1768.339,1490.408,1747.735,1482.074Z" transform="translate(-1747.735 -1482.074)" fill="#610815"/>
          <path id="Path_4030" data-name="Path 4030" d="M1920.312,1629.034a10.688,10.688,0,0,1,1.074,8.415l-.643-.173s.624-5.088-.683-7.647S1920.312,1629.034,1920.312,1629.034Z" transform="translate(-1900.711 -1612.288)" fill="#610815"/>
        </g>
      </g>
      <g id="Group_3856" data-name="Group 3856" transform="translate(24.281 0)">
        <path id="Path_4031" data-name="Path 4031" d="M1946.058,1335.794s-8.654-4.846-4.616-11.424c0,0,3.231-4.039,6.693-5.077,0,0-1.846,9.808,0,10.039s1.269-11.078,1.269-11.078,9.116-4.385,12.693-4.039c0,0-5.654,9.578-3.808,9.347s8.193-9.924,8.193-9.924,9.347-1.731,10.847,3.808-.923,8.308-2.308,8.655-10.27.231-10.039,1.385,6.231,3,9.578,1.962c0,0-3.693,9.116-8.539,8.655s-6.347-3.462-9.347-3.693-5.193.577-3.692,1.385,6.577.265,9,2.325,4.385,3.329-.115,4.253-12.578.346-14.193-3.116Z" transform="translate(-1940.369 -1313.383)" fill="#750d1c"/>
        <g id="Group_3855" data-name="Group 3855" transform="translate(1.119 5.795)">
          <path id="Path_4032" data-name="Path 4032" d="M2000.539,1366.265s-24.232,7.846-27,16.616a18.4,18.4,0,0,1-2.308,8.424v1.731s2.539-5.885,3.923-6.693C1975.152,1386.344,1969.729,1378.727,2000.539,1366.265Z" transform="translate(-1968.966 -1366.265)" fill="#750d1c"/>
          <path id="Path_4033" data-name="Path 4033" d="M1952.84,1586.018a15.982,15.982,0,0,0-1.607,12.583l.961-.258s-.933-7.608,1.022-11.435S1952.84,1586.018,1952.84,1586.018Z" transform="translate(-1950.577 -1560.978)" fill="#750d1c"/>
        </g>
      </g>
      <path id="Path_4034" data-name="Path 4034" d="M1872.766,1710.752a14.944,14.944,0,0,0,14.944-14.944h-29.888A14.944,14.944,0,0,0,1872.766,1710.752Z" transform="translate(-1842.587 -1653.901)" fill="#955c2a"/>
      <path id="Path_4035" data-name="Path 4035" d="M1891.243,1710.637a14.954,14.954,0,0,1-16.8-14.83h3.713A14.947,14.947,0,0,0,1891.243,1710.637Z" transform="translate(-1857.387 -1653.901)" fill="#815025"/>
      <rect id="Rectangle_828" data-name="Rectangle 828" width="30.72" height="0.458" transform="translate(14.744 41.907)" fill="#815025"/>
      <path id="Path_4036" data-name="Path 4036" d="M1935.957,1822.445h13.992a1.2,1.2,0,0,0-1.2-1.2h-11.6a1.2,1.2,0,0,0-1.2,1.2Z" transform="translate(-1912.16 -1765.594)" fill="#815025"/>
    </g>
    <g id="Group_3860" data-name="Group 3860" transform="translate(1282.564 962.286)">
      <g id="Group_3858" data-name="Group 3858" transform="translate(6.026 2.143)">
        <path id="Path_4037" data-name="Path 4037" d="M956.879,1314.987h-.057c-.338,0-.61-.443-.6-.981l.912-62.994,2.688-.5-2.292,63.5C957.508,1314.559,957.223,1314.987,956.879,1314.987Z" transform="translate(-956.219 -1250.513)" fill="#333"/>
      </g>
      <g id="Group_3859" data-name="Group 3859" transform="translate(138.913 2.143)">
        <path id="Path_4038" data-name="Path 4038" d="M2171.83,1314.987h.057c.338,0,.61-.443.6-.981l-.912-62.994-2.688-.5,2.292,63.5C2171.2,1314.559,2171.485,1314.987,2171.83,1314.987Z" transform="translate(-2168.888 -1250.513)" fill="#333"/>
      </g>
      <path id="Rectangle_829" data-name="Rectangle 829" d="M1.9,0H147.408a1.9,1.9,0,0,1,1.9,1.9v0a1.9,1.9,0,0,1-1.9,1.9H1.9A1.9,1.9,0,0,1,0,1.9v0A1.9,1.9,0,0,1,1.9,0Z" fill="#333"/>
    </g>
    <g id="Group_3862" data-name="Group 3862" transform="translate(1225.889 888.422)">
      <path id="Path_4039" data-name="Path 4039" d="M482.329,587.422c-.512-.988,11.172-4.544,11.357,5.2,0,0,21.887-.538,11.436-12.737-3.618-4.223-3.246-7.715-3.137-10.966s-2.253-12.7-10.355-11.747a6.031,6.031,0,0,0-4.769.51C480.84,560.808,467.352,591.017,482.329,587.422Z" transform="translate(-465.485 -556.907)" fill="#333"/>
      <path id="Path_4040" data-name="Path 4040" d="M864.282,913.883s1.425-2.169,2.573-2.211,3.274-.638,3.1-.213-1.489.468-1.616.723,1.956.638,2.551.68,2,0,1.956.3-2.529,1.531-4.284,1.361a11.9,11.9,0,0,0-3.923.51Z" transform="translate(-811.656 -872.471)" fill="#ffb27d"/>
      <path id="Path_4041" data-name="Path 4041" d="M697.5,802.28a20.535,20.535,0,0,1-6.973,5.831h-.006a8.133,8.133,0,0,1-4.5.731,9.109,9.109,0,0,1-3.161-1.12,15.837,15.837,0,0,1-4.42-3.934c-.334-.417-.631-.823-.892-1.2a19.444,19.444,0,0,1-1.287-2.1l1.012-17.318s3.623.84,4.686,2.456,5.528,14.48,6.294,14.863,8.8-1.425,8.8-1.425A3.271,3.271,0,0,1,697.5,802.28Z" transform="translate(-644.231 -758.38)" fill="#750d1c"/>
      <path id="Path_4042" data-name="Path 4042" d="M386.069,1724.349s-2.453,2.238-1.974,3.829,2.692,2.65,2.991,4.594,1.5,3,2.572,3h5.133s.793-1.368-1.122-1.78-2.636-2.7-2.516-4.817a37.384,37.384,0,0,0-.179-4.947l-4.068-.943Z" transform="translate(-384.033 -1595.475)" fill="#750d1c"/>
      <path id="Path_4043" data-name="Path 4043" d="M589.279,1741.636s-.882,9.482.194,10.012l13.78-.028s0-1.59-2.213-1.944-6.1-1.649-6.759-4.535S589.279,1741.636,589.279,1741.636Z" transform="translate(-566.484 -1611.811)" fill="#750d1c"/>
      <path id="Path_4044" data-name="Path 4044" d="M693.313,913.552a15.833,15.833,0,0,1-4.42-3.934c-.334-.417-.631-.823-.892-1.2.76-3.59,1.874-8.526,1.633-5.4C689.321,907.078,692.488,912.277,693.313,913.552Z" transform="translate(-654.692 -864.209)" fill="#610815"/>
      <path id="Path_4045" data-name="Path 4045" d="M501.928,748.121c2.836-6.359,4.571-8.184,4.239-10.158-.247-1.469.751-27.39.751-27.39.336-.1,1.011-.2,1.38-.279a3.46,3.46,0,0,0,2.526-2.2,17.636,17.636,0,0,0,.857-5.849l.363.071,6.108,1.21s-.139,1.922-.143,3.733c0,.015,0,.03,0,.045a3.513,3.513,0,0,0,2.535,3.4c.771.223,1.443.413,1.443.413a56,56,0,0,1,2.671,12.98c.428,6.578-4.078,9.435.034,22.58C528.89,760.1,500.361,751.635,501.928,748.121Z" transform="translate(-488.953 -686.321)" fill="#ffb27d"/>
      <path id="Path_4046" data-name="Path 4046" d="M600.865,704.11s-.139,1.922-.143,3.733c-3.418-.1-5.224-3.214-5.964-4.942Z" transform="translate(-571.666 -686.903)" fill="#e8945b"/>
      <path id="Path_4047" data-name="Path 4047" d="M594.419,618.714s-8.086.133-8.092-4.9-1.053-8.412,4.11-8.71,6.168,1.623,6.579,3.3S596.522,618.55,594.419,618.714Z" transform="translate(-564.079 -599.792)" fill="#ffb27d"/>
      <path id="Path_4048" data-name="Path 4048" d="M572.993,595.906s-2.214,5.909-5.612,6.783-4.872-.037-4.872-.037a9.622,9.622,0,0,0,3.147-5.684S571.323,593.093,572.993,595.906Z" transform="translate(-542.952 -590.721)" fill="#333"/>
      <path id="Path_4049" data-name="Path 4049" d="M653.169,600.773a5.017,5.017,0,0,1,2.317,1.811,8.141,8.141,0,0,1,1.093,4.624s1.668-4.017-.207-6.289C654.385,598.51,653.169,600.773,653.169,600.773Z" transform="translate(-623.677 -595.108)" fill="#333"/>
      <path id="Path_4050" data-name="Path 4050" d="M644.852,698.773a2.032,2.032,0,0,0,1.674.681,1.486,1.486,0,0,0,1.246-.823A5.432,5.432,0,0,0,644.852,698.773Z" transform="translate(-616.271 -682.976)" fill="#ebf3fa"/>
      <path id="Path_4051" data-name="Path 4051" d="M494.57,789.682a54.874,54.874,0,0,0,0,6.369c.137,2.3,2.466,5.387,2.8,6.15.829,1.914,1.765,2.225,1.765,2.225l7.235,1.773,2.544.623,8.022-2.4s3.654-10.2,2.187-15.94a44.132,44.132,0,0,0-3.709-9.728s-6.546,6.41-15.07-.544Z" transform="translate(-482.376 -753.964)" fill="#750d1c"/>
      <path id="Path_4052" data-name="Path 4052" d="M514.638,930.627a22.527,22.527,0,0,0,.679,5.21c.829,1.914,1.764,2.225,1.764,2.225l7.235,1.773,3.142-.924s-10.49-1.589-9.327-10.615Z" transform="translate(-500.326 -887.599)" fill="#f2ccaa"/>
      <path id="Path_4053" data-name="Path 4053" d="M586.568,1031.535s3.973,12.366,4.228,16.576-7.594,59.809-7.91,61.749c-.3,1.829-2.568,2.994-2.568,2.994a3.435,3.435,0,0,1-2.535.2,6.269,6.269,0,0,1-2.722-1.283s-3.092-39.652-1.178-53.817a224.344,224.344,0,0,0,1.936-26.414Z" transform="translate(-552.522 -979.524)" fill="#815025"/>
      <path id="Path_4054" data-name="Path 4054" d="M424.595,1028.171s-6.06,8.131-6.625,13.627-.886,24.8-2.09,30.162-5.626,15.67-5.626,32.383a3.334,3.334,0,0,0,1.879,1.468,15.437,15.437,0,0,0,1.652.457,2.6,2.6,0,0,0,2.906-1.379c2.99-6.02,12.513-25.434,13-29.464.346-2.852,3.353-21.728,9.912-32.8,1.575-2.659-.966-13.234-.966-13.234Z" transform="translate(-407.381 -976.529)" fill="#955c2a"/>
      <path id="Path_4055" data-name="Path 4055" d="M646.492,699.215s.14.593,1.616.5c0,0,1.24-.077,1.2-.729A3.988,3.988,0,0,0,646.492,699.215Z" transform="translate(-617.731 -683.282)" fill="#fff"/>
      <path id="Path_4056" data-name="Path 4056" d="M551.61,1014.115a8.328,8.328,0,0,1-4.763,1.325c-3.784.076-13.162-.965-13.162-.965a7.757,7.757,0,0,0-.4,2.393s11.453,2.889,18.089.422A4.193,4.193,0,0,0,551.61,1014.115Z" transform="translate(-516.929 -964.013)" fill="#815025"/>
      <g id="Group_3861" data-name="Group 3861" transform="translate(29.098 50.779)">
        <path id="Path_4057" data-name="Path 4057" d="M649.574,1022.255a1.74,1.74,0,1,1,1.727,1.954A1.853,1.853,0,0,1,649.574,1022.255Zm.572,0a1.173,1.173,0,1,0,1.154-1.382A1.285,1.285,0,0,0,650.146,1022.255Z" transform="translate(-649.574 -1020.3)" fill="#fff"/>
      </g>
      <rect id="Rectangle_830" data-name="Rectangle 830" width="15.559" height="21.298" transform="matrix(-0.754, -0.657, 0.657, -0.754, 16.16, 62.556)" fill="#fff"/>
      <path id="Path_4058" data-name="Path 4058" d="M554.462,1034.87s4.3.5,4.286,1.523-1.071,3.117-1.6,3.21-3.5-2.835-3.5-2.835Z" transform="translate(-535.06 -982.494)" fill="#ffb27d"/>
      <path id="Path_4059" data-name="Path 4059" d="M431.649,778.215s-5.74.4-7.94,5.751-6.375,14.329-6.375,15.84,2.332,6.168,14.856,8.846c0,0,1.3-1.363,1.217-2.44,0,0-7.818-6.715-7.8-7.5.04-1.485,1.282-3.444,8.145-10.31C435.621,786.535,431.649,778.215,431.649,778.215Z" transform="translate(-413.685 -753.964)" fill="#750d1c"/>
    </g>
    <rect id="Rectangle_831" data-name="Rectangle 831" width="328.814" height="1.001" rx="0.501" transform="translate(1195.55 1028.038)" fill="#333"/>
  </g>
</svg>
