<svg xmlns="http://www.w3.org/2000/svg" width="335.344" height="198.761" viewBox="0 0 335.344 198.761">
  <g id="img_chongoilinhhoat" transform="translate(-392.72 -830)">
    <path id="Path_4060" data-name="Path 4060" d="M454.855,361.67h0l-.077.153c-.185.366-.376.737-.57,1.11l-298.488-.1s-.29-.358-.811-1.045l-.09-.12a124.082,124.082,0,0,1-7.158-10.753s0,0,0-.006c-8.335-13.949-19.885-38.652-17.941-66.069a81.759,81.759,0,0,1,5.245-23.686c9.324-24.237,37.141-40.576,62.2-40.9,9.7-.129,18.987,2.144,26.627,7.285a15.584,15.584,0,0,0,5.041,2.093,28.345,28.345,0,0,0,5.565.73c16.275.634,42.744-9.514,58.443-35.045,8.336-13.558,21.135-22.433,35.844-27.056q1.028-.321,2.069-.617a82.847,82.847,0,0,1,10.279-2.214q.945-.141,1.9-.263a100.523,100.523,0,0,1,47.4,5.766q3.012,1.125,5.949,2.441c28.7,12.858,51.022,39.115,49.059,75.776q-.116,2.174-.348,4.4-.44,4.235-1.316,8.644-.519,2.6-1.194,5.255C430.644,313.92,477.927,316.018,454.855,361.67Z" transform="translate(263.221 665.577)" fill="#955c2a" opacity="0.15"/>
    <g id="Group_3864" data-name="Group 3864" transform="translate(485.741 912.029)" opacity="0.1">
      <path id="Path_4061" data-name="Path 4061" d="M1177.637,831.64h0l-232.335.024,2-69.436V743.364H956V728.629h17.336v12.507h5.294v-23.13h1.151v-1.617h.206v1.617h4.182v-1.617h.208v1.617h5.919v-1.617h.208v1.617h3.726v-1.617h.205v1.617h1.531V739.6h5.852V736.1l6.9.031v-5.659h1.388v-1.119h.184v1.119h5.329v0h1.066v-1.122h.183v1.122h1.286v11.252h8.215v4.142h4.568v-2.4h4.236v-9.547h2.113v-4.454h.319v4.454h5.062v-8.348h.5v8.348h3.349V733.8h-.005v-1.06h.005v-1h-.005v-1.669h.005v-1.065h-.005V727.34h.005v-1.065h-.005v-1.669h.005v-1.151h-.005v-1.667h.005v-1.466h-.005v-1.668h.005v-1.106h1V716.3h.16v1.248h7.393V716.3h.159v1.248h1.35v8.727l.949.005v-.005h-.008v-1.669h.008v-1.151h-.008v-1.667h.008V720.64h-.008v-1.669h.008v-.005h8.965v.005h1.541l.24.133v11.129h1.65v-1.6h18.922v12.507h5.778v-23.13h1.256v-1.617h.227v1.617h4.563v-1.617h.226v1.617h6.462v-1.617h.226v1.617h4.067v-1.617h.224v1.617h1.672V739.6h6.386V736.1l7.531.031v-5.658h1.516v-1.12h.2v1.12h6.979v-1.122h.2v1.122h1.4v11.253h8.966v4.14h4.986v-2.4h4.623V733.92h2.305v-4.453h.348v4.453h5.526v-8.347h.542v8.347h2.717a77.1,77.1,0,0,1-1.316,7.812q-.519,2.348-1.194,4.75C1153.426,788.485,1200.709,790.381,1177.637,831.64Z" transform="translate(-945.302 -716.3)" fill="#955c2a"/>
    </g>
    <g id="Group_3872" data-name="Group 3872" transform="translate(656.012 980.818)">
      <g id="Group_3867" data-name="Group 3867" transform="translate(25.431 18.993)">
        <path id="Path_4067" data-name="Path 4067" d="M2698.978,1494.219s-3.328-3.883-.206-6.349a8.86,8.86,0,0,1,4.142-1.269s-2.636,4.42-1.783,4.859,2.581-5.136,2.581-5.136,5.191-.5,6.861.3c0,0-4.438,3.632-3.5,3.848s5.728-3.348,5.728-3.348,4.831.822,4.574,3.77-1.922,3.858-2.654,3.779-5.012-1.712-5.105-1.113,2.483,2.559,4.288,2.65c0,0-3.406,3.757-5.67,2.672s-2.457-2.8-3.868-3.447-2.616-.643-2.033.014,3.136,1.3,3.944,2.724,1.531,2.39-.811,2.038-6.15-2.066-6.316-4.029Z" transform="translate(-2693.352 -1486.168)" fill="#610815"/>
        <g id="Group_3866" data-name="Group 3866" transform="translate(0 4.781)">
          <path id="Path_4068" data-name="Path 4068" d="M2704.286,1528.122s-13.123-.506-16.021,3.247a9.493,9.493,0,0,1-2.613,3.667l-.308.838s2.274-2.4,3.087-2.543C2688.432,1533.332,2687.16,1528.682,2704.286,1528.122Z" transform="translate(-2682.64 -1528.099)" fill="#610815"/>
          <path id="Path_4069" data-name="Path 4069" d="M2664.635,1586.374a8.239,8.239,0,0,0-3.012,5.805l.511.046s.9-3.849,2.525-5.353S2664.635,1586.374,2664.635,1586.374Z" transform="translate(-2661.622 -1579.437)" fill="#610815"/>
        </g>
      </g>
      <g id="Group_3869" data-name="Group 3869" transform="translate(0 8.451)">
        <path id="Path_4070" data-name="Path 4070" d="M2458.01,1407.423s5.294-2.965,2.823-6.989c0,0-1.976-2.471-4.094-3.106,0,0,1.13,6,0,6.141s-.776-6.777-.776-6.777-5.577-2.683-7.765-2.471c0,0,3.459,5.859,2.329,5.718s-5.012-6.071-5.012-6.071-5.718-1.059-6.636,2.33.565,5.083,1.412,5.294,6.283.141,6.142.847-3.812,1.835-5.859,1.2c0,0,2.259,5.577,5.224,5.294s3.883-2.118,5.718-2.259,3.177.353,2.259.847-4.023.162-5.506,1.422-2.683,2.037.071,2.6,7.695.212,8.683-1.906Z" transform="translate(-2438.591 -1393.712)" fill="#610815"/>
        <g id="Group_3868" data-name="Group 3868" transform="translate(2.901 3.545)">
          <path id="Path_4071" data-name="Path 4071" d="M2464.037,1424.8s14.824,4.8,16.518,10.165a11.265,11.265,0,0,0,1.412,5.153v1.059s-1.553-3.6-2.4-4.094C2479.567,1437.086,2482.885,1432.427,2464.037,1424.8Z" transform="translate(-2464.037 -1424.803)" fill="#610815"/>
          <path id="Path_4072" data-name="Path 4072" d="M2615.782,1554.025a9.777,9.777,0,0,1,.983,7.7l-.588-.158s.571-4.655-.625-7S2615.782,1554.025,2615.782,1554.025Z" transform="translate(-2597.852 -1538.707)" fill="#610815"/>
        </g>
      </g>
      <g id="Group_3871" data-name="Group 3871" transform="translate(23.255)">
        <path id="Path_4073" data-name="Path 4073" d="M2647.124,1337.667s-6.979-3.908-3.722-9.212c0,0,2.605-3.257,5.4-4.094,0,0-1.489,7.91,0,8.1s1.023-8.933,1.023-8.933,7.351-3.536,10.236-3.257c0,0-4.56,7.724-3.071,7.537s6.606-8,6.606-8,7.537-1.4,8.747,3.071-.744,6.7-1.861,6.979-8.281.186-8.1,1.117,5.025,2.419,7.724,1.582c0,0-2.978,7.351-6.886,6.979s-5.118-2.792-7.537-2.978-4.187.465-2.978,1.117,5.3.214,7.258,1.875,3.536,2.685-.093,3.429-10.143.279-11.446-2.512Z" transform="translate(-2642.536 -1319.594)" fill="#750d1c"/>
        <g id="Group_3870" data-name="Group 3870" transform="translate(0.902 4.673)">
          <path id="Path_4074" data-name="Path 4074" d="M2690.086,1360.576s-19.541,6.328-21.775,13.4a14.838,14.838,0,0,1-1.861,6.793v1.4s2.047-4.746,3.164-5.4C2669.615,1376.767,2665.241,1370.626,2690.086,1360.576Z" transform="translate(-2664.626 -1360.576)" fill="#750d1c"/>
          <path id="Path_4075" data-name="Path 4075" d="M2652.272,1530.916a12.887,12.887,0,0,0-1.3,10.147l.775-.208s-.753-6.135.824-9.221S2652.272,1530.916,2652.272,1530.916Z" transform="translate(-2650.447 -1510.724)" fill="#750d1c"/>
        </g>
      </g>
      <path id="Path_4076" data-name="Path 4076" d="M2574.489,1626.374a13.671,13.671,0,0,0,13.671-13.671h-27.341A13.671,13.671,0,0,0,2574.489,1626.374Z" transform="translate(-2546.882 -1579.282)" fill="#955c2a"/>
      <path id="Path_4077" data-name="Path 4077" d="M2590.8,1626.268a13.68,13.68,0,0,1-15.368-13.566h3.4A13.673,13.673,0,0,0,2590.8,1626.268Z" transform="translate(-2559.828 -1579.281)" fill="#815025"/>
    </g>
    <g id="Group_3897" data-name="Group 3897" transform="translate(555.776 941.697)">
      <g id="Group_3873" data-name="Group 3873" transform="translate(50.768 27.591)">
        <path id="Path_4078" data-name="Path 4078" d="M2018.184,1276.425l-13.433-55.755.938-2.195L2019,1276.419a.237.237,0,0,1-.231.29h-.222A.37.37,0,0,1,2018.184,1276.425Z" transform="translate(-2004.75 -1218.475)" fill="#333"/>
      </g>
      <g id="Group_3896" data-name="Group 3896" transform="translate(0)">
        <g id="Group_3874" data-name="Group 3874" transform="translate(3.129 61.323)">
          <path id="Path_4079" data-name="Path 4079" d="M1587.4,1538.812h0a.447.447,0,0,1-.441-.52l3.956-23.982h1.7l-4.718,24.1A.5.5,0,0,1,1587.4,1538.812Z" transform="translate(-1586.948 -1514.31)" fill="#333"/>
        </g>
        <g id="Group_3875" data-name="Group 3875" transform="translate(41.083 61.323)">
          <path id="Path_4080" data-name="Path 4080" d="M1920.257,1538.812h0a.447.447,0,0,1-.441-.52l3.956-23.982h1.7l-4.718,24.1A.5.5,0,0,1,1920.257,1538.812Z" transform="translate(-1919.81 -1514.31)" fill="#333"/>
        </g>
        <path id="Path_4081" data-name="Path 4081" d="M1637.288,1037.872h-47.252l9.79-61.374h47.252Z" transform="translate(-1586.555 -976.499)" fill="#fbfdff"/>
        <rect id="Rectangle_833" data-name="Rectangle 833" width="54.268" height="1.805" transform="translate(0 60.906)" fill="#333"/>
        <g id="Group_3876" data-name="Group 3876" transform="translate(14.275 3.689)">
          <path id="Path_4082" data-name="Path 4082" d="M1702.412,1018.006a9.927,9.927,0,0,1-9.516,9.183,8.239,8.239,0,0,1-8.166-9.153,9.879,9.879,0,0,1,9.516-9.183,8.2,8.2,0,0,1,2.883.508,7.9,7.9,0,0,1,3.239,2.244,8.243,8.243,0,0,1,.885,1.234,8.147,8.147,0,0,1,.41.793,8.692,8.692,0,0,1,.695,2.454,9.349,9.349,0,0,1,.078,1.342Q1702.433,1017.714,1702.412,1018.006Z" transform="translate(-1684.704 -1008.853)" fill="#750d1c"/>
          <path id="Path_4083" data-name="Path 4083" d="M1770.566,1021.732l-8.092,4.388s3.339-5.88,4.709-8.125a7.974,7.974,0,0,1,2.088,1.71,8.232,8.232,0,0,1,.885,1.234A8.12,8.12,0,0,1,1770.566,1021.732Z" transform="translate(-1753.606 -1016.953)" fill="#fff"/>
          <path id="Path_4084" data-name="Path 4084" d="M1783.383,1014.514l-7.392,4.008s3.05-5.371,4.3-7.422a7.276,7.276,0,0,1,1.906,1.562,7.605,7.605,0,0,1,1.184,1.852Z" transform="translate(-1765.582 -1010.844)" fill="#955c2a"/>
        </g>
        <g id="Group_3882" data-name="Group 3882" transform="translate(8.078 34.265)">
          <g id="Group_3877" data-name="Group 3877">
            <path id="Path_4085" data-name="Path 4085" d="M1669.246,1299.453l-38.892,0,3.937-22.44,38.893,0Zm-38.578-.229,38.344,0,3.858-21.988-38.344,0Z" transform="translate(-1630.354 -1277.01)" fill="#955c2a"/>
          </g>
          <g id="Group_3879" data-name="Group 3879" transform="translate(2.08 12.421)">
            <path id="Path_4086" data-name="Path 4086" d="M1683.089,1400.594l-34.493,0s6.118-3.281,7.8-3.109,4.09,1.5,5.642,1.552,3.231-4.606,4.958-4.386,2.376,4.339,3.271,3.937a9.046,9.046,0,0,1,5.125,0c1.546.577,3.8-1.833,5.159-1.758S1683.089,1400.594,1683.089,1400.594Z" transform="translate(-1648.596 -1393.649)" fill="#750d1c"/>
            <g id="Group_3878" data-name="Group 3878" transform="translate(1.575)">
              <path id="Path_4087" data-name="Path 4087" d="M1670.146,1386.289h-6.588l.061-.349h6.588Z" transform="translate(-1663.427 -1385.94)" fill="#750d1c"/>
              <path id="Path_4088" data-name="Path 4088" d="M1669,1392.834h-6.588l.061-.349h6.588Z" transform="translate(-1662.409 -1391.738)" fill="#750d1c"/>
            </g>
          </g>
          <g id="Group_3881" data-name="Group 3881" transform="translate(4.054 1.814)">
            <path id="Path_4089" data-name="Path 4089" d="M1665.905,1301.942l34.493,0s-4.967-3.282-6.706-3.11-4.617,1.5-6.186,1.551-1.615-4.606-3.418-4.386-3.9,4.338-4.652,3.936a8.942,8.942,0,0,0-5.125,0c-1.749.577-3.156-1.834-4.542-1.759S1665.905,1301.942,1665.905,1301.942Z" transform="translate(-1665.905 -1295.641)" fill="#955c2a"/>
            <g id="Group_3880" data-name="Group 3880" transform="translate(1.463)">
              <path id="Path_4090" data-name="Path 4090" d="M1686.468,1293.266h-6.588l.061-.349h6.588Z" transform="translate(-1679.749 -1292.916)" fill="#955c2a"/>
              <path id="Path_4091" data-name="Path 4091" d="M1685.32,1299.811h-6.588l.061-.349h6.588Z" transform="translate(-1678.732 -1298.715)" fill="#955c2a"/>
            </g>
          </g>
        </g>
        <g id="Group_3883" data-name="Group 3883" transform="translate(12.855 24.046)">
          <path id="Path_4092" data-name="Path 4092" d="M1673.762,1194.477h-1.513l1.315-7.089h1.513Z" transform="translate(-1672.249 -1187.388)" fill="#955c2a"/>
          <path id="Path_4093" data-name="Path 4093" d="M1691.836,1206.891h-1.513l1.018-5.492h1.513Z" transform="translate(-1688.263 -1199.802)" fill="#955c2a"/>
          <path id="Path_4094" data-name="Path 4094" d="M1709.911,1205.062H1708.4l1.062-5.727h1.513Z" transform="translate(-1704.277 -1197.973)" fill="#955c2a"/>
          <path id="Path_4095" data-name="Path 4095" d="M1727.986,1215.713h-1.513l.808-4.356h1.513Z" transform="translate(-1720.29 -1208.624)" fill="#955c2a"/>
          <path id="Path_4096" data-name="Path 4096" d="M1746.06,1213.249h-1.513l.867-4.674h1.513Z" transform="translate(-1736.303 -1206.159)" fill="#955c2a"/>
          <path id="Path_4097" data-name="Path 4097" d="M1764.135,1221.4h-1.513l.672-3.624h1.513Z" transform="translate(-1752.318 -1214.311)" fill="#955c2a"/>
        </g>
        <g id="Group_3884" data-name="Group 3884" transform="translate(33.093 24.046)">
          <path id="Path_4098" data-name="Path 4098" d="M1851.254,1194.477h-1.513l1.315-7.089h1.513Z" transform="translate(-1849.741 -1187.388)" fill="#750d1c"/>
          <path id="Path_4099" data-name="Path 4099" d="M1869.328,1206.891h-1.513l1.019-5.492h1.513Z" transform="translate(-1865.755 -1199.802)" fill="#750d1c"/>
          <path id="Path_4100" data-name="Path 4100" d="M1887.4,1205.062h-1.513l1.062-5.727h1.513Z" transform="translate(-1881.769 -1197.973)" fill="#750d1c"/>
          <path id="Path_4101" data-name="Path 4101" d="M1905.478,1215.713h-1.513l.808-4.356h1.513Z" transform="translate(-1897.782 -1208.624)" fill="#750d1c"/>
          <path id="Path_4102" data-name="Path 4102" d="M1923.552,1213.249h-1.513l.867-4.674h1.513Z" transform="translate(-1913.795 -1206.159)" fill="#750d1c"/>
          <path id="Path_4103" data-name="Path 4103" d="M1941.627,1221.4h-1.513l.672-3.624h1.513Z" transform="translate(-1929.81 -1214.311)" fill="#750d1c"/>
        </g>
        <g id="Group_3893" data-name="Group 3893" transform="translate(35.377 5.745)">
          <g id="Group_3885" data-name="Group 3885" transform="translate(1.588 1.574)">
            <path id="Path_4104" data-name="Path 4104" d="M1888.624,1041.36H1883.7l.127-.675h4.925Z" transform="translate(-1883.699 -1040.686)" fill="#f1efef"/>
            <path id="Path_4105" data-name="Path 4105" d="M1937.622,1041.36h-5.438l.127-.675h5.438Z" transform="translate(-1926.656 -1040.686)" fill="#f1efef"/>
            <path id="Path_4106" data-name="Path 4106" d="M1986.93,1041.36h-3.467l.127-.675h3.467Z" transform="translate(-1972.088 -1040.686)" fill="#f1efef"/>
            <path id="Path_4107" data-name="Path 4107" d="M2021.465,1041.36h-2.675l.127-.675h2.675Z" transform="translate(-2003.386 -1040.686)" fill="#f1efef"/>
          </g>
          <g id="Group_3886" data-name="Group 3886" transform="translate(1.047 4.453)">
            <path id="Path_4108" data-name="Path 4108" d="M1883.884,1066.6h-4.925l.127-.675h4.925Z" transform="translate(-1878.959 -1065.93)" fill="#f1efef"/>
            <path id="Path_4109" data-name="Path 4109" d="M1932.882,1066.6h-5.438l.127-.675h5.438Z" transform="translate(-1921.916 -1065.93)" fill="#f1efef"/>
            <path id="Path_4110" data-name="Path 4110" d="M1982.189,1066.6h-3.467l.127-.675h3.467Z" transform="translate(-1967.347 -1065.93)" fill="#f1efef"/>
            <path id="Path_4111" data-name="Path 4111" d="M2016.725,1066.6h-2.675l.127-.675h2.675Z" transform="translate(-1998.646 -1065.93)" fill="#f1efef"/>
          </g>
          <g id="Group_3887" data-name="Group 3887" transform="translate(1.883)">
            <path id="Path_4112" data-name="Path 4112" d="M1893.848,1027.555h-7.556l.127-.675h7.556Z" transform="translate(-1886.292 -1026.88)" fill="#f1efef"/>
            <path id="Path_4113" data-name="Path 4113" d="M1963.226,1027.555h-4.356l.127-.675h4.355Z" transform="translate(-1950.594 -1026.88)" fill="#f1efef"/>
            <path id="Path_4114" data-name="Path 4114" d="M2007.293,1027.555h-4.837l.127-.675h4.837Z" transform="translate(-1989.211 -1026.88)" fill="#f1efef"/>
          </g>
          <g id="Group_3888" data-name="Group 3888" transform="translate(1.309 3.061)">
            <path id="Path_4115" data-name="Path 4115" d="M1888.808,1054.4h-7.556l.127-.675h7.556Z" transform="translate(-1881.252 -1053.722)" fill="#f1efef"/>
            <path id="Path_4116" data-name="Path 4116" d="M1958.186,1054.4h-4.355l.126-.675h4.355Z" transform="translate(-1945.555 -1053.722)" fill="#f1efef"/>
            <path id="Path_4117" data-name="Path 4117" d="M2002.253,1054.4h-4.837l.126-.675h4.837Z" transform="translate(-1984.171 -1053.722)" fill="#f1efef"/>
          </g>
          <g id="Group_3889" data-name="Group 3889" transform="translate(0.507 7.331)">
            <path id="Path_4118" data-name="Path 4118" d="M1879.144,1091.849h-4.925l.127-.675h4.925Z" transform="translate(-1874.219 -1091.174)" fill="#f1efef"/>
            <path id="Path_4119" data-name="Path 4119" d="M1928.141,1091.849H1922.7l.127-.675h5.438Z" transform="translate(-1917.175 -1091.174)" fill="#f1efef"/>
            <path id="Path_4120" data-name="Path 4120" d="M1977.448,1091.849h-3.467l.127-.675h3.467Z" transform="translate(-1962.606 -1091.174)" fill="#f1efef"/>
            <path id="Path_4121" data-name="Path 4121" d="M2011.985,1091.849h-2.675l.126-.675h2.675Z" transform="translate(-1993.906 -1091.174)" fill="#f1efef"/>
          </g>
          <g id="Group_3890" data-name="Group 3890" transform="translate(0.768 5.939)">
            <path id="Path_4122" data-name="Path 4122" d="M1884.067,1079.641h-7.556l.127-.675h7.556Z" transform="translate(-1876.511 -1078.967)" fill="#f1efef"/>
            <path id="Path_4123" data-name="Path 4123" d="M1953.444,1079.641h-4.355l.127-.675h4.355Z" transform="translate(-1940.813 -1078.967)" fill="#f1efef"/>
            <path id="Path_4124" data-name="Path 4124" d="M1997.512,1079.641h-4.837l.127-.675h4.837Z" transform="translate(-1979.429 -1078.967)" fill="#f1efef"/>
          </g>
          <g id="Group_3891" data-name="Group 3891" transform="translate(0 10.03)">
            <path id="Path_4125" data-name="Path 4125" d="M1874.7,1115.516h-4.925l.127-.675h4.925Z" transform="translate(-1869.775 -1114.841)" fill="#f1efef"/>
            <path id="Path_4126" data-name="Path 4126" d="M1923.7,1115.516h-5.438l.127-.675h5.438Z" transform="translate(-1912.731 -1114.841)" fill="#f1efef"/>
            <path id="Path_4127" data-name="Path 4127" d="M1973,1115.516h-3.467l.127-.675h3.467Z" transform="translate(-1958.162 -1114.841)" fill="#f1efef"/>
            <path id="Path_4128" data-name="Path 4128" d="M2007.54,1115.516h-2.675l.127-.675h2.675Z" transform="translate(-1989.462 -1114.841)" fill="#f1efef"/>
          </g>
          <g id="Group_3892" data-name="Group 3892" transform="translate(0.261 8.638)">
            <path id="Path_4129" data-name="Path 4129" d="M1879.622,1103.307h-7.556l.127-.675h7.556Z" transform="translate(-1872.066 -1102.633)" fill="#f1efef"/>
            <path id="Path_4130" data-name="Path 4130" d="M1949,1103.307h-4.355l.127-.675h4.355Z" transform="translate(-1936.369 -1102.633)" fill="#f1efef"/>
            <path id="Path_4131" data-name="Path 4131" d="M1993.068,1103.307h-4.837l.127-.675h4.837Z" transform="translate(-1974.985 -1102.633)" fill="#f1efef"/>
          </g>
        </g>
        <g id="Group_3894" data-name="Group 3894" transform="translate(26.42 24)">
          <path id="Path_4132" data-name="Path 4132" d="M1795.945,1194.068h-2.411l.062-.33h2.411Z" transform="translate(-1793.27 -1192.968)" fill="#f1efef"/>
          <path id="Path_4133" data-name="Path 4133" d="M1819.927,1194.068h-2.662l.062-.33h2.661Z" transform="translate(-1814.295 -1192.968)" fill="#f1efef"/>
          <path id="Path_4134" data-name="Path 4134" d="M1793.624,1206.425h-2.41l.062-.33h2.411Z" transform="translate(-1791.214 -1203.916)" fill="#f1efef"/>
          <path id="Path_4135" data-name="Path 4135" d="M1817.607,1206.425h-2.662l.062-.33h2.662Z" transform="translate(-1812.239 -1203.916)" fill="#f1efef"/>
          <path id="Path_4136" data-name="Path 4136" d="M1798.5,1187.312h-3.7l.062-.33h3.7Z" transform="translate(-1794.394 -1186.981)" fill="#f1efef"/>
          <path id="Path_4137" data-name="Path 4137" d="M1832.459,1187.312h-2.132l.062-.33h2.132Z" transform="translate(-1825.867 -1186.981)" fill="#f1efef"/>
          <path id="Path_4138" data-name="Path 4138" d="M1796.034,1200.45h-3.7l.062-.33h3.7Z" transform="translate(-1792.208 -1198.622)" fill="#f1efef"/>
          <path id="Path_4139" data-name="Path 4139" d="M1829.992,1200.45h-2.132l.062-.33h2.132Z" transform="translate(-1823.682 -1198.622)" fill="#f1efef"/>
        </g>
        <g id="Group_3895" data-name="Group 3895" transform="translate(45.729 24)">
          <path id="Path_4140" data-name="Path 4140" d="M1965.292,1194.068h-2.411l.062-.33h2.41Z" transform="translate(-1962.617 -1192.968)" fill="#f1efef"/>
          <path id="Path_4141" data-name="Path 4141" d="M1989.276,1194.068h-2.662l.062-.33h2.662Z" transform="translate(-1983.644 -1192.968)" fill="#f1efef"/>
          <path id="Path_4142" data-name="Path 4142" d="M1962.973,1206.425h-2.41l.062-.33h2.41Z" transform="translate(-1960.562 -1203.916)" fill="#f1efef"/>
          <path id="Path_4143" data-name="Path 4143" d="M1986.956,1206.425h-2.662l.062-.33h2.662Z" transform="translate(-1981.588 -1203.916)" fill="#f1efef"/>
          <path id="Path_4144" data-name="Path 4144" d="M1967.85,1187.312h-3.7l.062-.33h3.7Z" transform="translate(-1963.742 -1186.981)" fill="#f1efef"/>
          <path id="Path_4145" data-name="Path 4145" d="M2001.808,1187.312h-2.132l.062-.33h2.132Z" transform="translate(-1995.216 -1186.981)" fill="#f1efef"/>
          <path id="Path_4146" data-name="Path 4146" d="M1965.382,1200.45h-3.7l.062-.33h3.7Z" transform="translate(-1961.556 -1198.622)" fill="#f1efef"/>
          <path id="Path_4147" data-name="Path 4147" d="M1999.341,1200.45h-2.132l.062-.33h2.132Z" transform="translate(-1993.031 -1198.622)" fill="#f1efef"/>
        </g>
      </g>
    </g>
    <g id="Group_3901" data-name="Group 3901" transform="translate(605.894 924.021)">
      <g id="Group_3898" data-name="Group 3898" transform="translate(0 94.646)">
        <path id="Path_4148" data-name="Path 4148" d="M2010.162,1659.478c-.084,1.154-1.712,1.166-3.559.952s-1.356.253-3.942.289-3.477-.819-3.6-1.188c-.112-.328,1.134-.6,2.466-.928.168-.04.336-.083.5-.125,1.5-.382,2.5-1.506,3.783-2.488,1.218-.93,2.788-4.3,2.788-4.3l3.533-.159s-1.488,3.017-2.047,4.318a4.261,4.261,0,0,0-.046,2.427A4.517,4.517,0,0,1,2010.162,1659.478Z" transform="translate(-1999.051 -1651.533)" fill="#ffb27d"/>
        <path id="Path_4149" data-name="Path 4149" d="M2006.6,1712.84c-1.847-.214-1.356.253-3.942.289s-3.477-.819-3.6-1.188c-.112-.328,1.134-.6,2.466-.928l.016.024a7.245,7.245,0,0,0,3.795.68c1.736-.174,3.507-.9,4.7-1.028a4.519,4.519,0,0,1,.122,1.2C2010.078,1713.042,2008.45,1713.054,2006.6,1712.84Z" transform="translate(-1999.051 -1703.943)" fill="#333"/>
      </g>
      <g id="Group_3899" data-name="Group 3899" transform="translate(24.399 92.522)">
        <path id="Path_4150" data-name="Path 4150" d="M2224.146,1643.215c-.083,1.154-1.711,1.168-3.559.955s-1.356.254-3.942.293-3.479-.815-3.6-1.185c-.112-.328,1.133-.6,2.466-.931.167-.041.336-.083.5-.125,1.5-.384,2.5-1.509,3.781-2.492,1.217-.931,0-6.445,0-6.445l3.886-.378s-.187,4.642-.184,6.753a11.883,11.883,0,0,0,.528,2.355A4.54,4.54,0,0,1,2224.146,1643.215Z" transform="translate(-2213.035 -1632.907)" fill="#ffb27d"/>
        <path id="Path_4151" data-name="Path 4151" d="M2220.588,1714.942c-1.847-.213-1.356.254-3.942.293s-3.479-.815-3.6-1.185c-.112-.328,1.133-.6,2.466-.931l.016.024a7.25,7.25,0,0,0,3.8.676c1.735-.176,3.506-.9,4.7-1.033a4.54,4.54,0,0,1,.124,1.2C2224.063,1715.141,2222.435,1715.155,2220.588,1714.942Z" transform="translate(-2213.035 -1703.679)" fill="#333"/>
      </g>
      <path id="Path_4152" data-name="Path 4152" d="M2209.287,829.011c-.669-2.751.3-4.033,1.176-4.715a4.171,4.171,0,0,1,1.372-2.018,4.957,4.957,0,0,1,2.682-.513,1.254,1.254,0,0,0-.565-.268,4.156,4.156,0,0,1,1.483.387c6.385-2.46,7.389,6.941,7.255,9.125s-.115,4.756,3.206,6.477c6.338,3.284-2.107,15.657-2.107,15.657.161-1.765-7.983-11.079-12.231-13.869a12.275,12.275,0,0,1-1.429-4.424,11.606,11.606,0,0,0,.869,4C2209.062,837.071,2208.775,832.791,2209.287,829.011Z" transform="translate(-2185.117 -821.477)" fill="#333"/>
      <path id="Path_4153" data-name="Path 4153" d="M2233.146,929.9a5.885,5.885,0,0,0,3.611.659,4.683,4.683,0,0,0,2.4-2.306c-.621-.123-.8-.977-.787-4.644l-.281.055-4.721.935s.107,1.486.111,2.885C2233.486,928.664,2233.415,929.779,2233.146,929.9Z" transform="translate(-2206.453 -911.968)" fill="#ffb27d"/>
      <path id="Path_4154" data-name="Path 4154" d="M2235.135,925.034s.107,1.486.111,2.885c2.642-.075,4.038-2.484,4.61-3.82Z" transform="translate(-2208.216 -912.398)" fill="#ed975d"/>
      <path id="Path_4155" data-name="Path 4155" d="M2066.252,1260.412a1.158,1.158,0,0,0,1.05,1.509l1.844.086,1.951.06a1.567,1.567,0,0,0,1.263-.577,54.871,54.871,0,0,0,9.26-17.533q.122-.389.259-.788c1.921-5.6,5.9-12.63,8-18.993.334-1.014.634-1.968.9-2.87.086-.289.17-.573.25-.853a67.5,67.5,0,0,0,2.406-12.669l-15.151.121A333.746,333.746,0,0,1,2066.252,1260.412Z" transform="translate(-2058.541 -1163.736)" fill="#955c2a"/>
      <path id="Path_4156" data-name="Path 4156" d="M2173.784,979.922c.038,7.21-1.058,10.3-1.058,10.3a20.361,20.361,0,0,0,14.2.87c.091-.029,5.516-1.565,5.516-1.565-.129-.292-1.2-5.116-1.327-5.384a25.319,25.319,0,0,1-2.264-6.038,22.851,22.851,0,0,1-.187-6.041,48.468,48.468,0,0,1,1.87-9.486,49.22,49.22,0,0,1-6.255-2.138,4.887,4.887,0,0,1-3.375,1.252c-1.536-.034-2.034-.691-1.954-1.409-1.637.911-2.943,1.771-2.943,1.771-1.391,2.416-4.212,4.763-4.417,8.469C2171.538,971.438,2173.783,979.72,2173.784,979.922Z" transform="translate(-2151.914 -944.458)" fill="#fff"/>
      <path id="Path_4157" data-name="Path 4157" d="M2287.44,1042.182c.662.938,1.932,6.635,5.091,7.351-1.628-4.061-2.864-5.841-3.057-7.09a30.813,30.813,0,0,1-.188-7.017c-1.057-1.854-1.847-3.125-1.847-3.125-.083-.3-1.68-5.24-2.192-.824A20.4,20.4,0,0,0,2287.44,1042.182Z" transform="translate(-2252.54 -1005.915)" fill="#5f9aa8"/>
      <path id="Path_4158" data-name="Path 4158" d="M2211.222,861.972s6.25.1,6.255-3.79.814-6.5-3.177-6.732-4.767,1.254-5.084,2.554S2209.6,861.844,2211.222,861.972Z" transform="translate(-2185.186 -848.01)" fill="#ffb27d"/>
      <path id="Path_4159" data-name="Path 4159" d="M2229.426,844.649s1.711,4.568,4.338,5.243,3.765-.028,3.765-.028a7.438,7.438,0,0,1-2.433-4.394S2230.717,842.475,2229.426,844.649Z" transform="translate(-2203.158 -841.306)" fill="#333"/>
      <path id="Path_4160" data-name="Path 4160" d="M2208.556,848.263a5.523,5.523,0,0,0-1.59,2.011c-.312.991-.452,3.032-1.046,2.963,0,0-1.29-3.1.159-4.861C2207.616,846.514,2208.556,848.263,2208.556,848.263Z" transform="translate(-2181.864 -844.549)" fill="#333"/>
      <path id="Path_4161" data-name="Path 4161" d="M2118.209,1176.382l-2.952,9,1.684.675,4.881-7.952Z" transform="translate(-2102.007 -1135.914)" fill="#ffb27d"/>
      <path id="Path_4162" data-name="Path 4162" d="M2143.406,971.168s-3.48,1.381-4.488,3.535-2.533,16.6-3.14,18.082-1.064,2.658-1.064,2.658a7.261,7.261,0,0,0,3.52,1.588C2140,997.139,2143.406,971.168,2143.406,971.168Z" transform="translate(-2119.244 -954.1)" fill="#750d1c"/>
      <path id="Path_4163" data-name="Path 4163" d="M2162.589,960.286s-3.616,8.933-3.723,10.741-.425,29.565-.425,29.565.213,1.276-2.233.745a8.214,8.214,0,0,1-3.084-1.063s2.34-17.122,1.7-23.078,4.892-15.669,4.892-15.669Z" transform="translate(-2135.555 -944.458)" fill="#750d1c"/>
      <path id="Path_4164" data-name="Path 4164" d="M2092.063,1347.294l2.119.065a1.226,1.226,0,0,0,.983-.444,54.681,54.681,0,0,0,9.374-17.671q.123-.389.259-.788c1.921-5.6,5.9-12.63,8-18.993.334-1.014.634-1.967.9-2.87q.129-.434.25-.853l-2.231-1.693s-6.7,10.848-8.773,21.056C2101.145,1333.97,2093.93,1344.641,2092.063,1347.294Z" transform="translate(-2081.457 -1249.022)" fill="#815025"/>
      <path id="Path_4165" data-name="Path 4165" d="M2250.841,1303.685c-.036,4.7.187,15.164.758,20.281a.925.925,0,0,0,.92.822h1.581c.666,0,1.165,0,1.5-.01a.608.608,0,0,0,.587-.491c1.572-8,2.7-14.647,3.521-20.389.689-4.807,1.3-8.928,1.773-12.476.474-3.57.8-6.56.922-9.085q.027-.6.04-1.16t.006-1.1l-13.092-1.276C2249.517,1287.5,2250.862,1300.8,2250.841,1303.685Z" transform="translate(-2220.812 -1226.653)" fill="#955c2a"/>
      <path id="Path_4166" data-name="Path 4166" d="M2290.986,1352.271c.6,0,1.062,0,1.39-.008a.738.738,0,0,0,.713-.6c1.562-7.954,2.68-14.568,3.5-20.286.689-4.807,1.3-8.928,1.773-12.476.474-3.57.8-6.56.922-9.085l-4.8,2.826s3.066,1.082,1.9,9.271S2292.615,1351.112,2290.986,1352.271Z" transform="translate(-2257.698 -1254.137)" fill="#815025"/>
      <path id="Path_4167" data-name="Path 4167" d="M2250.8,1001.475s.922,3.332,4.112,2.906a38.433,38.433,0,0,0,7.727-2.34s-1.363-4.308-3.059-9.968c-2.052-6.852-4.593-15.685-5.791-21.257a34.529,34.529,0,0,1-.651-3.8l-2.647-5.136s-3.947,8.858-4.159,11.091S2250.8,1001.475,2250.8,1001.475Z" transform="translate(-2218.135 -945.872)" fill="#750d1c"/>
      <path id="Path_4168" data-name="Path 4168" d="M2217.686,972.64l-3.494-10.758a53.9,53.9,0,0,1,6.627,2.429,15.413,15.413,0,0,1,2.241,5.9s.9,9.885-1.116,13.5c0,0-6.381,1.276-16.59-2.233v-2.34s11.167.585,13.453.851Z" transform="translate(-2181.83 -945.872)" fill="#ffb27d"/>
      <path id="Path_4169" data-name="Path 4169" d="M2286.783,1047.073c.142,3.616.993,10.635,8.579,14.392.02.01.04.02.061.029-2.052-6.852-4.593-15.685-5.791-21.257C2288.239,1042.319,2286.705,1045.082,2286.783,1047.073Z" transform="translate(-2253.972 -1015.293)" fill="#610815"/>
      <path id="Path_4170" data-name="Path 4170" d="M2279.958,961.882s6.476.456,8.036,3.93,2.056,15.031.071,18.434a18.077,18.077,0,0,1-7.567-.126l-.179-.034s-1.542-3.775-.16-4.52c0,0,4.077.213,3.651-1.134S2279.958,961.882,2279.958,961.882Z" transform="translate(-2247.596 -945.872)" fill="#750d1c"/>
      <g id="Group_3900" data-name="Group 3900" transform="translate(15.356 31.409)">
        <path id="Path_4171" data-name="Path 4171" d="M2140.469,1100.241l.191.613,10.626-3.306a.408.408,0,0,0,.072-.376.3.3,0,0,0-.263-.237Z" transform="translate(-2139.701 -1096.935)" fill="#333"/>
        <path id="Path_4172" data-name="Path 4172" d="M2133.729,1126.505l.768-.579.191.613Z" transform="translate(-2133.729 -1122.62)" fill="#333"/>
      </g>
      <path id="Path_4173" data-name="Path 4173" d="M2093.908,1253.157s-2.7,1.49-3.05,2.625-.111,3.512.317,3.476,1.067-2.554,1.421-2.731.851-.709.851-.319-.354,1.1-.177,1.206.744-.993,1.135-1.206.554-1.967.933-2.438S2093.908,1253.157,2093.908,1253.157Z" transform="translate(-2080.238 -1203.935)" fill="#ffb27d"/>
      <path id="Path_4174" data-name="Path 4174" d="M2157.946,1103.3s-2.411-1.485-3.422-1.256-3.589,2.1-2.349,2.5,2.243-.02,2.721.274.828.83,3.05.823S2157.946,1103.3,2157.946,1103.3Z" transform="translate(-2134.423 -1070.032)" fill="#ffb27d"/>
    </g>
    <g id="Group_3911" data-name="Group 3911" transform="translate(496.056 946.798)">
      <g id="Group_3905" data-name="Group 3905" transform="translate(4.506 26.368)">
        <g id="Group_3902" data-name="Group 3902" transform="translate(11.643 26.273)">
          <path id="Path_4175" data-name="Path 4175" d="M1177.854,1510.982h-.04a.417.417,0,0,1-.417-.427l.633-27.435,1.865-.218-1.59,27.654A.451.451,0,0,1,1177.854,1510.982Z" transform="translate(-1177.397 -1482.903)" fill="#333"/>
        </g>
        <g id="Group_3903" data-name="Group 3903" transform="translate(0.778 26.273)">
          <path id="Path_4176" data-name="Path 4176" d="M1082.565,1510.982h-.04a.417.417,0,0,1-.417-.427l.633-27.435,1.865-.218-1.59,27.654A.451.451,0,0,1,1082.565,1510.982Z" transform="translate(-1082.108 -1482.903)" fill="#333"/>
        </g>
        <g id="Group_3904" data-name="Group 3904" transform="translate(29.177 26.273)">
          <path id="Path_4177" data-name="Path 4177" d="M1333.209,1510.982h.04a.418.418,0,0,0,.417-.427l-.633-27.435-1.865-.218,1.59,27.654A.451.451,0,0,0,1333.209,1510.982Z" transform="translate(-1331.169 -1482.903)" fill="#333"/>
        </g>
        <path id="Path_4178" data-name="Path 4178" d="M1075.283,1277.275v-18.8a5.99,5.99,0,0,1,5.99-5.99h13.544a5.99,5.99,0,0,1,5.99,5.99v19.518Z" transform="translate(-1075.283 -1252.486)" fill="#333"/>
        <path id="Rectangle_834" data-name="Rectangle 834" d="M0,0H27.95a0,0,0,0,1,0,0V2.968a0,0,0,0,1,0,0H2.968A2.968,2.968,0,0,1,0,0V0A0,0,0,0,1,0,0Z" transform="translate(0 24.789)" fill="#333"/>
        <path id="Rectangle_835" data-name="Rectangle 835" d="M1.484,0H20.961a1.484,1.484,0,0,1,1.484,1.484v0a1.484,1.484,0,0,1-1.484,1.484H1.484A1.484,1.484,0,0,1,0,1.484v0A1.484,1.484,0,0,1,1.484,0Z" transform="translate(9.969 24.789)" fill="#333"/>
      </g>
      <g id="Group_3910" data-name="Group 3910" transform="translate(0)">
        <path id="Path_4179" data-name="Path 4179" d="M1458.69,1581.959c.189.945,1.536.787,3.041.419s1.147.069,3.289-.168,2.79-1.036,2.856-1.354c.058-.283-1-.382-2.135-.513-.143-.016-.286-.034-.429-.051-1.282-.161-2.22-.988-3.384-1.667-1.1-.643-2.748-3.264-2.748-3.264l-2.937.233s1.541,2.341,2.137,3.359a3.551,3.551,0,0,1,.288,2A3.771,3.771,0,0,0,1458.69,1581.959Z" transform="translate(-1408.297 -1512.177)" fill="#ffb27d"/>
        <path id="Path_4180" data-name="Path 4180" d="M1480.4,1621.094c1.5-.368,1.147.069,3.289-.168s2.79-1.036,2.856-1.354c.058-.283-1-.382-2.135-.513l-.011.022a6.039,6.039,0,0,1-3.067.953c-1.453.036-2.992-.381-4-.365a3.766,3.766,0,0,0,.023,1C1477.553,1621.619,1478.9,1621.461,1480.4,1621.094Z" transform="translate(-1426.971 -1550.892)" fill="#fff"/>
        <path id="Path_4181" data-name="Path 4181" d="M1255.031,1623.31c-.584.767.426,1.672,1.7,2.558s.707.906,2.3,2.355,2.623,1.408,2.9,1.246c.25-.143-.375-1-1.027-1.94-.083-.118-.164-.237-.246-.356-.727-1.067-.728-2.318-.989-3.64-.247-1.253,1.8-5.855,1.8-5.855l-3.286-.414a36.767,36.767,0,0,1-.8,3.9c-.217.659-1.13,1.093-1.617,1.465A3.771,3.771,0,0,0,1255.031,1623.31Z" transform="translate(-1229.879 -1549.301)" fill="#ffb27d"/>
        <path id="Path_4182" data-name="Path 4182" d="M1256.728,1667.554c1.271.885.707.906,2.3,2.355s2.623,1.408,2.9,1.246c.25-.143-.375-1-1.027-1.941l-.023.007a6.038,6.038,0,0,1-2.744-1.669c-.988-1.066-1.694-2.5-2.37-3.237a3.767,3.767,0,0,0-.739.682C1254.448,1665.764,1255.457,1666.669,1256.728,1667.554Z" transform="translate(-1229.879 -1590.988)" fill="#fff"/>
        <path id="Path_4183" data-name="Path 4183" d="M1288.459,1423.937l-3,8.075-3.918,10.544a6.35,6.35,0,0,1-2.081-.19,9.025,9.025,0,0,1-2.013-.98s1.088-11.321,3.117-17.82a11.576,11.576,0,0,1,1.746-3.777C1285.456,1416.071,1288.459,1423.937,1288.459,1423.937Z" transform="translate(-1249.889 -1373.46)" fill="#610815"/>
        <path id="Path_4184" data-name="Path 4184" d="M1121.736,1338.92c-1.966-.634-7.89-.256-13.523.847l-.862-1.509-12.167-.95s-4.015,8.9-1.817,14.576a2.057,2.057,0,0,0,2.059,1.386h.178s7.241,0,9.593,0c6.051,0,12.805-4.159,13.679-4.334,1.43-.286,2,2.574,3.433,5.578s13.444,13.3,13.444,13.3a10.575,10.575,0,0,0,2.609-.268,2.569,2.569,0,0,0,1.12-.707S1126.169,1340.35,1121.736,1338.92Z" transform="translate(-1086.216 -1301.267)" fill="#750d1c"/>
        <path id="Path_4185" data-name="Path 4185" d="M1066.37,1021.4a12.82,12.82,0,0,0-4.424.116c-4.62.539-5.653,7.716-5.31,9.724.634,3.7-1.143,4.742-3.264,7.7-4.252,5.934-1.315,10.819,2.146,12.03,2.077.726,4.906-1.251,4.906-1.251.052.02,7.346-6.945,10.955-10.327C1077.445,1036.887,1070.734,1022.435,1066.37,1021.4Z" transform="translate(-1049.497 -1021.232)" fill="#333"/>
        <path id="Path_4186" data-name="Path 4186" d="M1142.574,1127.686a5.726,5.726,0,0,1-3.432.989c-1.459-.245-3-2.149-2.983-2.154.589-.18,1.111-.868.743-4.418l.277.026,4.662.447s.04,1.449.173,2.8C1142.124,1126.518,1142.3,1127.59,1142.574,1127.686Z" transform="translate(-1124.712 -1110.601)" fill="#ffb27d"/>
        <path id="Path_4187" data-name="Path 4187" d="M1149.766,1122.779s.04,1.449.173,2.8c-2.565.184-4.151-2.014-4.834-3.252Z" transform="translate(-1132.637 -1110.804)" fill="#ed975d"/>
        <path id="Path_4188" data-name="Path 4188" d="M1141.441,1058.743s-6.042.706-6.423-3.063-1.419-6.217,2.423-6.827,4.738.752,5.171,1.979S1143,1058.463,1141.441,1058.743Z" transform="translate(-1123.33 -1045.571)" fill="#ffb27d"/>
        <path id="Path_4189" data-name="Path 4189" d="M1128.28,1044.51s-2.917,4.177-5.395,5.085-3.649.338-3.649.338a10.25,10.25,0,0,0,1.571-3.866,1.846,1.846,0,0,1,1.205-1.43C1123.79,1044.016,1127.215,1043.066,1128.28,1044.51Z" transform="translate(-1109.719 -1041.184)" fill="#333"/>
        <path id="Path_4190" data-name="Path 4190" d="M1177.4,1044.679a9.5,9.5,0,0,1,2.182,1.687,7.3,7.3,0,0,1,1.15,3.71s.982-4.287-.591-5.847C1178.475,1042.575,1177.4,1044.679,1177.4,1044.679Z" transform="translate(-1161.252 -1041.045)" fill="#333"/>
        <path id="Path_4191" data-name="Path 4191" d="M1107.457,1167.932c-.182,12.2-.05,9.653-1.385,10.811a5.131,5.131,0,0,1-2.416.524c-3.742.248-10.32-.368-10.57-1.06-.863-2.393-.254-3.136-.974-6.8-.075-.39-.168-.811-.277-1.271-.6-2.516-1.185-3.372.945-7.414,1.932-3.661,4.018-6.586,4.2-6.479,5.1,3.026,5.428.436,5.428.436S1107.546,1161.979,1107.457,1167.932Z" transform="translate(-1084.949 -1140.847)" fill="#fff"/>
        <path id="Path_4192" data-name="Path 4192" d="M1284.4,1469.114l-4.007,10.983a6.768,6.768,0,0,1-2.488.316,3.115,3.115,0,0,1-1.654-.738s1.224-12.509,3.254-19.007Z" transform="translate(-1248.83 -1410.562)" fill="#750d1c"/>
        <path id="Path_4193" data-name="Path 4193" d="M1188.872,1160.08s5.244.889,5.86,3.147,5.119,14.7,5.119,14.7-3.545,1.31-4.777.079-4.286-11.426-4.286-11.426Z" transform="translate(-1171.414 -1144.248)" fill="#fff"/>
        <path id="Path_4194" data-name="Path 4194" d="M1110.127,1266.066c-3.742.248-10.32-.368-10.57-1.06-.863-2.393-.254-3.136-.974-6.8l1.755-4s-.249,4.573,1.42,6.062,6.834,2.873,7.645,4.117A4.55,4.55,0,0,1,1110.127,1266.066Z" transform="translate(-1091.42 -1227.646)" fill="#dfebfd"/>
        <g id="Group_3906" data-name="Group 3906" transform="translate(13.785 34.662)">
          <path id="Path_4195" data-name="Path 4195" d="M1202.5,1335.344a8.311,8.311,0,0,0,1.432,1.039.883.883,0,0,0,.5.006l-.812-.952Z" transform="translate(-1197.271 -1334.19)" fill="#ffb27d"/>
          <path id="Path_4196" data-name="Path 4196" d="M1198.624,1325.41l2.822.728a.468.468,0,0,1-.393.25,6.237,6.237,0,0,1-1.176-.081Z" transform="translate(-1193.839 -1325.389)" fill="#ffb27d"/>
          <path id="Path_4197" data-name="Path 4197" d="M1156.664,1326.8s4.028-1.792,4.784-1.555a10.114,10.114,0,0,1,3,1.7c.3.432-1.588-.054-2.179-.091a5.091,5.091,0,0,0-1.713.755,6.073,6.073,0,0,1-3.145.971Z" transform="translate(-1156.664 -1325.221)" fill="#ffb27d"/>
        </g>
        <path id="Path_4198" data-name="Path 4198" d="M1047.793,1156.266s-5.7,1.07-6.755,2.649c-2.3,3.447-7.208,17.727-4.461,19.642,3.093,2.157,14.076.564,14.076.564a4.459,4.459,0,0,0-.143-2.535c-.509-.827-8.772-2.161-9.154-2.543s3.768-5.9,3.326-6.952C1043.266,1163.711,1047.793,1156.266,1047.793,1156.266Z" transform="translate(-1035.764 -1140.869)" fill="#fff"/>
        <g id="Group_3907" data-name="Group 3907" transform="translate(34.053 35.63)">
          <path id="Path_4199" data-name="Path 4199" d="M1334.915,1333.711s3.988,1.077,4.4,1.7a9.475,9.475,0,0,1,1.179,3.006c-.034.494-1.123-.978-1.531-1.354a4.761,4.761,0,0,0-1.691-.463,5.04,5.04,0,0,1-2.2-1.005,1.209,1.209,0,0,0-.66-.147Z" transform="translate(-1334.409 -1333.711)" fill="#ffb27d"/>
          <path id="Path_4200" data-name="Path 4200" d="M1374.368,1358.1a7.809,7.809,0,0,0,.427,1.6.828.828,0,0,0,.359.3l-.028-1.172Z" transform="translate(-1369.812 -1355.32)" fill="#ffb27d"/>
          <path id="Path_4201" data-name="Path 4201" d="M1377.423,1348.588l1.622,2.2a.438.438,0,0,1-.433-.05,5.882,5.882,0,0,1-.808-.754Z" transform="translate(-1372.518 -1346.892)" fill="#ffb27d"/>
          <path id="Path_4202" data-name="Path 4202" d="M1340.2,1350.2a2.514,2.514,0,0,0,1.108,1.219c.738.322,1.28.805,1.4.631s-.559-1.088-.559-1.088Z" transform="translate(-1339.536 -1348.321)" fill="#ffb27d"/>
        </g>
        <path id="Path_4203" data-name="Path 4203" d="M1246.983,1290.8l8.388,5.3a6.938,6.938,0,0,1-1.175,1.286c-1.553.569-8.539.024-10.931-3.568Z" transform="translate(-1219.605 -1260.061)" fill="#fff"/>
        <g id="Group_3909" data-name="Group 3909" transform="translate(15.476 36.105)">
          <path id="Path_4204" data-name="Path 4204" d="M1245.139,1338.693c.495,0,5.418-.341,5.418-.341a2.331,2.331,0,0,0,.162,1.34l-4.8.918-.986-.289Z" transform="translate(-1236.561 -1338.298)" fill="#f9ddbf"/>
          <g id="Group_3908" data-name="Group 3908">
            <path id="Path_4205" data-name="Path 4205" d="M1171.857,1342.136l8.212-.791s-.289,1.519.783,1.916l-9.053.662A1.42,1.42,0,0,1,1171.857,1342.136Z" transform="translate(-1171.491 -1340.95)" fill="#f99746"/>
            <path id="Path_4206" data-name="Path 4206" d="M1251,1338.04l-5.55.427s.042-.192.145-.194,5.513-.4,5.513-.4l-.019.152Z" transform="translate(-1237.013 -1337.877)" fill="#f99746"/>
            <path id="Path_4207" data-name="Path 4207" d="M1250.737,1349.95l4.887-.929-.045-.126-5.209,1Z" transform="translate(-1241.376 -1347.638)" fill="#f99746"/>
          </g>
        </g>
      </g>
    </g>
    <g id="Group_3920" data-name="Group 3920" transform="translate(450.583 941.561)">
      <g id="Group_3915" data-name="Group 3915" transform="translate(0 25.225)">
        <g id="Group_3912" data-name="Group 3912" transform="translate(12.925 29.336)">
          <path id="Path_4208" data-name="Path 4208" d="M750.826,1485.163h-.044a.465.465,0,0,1-.463-.477l.7-30.633,2.07-.243-1.765,30.879A.5.5,0,0,1,750.826,1485.163Z" transform="translate(-750.318 -1453.81)" fill="#333"/>
        </g>
        <g id="Group_3913" data-name="Group 3913" transform="translate(0.864 29.336)">
          <path id="Path_4209" data-name="Path 4209" d="M645.045,1485.163H645a.465.465,0,0,1-.463-.477l.7-30.633,2.07-.243-1.765,30.879A.5.5,0,0,1,645.045,1485.163Z" transform="translate(-644.537 -1453.81)" fill="#333"/>
        </g>
        <g id="Group_3914" data-name="Group 3914" transform="translate(32.39 29.336)">
          <path id="Path_4210" data-name="Path 4210" d="M923.285,1485.163h.044a.465.465,0,0,0,.463-.477l-.7-30.633-2.07-.243,1.765,30.879A.5.5,0,0,0,923.285,1485.163Z" transform="translate(-921.02 -1453.81)" fill="#333"/>
        </g>
        <path id="Path_4211" data-name="Path 4211" d="M636.961,1224.206v-20.991a6.669,6.669,0,0,1,6.649-6.688h15.036a6.669,6.669,0,0,1,6.649,6.688v21.794Z" transform="translate(-636.961 -1196.527)" fill="#333"/>
        <path id="Rectangle_836" data-name="Rectangle 836" d="M0,0H31.028a0,0,0,0,1,0,0V3.314a0,0,0,0,1,0,0H3.314A3.314,3.314,0,0,1,0,0V0A0,0,0,0,1,0,0Z" transform="translate(0 27.679)" fill="#333"/>
        <rect id="Rectangle_837" data-name="Rectangle 837" width="24.916" height="3.314" rx="1.657" transform="translate(11.067 27.679)" fill="#333"/>
      </g>
      <g id="Group_3919" data-name="Group 3919" transform="translate(6.576)">
        <path id="Path_4212" data-name="Path 4212" d="M823.954,1128.53a5.881,5.881,0,0,0-1.532,3.847c-.208,2.108,1.255,18.475,2.355,19.776,3.1,3.66,6.977,2.114,8.5,2.669l1.434-1.288s-5.042-3.721-5.426-4.936C827.806,1143.924,828.722,1130.3,823.954,1128.53Z" transform="translate(-807.834 -1111.059)" fill="#750d1c"/>
        <path id="Path_4213" data-name="Path 4213" d="M739.366,982.123s.085-3-3.874-3.591-5.053.337-5.726,1.346a17.663,17.663,0,0,0-1.809,6.773c.126,1.641,4.642,3.669,4.568,4.627S739.366,982.123,739.366,982.123Z" transform="translate(-724.15 -978.001)" fill="#333"/>
        <path id="Path_4214" data-name="Path 4214" d="M986.809,1649.879c-.128,1.014,1.255,1.313,2.864,1.454s1.11.459,3.305.948,3.1-.094,3.273-.392c.152-.264-.86-.724-1.938-1.24-.136-.065-.271-.131-.407-.2-1.213-.6-1.864-1.747-2.788-2.825-.875-1.021-1.626-4.215-1.626-4.215l-2.979-.763s.742,2.877.992,4.1a3.823,3.823,0,0,1-.383,2.111A4.055,4.055,0,0,0,986.809,1649.879Z" transform="translate(-953.232 -1566.555)" fill="#ffb27d"/>
        <path id="Path_4215" data-name="Path 4215" d="M991.911,1699.613c1.609.141,1.11.459,3.305.948s3.1-.094,3.273-.392c.152-.264-.86-.724-1.938-1.24l-.018.018a6.19,6.19,0,0,1-3.348-.082c-1.447-.458-2.829-1.4-3.826-1.723a4.053,4.053,0,0,0-.313,1.018C988.918,1699.173,990.3,1699.472,991.911,1699.613Z" transform="translate(-955.469 -1614.834)" fill="#750d1c"/>
        <path id="Path_4216" data-name="Path 4216" d="M759.546,1321.573s19.918,2.066,23.2,5.116,2.7,31.455,2.7,31.455c-.511.53-.888.518-1.7.454a11.283,11.283,0,0,1-2.355-.727s-4.266-13.948-4.319-17.178-.728-8.71-2.083-9.033-17.48,1.485-19.248-3.608a10.979,10.979,0,0,1,1.168-9.284Z" transform="translate(-748.276 -1279.605)" fill="#815025"/>
        <path id="Path_4217" data-name="Path 4217" d="M705.93,1154.917a9.065,9.065,0,0,0,4.975,1.555c4.614.168,10.371-.382,11.5-1.453a1.95,1.95,0,0,0,.478-1.315c.125-1.771-.721-4.684-1.288-7.094a9.1,9.1,0,0,1-.414-3.611c.626-2.105,2.571-6.395,2.739-7.8s-1.515-8.963-3.84-9.9-11.3,0-11.3,0c-3.507.712-3.655,8.189-2.49,14.554.03.164.06.327.092.488C707.643,1146.8,703.532,1153.31,705.93,1154.917Z" transform="translate(-703.963 -1107.824)" fill="#750d1c"/>
        <g id="Group_3916" data-name="Group 3916" transform="translate(5.984 3.534)">
          <path id="Path_4218" data-name="Path 4218" d="M765.731,1091c-.063.41-1.186,1.075-3.585.443-2.3-.606-2.576-1.355-2.575-1.85,0-.585,1-1.374.987-4.975l.276.054,4.636.918s-.105,1.459-.109,2.833C765.357,1089.582,765.836,1090.321,765.731,1091Z" transform="translate(-758.151 -1075.691)" fill="#ffb27d"/>
          <path id="Path_4219" data-name="Path 4219" d="M775.277,1086.016s-.105,1.459-.109,2.833c-2.594-.073-3.965-2.44-4.527-3.751Z" transform="translate(-767.959 -1076.113)" fill="#ed975d"/>
          <path id="Path_4220" data-name="Path 4220" d="M770.636,1024.088s-6.138.1-6.142-3.722-.8-6.385,3.119-6.612,4.682,1.232,4.994,2.508S772.233,1023.963,770.636,1024.088Z" transform="translate(-762.452 -1012.884)" fill="#ffb27d"/>
          <path id="Path_4221" data-name="Path 4221" d="M755.074,1007.077s-1.681,4.486-4.26,5.149-3.7-.028-3.7-.028a7.3,7.3,0,0,0,2.389-4.315S753.807,1004.943,755.074,1007.077Z" transform="translate(-747.117 -1006.3)" fill="#333"/>
          <path id="Path_4222" data-name="Path 4222" d="M813.251,1010.626a5.42,5.42,0,0,1,1.561,1.975c.306.974.444,2.978,1.028,2.91,0,0,1.266-3.049-.157-4.773C814.174,1008.909,813.251,1010.626,813.251,1010.626Z" transform="translate(-805.71 -1009.485)" fill="#333"/>
        </g>
        <path id="Path_4223" data-name="Path 4223" d="M857.916,1639.743c-.015,1.023,1.393,1.16,3.008,1.115s1.154.328,3.389.561,3.072-.451,3.208-.767c.122-.28-.935-.62-2.064-1.009-.142-.049-.284-.1-.427-.149-1.271-.453-2.046-1.521-3.084-2.485-.983-.914,1.187-5.334,1.187-5.334l-2.844-1.407s-.539,3.156-1.234,5.917c-.179.713-.764,1.888-.943,2.513A4.056,4.056,0,0,0,857.916,1639.743Z" transform="translate(-839.298 -1555.585)" fill="#ffb27d"/>
        <path id="Path_4224" data-name="Path 4224" d="M706.869,1244.216c.86.575,2.274,2.222,4.852,2.314,4.256-.968,9.1-2.095,11.983-2.768.125-1.77-.721-4.683-1.288-7.094-3.361,1.026-8.362-2.47-10.043-3.852-1.767-1.451-1.711-6.287-1.711-6.287l-3.555,3.38c.03.164.061.327.092.488C708.46,1236.86,704.471,1242.609,706.869,1244.216Z" transform="translate(-704.779 -1197.883)" fill="#610815"/>
        <path id="Path_4225" data-name="Path 4225" d="M860.924,1706.354c1.615-.045,1.154.328,3.389.561s3.072-.451,3.208-.767c.122-.28-.935-.62-2.064-1.009l-.016.02a6.194,6.194,0,0,1-3.336.3c-1.489-.288-2.966-1.064-3.993-1.271a4.06,4.06,0,0,0-.2,1.047C857.9,1706.262,859.309,1706.4,860.924,1706.354Z" transform="translate(-839.298 -1621.081)" fill="#750d1c"/>
        <path id="Path_4226" data-name="Path 4226" d="M707.513,1344.339c5.057-.144,20.161,1.062,23.063,3.249,3.571,2.693-6.632,31.813-6.632,31.813a13.164,13.164,0,0,1-1.56.072,5,5,0,0,1-2.28-.677s.039-17.14,1.232-20.418c1.1-3.029,1.777-4.1.4-4.282s-18.6,2.016-20.042-3.184a12.881,12.881,0,0,1,.536-7.821S702.847,1344.472,707.513,1344.339Z" transform="translate(-700.54 -1301.155)" fill="#955c2a"/>
        <path id="Path_4227" data-name="Path 4227" d="M699.451,1128.444s-3.513.3-3.786,3.075c-.208,2.108-1.736,17.062-.635,18.363,3.1,3.66,13.421,4.436,14.941,4.991l.418-1.731s-11.022-5.553-10.854-6.815S702.82,1127.944,699.451,1128.444Z" transform="translate(-694.635 -1110.972)" fill="#750d1c"/>
        <path id="Path_4228" data-name="Path 4228" d="M725.514,977.343s.252-1.6-1.969-2.015-2.263,4.3-2.5,5.442.355,1.819,1.2,1.888S725.514,977.343,725.514,977.343Z" transform="translate(-717.986 -975.303)" fill="#333"/>
        <g id="Group_3917" data-name="Group 3917" transform="translate(14.935 40.819)">
          <path id="Path_4229" data-name="Path 4229" d="M826.558,1338.929s3.139-.888,3.887-.681,3.309,1.9,2.949,2.364-2.617-.276-3.655-.136-1.842.652-2.589.541a8.664,8.664,0,0,1-1.529-.4Z" transform="translate(-825.62 -1337.655)" fill="#ffb27d"/>
          <path id="Path_4230" data-name="Path 4230" d="M833.848,1334.561a11.76,11.76,0,0,0,1.973-1.238.122.122,0,0,1,.191.022c.117.185.227.541-.312.9A2.9,2.9,0,0,1,833.848,1334.561Z" transform="translate(-832.91 -1333.287)" fill="#ffb27d"/>
        </g>
        <g id="Group_3918" data-name="Group 3918" transform="translate(25.441 42.475)">
          <path id="Path_4231" data-name="Path 4231" d="M919.189,1347.815s3.257.178,3.9.617,2.513,2.875,2.022,3.194-2.386-1.11-3.413-1.315-1.953.019-2.625-.328a8.7,8.7,0,0,1-1.315-.879Z" transform="translate(-917.755 -1347.815)" fill="#ffb27d"/>
        </g>
      </g>
    </g>
    <g id="Group_3926" data-name="Group 3926" transform="translate(403.629 936.197)">
      <g id="Group_3921" data-name="Group 3921" transform="translate(11.365)">
        <path id="Path_4232" data-name="Path 4232" d="M627.766,1678.465H614.512c-.637-.778-.4-3.648-.306-4.586.02-.189.034-.3.034-.3s4.526-3.62,5.148-.848c.019.087.042.172.067.256.783,2.593,4.3,3.771,6.325,4.1A2.3,2.3,0,0,1,627.766,1678.465Z" transform="translate(-581.103 -1586.919)" fill="#815025"/>
        <path id="Path_4233" data-name="Path 4233" d="M352.219,1353.435c.479,0,22.7,4.173,26.379,8.724,1.836,2.273,2.109,28.527,2.109,28.527s-2.272,2.817-7.179,1.181c0,0-3.6-17.962-3.332-23.41.073-1.507-15.185-.218-17.978-.941s-9.616-6.8-8.113-9.758S352.219,1353.435,352.219,1353.435Z" transform="translate(-341.721 -1304.955)" fill="#610815"/>
        <path id="Path_4234" data-name="Path 4234" d="M553.4,1342.619a8.193,8.193,0,0,0,2.881,1.574,13.03,13.03,0,0,1,2.117.643c1.32.606,3.823,3.31,3.59,3.578-.746.862-3.753-1.383-4.328-1.224s.944,1.463.341,1.817c-.315.185-.907-.942-1.462-1.1-.75-.215-1.248-1.348-1.473-1.425a17.9,17.9,0,0,1-2.264-1.788Z" transform="translate(-526.809 -1295.372)" fill="#ffb27d"/>
        <path id="Path_4235" data-name="Path 4235" d="M679.137,1678.465H665.883c-.637-.778-.4-3.648-.306-4.586.02-.189.034-.3.034-.3s4.526-3.62,5.147-.848c.019.087.042.172.067.256.783,2.593,4.3,3.771,6.325,4.1A2.3,2.3,0,0,1,679.137,1678.465Z" transform="translate(-626.617 -1586.919)" fill="#955c2a"/>
        <path id="Path_4236" data-name="Path 4236" d="M409.656,1353.435c.478,0,22.7,4.173,26.379,8.724,1.836,2.273,2.109,28.527,2.109,28.527s-2.272,2.817-7.179,1.181c0,0-3.6-17.962-3.332-23.41.073-1.507-15.185-.218-17.977-.941s-9.616-6.8-8.113-9.758S409.656,1353.435,409.656,1353.435Z" transform="translate(-392.608 -1304.955)" fill="#750d1c"/>
        <path id="Path_4237" data-name="Path 4237" d="M405.058,1024.217a21.554,21.554,0,0,1-4.724-1.028c-1.811-.588-3.271-1.447-2.33-3.1a17.045,17.045,0,0,0,2.175-7.757l3.37,2.716,2.289,1.844a27.452,27.452,0,0,1-.26,2.993q-.069.521-.163,1.123a.817.817,0,0,0,.376.82l.052.032A1.278,1.278,0,0,1,405.058,1024.217Z" transform="translate(-389.401 -1002.744)" fill="#ffb27d"/>
        <path id="Path_4238" data-name="Path 4238" d="M437.665,1037.37a5.569,5.569,0,0,1-.084,1.853,9.572,9.572,0,0,1-3.949-1.961c1.039-.285,1.417-1.408,2.191-1.3Z" transform="translate(-421.228 -1023.673)" fill="#ed975d"/>
        <path id="Path_4239" data-name="Path 4239" d="M412.594,950.391s-7.85,1.3-8.587-3.6-2.246-8.034,2.735-9.074,6.238.684,6.882,2.26S414.617,949.926,412.594,950.391Z" transform="translate(-394.269 -936.361)" fill="#ffb27d"/>
        <path id="Path_4240" data-name="Path 4240" d="M401.265,929.71a2.744,2.744,0,0,1-2.079,3.091c-2.248.7-1.751,3.46-2.763,3.423s-1.42-1.585-2.323-.349c-.771,1.055.642,2.3.544,2.883-.167.993-1.722,3.024-3.124,2.923s-4.024-6.763-3.5-8.824,2.623-4.234,4.608-4.534,4.744.558,5.38.558S401.083,929.072,401.265,929.71Z" transform="translate(-380.756 -928.26)" fill="#333"/>
        <path id="Path_4241" data-name="Path 4241" d="M347.3,1099.489c-.131,1.131-.369,1.9-.744,2.151-1.17.784-2.722,1.758-4.454,2.723-6.141,3.425-14.548,6.729-16.258.942-2.009-6.8-.689-19.559,1.281-27.486,1.134-4.567,4.27-9.359,6.391-9.354,3.613.006,8.807.96,10.9,6.133.812,2,2.005,8.949,2.614,15.311A52.671,52.671,0,0,1,347.3,1099.489Z" transform="translate(-324.844 -1052.478)" fill="#fff"/>
        <path id="Path_4242" data-name="Path 4242" d="M397.71,1054.527l.818-1.843s7.253.738,8.484,4.906C407.012,1057.59,401.405,1054.616,397.71,1054.527Z" transform="translate(-389.402 -1038.497)" fill="#dfebfd"/>
        <path id="Path_4243" data-name="Path 4243" d="M427.05,1255.508c-.131,1.131-.369,1.9-.744,2.151-1.17.784-2.722,1.758-4.454,2.723-1.807-1.1-5.517-3.72-6.385-6.809a24.67,24.67,0,0,1-.339-9.01Z" transform="translate(-404.594 -1208.498)" fill="#dfebfd"/>
        <path id="Path_4244" data-name="Path 4244" d="M410.614,1113.433s.629,17.361,1.616,20.793c1.683,5.853,17.037,7.938,17.037,7.938a3.143,3.143,0,0,0,.5-2.728s-9.179-7.235-9.448-8.612,2-10.711-.593-14.105S412.356,1110.383,410.614,1113.433Z" transform="translate(-400.834 -1091.187)" fill="#fff"/>
      </g>
      <g id="Group_3925" data-name="Group 3925" transform="translate(0 28.855)">
        <g id="Group_3922" data-name="Group 3922" transform="translate(1.148 34.244)">
          <path id="Path_4245" data-name="Path 4245" d="M235.987,1509.923h-.05a.686.686,0,0,1-.694-.734L238,1481.64l2.407.215-3.961,27.7A.448.448,0,0,1,235.987,1509.923Z" transform="translate(-235.24 -1481.64)" fill="#333"/>
        </g>
        <g id="Group_3923" data-name="Group 3923" transform="translate(15.346 34.244)">
          <path id="Path_4246" data-name="Path 4246" d="M360.5,1509.923h-.051a.686.686,0,0,1-.694-.734l2.758-27.547,2.407.215-3.961,27.7A.448.448,0,0,1,360.5,1509.923Z" transform="translate(-359.753 -1481.64)" fill="#333"/>
        </g>
        <g id="Group_3924" data-name="Group 3924" transform="translate(38.326 34.244)">
          <path id="Path_4247" data-name="Path 4247" d="M565.714,1509.923h.051a.686.686,0,0,0,.694-.734L563.7,1481.64l-2.407.215,3.961,27.7A.448.448,0,0,0,565.714,1509.923Z" transform="translate(-561.293 -1481.64)" fill="#333"/>
        </g>
        <path id="Path_4248" data-name="Path 4248" d="M227.844,1211.661l-2.618-23.008c-.343-3.316.766-6.562,5.551-6.813l8.417-.513c4.989-.206,7.241,3.946,7.873,7.143l5,25.291Z" transform="translate(-225.168 -1181.319)" fill="#333"/>
        <path id="Rectangle_838" data-name="Rectangle 838" d="M2.2,0H37.883a2.2,2.2,0,0,1,2.2,2.2V4.41a0,0,0,0,1,0,0H2.2A2.2,2.2,0,0,1,0,2.2v0A2.2,2.2,0,0,1,2.2,0Z" transform="translate(42.806 34.646) rotate(180)" fill="#333"/>
        <path id="Rectangle_839" data-name="Rectangle 839" d="M2.2,0H21.973a2.2,2.2,0,0,1,2.2,2.2v2.2a0,0,0,0,1,0,0H2.2A2.2,2.2,0,0,1,0,2.2v0A2.2,2.2,0,0,1,2.2,0Z" transform="translate(26.896 34.646) rotate(180)" fill="#333"/>
      </g>
    </g>
    <path id="Rectangle_840" data-name="Rectangle 840" d="M.683,0H332.806a.683.683,0,0,1,.683.683v0a.683.683,0,0,1-.683.683H.683A.683.683,0,0,1,0,.683v0A.683.683,0,0,1,.683,0Z" transform="translate(394.575 1027.395)" fill="#333"/>
  </g>
</svg>
