<svg xmlns="http://www.w3.org/2000/svg" width="243" height="104" viewBox="0 0 243 104">
  <g id="logo_vnpt" transform="translate(14996 -7512)">
    <rect id="Rectangle_8179" data-name="Rectangle 8179" width="243" height="104" transform="translate(-14996 7512)" fill="none"/>
    <g id="Group_22383" data-name="Group 22383" transform="translate(-14857.309 6577.863)">
      <path id="Path_4788" data-name="Path 4788" d="M-136.367,999.68c-2.533-8.561-1.551-16.645,3.981-23.839,5.773-7.507,13.611-10.751,23.027-10.142a22.646,22.646,0,0,1,9.035,2.53,1.734,1.734,0,0,0,2.007-.131,25.234,25.234,0,0,1,7.962-3.73c3.868-.913,6.245.925,6.309,4.888s-1.286,7.617-2.641,11.251c-2.6,6.981-6.733,13.062-11.4,18.79-5.129,6.291-10.489,12.372-17.283,16.984-3.088,2.1-6.252,4.049-10,4.813-3.542.723-5.951-1.176-6.1-4.775a21.443,21.443,0,0,1,2.4-9.778c1.945-4.274,4.106-8.449,6.129-12.688a23.342,23.342,0,0,0,2.684-9.593c.048-2.412-.169-4.764-2.227-6.462-2.289-1.888-5.7-1.671-8.324.6a18.133,18.133,0,0,0-5.449,9.269C-137.265,991.386-137.249,994.94-136.367,999.68Zm46.844-22.536a59.247,59.247,0,0,0,1.829-6.465c.529-3.124-1.267-4.662-4.341-3.912a15,15,0,0,0-5.423,2.6Z" transform="translate(0 0)" fill="#0066b3"/>
      <path id="Path_4789" data-name="Path 4789" d="M361.277,1022.231H368.2v28.488c-2.406,0-4.809.028-7.209-.033-.324-.008-.671-.426-.949-.711q-8.8-9-17.594-18.01c-.225-.23-.476-.435-.946-.861v19.552h-6.982v-28.466c2.646,0,5.256-.025,7.865.033.319.007.661.431.936.716q8.489,8.79,16.965,17.593c.248.257.518.493.993.941Z" transform="translate(-355.853 -43.745)" fill="#0066b3"/>
      <path id="Path_4790" data-name="Path 4790" d="M546.6,1036.374c0-4.333.027-8.667-.02-13-.011-1.025.318-1.31,1.334-1.3,6.149.044,12.3-.023,18.448.043a15.458,15.458,0,0,1,7.593,1.661,8.058,8.058,0,0,1,4.435,7.5c0,3.364-1.419,6.032-4.455,7.455a16.68,16.68,0,0,1-5.978,1.546c-4.168.239-8.359.12-12.54.073-1.094-.012-1.428.361-1.407,1.413.053,2.574-.014,5.151.031,7.725.016.909-.281,1.222-1.2,1.185-1.637-.066-3.281-.074-4.918,0-1.014.047-1.35-.274-1.339-1.3C546.624,1045.041,546.6,1040.708,546.6,1036.374Zm13.884-9.639-.006.111c-1.8,0-3.6.025-5.4-.012-.731-.015-1.051.24-1.046.976q.023,3.491,0,6.982c0,.681.324.947.98.937,3.927-.063,7.859-.031,11.78-.206,2.314-.1,3.927-1.424,4.27-3.069.6-2.873-.784-4.973-3.726-5.328C565.065,1026.853,562.765,1026.856,560.48,1026.736Z" transform="translate(-515.658 -43.66)" fill="#0066b3"/>
      <path id="Path_4791" data-name="Path 4791" d="M157.048,1042.427c.738-1.422,1.347-2.571,1.935-3.731,2.622-5.174,5.257-10.342,7.836-15.536a1.655,1.655,0,0,1,1.775-1.1c2.079.071,4.162.022,6.482.022-1.036,2.055-1.975,3.942-2.934,5.818-3.662,7.166-7.35,14.319-10.973,21.5a1.881,1.881,0,0,1-2.051,1.264c-1.593-.1-3.2.016-4.8-.056a1.568,1.568,0,0,1-1.145-.631q-7.321-13.738-14.563-27.518a1.4,1.4,0,0,1-.031-.375c2.367,0,4.725-.038,7.079.044.331.012.738.56.948.948q4.781,8.842,9.516,17.709C156.372,1041.255,156.639,1041.705,157.048,1042.427Z" transform="translate(-208.198 -43.652)" fill="#0066b3"/>
      <path id="Path_4792" data-name="Path 4792" d="M727.9,1050.645h-7.5V1028.17c-.616-.027-1.054-.062-1.493-.063-3.115,0-6.231-.024-9.346.012-.778.009-1.125-.207-1.1-1.027.042-1.347.018-2.7.011-4.046,0-.567.137-.916.825-.914q15.37.035,30.74.044c.072,0,.143.064.291.134v5.8H727.9Z" transform="translate(-637.649 -43.704)" fill="#0066b3"/>
      <path id="Path_4793" data-name="Path 4793" d="M-1.692,1060.921c2.3,17.5-11.993,29.262-24.1,29.228a53.088,53.088,0,0,0,14.342-12.88C-7.48,1072.26-3.881,1067.015-1.692,1060.921Z" transform="translate(-84.328 -72.935)" fill="#0066b3"/>
    </g>
  </g>
</svg>
