<svg xmlns="http://www.w3.org/2000/svg" width="1454.696" height="151.177" viewBox="0 0 1454.696 151.177">
  <path id="text_dotphakhonggian" d="M88.55-80.786l-.732.732h-10.4q-.146,11.353-.146,26.367v23.657q0,20.581.952,22.632a2.611,2.611,0,0,0,1.611,1.538,42.019,42.019,0,0,0,7.324.952l.732.732V-.22l-.732.732Q79.98,0,74.194,0,68.7,0,59.326.513L58.667,0q.293-3.589.293-12.012-2.637,2.2-7.544,6.738a70.2,70.2,0,0,1-7.91,6.738q-2.344,1.1-7.617,1.1A24.8,24.8,0,0,1,15.674-6.885q-7.69-9.448-7.69-24.463,0-14.575,5.933-22.705Q15.454-56.177,23-61.6q8.789-6.3,12.817-7.983a23.408,23.408,0,0,1,8.936-1.465A31.917,31.917,0,0,1,58.96-67.822v-4.1q0-3.076-.146-8.13H41.675l-.732-.806v-4.614l.732-.806H58.594q-.366-9.009-1.538-9.924t-8.789-1.208l-.732-.806v-4.028l.732-.806a138.872,138.872,0,0,0,28.345-6.079l1.611.879q0,.513-.293,7.69-.293,8.057-.439,14.282H87.817l.732.806ZM58.96-38.452v-13.77q-5.273-6.3-10.107-8.057a20.834,20.834,0,0,0-7.031-1.172q-10.107,0-13.037,10.4a48.013,48.013,0,0,0-1.611,12.891q0,15.161,7.1,22.485,3.735,3.882,10.034,3.882a15.959,15.959,0,0,0,9.668-3.3q4.028-2.93,4.761-6.3Q58.96-22.412,58.96-38.452Zm117.583,2.124q0,25.928-17.432,35.083A41.076,41.076,0,0,1,139.7,3.223q-16.846,0-25.671-9.741t-8.826-27.905q0-25.122,17.139-33.472A44.161,44.161,0,0,1,141.9-72q23.364,0,30.981,16.187Q176.543-48.047,176.543-36.328Zm-20.288,6.006q0-18.237-3.992-26.111t-12.195-7.874q-14.575,0-14.575,26.294,0,33.765,16.333,33.765,10.181,0,12.964-11.206A62.768,62.768,0,0,0,156.255-30.322Zm8.276-51.709-.22.732h-5.64L141.606-98.95,124.541-81.3H118.9l-.22-.732,16.479-26.514h12.891ZM151.055,18.091a9.3,9.3,0,0,1-2.783,6.775,9.287,9.287,0,0,1-13.33,0,9.3,9.3,0,0,1-2.783-6.775,9.3,9.3,0,0,1,2.783-6.775,9.035,9.035,0,0,1,6.665-2.82,9.154,9.154,0,0,1,6.665,2.747A9.231,9.231,0,0,1,151.055,18.091ZM238.828-9.595q-.513.586-3.149,3.076-4.321,4.1-7.4,7.471a23.229,23.229,0,0,1-7.251,1.172q-10.181,0-14.868-5.933a13.945,13.945,0,0,1-2.637-5.933,57.547,57.547,0,0,1-.659-10.547l.22-17.5V-56.1h-1.978l-3.882.146h-3l-.806-.659v-1.9l.586-1.1q1.318-.879,4.1-2.637a48.1,48.1,0,0,0,4.98-3.442v-9.961q0-6.226-.586-13.184,5.493-1.758,8.9-3.113t9.631-4.431l1.9,1.465q-.879,9.082-1.245,16.26l-.659,12.671h2.417q7.983,0,13.77-.513l.806.806L237-57.129l-.732.732H221.03v24.829q0,11.938.293,14.063a7.454,7.454,0,0,0,2.6,4.98,9.007,9.007,0,0,0,6.042,1.9,21.105,21.105,0,0,0,7.251-1.611ZM377.168-42.48a46.65,46.65,0,0,1-3.223,17.212,32.386,32.386,0,0,1-6.152,10.181,50.3,50.3,0,0,1-6.3,5.273Q356.66-5.933,349.409-.439a19.542,19.542,0,0,1-10.986,2.856A36.7,36.7,0,0,1,325.679.073V27.539q0,3.369.806,4.468a3.514,3.514,0,0,0,1.978.952q1.172.293,9.375.879l.806.732v4.541l-.732.732q-9.888-.586-22.485-.586-9.229,0-18.457.586l-.732-.732V34.717l.732-.806q7.4-.22,8.5-1.172a2.587,2.587,0,0,0,.879-1.392,65.873,65.873,0,0,0,.586-7.178q.22-4.395.293-11.206l.146-11.353V-40.942q0-.732-.439-10.84a23.52,23.52,0,0,0-.769-6.116q-.549-1.355-3.04-1.721-.879-.146-6.445-.366l-.732-.732v-4.1l.732-.806A122.807,122.807,0,0,0,325.02-71.7l1.611.952q0,3.149-.659,12.671,4.907-4.1,12.378-10.181,3.589-2.71,11.06-2.71,18.164,0,24.756,13.916A33.808,33.808,0,0,1,377.168-42.48Zm-18.823,9.009q0-15.967-8.423-21.533a16.724,16.724,0,0,0-9.3-2.93,18.381,18.381,0,0,0-14.941,7.4v36.328q6.665,7.031,14.648,7.031,11.938,0,15.967-12.378A44.325,44.325,0,0,0,358.345-33.472ZM480.1-.293l-.732.806Q471.313,0,465.747,0q-5.127,0-14.941.513l-.732-.732q1.318-16.333,1.318-25.2V-39.771q0-17.871-12.891-17.871-6.885,0-10.693,4.761a15.127,15.127,0,0,0-3.076,9.814v8.643q0,14.868.513,24.39.146,2.856,1.611,3.516,1.685.879,8.716,1.1l.806.732V-.22l-.732.732Q428.687,0,415.576,0t-20,.513l-.732-.732V-4.687l.732-.732q7.031-.22,8.716-1.1,1.465-.659,1.611-3.516.513-9.521.513-33.325V-67.9q0-15.381-.513-24.9-.146-2.71-1.611-3.552t-8.5-1.062l-.732-.806v-4.028l.732-.806a144.205,144.205,0,0,0,28.345-6.079l1.538.879q0,1.978-.22,7.251-.732,17.5-.732,38.745v4.1l12.891-10.84a27.79,27.79,0,0,1,10.62-1.978q11.646,0,17.432,7.031,4.688,5.713,4.688,16.772,0,1.245-.293,8.936t-.293,13.989q0,11.06.366,14.1T471.826-6.3q1.318.806,7.617.952l.659.732ZM562.31-.439,561.5.366Q555.352,0,547.368,0q-6.226,0-11.938.366l-.659-.806.659-9.814L521.221.586a9.58,9.58,0,0,1-4.834,1.538,25.454,25.454,0,0,1-2.93.146q-8.13,0-12.488-4.907t-4.358-13.55q0-11.426,7.251-16.187,7.837-5.2,31.567-9.375,0-11.646-6.152-15.6a16.089,16.089,0,0,0-8.936-2.417q-5.713,0-9.009,2.344L508.55-50.61l-.952.513-3.735-.879L503.35-52l.366-8.643Q515.8-69.58,521.88-70.752a35.151,35.151,0,0,1,6.665-.513q14.429,0,20.581,7.544,4.468,5.493,4.468,16.846,0,2.783-.22,8.936-.366,10.254-.366,13.7,0,11.06.366,14.1T555.1-6.3q1.355.806,6.482.952l.732.806ZM535.43-17.5V-35.522q-12.085,2.637-16.3,5.676t-4.211,9.265q0,9.961,8.716,9.961Q531.035-10.62,535.43-17.5Zm12.891-90.454L524.3-79.761l-4.1-2.2v-.952l10.254-24.976,16.04-2.124ZM708.34-.22l-.732.732Q702.7.22,695.669.22q-6.519,0-12.891.293-4.1-7.471-19.849-24.829-8.276-9.155-10.547-10.767l.513,25.049q.146,2.856,1.611,3.516,1.685.879,8.716,1.1l.806.732V-.22L663.3.513Q656.338,0,643.228,0t-20,.513L622.5-.22V-4.687l.732-.732q7.031-.22,8.716-1.1,1.465-.659,1.611-3.516.513-9.521.513-33.325V-67.9q0-15.381-.513-24.9-.146-2.71-1.611-3.552t-8.5-1.062l-.732-.806v-4.028l.732-.806a144.205,144.205,0,0,0,28.345-6.079l1.538.879q0,1.978-.22,7.251-.732,17.5-.732,38.745v23.95l7.251-5.933A156.6,156.6,0,0,0,672.964-57.2l7.617-8.057a46.274,46.274,0,0,0,3.369-3.955q6.226.22,10.107.22,4.907,0,8.862-.22l.732.732v4.395l-.732.732-5.347.293a12.691,12.691,0,0,0-6.665,2.563q-1.318.952-5.566,4.395l-6.152,5.054L676.992-49l-6.226,5.566L686.44-25.122q14.941,17.432,17.944,18.9a7.407,7.407,0,0,0,3.223.732l.732.806Zm97.515-.073-.732.806Q797.065,0,791.5,0q-5.127,0-14.941.513l-.732-.732q1.318-16.333,1.318-25.2V-39.771q0-17.871-12.891-17.871-6.885,0-10.693,4.761a15.127,15.127,0,0,0-3.076,9.814v8.643q0,14.868.513,24.39.146,2.856,1.611,3.516,1.685.879,8.716,1.1l.806.732V-.22L761.4.513Q754.438,0,741.328,0t-20,.513L720.6-.22V-4.687l.732-.732q7.031-.22,8.716-1.1,1.465-.659,1.611-3.516.513-9.521.513-33.325V-67.9q0-15.381-.513-24.9-.146-2.71-1.611-3.552t-8.5-1.062l-.732-.806v-4.028l.732-.806a144.205,144.205,0,0,0,28.345-6.079l1.538.879q0,1.978-.22,7.251-.732,17.5-.732,38.745v4.1l12.891-10.84a27.79,27.79,0,0,1,10.62-1.978q11.646,0,17.432,7.031,4.688,5.713,4.688,16.772,0,1.245-.293,8.936t-.293,13.989q0,11.06.366,14.1T797.578-6.3q1.318.806,7.617.952l.659.732Zm88.066-36.035q0,25.928-17.432,35.083A41.076,41.076,0,0,1,857.08,3.223q-16.846,0-25.671-9.741t-8.826-27.905q0-25.122,17.139-33.472A44.161,44.161,0,0,1,859.277-72q23.364,0,30.981,16.187Q893.921-48.047,893.921-36.328Zm-20.288,6.006q0-18.237-3.992-26.111t-12.195-7.874q-14.575,0-14.575,26.294,0,33.765,16.333,33.765,10.181,0,12.964-11.206A62.768,62.768,0,0,0,873.633-30.322Zm8.276-51.709-.22.732h-5.64L858.984-98.95,841.919-81.3h-5.64l-.22-.732,16.479-26.514H865.43ZM995.9-.293l-.732.806Q987.114,0,981.548,0q-5.127,0-14.941.513l-.732-.732q1.318-16.333,1.318-25.2V-39.771q0-17.871-12.891-17.871-6.738,0-10.547,4.614a12.258,12.258,0,0,0-3.223,7.837v13.7q0,18.97.952,23.291.586,2.563,8.5,2.71l.732.732V-.293l-.732.732Q943.755,0,931.377,0q-13.11,0-20,.513l-.732-.732V-4.687l.732-.732q7.031-.22,8.716-1.1,1.465-.659,1.611-3.516.513-9.521.513-20.435V-40.942q0-14.648-1.1-16.846a3.868,3.868,0,0,0-3.149-1.831q-.879-.146-6.372-.366l-.732-.732v-4.1l.732-.806A126.081,126.081,0,0,0,939.36-71.7l1.611.952-.146,12.3,12.6-10.547a27.79,27.79,0,0,1,10.62-1.978q11.646,0,17.432,7.031,4.688,5.713,4.688,16.772,0,1.245-.293,10.181t-.293,12.744q0,11.06.366,14.1T987.627-6.3q1.318.806,7.617.952l.659.732Zm92.461,5.347q0,16.04-11.975,25.562t-31.311,9.521q-15.161,0-23.987-5.676t-8.826-15.271q0-6.445,2.856-9.741.293-.366,7.764-4.834,3.589-2.124,5.273-3-10.107-1.758-10.107-9.741a15.556,15.556,0,0,1,2.93-8.643,47.285,47.285,0,0,1,3.955-2.93q1.758-1.245,6.226-4.468-15.82-5.713-15.82-21.167,0-11.938,8.936-19.226t23.8-7.288q14.355,0,22.485,6.372,4.614.22,5.933.146,3.589-.146,10.84-.366l.879.806-.806,7.544-.806.732h-10.84a27.337,27.337,0,0,1,.952,7.178q0,17.432-16.919,23.8a42.562,42.562,0,0,1-15.015,2.856q-2.49,0-6.445-.366-4.614,2.49-4.614,6.519,0,3.735,5.347,4.248,3.076.293,10.254.293,2.271,0,7.91-.22t8.35-.22q16.553,0,20.581,7.324A21.007,21.007,0,0,1,1088.364,5.054Zm-30.1-51.2q0-18.457-12.378-18.457-12.158,0-12.158,15.967,0,18.9,12.671,18.9Q1058.262-29.736,1058.262-46.143Zm13.33,59.546q0-7.983-5.566-10.034-2.344-.879-9.375-.952l-13.916-.146q-2.344,0-6.445.146-10.034,6.226-10.034,14.282a13.464,13.464,0,0,0,5.933,11.609q5.933,4.211,15.894,4.211,10.693,0,17.1-5.164A16.977,16.977,0,0,0,1071.592,13.4Zm152.622-8.35q0,16.04-11.975,25.562t-31.311,9.521q-15.161,0-23.987-5.676t-8.826-15.271q0-6.445,2.856-9.741.293-.366,7.764-4.834,3.589-2.124,5.273-3Q1153.9-.146,1153.9-8.13a15.556,15.556,0,0,1,2.93-8.643,47.285,47.285,0,0,1,3.955-2.93q1.758-1.245,6.226-4.468-15.82-5.713-15.82-21.167,0-11.938,8.936-19.226t23.8-7.288q14.355,0,22.485,6.372,4.614.22,5.933.146,3.589-.146,10.84-.366l.879.806-.806,7.544-.806.732h-10.84a27.337,27.337,0,0,1,.952,7.178q0,17.432-16.919,23.8a42.562,42.562,0,0,1-15.015,2.856q-2.49,0-6.445-.366-4.614,2.49-4.614,6.519,0,3.735,5.347,4.248,3.076.293,10.254.293,2.271,0,7.91-.22t8.35-.22q16.553,0,20.581,7.324A21.007,21.007,0,0,1,1224.214,5.054Zm-30.1-51.2q0-18.457-12.378-18.457-12.158,0-12.158,15.967,0,18.9,12.671,18.9Q1194.111-29.736,1194.111-46.143Zm13.33,59.546q0-7.983-5.566-10.034-2.344-.879-9.375-.952l-13.916-.146q-2.344,0-6.445.146Q1162.1,8.643,1162.1,16.7a13.464,13.464,0,0,0,5.933,11.609q5.933,4.211,15.894,4.211,10.693,0,17.1-5.164A16.977,16.977,0,0,0,1207.441,13.4Zm61.479-109.2a10.994,10.994,0,0,1-3.3,8.02,10.729,10.729,0,0,1-7.91,3.333,10.813,10.813,0,0,1-7.983-3.333,10.994,10.994,0,0,1-3.3-8.02,10.984,10.984,0,0,1,3.333-8.13,10.909,10.909,0,0,1,7.947-3.3,10.825,10.825,0,0,1,7.874,3.3A10.984,10.984,0,0,1,1268.921-95.8ZM1279.028-.22l-.732.732Q1271.338,0,1258.228,0t-20,.513L1237.5-.22V-4.687l.732-.732q7.031-.22,8.716-1.1,1.465-.659,1.611-3.516.513-9.521.513-20.435V-40.942q0-14.209-1.1-16.846-.586-1.465-3.149-1.831-.879-.146-6.372-.366l-.732-.732v-4.1l.732-.806A121.736,121.736,0,0,0,1266.8-71.7l1.538.952q-.952,13.33-.952,22.485V-24.9q0,5.347.513,14.868.146,2.856,1.611,3.516,1.685.879,8.716,1.1l.806.732Zm83.232-.22-.806.806Q1355.3,0,1347.319,0q-6.226,0-11.938.366l-.659-.806.659-9.814L1321.172.586a9.58,9.58,0,0,1-4.834,1.538,25.454,25.454,0,0,1-2.93.146q-8.13,0-12.488-4.907t-4.358-13.55q0-11.426,7.251-16.187,7.837-5.2,31.567-9.375,0-11.646-6.152-15.6a16.089,16.089,0,0,0-8.936-2.417q-5.713,0-9.009,2.344L1308.5-50.61l-.952.513-3.735-.879L1303.3-52l.366-8.643q12.085-8.936,18.164-10.107a35.151,35.151,0,0,1,6.665-.513q14.429,0,20.581,7.544,4.468,5.493,4.468,16.846,0,2.783-.22,8.936-.366,10.254-.366,13.7,0,11.06.366,14.1t1.721,3.845q1.355.806,6.482.952l.732.806ZM1335.381-17.5V-35.522q-12.085,2.637-16.3,5.676t-4.211,9.265q0,9.961,8.716,9.961Q1330.986-10.62,1335.381-17.5ZM1461.68-.293l-.732.806Q1452.891,0,1447.324,0q-5.127,0-14.941.513l-.732-.732q1.318-16.333,1.318-25.2V-39.771q0-17.871-12.891-17.871-6.738,0-10.547,4.614a12.258,12.258,0,0,0-3.223,7.837v13.7q0,18.97.952,23.291.586,2.563,8.5,2.71l.732.732V-.293l-.732.732Q1409.531,0,1397.153,0q-13.11,0-20,.513l-.732-.732V-4.687l.732-.732q7.031-.22,8.716-1.1,1.465-.659,1.611-3.516.513-9.521.513-20.435V-40.942q0-14.648-1.1-16.846a3.868,3.868,0,0,0-3.149-1.831q-.879-.146-6.372-.366l-.732-.732v-4.1l.732-.806a126.081,126.081,0,0,0,27.759-6.079l1.611.952-.146,12.3,12.6-10.547a27.79,27.79,0,0,1,10.62-1.978q11.646,0,17.432,7.031,4.688,5.713,4.688,16.772,0,1.245-.293,10.181t-.293,12.744q0,11.06.366,14.1T1453.4-6.3q1.318.806,7.617.952l.659.732Z" transform="translate(-7.483 110.54)" fill="none" stroke="#955c2a" stroke-width="1" opacity="0.4"/>
</svg>
