<svg xmlns="http://www.w3.org/2000/svg" width="1119.937" height="137.858" viewBox="0 0 1119.937 137.858">
  <path id="text_uudaidacbiet" d="M97.705-62.036A15.212,15.212,0,0,1,91.26-49Q85.767-44.9,77.2-44.458v19.189q0,15.454.879,17.5.732,1.758,9.082,2.2l.806.732V-.366l-.732.732Q76.245,0,73.389,0q-2.417,0-7.178.183t-7.1.183L58.521-.22q.586-6.006.586-11.426A168.5,168.5,0,0,0,45.776.513,28.114,28.114,0,0,1,35.6,2.344q-10.034,0-15.674-5.457T14.282-18.53q0-2.2.146-6.519t.146-6.519v-9.375q0-14.5-1.1-16.846a3.868,3.868,0,0,0-3.149-1.831q-.879-.146-6.445-.366l-.732-.732v-4.1l.732-.806A122.807,122.807,0,0,0,32.227-71.7l1.611.952q-.952,12.158-.952,22.485v14.282q0,8.643.22,10.767.732,6.958,3.882,9.521a11.1,11.1,0,0,0,7.4,2.344,15.446,15.446,0,0,0,9.595-3.3,11.44,11.44,0,0,0,4.761-8.716q.146-3.589.146-4.468v-13.11q0-14.355-1.1-16.846-.659-1.465-3.076-1.831-.879-.146-6.445-.366l-.806-.732v-4.1l.806-.806A123.9,123.9,0,0,0,76.611-71.7l1.538.952Q77.271-60.425,77.2-49.8q5.493-.073,8.423-1.538a7.25,7.25,0,0,0,4.468-7.031q0-4.321-6.152-6.592l-.293-.952,2.71-7.69.732-.659A12.761,12.761,0,0,1,94.7-69.8,11.868,11.868,0,0,1,97.705-62.036ZM193.169-.366l-.732.732Q181.45,0,178.594,0q-2.417,0-7.178.183t-7.1.183l-.586-.586q.586-6.006.586-11.426A168.5,168.5,0,0,0,150.981.513,28.114,28.114,0,0,1,140.8,2.344q-9.888,0-15.6-5.383T119.487-18.53q0-1.245.146-5.273t.146-7.764v-9.375q0-14.5-1.1-16.846a3.868,3.868,0,0,0-3.149-1.831q-.879-.146-6.445-.366l-.732-.732v-4.1l.732-.806A122.807,122.807,0,0,0,137.432-71.7l1.611.952q-.952,12.158-.952,22.485v14.282a92.385,92.385,0,0,0,.659,13.7,10.517,10.517,0,0,0,3.479,6.665,11.193,11.193,0,0,0,7.361,2.271,15.053,15.053,0,0,0,10.034-3.662,11.745,11.745,0,0,0,4.321-8.35q.146-3.589.146-4.468v-13.11q0-14.355-1.1-16.846-.659-1.465-3.076-1.831-.879-.146-6.445-.366l-.806-.732v-4.1l.806-.806A123.9,123.9,0,0,0,181.816-71.7l1.538.952q-.952,10.986-.952,22.485v23q0,15.454.879,17.5a2.191,2.191,0,0,0,1.465,1.318,44.494,44.494,0,0,0,7.617.879l.806.732Zm144.712-80.42-.732.732h-10.4Q326.6-68.7,326.6-53.687v23.657q0,20.581.952,22.632a2.611,2.611,0,0,0,1.611,1.538,42.019,42.019,0,0,0,7.324.952l.732.732V-.22l-.732.732Q329.312,0,323.525,0q-5.493,0-14.868.513L308,0q.293-3.589.293-12.012-2.637,2.2-7.544,6.738a70.2,70.2,0,0,1-7.91,6.738q-2.344,1.1-7.617,1.1A24.8,24.8,0,0,1,265-6.885q-7.69-9.448-7.69-24.463,0-14.575,5.933-22.705,1.538-2.124,9.082-7.544,8.789-6.3,12.817-7.983a23.408,23.408,0,0,1,8.936-1.465,31.917,31.917,0,0,1,14.209,3.223v-4.1q0-3.076-.146-8.13H291.006l-.732-.806v-4.614l.732-.806h16.919q-.366-9.009-1.538-9.924T297.6-97.412l-.732-.806v-4.028l.732-.806a138.872,138.872,0,0,0,28.345-6.079l1.611.879q0,.513-.293,7.69-.293,8.057-.439,14.282h10.327l.732.806Zm-29.59,42.334v-13.77q-5.273-6.3-10.107-8.057a20.834,20.834,0,0,0-7.031-1.172q-10.107,0-13.037,10.4A48.013,48.013,0,0,0,276.5-38.159q0,15.161,7.1,22.485,3.735,3.882,10.034,3.882a15.959,15.959,0,0,0,9.668-3.3q4.028-2.93,4.761-6.3Q308.291-22.412,308.291-38.452ZM420.015-.439l-.806.806Q413.057,0,405.073,0q-6.226,0-11.938.366l-.659-.806.659-9.814L378.926.586a9.58,9.58,0,0,1-4.834,1.538,25.454,25.454,0,0,1-2.93.146q-8.13,0-12.488-4.907t-4.358-13.55q0-11.426,7.251-16.187,7.837-5.2,31.567-9.375,0-11.646-6.152-15.6a16.089,16.089,0,0,0-8.936-2.417q-5.713,0-9.009,2.344l-2.783,6.812-.952.513-3.735-.879L361.055-52l.366-8.643q12.085-8.936,18.164-10.107a35.151,35.151,0,0,1,6.665-.513q14.429,0,20.581,7.544,4.468,5.493,4.468,16.846,0,2.783-.22,8.936-.366,10.254-.366,13.7,0,11.06.366,14.1T412.8-6.3q1.355.806,6.482.952l.732.806ZM393.135-17.5V-35.522q-12.085,2.637-16.3,5.676t-4.211,9.265q0,9.961,8.716,9.961Q388.74-10.62,393.135-17.5Zm20.215-83.716q-4.468,17.578-17.065,17.578-3.442,0-11.719-4.1-7.4-3.662-9.888-3.662-5.786,0-8.35,7.251h-4.614l-.513-.732q4.468-17.578,17.065-17.578,3.442,0,11.719,4.1,7.4,3.662,9.888,3.662,5.786,0,8.35-7.251h4.614Zm53.276,5.42a10.994,10.994,0,0,1-3.3,8.02,10.729,10.729,0,0,1-7.91,3.333,10.813,10.813,0,0,1-7.983-3.333,10.994,10.994,0,0,1-3.3-8.02,10.984,10.984,0,0,1,3.333-8.13,10.909,10.909,0,0,1,7.947-3.3,10.825,10.825,0,0,1,7.874,3.3A10.984,10.984,0,0,1,466.626-95.8ZM476.733-.22,476,.513Q469.043,0,455.933,0t-20,.513l-.732-.732V-4.687l.732-.732q7.031-.22,8.716-1.1,1.465-.659,1.611-3.516.513-9.521.513-20.435V-40.942q0-14.209-1.1-16.846-.586-1.465-3.149-1.831-.879-.146-6.372-.366l-.732-.732v-4.1l.732-.806A121.736,121.736,0,0,0,464.5-71.7l1.538.952q-.952,13.33-.952,22.485V-24.9q0,5.347.513,14.868.146,2.856,1.611,3.516,1.685.879,8.716,1.1l.806.732ZM621.958-80.786l-.732.732h-10.4q-.146,11.353-.146,26.367v23.657q0,20.581.952,22.632a2.611,2.611,0,0,0,1.611,1.538,42.019,42.019,0,0,0,7.324.952l.732.732V-.22l-.732.732Q613.389,0,607.6,0q-5.493,0-14.868.513L592.075,0q.293-3.589.293-12.012-2.637,2.2-7.544,6.738a70.2,70.2,0,0,1-7.91,6.738q-2.344,1.1-7.617,1.1a24.8,24.8,0,0,1-20.215-9.448q-7.69-9.448-7.69-24.463,0-14.575,5.933-22.705,1.538-2.124,9.082-7.544,8.789-6.3,12.817-7.983a23.408,23.408,0,0,1,8.936-1.465,31.917,31.917,0,0,1,14.209,3.223v-4.1q0-3.076-.146-8.13H575.083l-.732-.806v-4.614l.732-.806H592q-.366-9.009-1.538-9.924t-8.789-1.208l-.732-.806v-4.028l.732-.806a138.872,138.872,0,0,0,28.345-6.079l1.611.879q0,.513-.293,7.69-.293,8.057-.439,14.282h10.327l.732.806Zm-29.59,42.334v-13.77q-5.273-6.3-10.107-8.057a20.834,20.834,0,0,0-7.031-1.172q-10.107,0-13.037,10.4a48.013,48.013,0,0,0-1.611,12.891q0,15.161,7.1,22.485,3.735,3.882,10.034,3.882a15.959,15.959,0,0,0,9.668-3.3q4.028-2.93,4.761-6.3Q592.368-22.412,592.368-38.452ZM704.092-.439l-.806.806Q697.134,0,689.15,0q-6.226,0-11.938.366l-.659-.806.659-9.814L663,.586a9.58,9.58,0,0,1-4.834,1.538,25.454,25.454,0,0,1-2.93.146q-8.13,0-12.488-4.907t-4.358-13.55q0-11.426,7.251-16.187,7.837-5.2,31.567-9.375,0-11.646-6.152-15.6a16.089,16.089,0,0,0-8.936-2.417q-5.713,0-9.009,2.344l-2.783,6.812-.952.513-3.735-.879L645.132-52l.366-8.643q12.085-8.936,18.164-10.107a35.151,35.151,0,0,1,6.665-.513q14.429,0,20.581,7.544,4.468,5.493,4.468,16.846,0,2.783-.22,8.936-.366,10.254-.366,13.7,0,11.06.366,14.1T696.877-6.3q1.355.806,6.482.952l.732.806ZM677.212-17.5V-35.522q-12.085,2.637-16.3,5.676T656.7-20.581q0,9.961,8.716,9.961Q672.817-10.62,677.212-17.5Zm14.941-85.913a21.7,21.7,0,0,1-6.079,15.088,19.592,19.592,0,0,1-14.722,6.079,19.592,19.592,0,0,1-14.722-6.079,21.7,21.7,0,0,1-6.079-15.088l.732-.732h4.395q2.563,10.84,15.674,10.84t15.674-10.84h4.395ZM680.8,18.091a9.3,9.3,0,0,1-2.783,6.775,9.287,9.287,0,0,1-13.33,0,9.3,9.3,0,0,1-2.783-6.775,9.3,9.3,0,0,1,2.783-6.775,9.035,9.035,0,0,1,6.665-2.82,9.154,9.154,0,0,1,6.665,2.747A9.231,9.231,0,0,1,680.8,18.091ZM778.1-9.229l-3.223,7.251a42.19,42.19,0,0,1-19.629,5.2q-16.333,0-24.976-9.375T721.626-31.86q0-15.088,6.665-22.925a38.2,38.2,0,0,1,6.958-5.786q10.547-7.471,14.1-8.936t10.876-1.465q9.961,0,16.479,3l.732,1.318q-.073.952-1.025,6.812l-.806,4.98q-.22,1.245-.659,9.814l-.732.732h-4.395l-.732-.732a67.71,67.71,0,0,0-1.025-9.082q-3.223-5.713-12.378-5.713-15.527,0-15.527,20.142,0,14.648,6.226,23.071,6.372,8.716,17.944,8.716a24.849,24.849,0,0,0,12.378-3ZM917.974-42.114q0,13.257-6.3,22.925a23.859,23.859,0,0,1-4.907,5.859q-2.2,1.685-9.3,6.665-1.538,1.1-8.276,5.859a21.339,21.339,0,0,1-7.983,3.442,30.316,30.316,0,0,1-6.226.586q-8.643,0-18.384-6.079l-6.812,5.493-3.3-1.172q1.392-23.291,1.392-40.576V-67.9q0-3.809-.366-17.725-.073-3.882-.366-6.958-.366-3.809-3.882-4.468-.806-.146-6.079-.366l-.732-.806v-4.028l.732-.806a140.274,140.274,0,0,0,28.345-6.079l1.611.879q-.952,27.393-.952,42.407v7.764l8.862-7.4a23,23,0,0,1,15.161-5.493q17.725,0,24.536,14.063A33.54,33.54,0,0,1,917.974-42.114Zm-18.823,8.2q0-10.767-4.944-17.212a15.889,15.889,0,0,0-13.293-6.445,18.437,18.437,0,0,0-9.3,2.563,14.489,14.489,0,0,0-5.42,4.907v34.57A17.336,17.336,0,0,0,881.353-7.4a14.871,14.871,0,0,0,13.33-7.471Q899.15-21.973,899.15-33.911ZM968.906-95.8a10.994,10.994,0,0,1-3.3,8.02,10.729,10.729,0,0,1-7.91,3.333,10.813,10.813,0,0,1-7.983-3.333,10.994,10.994,0,0,1-3.3-8.02,10.984,10.984,0,0,1,3.333-8.13,10.909,10.909,0,0,1,7.947-3.3,10.825,10.825,0,0,1,7.874,3.3A10.984,10.984,0,0,1,968.906-95.8ZM979.014-.22l-.732.732Q971.323,0,958.213,0t-20,.513l-.732-.732V-4.687l.732-.732q7.031-.22,8.716-1.1,1.465-.659,1.611-3.516.513-9.521.513-20.435V-40.942q0-14.209-1.1-16.846-.586-1.465-3.149-1.831-.879-.146-6.372-.366l-.732-.732v-4.1l.732-.806A121.736,121.736,0,0,0,966.782-71.7l1.538.952q-.952,13.33-.952,22.485V-24.9q0,5.347.513,14.868.146,2.856,1.611,3.516,1.685.879,8.716,1.1l.806.732Zm81.4-40.869q0,1.245-.073,3.735l-.806,1.025q-9.668,2.637-25.635,2.637-2.856,0-8.643.11t-8.716.11q.439,10.767,6.665,17.8A21.391,21.391,0,0,0,1040.2-8.13q7.031,0,16.7-4.834l1.758,2.124-3.223,7.251a42.394,42.394,0,0,1-23.218,6.812q-16.479,0-25.6-9.3T997.5-32.593q0-20.435,9.741-27.979,13.477-10.4,25.562-10.4,13.11,0,20.288,7.544Q1060.415-55.664,1060.415-41.089Zm-19.116-1.9q0-19.775-12.3-19.775-12.964,0-12.964,19.629v1.611a114.966,114.966,0,0,0,15.088.659,69.759,69.759,0,0,0,10.107-.659Q1041.3-42.554,1041.3-42.993Zm11.865-39.038-.22.732h-5.64L1030.239-98.95,1013.174-81.3h-5.64l-.22-.732,16.479-26.514h12.891ZM1041.885,18.091a9.3,9.3,0,0,1-2.783,6.775,9.287,9.287,0,0,1-13.33,0,9.3,9.3,0,0,1-2.783-6.775,9.3,9.3,0,0,1,2.783-6.775,9.035,9.035,0,0,1,6.665-2.82,9.154,9.154,0,0,1,6.665,2.747A9.231,9.231,0,0,1,1041.885,18.091Zm80.083-27.686q-.513.586-3.149,3.076-4.321,4.1-7.4,7.471a23.229,23.229,0,0,1-7.251,1.172q-10.181,0-14.868-5.933a13.945,13.945,0,0,1-2.637-5.933,57.547,57.547,0,0,1-.659-10.547l.22-17.5V-56.1h-1.978l-3.882.146h-3l-.806-.659v-1.9l.586-1.1q1.318-.879,4.1-2.637a48.1,48.1,0,0,0,4.98-3.442v-9.961q0-6.226-.586-13.184,5.493-1.758,8.9-3.113t9.631-4.431l1.9,1.465q-.879,9.082-1.245,16.26l-.659,12.671h2.417q7.983,0,13.77-.513l.806.806-1.025,8.569-.732.732H1104.17v24.829q0,11.938.293,14.063a7.454,7.454,0,0,0,2.6,4.98,9.007,9.007,0,0,0,6.042,1.9,21.105,21.105,0,0,0,7.251-1.611Z" transform="translate(-2.649 109.673)" fill="none" stroke="#955c2a" stroke-width="1" opacity="0.4"/>
</svg>
