<svg xmlns="http://www.w3.org/2000/svg" width="994.735" height="150.677" viewBox="0 0 994.735 150.677">
  <path id="text_harleysspace" d="M-412.639-.293l-.732.806Q-421.428,0-426.995,0q-5.127,0-14.941.513l-.732-.732q1.318-16.333,1.318-25.2V-39.771q0-17.871-12.891-17.871-6.885,0-10.693,4.761a15.127,15.127,0,0,0-3.076,9.814v8.643q0,14.868.513,24.39.146,2.856,1.611,3.516,1.685.879,8.716,1.1l.806.732V-.22l-.732.732Q-464.055,0-477.166,0t-20,.513l-.732-.732V-4.687l.732-.732q7.031-.22,8.716-1.1,1.465-.659,1.611-3.516.513-9.521.513-33.325V-67.9q0-15.381-.513-24.9-.146-2.71-1.611-3.552t-8.5-1.062l-.732-.806v-4.028l.732-.806a144.205,144.205,0,0,0,28.345-6.079l1.538.879q0,1.978-.22,7.251-.732,17.5-.732,38.745v4.1l12.891-10.84a27.79,27.79,0,0,1,10.62-1.978q11.646,0,17.432,7.031,4.688,5.713,4.688,16.772,0,1.245-.293,8.936t-.293,13.989q0,11.06.366,14.1t1.685,3.845q1.318.806,7.617.952l.659.732Zm82.207-.146-.806.806Q-337.39,0-345.374,0q-6.226,0-11.938.366l-.659-.806.659-9.814L-371.521.586a9.58,9.58,0,0,1-4.834,1.538,25.454,25.454,0,0,1-2.93.146q-8.13,0-12.488-4.907t-4.358-13.55q0-11.426,7.251-16.187,7.837-5.2,31.567-9.375,0-11.646-6.152-15.6a16.089,16.089,0,0,0-8.936-2.417q-5.713,0-9.009,2.344l-2.783,6.812-.952.513-3.735-.879L-389.392-52l.366-8.643q12.085-8.936,18.164-10.107a35.151,35.151,0,0,1,6.665-.513q14.429,0,20.581,7.544,4.468,5.493,4.468,16.846,0,2.783-.22,8.936-.366,10.254-.366,13.7,0,11.06.366,14.1t1.721,3.845q1.355.806,6.482.952l.732.806ZM-357.312-17.5V-35.522q-12.085,2.637-16.3,5.676t-4.211,9.265q0,9.961,8.716,9.961Q-361.707-10.62-357.312-17.5Zm96.05-53.247-.513,13.037q-.073,3.223-.293,7.324l-3.076.952a10.949,10.949,0,0,0-9.521-4.98,11.234,11.234,0,0,0-9.082,4.395q-2.2,2.71-2.2,7.983V-24.9q0,5.347.513,14.868.146,2.71,1.538,3.516t10.181,1.1l.732.659V-.293l-.732.732Q-284.48,0-295.1,0q-13.11,0-20,.513l-.732-.732V-4.687l.732-.732q7.031-.22,8.716-1.1,1.465-.659,1.611-3.516.513-9.521.513-20.435V-40.942q0-14.648-1.1-16.846a3.868,3.868,0,0,0-3.149-1.831q-.879-.146-6.372-.366l-.732-.732v-4.1l.732-.806A126.081,126.081,0,0,0-287.117-71.7l1.611.952-.146,14.355q4.541-5.273,10.986-12.3a11.244,11.244,0,0,1,8.2-2.93A13.618,13.618,0,0,1-261.262-70.752ZM-207.839-.22l-.732.732Q-215.53,0-228.64,0t-20,.513l-.732-.732V-4.687l.732-.732q7.031-.22,8.716-1.1,1.465-.659,1.611-3.516.513-9.521.513-33.325V-67.9q0-15.381-.513-24.9-.146-2.71-1.611-3.552t-8.5-1.062l-.732-.806v-4.028l.732-.806a144.205,144.205,0,0,0,28.345-6.079l1.538.879q0,1.978-.22,7.251-.732,17.5-.732,38.745v18.9q0,23.8.513,33.325.146,2.856,1.611,3.516,1.685.879,8.716,1.1l.806.732Zm81.4-40.869q0,1.245-.073,3.735l-.806,1.025q-9.668,2.637-25.635,2.637-2.856,0-8.643.11t-8.716.11q.439,10.767,6.665,17.8A21.391,21.391,0,0,0-146.653-8.13q7.031,0,16.7-4.834l1.758,2.124-3.223,7.251a42.394,42.394,0,0,1-23.218,6.812q-16.479,0-25.6-9.3t-9.119-26.514q0-20.435,9.741-27.979,13.477-10.4,25.562-10.4,13.11,0,20.288,7.544Q-126.438-55.664-126.438-41.089Zm-19.116-1.9q0-19.775-12.3-19.775-12.964,0-12.964,19.629v1.611a114.966,114.966,0,0,0,15.088.659,69.759,69.759,0,0,0,10.107-.659Q-145.554-42.554-145.554-42.993Zm113.7-20.947-.659.659q-4.834,0-6.592,2.783-.952,1.611-5.2,10.767Q-53.9-28.857-60.2-13.257L-71.99,15.894q-5.493,13.55-11.792,19.263a20.881,20.881,0,0,1-14.5,5.347,22.878,22.878,0,0,1-10.474-2.563q1.245-5.2,2.563-14.575l1.9-.366a11.983,11.983,0,0,0,10.327,5.42q7.69,0,14.136-15.015l3-7.031-23.73-61.67q-2.051-5.347-3.772-6.628t-6.775-1.355l-.732-.732v-4.395l.806-.732q4.688.22,17.944.22,12.3,0,20-.22l.732.732v4.395l-.732.732q-8.35,0-8.35,3a9.305,9.305,0,0,0,.732,3.223q1.172,3.369,3.589,10.034L-66.423-18.75-59.978-34.2q9.448-22.632,9.448-26.44,0-2.637-8.5-2.637l-.732-.732v-4.395l.806-.732q4.248.22,14.355.22,5.713,0,11.938-.22l.806.732ZM38.708-23a23.269,23.269,0,0,1-8.9,19.006q-8.9,7.214-23.254,7.214A62.01,62.01,0,0,1-15.271-1.172l-.806-1.1q.659-6.738.806-10.474l.366-9.229.732-.806h4.321l.879.806A77.819,77.819,0,0,0-8.313-12.3,19.725,19.725,0,0,0,8.02-4.321q6.445,0,10.327-3.149a10.292,10.292,0,0,0,3.882-8.423q0-6.665-5.859-8.862a77.8,77.8,0,0,0-9.888-2.49Q-5.6-29.81-9.7-33.105q-6.226-4.98-6.226-14.722,0-10.62,7.69-17.065,8.057-6.738,21.826-6.738,11.719,0,19.482,3.955l.659,1.172q-.806,3.3-1.245,16.919l-.806.732H27.5l-.806-.732a54.884,54.884,0,0,0-1.025-8.569q-4.614-5.859-13.4-5.859A15.062,15.062,0,0,0,2.893-61.23,8.762,8.762,0,0,0-.769-53.906q0,6.079,6.226,8.13,2.783.879,10.84,2.49,12.3,2.417,16.26,5.566Q38.708-32.812,38.708-23Zm119.077,0a23.269,23.269,0,0,1-8.9,19.006q-8.9,7.214-23.254,7.214a62.01,62.01,0,0,1-21.826-4.395L103-2.271q.659-6.738.806-10.474l.366-9.229.732-.806h4.321l.879.806a77.819,77.819,0,0,0,.659,9.668A19.725,19.725,0,0,0,127.1-4.321q6.445,0,10.327-3.149a10.292,10.292,0,0,0,3.882-8.423q0-6.665-5.859-8.862a77.8,77.8,0,0,0-9.888-2.49q-12.085-2.563-16.187-5.859-6.226-4.98-6.226-14.722,0-10.62,7.69-17.065,8.057-6.738,21.826-6.738,11.719,0,19.482,3.955l.659,1.172q-.806,3.3-1.245,16.919l-.806.732H146.58l-.806-.732a54.884,54.884,0,0,0-1.025-8.569q-4.614-5.859-13.4-5.859a15.062,15.062,0,0,0-9.375,2.783,8.762,8.762,0,0,0-3.662,7.324q0,6.079,6.226,8.13,2.783.879,10.84,2.49,12.3,2.417,16.26,5.566Q157.786-32.812,157.786-23ZM255.081-42.48a46.65,46.65,0,0,1-3.223,17.212,32.386,32.386,0,0,1-6.152,10.181,50.3,50.3,0,0,1-6.3,5.273q-4.834,3.882-12.085,9.375a19.542,19.542,0,0,1-10.986,2.856A36.7,36.7,0,0,1,203.591.073V27.539q0,3.369.806,4.468a3.514,3.514,0,0,0,1.978.952q1.172.293,9.375.879l.806.732v4.541l-.732.732q-9.888-.586-22.485-.586-9.229,0-18.457.586l-.732-.732V34.717l.732-.806q7.4-.22,8.5-1.172a2.587,2.587,0,0,0,.879-1.392,65.873,65.873,0,0,0,.586-7.178q.22-4.395.293-11.206l.146-11.353V-40.942q0-.732-.439-10.84a23.52,23.52,0,0,0-.769-6.116q-.549-1.355-3.04-1.721-.879-.146-6.445-.366l-.732-.732v-4.1l.732-.806A122.807,122.807,0,0,0,202.932-71.7l1.611.952q0,3.149-.659,12.671,4.907-4.1,12.378-10.181,3.589-2.71,11.06-2.71,18.164,0,24.756,13.916A33.808,33.808,0,0,1,255.081-42.48Zm-18.823,9.009q0-15.967-8.423-21.533a16.724,16.724,0,0,0-9.3-2.93,18.381,18.381,0,0,0-14.941,7.4v36.328q6.665,7.031,14.648,7.031,11.938,0,15.967-12.378A44.325,44.325,0,0,0,236.257-33.472ZM341.1-.439l-.806.806Q334.138,0,326.155,0q-6.226,0-11.938.366l-.659-.806.659-9.814L300.007.586a9.58,9.58,0,0,1-4.834,1.538,25.454,25.454,0,0,1-2.93.146q-8.13,0-12.488-4.907T275.4-16.187q0-11.426,7.251-16.187,7.837-5.2,31.567-9.375,0-11.646-6.152-15.6a16.089,16.089,0,0,0-8.936-2.417q-5.713,0-9.009,2.344l-2.783,6.812-.952.513-3.735-.879L282.136-52l.366-8.643q12.085-8.936,18.164-10.107a35.151,35.151,0,0,1,6.665-.513q14.429,0,20.581,7.544,4.468,5.493,4.468,16.846,0,2.783-.22,8.936-.366,10.254-.366,13.7,0,11.06.366,14.1T333.882-6.3q1.355.806,6.482.952l.732.806ZM314.216-17.5V-35.522q-12.085,2.637-16.3,5.676t-4.211,9.265q0,9.961,8.716,9.961Q309.822-10.62,314.216-17.5ZM415.1-9.229l-3.223,7.251a42.19,42.19,0,0,1-19.629,5.2q-16.333,0-24.976-9.375T358.63-31.86q0-15.088,6.665-22.925a38.2,38.2,0,0,1,6.958-5.786q10.547-7.471,14.1-8.936t10.876-1.465q9.961,0,16.479,3l.732,1.318q-.073.952-1.025,6.812l-.806,4.98q-.22,1.245-.659,9.814l-.732.732h-4.395l-.732-.732a67.71,67.71,0,0,0-1.025-9.082q-3.223-5.713-12.378-5.713-15.527,0-15.527,20.142,0,14.648,6.226,23.071,6.372,8.716,17.944,8.716a24.849,24.849,0,0,0,12.378-3Zm80.742-31.86q0,1.245-.073,3.735l-.806,1.025q-9.668,2.637-25.635,2.637-2.856,0-8.643.11t-8.716.11q.439,10.767,6.665,17.8A21.391,21.391,0,0,0,475.627-8.13q7.031,0,16.7-4.834l1.758,2.124-3.223,7.251a42.394,42.394,0,0,1-23.218,6.812q-16.479,0-25.6-9.3t-9.119-26.514q0-20.435,9.741-27.979,13.477-10.4,25.562-10.4,13.11,0,20.288,7.544Q495.842-55.664,495.842-41.089Zm-19.116-1.9q0-19.775-12.3-19.775-12.964,0-12.964,19.629v1.611a114.966,114.966,0,0,0,15.088.659,69.759,69.759,0,0,0,10.107-.659Q476.726-42.554,476.726-42.993Z" transform="translate(498.393 109.674)" fill="none" stroke="#955c2a" stroke-width="1" opacity="0.4"/>
</svg>
