<svg xmlns="http://www.w3.org/2000/svg" width="1262.787" height="151.177" viewBox="0 0 1262.787 151.177">
  <path id="text_danhsachphong" d="M87.891-.22l-.732.732Q79.98,0,74.194,0,68.7,0,59.326.513L58.667,0q.293-3.589.293-12.012-2.637,2.2-7.544,6.738a70.2,70.2,0,0,1-7.91,6.738q-2.344,1.1-7.617,1.1A24.8,24.8,0,0,1,15.674-6.885q-7.69-9.448-7.69-24.463,0-14.575,5.933-22.705Q15.454-56.177,23-61.6q8.789-6.3,12.817-7.983a23.408,23.408,0,0,1,8.936-1.465A31.917,31.917,0,0,1,58.96-67.822v-4.1q0-19.263-.952-22.705a3.337,3.337,0,0,0-3-2.344q-1.172-.22-6.738-.439l-.732-.806v-4.028l.732-.806a138.872,138.872,0,0,0,28.345-6.079l1.611.879q0,.293-.293,7.251-.659,15.747-.659,47.314v23.657q0,20.581.952,22.632a2.611,2.611,0,0,0,1.611,1.538,42.019,42.019,0,0,0,7.324.952l.732.732ZM58.96-38.452v-13.77q-5.273-6.3-10.107-8.057a20.834,20.834,0,0,0-7.031-1.172q-10.107,0-13.037,10.4a48.013,48.013,0,0,0-1.611,12.891q0,15.161,7.1,22.485,3.735,3.882,10.034,3.882a15.959,15.959,0,0,0,9.668-3.3q4.028-2.93,4.761-6.3Q58.96-22.412,58.96-38.452ZM170.684-.439l-.806.806Q163.726,0,155.742,0,149.517,0,143.8.366l-.659-.806.659-9.814L129.595.586a9.58,9.58,0,0,1-4.834,1.538,25.454,25.454,0,0,1-2.93.146q-8.13,0-12.488-4.907t-4.358-13.55q0-11.426,7.251-16.187,7.837-5.2,31.567-9.375,0-11.646-6.152-15.6a16.089,16.089,0,0,0-8.936-2.417q-5.713,0-9.009,2.344l-2.783,6.812-.952.513-3.735-.879L111.724-52l.366-8.643q12.085-8.936,18.164-10.107a35.151,35.151,0,0,1,6.665-.513q14.429,0,20.581,7.544,4.468,5.493,4.468,16.846,0,2.783-.22,8.936-.366,10.254-.366,13.7,0,11.06.366,14.1T163.469-6.3q1.355.806,6.482.952l.732.806ZM143.8-17.5V-35.522q-12.085,2.637-16.3,5.676T123.3-20.581q0,9.961,8.716,9.961Q139.409-10.62,143.8-17.5ZM270.1-.293l-.732.806Q261.313,0,255.747,0q-5.127,0-14.941.513l-.732-.732q1.318-16.333,1.318-25.2V-39.771q0-17.871-12.891-17.871-6.738,0-10.547,4.614a12.258,12.258,0,0,0-3.223,7.837v13.7q0,18.97.952,23.291.586,2.563,8.5,2.71l.732.732V-.293l-.732.732Q217.954,0,205.576,0q-13.11,0-20,.513l-.732-.732V-4.687l.732-.732q7.031-.22,8.716-1.1,1.465-.659,1.611-3.516.513-9.521.513-20.435V-40.942q0-14.648-1.1-16.846a3.868,3.868,0,0,0-3.149-1.831q-.879-.146-6.372-.366l-.732-.732v-4.1l.732-.806A126.081,126.081,0,0,0,213.56-71.7l1.611.952-.146,12.3,12.6-10.547a27.79,27.79,0,0,1,10.62-1.978q11.646,0,17.432,7.031,4.688,5.713,4.688,16.772,0,1.245-.293,10.181t-.293,12.744q0,11.06.366,14.1T261.826-6.3q1.318.806,7.617.952l.659.732Zm99.126,0L368.5.513Q360.439,0,354.873,0q-5.127,0-14.941.513L339.2-.22q1.318-16.333,1.318-25.2V-39.771q0-17.871-12.891-17.871-6.885,0-10.693,4.761a15.127,15.127,0,0,0-3.076,9.814v8.643q0,14.868.513,24.39.146,2.856,1.611,3.516,1.685.879,8.716,1.1l.806.732V-.22l-.732.732Q317.813,0,304.7,0t-20,.513l-.732-.732V-4.687l.732-.732q7.031-.22,8.716-1.1,1.465-.659,1.611-3.516.513-9.521.513-33.325V-67.9q0-15.381-.513-24.9-.146-2.71-1.611-3.552t-8.5-1.062l-.732-.806v-4.028l.732-.806a144.205,144.205,0,0,0,28.345-6.079l1.538.879q0,1.978-.22,7.251-.732,17.5-.732,38.745v4.1l12.891-10.84a27.79,27.79,0,0,1,10.62-1.978q11.646,0,17.432,7.031,4.688,5.713,4.688,16.772,0,1.245-.293,8.936T358.9-24.243q0,11.06.366,14.1T360.952-6.3q1.318.806,7.617.952l.659.732ZM486.328-23a23.269,23.269,0,0,1-8.9,19.006q-8.9,7.214-23.254,7.214a62.01,62.01,0,0,1-21.826-4.395l-.806-1.1q.659-6.738.806-10.474l.366-9.229.732-.806h4.321l.879.806a77.819,77.819,0,0,0,.659,9.668A19.725,19.725,0,0,0,455.64-4.321q6.445,0,10.327-3.149a10.292,10.292,0,0,0,3.882-8.423q0-6.665-5.859-8.862a77.8,77.8,0,0,0-9.888-2.49q-12.085-2.563-16.187-5.859-6.226-4.98-6.226-14.722,0-10.62,7.69-17.065,8.057-6.738,21.826-6.738,11.719,0,19.482,3.955l.659,1.172q-.806,3.3-1.245,16.919l-.806.732h-4.175l-.806-.732a54.884,54.884,0,0,0-1.025-8.569q-4.614-5.859-13.4-5.859a15.062,15.062,0,0,0-9.375,2.783,8.762,8.762,0,0,0-3.662,7.324q0,6.079,6.226,8.13,2.783.879,10.84,2.49,12.3,2.417,16.26,5.566Q486.328-32.812,486.328-23ZM570.513-.439l-.806.806Q563.555,0,555.571,0q-6.226,0-11.938.366l-.659-.806.659-9.814L529.424.586a9.58,9.58,0,0,1-4.834,1.538,25.454,25.454,0,0,1-2.93.146q-8.13,0-12.488-4.907t-4.358-13.55q0-11.426,7.251-16.187,7.837-5.2,31.567-9.375,0-11.646-6.152-15.6a16.089,16.089,0,0,0-8.936-2.417q-5.713,0-9.009,2.344l-2.783,6.812-.952.513-3.735-.879L511.553-52l.366-8.643Q524-69.58,530.083-70.752a35.151,35.151,0,0,1,6.665-.513q14.429,0,20.581,7.544,4.468,5.493,4.468,16.846,0,2.783-.22,8.936-.366,10.254-.366,13.7,0,11.06.366,14.1T563.3-6.3q1.355.806,6.482.952l.732.806ZM543.633-17.5V-35.522q-12.085,2.637-16.3,5.676t-4.211,9.265q0,9.961,8.716,9.961Q539.238-10.62,543.633-17.5Zm12.891-90.454L532.5-79.761l-4.1-2.2v-.952l10.254-24.976,16.04-2.124Zm87.993,98.73-3.223,7.251a42.19,42.19,0,0,1-19.629,5.2q-16.333,0-24.976-9.375T588.047-31.86q0-15.088,6.665-22.925a38.2,38.2,0,0,1,6.958-5.786q10.547-7.471,14.1-8.936t10.876-1.465q9.961,0,16.479,3l.732,1.318q-.073.952-1.025,6.812l-.806,4.98q-.22,1.245-.659,9.814l-.732.732H636.24l-.732-.732a67.71,67.71,0,0,0-1.025-9.082q-3.223-5.713-12.378-5.713-15.527,0-15.527,20.142,0,14.648,6.226,23.071,6.372,8.716,17.944,8.716a24.849,24.849,0,0,0,12.378-3ZM744.009-.293l-.732.806Q735.22,0,729.653,0q-5.127,0-14.941.513l-.732-.732q1.318-16.333,1.318-25.2V-39.771q0-17.871-12.891-17.871-6.885,0-10.693,4.761a15.127,15.127,0,0,0-3.076,9.814v8.643q0,14.868.513,24.39.146,2.856,1.611,3.516,1.685.879,8.716,1.1l.806.732V-.22l-.732.732Q692.593,0,679.482,0t-20,.513l-.732-.732V-4.687l.732-.732q7.031-.22,8.716-1.1,1.465-.659,1.611-3.516.513-9.521.513-33.325V-67.9q0-15.381-.513-24.9-.146-2.71-1.611-3.552t-8.5-1.062l-.732-.806v-4.028l.732-.806a144.205,144.205,0,0,0,28.345-6.079l1.538.879q0,1.978-.22,7.251-.732,17.5-.732,38.745v4.1l12.891-10.84a27.79,27.79,0,0,1,10.62-1.978q11.646,0,17.432,7.031,4.688,5.713,4.688,16.772,0,1.245-.293,8.936t-.293,13.989q0,11.06.366,14.1T735.732-6.3q1.318.806,7.617.952l.659.732ZM884.326-42.48A46.65,46.65,0,0,1,881.1-25.269a32.386,32.386,0,0,1-6.152,10.181,50.3,50.3,0,0,1-6.3,5.273q-4.834,3.882-12.085,9.375a19.542,19.542,0,0,1-10.986,2.856A36.7,36.7,0,0,1,832.837.073V27.539q0,3.369.806,4.468a3.514,3.514,0,0,0,1.978.952q1.172.293,9.375.879l.806.732v4.541l-.732.732q-9.888-.586-22.485-.586-9.229,0-18.457.586l-.732-.732V34.717l.732-.806q7.4-.22,8.5-1.172a2.587,2.587,0,0,0,.879-1.392,65.873,65.873,0,0,0,.586-7.178q.22-4.395.293-11.206l.146-11.353V-40.942q0-.732-.439-10.84a23.52,23.52,0,0,0-.769-6.116q-.549-1.355-3.04-1.721-.879-.146-6.445-.366l-.732-.732v-4.1l.732-.806A122.807,122.807,0,0,0,832.178-71.7l1.611.952q0,3.149-.659,12.671,4.907-4.1,12.378-10.181,3.589-2.71,11.06-2.71,18.164,0,24.756,13.916A33.808,33.808,0,0,1,884.326-42.48ZM865.5-33.472q0-15.967-8.423-21.533a16.724,16.724,0,0,0-9.3-2.93,18.381,18.381,0,0,0-14.941,7.4v36.328q6.665,7.031,14.648,7.031,11.938,0,15.967-12.378A44.325,44.325,0,0,0,865.5-33.472ZM987.261-.293l-.732.806Q978.472,0,972.905,0q-5.127,0-14.941.513l-.732-.732q1.318-16.333,1.318-25.2V-39.771q0-17.871-12.891-17.871-6.885,0-10.693,4.761a15.127,15.127,0,0,0-3.076,9.814v8.643q0,14.868.513,24.39.146,2.856,1.611,3.516,1.685.879,8.716,1.1l.806.732V-.22L942.8.513Q935.845,0,922.734,0t-20,.513l-.732-.732V-4.687l.732-.732q7.031-.22,8.716-1.1,1.465-.659,1.611-3.516.513-9.521.513-33.325V-67.9q0-15.381-.513-24.9-.146-2.71-1.611-3.552t-8.5-1.062l-.732-.806v-4.028l.732-.806a144.205,144.205,0,0,0,28.345-6.079l1.538.879q0,1.978-.22,7.251-.732,17.5-.732,38.745v4.1l12.891-10.84a27.79,27.79,0,0,1,10.62-1.978q11.646,0,17.432,7.031,4.688,5.713,4.688,16.772,0,1.245-.293,8.936t-.293,13.989q0,11.06.366,14.1T978.984-6.3q1.318.806,7.617.952l.659.732Zm88.066-36.035q0,25.928-17.432,35.083a41.076,41.076,0,0,1-19.409,4.468q-16.846,0-25.671-9.741t-8.826-27.905q0-25.122,17.139-33.472a44.161,44.161,0,0,1,19.556-4.1q23.364,0,30.981,16.187Q1075.327-48.047,1075.327-36.328Zm-20.288,6.006q0-18.237-3.992-26.111t-12.195-7.874q-14.575,0-14.575,26.294,0,33.765,16.333,33.765,10.181,0,12.964-11.206A62.768,62.768,0,0,0,1055.039-30.322Zm-5.273-51.636-4.1,2.2-24.023-28.2,1.831-2.051,16.04,2.124,10.254,24.976ZM1177.31-.293l-.732.806Q1168.521,0,1162.954,0q-5.127,0-14.941.513l-.732-.732q1.318-16.333,1.318-25.2V-39.771q0-17.871-12.891-17.871-6.738,0-10.547,4.614a12.258,12.258,0,0,0-3.223,7.837v13.7q0,18.97.952,23.291.586,2.563,8.5,2.71l.732.732V-.293l-.732.732Q1125.161,0,1112.783,0q-13.11,0-20,.513l-.732-.732V-4.687l.732-.732q7.031-.22,8.716-1.1,1.465-.659,1.611-3.516.513-9.521.513-20.435V-40.942q0-14.648-1.1-16.846a3.868,3.868,0,0,0-3.149-1.831q-.879-.146-6.372-.366l-.732-.732v-4.1l.732-.806a126.081,126.081,0,0,0,27.759-6.079l1.611.952-.146,12.3,12.6-10.547a27.79,27.79,0,0,1,10.62-1.978q11.646,0,17.432,7.031,4.688,5.713,4.688,16.772,0,1.245-.293,10.181t-.293,12.744q0,11.06.366,14.1t1.685,3.845q1.318.806,7.617.952l.659.732Zm92.461,5.347q0,16.04-11.975,25.562t-31.311,9.521q-15.161,0-23.987-5.676t-8.826-15.271q0-6.445,2.856-9.741.293-.366,7.764-4.834,3.589-2.124,5.273-3-10.107-1.758-10.107-9.741a15.556,15.556,0,0,1,2.93-8.643,47.285,47.285,0,0,1,3.955-2.93q1.758-1.245,6.226-4.468-15.82-5.713-15.82-21.167,0-11.938,8.936-19.226t23.8-7.288q14.355,0,22.485,6.372,4.614.22,5.933.146,3.589-.146,10.84-.366l.879.806-.806,7.544-.806.732h-10.84a27.337,27.337,0,0,1,.952,7.178q0,17.432-16.919,23.8a42.562,42.562,0,0,1-15.015,2.856q-2.49,0-6.445-.366-4.614,2.49-4.614,6.519,0,3.735,5.347,4.248,3.076.293,10.254.293,2.271,0,7.91-.22t8.35-.22q16.553,0,20.581,7.324A21.007,21.007,0,0,1,1269.771,5.054Zm-30.1-51.2q0-18.457-12.378-18.457-12.158,0-12.158,15.967,0,18.9,12.671,18.9Q1239.668-29.736,1239.668-46.143ZM1253,13.4q0-7.983-5.566-10.034-2.344-.879-9.375-.952l-13.916-.146q-2.344,0-6.445.146-10.034,6.226-10.034,14.282a13.464,13.464,0,0,0,5.933,11.609q5.933,4.211,15.894,4.211,10.693,0,17.1-5.164A16.977,16.977,0,0,0,1253,13.4Z" transform="translate(-7.483 110.54)" fill="none" stroke="#955c2a" stroke-width="1" opacity="0.4"/>
</svg>
